<?xml version="1.0" encoding="utf-8"?>
<!-- Generator: Adobe Illustrator 27.5.0, SVG Export Plug-In . SVG Version: 6.00 Build 0)  -->
<svg version="1.1" id="Layer_1" xmlns="http://www.w3.org/2000/svg" xmlns:xlink="http://www.w3.org/1999/xlink" x="0px" y="0px"
	 viewBox="0 0 295.846 312.458" style="enable-background:new 0 0 295.846 312.458;" xml:space="preserve">
<g>
	<g>
		<g>
			<g>
				<g>
					<g>
						<path style="fill:#B56D51;" d="M262.173,190.321c-3.068-9.767-13.933-14.619-24.089-10.87
							c-5.809,2.144-10.024,7.479-12.387,12.719c-1.377,3.054-2.158,6.369-2.561,9.661c-2.086,5.908-3.044,12.384-2.606,18.537
							c0.311,4.358,0.957,12.338,5.738,14.676c4.661,2.28,11.988-1.542,15.908-3.827c4.976-2.9,9.067-6.957,12.383-11.458
							C260.803,211.284,265.417,200.646,262.173,190.321z"/>
						<path style="opacity:0.39;fill:#A5653F;" d="M231.18,235.631c0.629-2.199,1.229-4.407,1.79-6.624
							c2.238-8.842,3.95-17.856,4.626-26.956c0.543-7.318,0.436-14.766-0.908-22.001c-5.089,2.429-8.822,7.311-10.991,12.12
							c-1.377,3.054-2.158,6.369-2.561,9.661c-2.086,5.908-3.044,12.384-2.606,18.537c0.311,4.358,0.957,12.338,5.738,14.676
							C227.71,235.748,229.408,235.867,231.18,235.631z"/>
						<path style="opacity:0.67;fill:#EB936D;" d="M257.332,190.658c-1.131-1.846-3.179-2.926-5.304-3.183
							c-4.889-0.592-9.884,2.834-12.95,6.281c-6.824,7.672-8.023,18.726-8.345,28.509c-0.019,0.572,0.828,0.169,0.887-0.23
							c0.232-1.578,0.467-3.182,0.725-4.793c0.201,1.151,0.494,2.28,0.784,3.292c0.569,1.987,1.836,3.746,4.068,3.85
							c5.387,0.251,9.072-6.112,11.65-9.756c0.242-0.342-0.303-0.437-0.506-0.204c-2.41,2.772-4.898,6.404-8.507,7.746
							c-2.905,1.08-4.213-0.995-5.022-3.361c-0.667-1.95-1.717-4.208-1.289-6.287c0.059-0.288-0.055-0.437-0.23-0.488
							c0.997-4.777,2.415-9.467,4.85-13.632c2.115-3.617,5.337-6.922,9.463-8.235c2.809-0.894,5.883-0.448,7.636,2.091
							c1.638,2.371,1.16,5.514,1.571,8.234c0.049,0.323,0.572,0.009,0.582-0.217C257.543,197.073,259.183,193.678,257.332,190.658z"
							/>
					</g>
					<g>
						<path style="fill:#B56D51;" d="M53.803,219.758c3.316,4.501,7.407,8.558,12.383,11.458c3.92,2.284,11.247,6.106,15.908,3.827
							c4.781-2.338,5.427-10.318,5.738-14.676c0.439-6.153-0.52-12.629-2.606-18.537c-0.403-3.292-1.183-6.607-2.56-9.661
							c-2.363-5.24-6.578-10.575-12.387-12.719c-10.156-3.749-21.021,1.103-24.089,10.87
							C42.946,200.646,47.56,211.284,53.803,219.758z"/>
						<path style="opacity:0.39;fill:#A5653F;" d="M77.183,235.631c-0.629-2.199-1.229-4.407-1.79-6.624
							c-2.238-8.842-3.95-17.856-4.626-26.956c-0.543-7.318-0.436-14.766,0.908-22.001c5.089,2.429,8.822,7.311,10.991,12.12
							c1.377,3.054,2.158,6.369,2.56,9.661c2.086,5.908,3.044,12.384,2.606,18.537c-0.311,4.358-0.957,12.338-5.738,14.676
							C80.652,235.748,78.955,235.867,77.183,235.631z"/>
						<path style="opacity:0.67;fill:#EB936D;" d="M51.03,190.658c1.131-1.846,3.18-2.926,5.304-3.183
							c4.889-0.592,9.884,2.834,12.95,6.281c6.824,7.672,8.023,18.726,8.345,28.509c0.019,0.572-0.828,0.169-0.887-0.23
							c-0.232-1.578-0.467-3.182-0.725-4.793c-0.201,1.151-0.494,2.28-0.784,3.292c-0.569,1.987-1.836,3.746-4.068,3.85
							c-5.387,0.251-9.072-6.112-11.65-9.756c-0.242-0.342,0.303-0.437,0.506-0.204c2.41,2.772,4.898,6.404,8.507,7.746
							c2.905,1.08,4.213-0.995,5.022-3.361c0.666-1.95,1.717-4.208,1.289-6.287c-0.059-0.288,0.055-0.437,0.23-0.488
							c-0.997-4.777-2.415-9.467-4.85-13.632c-2.115-3.617-5.337-6.922-9.463-8.235c-2.81-0.894-5.883-0.448-7.636,2.091
							c-1.638,2.371-1.16,5.514-1.571,8.234c-0.049,0.323-0.572,0.009-0.582-0.217C50.819,197.073,49.18,193.678,51.03,190.658z"/>
					</g>
					<path style="fill:#B56D51;" d="M240.002,155.892c1.553-17.464,2.537-34.964,1.269-52.496
						c-0.848-11.724-3.172-24.34-11.954-32.366c-4.012-3.666-9.059-6.049-14.144-8.077c-28.487-11.363-63.554-14-93.268-5.664
						c-14.393,4.038-27.771,11.157-39.726,19.973c-4.738,3.494-9.081,7.406-12.182,11.886c-0.631,1.425-1.164,2.892-1.567,4.394
						c-0.516,1.922-0.644,3.913-0.775,5.89c-2.127,32.074,0.993,64.215,5.789,95.934c2.058,13.614,4.676,27.097,6.778,40.743
						c2.105,13.666,4.081,31.656,15.212,41.223c6.16,5.294,13.062,9.673,19.942,14.005c6.711,4.226,13.194,8.995,20.442,12.324
						c9.017,4.142,19.724,5.358,29.537,2.712c10.306-2.779,18.897-9.469,27.738-15.036c6.88-4.332,13.782-8.711,19.942-14.005
						c2.7-2.321,4.994-4.866,6.725-7.963c1.662-2.974,2.831-6.188,3.73-9.454c6.981-25.348,11.395-51.426,13.938-77.547
						C238.286,173.551,239.217,164.726,240.002,155.892z"/>
					<path style="opacity:0.23;fill:#EA95A2;" d="M180.333,250.567c-3.299-0.317-6.586-0.669-9.898-0.854
						c-6.576-0.368-13.171-0.341-19.748-0.001c-3.183,0.164-6.388,0.34-9.555,0.704c-1.068,0.123-2.255,0.451-3.344,0.712
						c-3.449,0.826-6.91,1.701-10.441,2.099c-1.375,0.155-2.801,0.253-4.178,0.037c2.319,4.668,6.66,7.727,11.423,9.575
						c2.47,0.959,5.043,1.635,7.638,2.157c2.449,0.493,4.931,0.894,7.421,1.099c5.072,0.417,10.22,0.08,15.203-0.944
						c5.091-1.046,10.083-2.821,14.51-5.573c3.412-2.121,6.434-4.853,8.692-8.158C185.473,251.313,182.903,250.813,180.333,250.567z
						"/>
					<path style="opacity:0.39;fill:#A5653F;" d="M148.633,229.972c-3.413-0.475-6.713-1.477-9.883-2.781
						c0.259,1.31,0.888,2.552,1.798,3.636c1.545,1.839,3.654,3.214,5.887,4.129c2.055,0.841,4.386,1.392,6.622,1.113
						c2.82-0.351,5.583-1.393,7.975-2.883c2.103-1.31,4.049-3.087,5.097-5.331c-2.02,0.749-4.089,1.368-6.208,1.786
						C156.201,230.374,152.391,230.494,148.633,229.972z"/>
					<g>
						<g>
							<path style="fill:#FFFFFF;" d="M219.852,186.577c-2.205-3.141-5.011-5.943-8.372-7.9c-3.853-2.242-8.263-3.439-12.72-3.756
								c-0.369-0.026-0.739-0.04-1.11-0.048c-2.232,0.214-4.398,0.625-6.411,1.223c-2.693,0.8-5.077,2.047-7.054,3.642
								c-2.742,2.499-4.685,5.53-5.906,8.81c-1.208,3.245-1.795,6.655-2.139,10.087c2.466,1.428,5.258,2.459,8.077,3.219
								c3.709,1,7.544,1.582,11.36,1.892c1.668,0.135,3.339,0.218,5.007,0.248c2.17-0.198,4.322-0.54,6.422-1.028
								c1.103-0.257,2.197-0.559,3.277-0.904c4.454-2.341,8.599-5.282,12.298-8.65c0.05-0.675,0.074-1.353,0.074-2.033
								C221.852,189.71,220.92,188.099,219.852,186.577z"/>
							<g>
								<g>
									<path style="fill:#AA562B;" d="M212.248,191.217c-1.656,7.356-9.098,12.006-16.622,10.387
										c-7.524-1.619-12.28-8.895-10.624-16.251c1.656-7.356,9.098-12.006,16.622-10.387
										C209.148,176.585,213.904,183.861,212.248,191.217z"/>
									<ellipse style="fill:#4A1A05;" cx="198.625" cy="188.285" rx="10.387" ry="10.155"/>
									<path style="fill:#FFFFFF;" d="M198.552,182.529c-0.488,2.169-2.683,3.541-4.902,3.063
										c-2.219-0.478-3.621-2.623-3.133-4.792s2.683-3.541,4.902-3.063C197.638,178.214,199.04,180.359,198.552,182.529z"/>
									<path style="fill:#FFFFFF;" d="M190.054,186.793c-0.144,0.641-0.792,1.045-1.447,0.904
										c-0.655-0.141-1.069-0.775-0.925-1.415c0.144-0.641,0.792-1.046,1.447-0.905
										C189.784,185.519,190.198,186.153,190.054,186.793z"/>
								</g>
							</g>
							<path style="fill:#594234;" d="M217.224,197.607c-1.619,1.339-3.609,2.153-5.547,2.959c-2.279,0.948-4.609,1.733-7.04,2.215
								c-5.161,1.023-10.358,0.564-15.513-0.269c-2.81-0.454-5.726-0.959-8.415-1.893c-0.05-0.018-0.145,0.069-0.084,0.105
								c2.168,1.301,4.618,1.912,7.064,2.505c2.761,0.669,5.639,1.009,8.471,1.234c2.572,0.205,5.167,0.062,7.707-0.377
								c2.566-0.444,5.181-1.148,7.538-2.248c1.139-0.532,2.293-1.098,3.368-1.746c0.976-0.588,2.08-1.353,2.672-2.336
								C217.537,197.602,217.345,197.506,217.224,197.607z"/>
						</g>
						<path style="fill:#360E00;" d="M220.169,183.628c-0.738-0.88-1.516-1.712-2.307-2.474c-3.337-3.214-7.446-5.629-11.979-6.833
							c-4.588-1.218-9.635-1.245-14.207,0.062c-4.807,1.373-9.199,4.318-12.028,8.389c-0.337,0.484-0.643,0.982-0.932,1.489
							c-1.868,3.561-2.76,7.607-2.339,11.58c0.186-0.684,0.377-1.367,0.587-2.044c0.187-0.841,0.389-1.675,0.638-2.507
							c0.706-2.359,1.503-4.644,2.824-6.75c2.379-3.793,6.098-6.609,10.378-8.082c8.343-2.87,17.833-0.467,24.361,5.132
							c1.931,1.656,3.658,3.589,5.112,5.659c0.708,1.009,1.384,2.059,1.985,3.147C221.865,188.072,221.184,185.77,220.169,183.628z"
							/>
					</g>
					<g>
						<g>
							<path style="fill:#FFFFFF;" d="M92.726,187.023c2.205-3.141,5.011-5.943,8.372-7.9c3.853-2.242,8.263-3.439,12.72-3.756
								c0.369-0.026,0.739-0.04,1.11-0.048c2.232,0.214,4.397,0.625,6.411,1.223c2.693,0.8,5.077,2.047,7.054,3.642
								c2.742,2.499,4.685,5.53,5.906,8.81c1.208,3.245,1.795,6.655,2.139,10.087c-2.466,1.428-5.258,2.459-8.077,3.219
								c-3.709,1-7.544,1.582-11.36,1.892c-1.668,0.135-3.339,0.218-5.007,0.247c-2.17-0.198-4.322-0.54-6.422-1.028
								c-1.103-0.256-2.196-0.559-3.277-0.903c-4.454-2.341-8.599-5.282-12.299-8.65c-0.05-0.675-0.074-1.353-0.074-2.033
								C90.726,190.156,91.658,188.545,92.726,187.023z"/>
							<g>
								<g>
									<path style="fill:#AA562B;" d="M128.122,191.71c-1.649,7.323-9.057,11.952-16.547,10.34
										c-7.49-1.612-12.225-8.855-10.576-16.177c1.649-7.323,9.057-11.952,16.547-10.34
										C125.035,177.145,129.77,184.387,128.122,191.71z"/>
									<path style="fill:#4A1A05;" d="M124.658,190.965c-1.228,5.453-6.744,8.9-12.321,7.699c-5.577-1.2-9.103-6.594-7.875-12.046
										c1.228-5.452,6.744-8.9,12.321-7.699C122.36,180.119,125.886,185.512,124.658,190.965z"/>
									<path style="fill:#FFFFFF;" d="M114.487,183.061c-0.486,2.159-2.671,3.525-4.88,3.049
										c-2.209-0.475-3.605-2.611-3.119-4.771c0.486-2.159,2.671-3.525,4.88-3.049
										C113.577,178.766,114.974,180.902,114.487,183.061z"/>
									<path style="fill:#FFFFFF;" d="M106.028,187.306c-0.144,0.638-0.789,1.041-1.441,0.9c-0.652-0.14-1.064-0.771-0.921-1.409
										c0.144-0.638,0.789-1.041,1.441-0.9C105.759,186.038,106.171,186.669,106.028,187.306z"/>
								</g>
							</g>
							<path style="fill:#594234;" d="M95.355,198.053c1.619,1.339,3.609,2.153,5.546,2.959c2.279,0.948,4.61,1.733,7.04,2.215
								c5.162,1.023,10.358,0.564,15.513-0.269c2.81-0.454,5.726-0.959,8.415-1.893c0.05-0.018,0.145,0.069,0.084,0.105
								c-2.168,1.301-4.618,1.912-7.064,2.505c-2.761,0.669-5.639,1.009-8.471,1.234c-2.572,0.205-5.167,0.062-7.707-0.377
								c-2.566-0.444-5.181-1.148-7.538-2.248c-1.139-0.532-2.293-1.098-3.368-1.746c-0.975-0.588-2.08-1.353-2.672-2.336
								C95.041,198.048,95.233,197.952,95.355,198.053z"/>
						</g>
						<path style="fill:#360E00;" d="M92.409,184.074c0.738-0.88,1.515-1.712,2.307-2.474c3.337-3.214,7.446-5.629,11.979-6.833
							c4.588-1.218,9.635-1.245,14.207,0.062c4.807,1.373,9.199,4.318,12.028,8.389c0.337,0.484,0.643,0.982,0.932,1.489
							c1.868,3.561,2.759,7.607,2.339,11.58c-0.186-0.684-0.378-1.367-0.587-2.044c-0.187-0.841-0.389-1.675-0.638-2.507
							c-0.706-2.359-1.502-4.644-2.824-6.75c-2.379-3.793-6.098-6.609-10.378-8.082c-8.343-2.87-17.833-0.467-24.361,5.132
							c-1.931,1.656-3.658,3.589-5.112,5.659c-0.708,1.009-1.384,2.059-1.985,3.147C90.714,188.518,91.394,186.215,92.409,184.074z"
							/>
					</g>
					<path style="fill:#222326;" d="M229.598,165.954c-1.357-2.908-2.91-5.615-5.066-7.487c-3.511-3.049-7.819-4.273-11.913-4.931
						c-4.197-0.674-8.438-0.713-12.656-0.49c-5.432,0.287-10.857,0.937-16.231,2.04c-4.354,0.894-8.677,2.089-12.923,3.665
						c0.577,2.267,1.35,4.497,2.301,6.537c0.211,0.233,0.426,0.461,0.643,0.679c0.444,0.447,0.904,0.861,1.376,1.245
						c2.473,0.656,5.035,0.787,7.547,0.652c4.187-0.226,8.329-1.175,12.451-2.135c1.888-0.439,3.775-0.887,5.671-1.255
						c2.27-0.44,4.557-0.755,6.837-1.089c2.526-0.371,5.062-0.672,7.605-0.691c2.339-0.018,4.755,0.111,7.03,0.902
						c2.609,0.907,4.981,2.624,7.408,4.155c0.203-0.204,0.347-0.513,0.252-0.776C229.808,166.64,229.702,166.298,229.598,165.954z"
						/>
					<path style="fill:#222326;" d="M81.744,165.954c1.357-2.908,2.91-5.615,5.066-7.487c3.511-3.049,7.818-4.273,11.913-4.931
						c4.197-0.674,8.438-0.713,12.656-0.49c5.431,0.287,10.857,0.937,16.231,2.04c4.354,0.894,8.677,2.089,12.924,3.665
						c-0.577,2.267-1.35,4.497-2.301,6.537c-0.212,0.233-0.426,0.461-0.643,0.679c-0.444,0.447-0.904,0.861-1.376,1.245
						c-2.473,0.656-5.035,0.787-7.547,0.652c-4.187-0.226-8.329-1.175-12.451-2.135c-1.888-0.439-3.775-0.887-5.671-1.255
						c-2.27-0.44-4.557-0.755-6.837-1.089c-2.526-0.371-5.062-0.672-7.605-0.691c-2.34-0.018-4.755,0.111-7.03,0.902
						c-2.609,0.907-4.981,2.624-7.409,4.155c-0.203-0.204-0.347-0.513-0.251-0.776C81.534,166.64,81.64,166.298,81.744,165.954z"/>
					<path style="opacity:0.65;fill:#92422B;" d="M163.707,231c-2.471,1.836-5.293,3.488-8.386,4.045
						c-1.512,0.273-2.94,0.209-4.417-0.204c-1.472-0.411-2.901-0.975-4.25-1.684c-1.391-0.73-2.668-1.63-3.848-2.654
						c-0.571-0.495-1.113-1.012-1.617-1.574c-0.472-0.525-1.03-1.109-1.348-1.742c-0.062-0.124-0.095-0.275-0.174-0.39
						c-0.079-0.115-0.197-0.172-0.247-0.31c-0.113-0.309-0.056-0.77-0.039-1.088c0.039-0.728,0.192-1.439,0.378-2.144
						c0.391-1.483,0.848-2.955,1.274-4.429c1.189-4.111,2.468-8.194,3.547-12.334c0.036-0.138-0.168-0.102-0.203-0.004
						c-1.367,3.9-2.826,7.769-4.125,11.692c-0.539,1.628-1.094,3.255-1.599,4.893c-0.231,0.747-0.421,1.505-0.552,2.274
						c-0.059,0.347-0.1,0.697-0.109,1.048c-0.005,0.18,0.016,0.362,0.011,0.541c-0.006,0.216-0.108,0.418-0.116,0.631
						c-0.029,0.751,0.478,1.48,0.914,2.048c0.5,0.65,1.048,1.264,1.634,1.84c1.209,1.189,2.582,2.203,4.075,3.028
						c2.968,1.641,6.363,2.435,9.762,1.938c3.648-0.534,7.327-2.381,9.796-5.076C164.324,231.066,164,230.783,163.707,231z"/>
				</g>
			</g>
			<path style="fill:#672D91;" d="M67.506,76.16c4.324-0.044,8.636-0.624,12.899-1.312c5.036-0.813,10.033-1.924,14.868-3.565
				c5.364-1.821,10.533-4.316,15.046-7.767c0.197-0.151,0.035-0.391-0.169-0.241c-8.031,5.929-17.989,8.776-27.704,10.456
				c-8.34,1.442-16.951,2.351-25.323,0.62c-4.211-0.871-8.67-2.42-11.633-5.689c-0.324-0.357-1.128,0.198-0.818,0.574
				c1.123,1.362,1.932,2.923,2.755,4.475c0.791,1.492,1.66,2.917,2.753,4.21c2.084,2.465,4.729,4.365,7.576,5.857
				c6.292,3.296,13.22,4.667,20.284,4.721c1.382,0.011,2.762-0.022,4.14-0.084c-3.378,0.98-6.894,1.547-10.356,2.004
				c-3.399,0.448-6.821,0.829-10.255,0.786c-3.281-0.041-6.477-0.538-9.607-1.523c-3.28-1.032-6.425-2.439-9.663-3.587
				c-0.339-0.12-0.748,0.22-0.783,0.549c-0.495,4.628,0.681,9.384,2.475,13.623c1.735,4.099,4.097,8.092,7.094,11.399
				c5.419,5.98,13.146,9.285,21.167,9.579c1.997,0.073,3.993-0.044,5.964-0.326c-0.83,0.393-1.669,0.748-2.482,1.082
				c-3.702,1.521-7.453,3.003-11.372,3.866c-2.469,0.544-4.97,0.817-7.498,0.833c-0.274,0.002-0.772,0.315-0.635,0.655
				c1.067,2.662,3.892,4.1,6.477,4.928c2.752,0.881,5.706,1.261,8.591,1.29c4.256,0.042,8.475-0.983,12.47-2.381
				c4.092-1.432,7.927-3.251,11.329-5.967c3.545-2.83,6.629-6.191,10.162-9.037c0.303-0.244,0.062-0.612-0.266-0.38
				c-3.168,2.239-5.863,5.017-8.789,7.545c-1.474,1.273-3.011,2.481-4.662,3.517c-1.786,1.121-3.711,1.97-5.666,2.75
				c-4.125,1.646-8.513,2.939-12.973,3.142c-2.759,0.125-5.576-0.162-8.254-0.831c-2.666-0.665-5.764-1.842-7.152-4.376
				c4.291-0.154,8.488-1.157,12.517-2.624c1.858-0.676,3.689-1.434,5.513-2.196c1.483-0.619,2.948-1.293,4.343-2.095
				c1.972-0.382,3.912-0.93,5.789-1.659c0.405-0.157,0.33-0.713-0.142-0.556c-1.265,0.421-2.553,0.775-3.855,1.066
				c1.157-0.856,2.192-1.883,2.9-3.142c0.148-0.264-0.23-0.293-0.353-0.103c-0.947,1.463-2.297,2.586-3.799,3.502
				c-5.96,1.128-12.16,0.83-17.875-1.386c-3.646-1.414-7.003-3.591-9.758-6.369c-3.012-3.038-5.384-6.787-7.213-10.638
				c-2.087-4.393-3.461-9.231-3.103-14.116c2.735,1.019,5.419,2.176,8.19,3.096c3.157,1.048,6.388,1.658,9.716,1.769
				c3.446,0.115,6.886-0.229,10.298-0.684c3.258-0.435,6.528-0.891,9.702-1.764c1.383-0.381,2.725-0.837,4.033-1.369
				c1.895-0.132,3.787-0.316,5.676-0.537c0.31-0.036,0.564-0.647,0.128-0.624c-1.225,0.066-2.451,0.14-3.677,0.211
				c1.142-0.561,2.256-1.19,3.341-1.894c0.185-0.12,0.038-0.318-0.146-0.209c-1.46,0.866-2.989,1.579-4.56,2.18
				c-5.2,0.283-10.407,0.421-15.56-0.519c-3.483-0.636-6.879-1.729-10.071-3.264c-2.908-1.399-5.691-3.161-7.911-5.529
				c-1.249-1.332-2.27-2.824-3.142-4.425c-0.38-0.698-0.744-1.409-1.124-2.109c2.254,1.545,4.894,2.547,7.524,3.221
				C58.985,75.84,63.274,76.203,67.506,76.16z"/>
			<path style="fill:#222326;" d="M242.619,99.647c-0.423-3.07-1.266-6.053-2.274-8.978c-1.776-5.154-4.121-10.126-6.975-14.77
				c-2.913-4.739-6.382-9.149-10.443-12.959c-3.916-3.674-8.415-6.746-13.406-8.762c-4.964-2.005-10.435-2.94-15.784-2.731
				c-5.07,0.198-10.098,1.441-14.631,3.733c-4.585,2.319-8.639,5.635-11.834,9.658c-3.332,4.196-5.523,8.977-7.29,14.004
				c-0.948,2.697-1.761,5.445-2.321,8.25c-0.539,2.698-0.842,5.48-0.525,8.226c0.071,0.613,0.179,1.218,0.328,1.814
				c-0.244,0.046-0.459,0.438-0.118,0.465c0.084,0.007,0.168,0.005,0.252,0.005c0.12,0.415,0.255,0.826,0.419,1.229
				c0.271,0.663,1.461,0.042,1.224-0.537c-0.125-0.304-0.234-0.613-0.331-0.924c0.425-0.135,0.838-0.308,1.221-0.476
				c1.174-0.516,2.301-1.129,3.444-1.711c1.204-0.612,2.39-1.036,3.686-1.412c1.761-0.511,3.535-0.983,5.336-1.331
				c3.515-0.679,7.116-0.724,10.683-0.574c3.432,0.144,6.847,0.583,10.185,1.404c6.338,1.558,12.433,4.377,18,7.752
				c5.472,3.318,10.515,7.345,14.938,11.971c2.209,2.311,4.182,4.792,5.837,7.53c1.608,2.661,2.926,5.478,4.237,8.292
				c0.339,0.728,0.677,1.457,1.016,2.185c0.197,0.423,0.944-0.022,1.017-0.335c1.575-6.81,3.551-13.553,4.236-20.534
				C243.089,106.648,243.098,103.12,242.619,99.647z"/>
			<path style="fill:#27282B;" d="M284.811,86.286c-2.28-3.08-5.313-5.529-8.499-7.62c1.804,0.208,3.64,0.149,5.441-0.07
				c2.709-0.329,5.647-1.076,7.734-2.933c1.058-0.942,1.734-2.17,1.918-3.577c0.06-0.458-0.563-0.424-0.803-0.242
				c-2.039,1.544-4.372,2.67-6.978,2.633c-2.347-0.033-4.567-0.96-6.517-2.213c-4.605-2.959-8.095-7.483-11.396-11.766
				c-1.586-2.058-3.132-4.149-4.78-6.158c-1.778-2.167-3.751-4.121-5.985-5.823c-5.844-4.452-13.039-7.539-20.362-8.345
				c-3.195-0.352-6.416-0.137-9.564,0.486c-1.4,0.277-2.841,0.634-4.223,1.137c-0.688-6.455-3.572-12.501-7.606-17.539
				c-4.398-5.493-10.083-9.935-16.311-13.176c-6.758-3.516-13.996-5.378-21.562-6.058c-17.75-1.596-35.406,2.705-52.096,8.378
				c-8.59,2.92-17.031,6.252-25.477,9.559c-4.072,1.595-8.146,3.184-12.244,4.713c-2.146,0.801-4.277,1.563-6.492,2.147
				c-4.785,1.263-9.791,2.121-14.753,2.003c-4.073-0.097-9.236-0.934-11.288-4.963c-0.489-0.961-0.738-2.048-0.817-3.118
				c-0.046-0.623-0.865-0.432-1.093-0.02c-1.981,3.581-1.873,7.664-0.06,11.291c1.501,3.003,3.899,5.393,6.75,7.071
				c-1.842,0.854-3.652,1.773-5.425,2.741c-5.926,3.237-11.494,7.104-16.529,11.608c-4.611,4.125-8.725,8.834-12.162,13.98
				c-3.458,5.179-6.259,10.882-7.817,16.928c-1.534,5.953-1.808,12.223-0.33,18.217c0.19,0.769,0.404,1.532,0.656,2.282
				c0.222,0.661,1.173,0.102,1.223-0.396c0.426-4.243,2.057-8.358,4.186-12.024c2.203-3.794,5.029-7.233,8.328-10.125
				c0.756-0.663,1.544-1.294,2.351-1.901c-0.54,1.125-1.033,2.276-1.521,3.427c-1.476,3.48-3.181,6.813-4.988,10.132
				c-1.967,3.612-4.066,7.138-6.369,10.545c-1.747,2.584-3.504,5.177-5.605,7.492c-2.34,2.577-5.164,4.846-8.622,5.643
				c-0.316,0.073-1.023,0.75-0.493,1.022c7.154,3.67,15.902,3.37,23.175,0.081c0.094,2.292,0.316,4.584,0.651,6.824
				c1.435,9.574,5.8,18.455,11.808,25.982c1.052,1.317,2.16,2.587,3.311,3.816c0.025,0.07,0.047,0.14,0.072,0.209
				c1.943,5.37,4.335,10.554,6.936,15.633c5.234,10.221,11.265,20.014,16.397,30.289c1.486,2.976,2.815,6.018,4.476,8.904
				c1.771,3.078,3.698,6.066,5.221,9.28c0.263,0.555,1.197-0.156,1.112-0.626c-0.567-3.145-1.327-6.249-1.984-9.374
				c-0.206-2.298-0.362-4.602-0.517-6.914c-0.354-5.295-1.107-10.537-1.207-15.851c-0.104-5.546,0.219-11.092,0.783-16.607
				c0.477-4.67,1.022-9.371,1.983-13.969c0.844-4.037,2.085-8.019,4.053-11.658c2.14-3.958,5.071-7.486,8.52-10.372
				c7.119-5.958,15.96-9.125,24.056-13.455c4.016-2.148,7.969-4.621,11.623-7.46c-0.904,1.484-1.885,2.922-2.935,4.307
				c-1.54,2.031-3.251,3.91-4.909,5.843c-1.548,1.806-3.084,3.626-4.785,5.292c-1.696,1.662-3.673,3.464-6.101,3.86
				c-0.424,0.069-0.956,0.811-0.352,1.026c3.239,1.154,6.957-0.27,9.839-1.757c3.728-1.923,7.099-4.498,10.255-7.242
				c7.28-6.33,13.341-14.175,17.743-22.753c0.041-0.079,0.079-0.159,0.119-0.238c-0.041,0.215-0.078,0.431-0.121,0.646
				c-0.89,4.509-2.149,8.961-4.033,13.162c-1.822,4.063-4.27,7.742-7.176,11.106c-2.694,3.12-5.651,6.058-8.969,8.515
				c-3.498,2.591-7.776,5.01-12.273,4.755c-0.453-0.026-1.133,0.806-0.48,0.999c5.583,1.655,11.643,0.526,16.885-1.73
				c5.456-2.349,10.348-5.895,14.763-9.832c4.499-4.013,8.507-8.517,11.844-13.544c3.476-5.236,6.251-10.902,8.725-16.669
				c2.306-5.376,4.406-10.842,6.465-16.316c1.801-4.789,3.683-9.636,6.589-13.883c1.366-1.997,2.985-3.853,4.928-5.308
				c2.166-1.621,4.721-2.695,7.366-3.238c5.305-1.089,10.801,0.256,15.24,3.288c4.873,3.329,8.18,8.474,10.25,13.926
				c2.108,5.554,2.688,11.438,2.688,17.341c0,1.528,0.011,3.05,0.042,4.578c0.001,0.066,0.025,0.105,0.059,0.13
				c-0.351,0.692,0.639,0.779,0.953,0.257c1.094-1.819,2.557-3.446,4.137-4.854c1.575-1.404,3.541-2.844,5.687-3.146
				c2.379-0.335,4.047,1.466,4.717,3.594c0.962,3.055,0.4,6.49,0.259,9.628c-0.18,4.016-0.475,8.028-0.544,12.049
				c-0.066,3.837-0.096,7.687-0.033,11.525c0.112,6.8,0.739,14.059,4.203,20.071c0.292,0.507,0.606,0.994,0.934,1.468
				c-0.056,1.063-0.139,2.126-0.16,3.193c-0.042,2.065,0.096,4.129,0.104,6.193c0.008,2.077-0.029,4.155-0.098,6.23
				c-0.28,8.344-0.866,16.684-1.55,25.003c-0.373,4.534-0.86,9.039-1.629,13.525c-0.079,0.459,0.582,0.431,0.813,0.244
				c1.525-1.234,2.232-3.113,3.398-4.639c1.483-1.94,3.04-3.821,4.455-5.813c2.868-4.036,5.167-8.474,7.525-12.818
				c2.388-4.4,4.842-8.756,7.096-13.227c2.269-4.501,4.428-9.057,6.647-13.583c0.584-1.192,1.262-2.337,1.97-3.468
				c4.417-5.428,8.638-11.144,11.898-17.344c3.221-6.127,5.432-12.895,4.995-19.892c-0.216-3.468-1.036-6.92-2.373-10.139
				c1.587,1.733,2.642,3.968,3.459,6.139c0.612,1.627,0.799,3.238,0.782,4.97c-0.016,1.568-0.127,3.157,0.18,4.707
				c0.11,0.554,0.868,0.07,0.989-0.211c3.272-7.589,5.677-15.973,4.224-24.283C289.069,93.837,287.35,89.716,284.811,86.286z"/>
			<path style="opacity:0.51;fill:#424346;" d="M237.08,153.246c-0.056,1.063-0.139,2.126-0.16,3.193
				c-0.042,2.065,0.096,4.128,0.104,6.193c0.008,2.077-0.028,4.155-0.098,6.23c-0.28,8.344-0.866,16.684-1.55,25.003
				c-0.373,4.534-0.86,9.039-1.629,13.525c-0.079,0.459,0.582,0.431,0.813,0.244c1.525-1.234,2.232-3.113,3.398-4.639
				c0.656-0.859,1.327-1.707,1.994-2.557c2.643-9.081,5.403-18.229,6.407-27.646c1.152-10.812-0.648-21.427-4.373-31.589
				c-0.109-0.296,0.271-0.553,0.521-0.4c2.579,1.569,5.265,3.042,8.193,3.845c2.567,0.704,5.167,0.759,7.72,0.168
				c-2.891-0.775-5.63-2.045-7.954-3.965c-2.331-1.927-4.118-4.438-5.344-7.193c-2.32-5.213-2.824-11.085-2.704-16.729
				c0.131-6.157,1.273-12.154,1.945-18.255c0.711-6.462,1.081-14.864-4.319-19.559c-2.734-2.377-6.439-3.47-10.013-2.775
				c-3.505,0.681-6.464,2.908-8.294,5.944c-0.161,0.267-0.556,0.204-0.648-0.085c-1.8-5.635-1.837-11.737-0.455-17.468
				c2.476-10.269,10.134-20.702,21.408-21.614c1.231-0.1,2.468-0.076,3.697,0.042c-3.569-1.526-7.344-2.568-11.155-2.988
				c-3.195-0.352-6.416-0.137-9.564,0.486c-1.4,0.277-2.841,0.634-4.223,1.137c-0.688-6.455-3.572-12.501-7.606-17.539
				c-4.398-5.492-10.084-9.935-16.312-13.176c-6.758-3.516-13.996-5.378-21.562-6.058c-6.562-0.59-13.111-0.372-19.603,0.421
				c6.799-0.494,13.677-0.191,20.358,1.202c3.406,0.71,6.75,1.723,9.962,3.062c3.202,1.334,6.373,2.943,9.205,4.955
				c5.121,3.64,9.584,8.279,12.711,13.749c3.084,5.393,4.748,11.518,4.615,17.74c-0.007,0.323-0.512,0.52-0.661,0.179
				c-0.258-0.592-0.539-1.173-0.849-1.739c-2.514-4.604-6.691-8.002-11.325-10.331c-4.808-2.417-10.142-3.788-15.472-4.405
				c-5.781-0.67-11.597-0.39-17.294,0.802c-6.863,1.437-13.413,4.088-19.569,7.416c-1.088,0.588-2.16,1.203-3.225,1.83
				c4.744-1.874,9.749-3.057,14.814-3.627c5.276-0.593,10.625-0.508,15.88,0.25c5.159,0.744,10.229,2.16,14.978,4.318
				c4.595,2.088,8.867,4.9,12.478,8.437c0.282,0.276-0.101,0.798-0.43,0.557c-0.74-0.541-1.502-1.049-2.294-1.512
				c-2.902-1.695-6.156-2.746-9.513-2.977c-3.202-0.22-6.407,0.274-9.453,1.258c-6.444,2.083-12.144,6.199-16.917,10.927
				c-2.364,2.341-4.537,4.88-6.468,7.59c-1.991,2.793-3.734,5.776-5.427,8.756c-3.768,6.637-7.133,13.495-10.955,20.103
				c-3.715,6.424-7.891,12.668-13.219,17.877c-0.242,0.236-0.711,0.001-0.593-0.345c1.001-2.931,2.099-5.827,3.208-8.719
				c1.908-4.978,3.847-9.957,5.281-15.098c0.767-2.75,1.366-5.539,1.756-8.356c-2.406,3.376-5.174,6.508-8.165,9.393
				c-6.923,6.678-14.906,12.151-22.954,17.366c-8.094,5.244-16.466,10.146-23.822,16.428c-6.983,5.965-13.116,13.099-16.793,21.588
				c-3.858,8.907-4.549,18.732-2.977,28.247c0.064,0.39-0.421,0.625-0.648,0.273c-0.347-0.538-0.687-1.08-1.017-1.629
				c-2.668-4.435-4.75-9.223-6.252-14.174c-1.53-5.045-2.456-10.279-2.75-15.543c-0.292-5.214,0.048-10.47,1.081-15.592
				c0.57-2.826,1.365-5.608,2.375-8.309c-2.3,3.515-4.124,7.339-5.512,11.306c-1.993,5.697-3.151,11.657-3.858,17.641
				c-0.036,0.303-0.36,0.471-0.605,0.251c-0.364-0.326-0.712-0.668-1.043-1.026c-2.873-3.111-4.551-7.19-5.81-11.177
				c-0.657-2.083-1.199-4.201-1.691-6.328c-0.462-1.996-0.955-4.002-1.259-6.029c-0.637-4.253-0.473-8.603,0.41-12.81
				c0.007-0.034,0.016-0.068,0.024-0.102c-5.457,5.56-11.808,10.299-19.261,12.798c-2.229,0.747-4.538,1.324-6.875,1.677
				c5.918,1.424,12.346,0.665,17.912-1.852c0.094,2.292,0.316,4.584,0.651,6.825c1.435,9.574,5.8,18.456,11.808,25.982
				c1.052,1.318,2.16,2.587,3.311,3.816c0.025,0.069,0.047,0.14,0.072,0.209c1.943,5.37,4.335,10.554,6.936,15.633
				c5.234,10.221,11.265,20.014,16.397,30.289c1.486,2.976,2.815,6.018,4.476,8.904c1.771,3.078,3.698,6.066,5.221,9.28
				c0.263,0.555,1.197-0.156,1.112-0.627c-0.567-3.145-1.327-6.249-1.984-9.374c-0.206-2.298-0.363-4.602-0.517-6.914
				c-0.354-5.295-1.107-10.537-1.207-15.851c-0.104-5.546,0.219-11.091,0.783-16.607c0.477-4.67,1.022-9.371,1.983-13.969
				c0.844-4.037,2.085-8.019,4.053-11.658c2.14-3.958,5.071-7.486,8.52-10.372c7.119-5.958,15.96-9.125,24.056-13.455
				c4.016-2.148,7.969-4.621,11.623-7.46c-0.904,1.484-1.885,2.922-2.935,4.307c-1.54,2.031-3.251,3.91-4.909,5.843
				c-1.548,1.806-3.084,3.626-4.785,5.292c-1.696,1.662-3.673,3.464-6.101,3.86c-0.424,0.069-0.956,0.811-0.352,1.026
				c3.239,1.154,6.957-0.269,9.839-1.757c3.728-1.923,7.099-4.498,10.255-7.243c7.28-6.33,13.341-14.175,17.743-22.753
				c0.041-0.079,0.079-0.159,0.119-0.238c-0.041,0.215-0.079,0.431-0.121,0.646c-0.89,4.51-2.15,8.961-4.033,13.162
				c-1.822,4.063-4.27,7.742-7.176,11.106c-2.694,3.12-5.651,6.058-8.969,8.515c-3.498,2.591-7.776,5.01-12.273,4.755
				c-0.453-0.026-1.133,0.805-0.48,0.999c5.583,1.655,11.643,0.526,16.885-1.73c5.456-2.349,10.348-5.895,14.763-9.832
				c4.499-4.013,8.507-8.517,11.844-13.544c3.476-5.236,6.251-10.902,8.725-16.669c2.306-5.376,4.406-10.842,6.465-16.316
				c1.801-4.789,3.683-9.636,6.589-13.883c1.366-1.997,2.985-3.853,4.928-5.308c2.166-1.621,4.721-2.696,7.366-3.239
				c5.305-1.089,10.801,0.256,15.24,3.288c4.873,3.329,8.18,8.474,10.25,13.926c2.108,5.554,2.688,11.438,2.688,17.341
				c0,1.528,0.011,3.05,0.042,4.578c0.001,0.066,0.026,0.105,0.059,0.13c-0.351,0.692,0.639,0.779,0.953,0.257
				c1.094-1.819,2.557-3.446,4.137-4.854c1.575-1.404,3.541-2.844,5.687-3.146c2.379-0.335,4.047,1.466,4.717,3.594
				c0.962,3.055,0.4,6.49,0.259,9.628c-0.18,4.016-0.475,8.028-0.544,12.049c-0.066,3.837-0.096,7.687-0.033,11.525
				c0.112,6.8,0.739,14.059,4.203,20.071C236.437,152.285,236.752,152.772,237.08,153.246z"/>
		</g>
		<g>
			<path style="opacity:0.65;fill:#92422B;" d="M188.774,250.487c-0.551-0.332-1.516,0.16-2.015,0.392
				c-1.185,0.552-2.325,1.072-3.576,1.492c-0.009,0.003-0.015,0.009-0.024,0.012c-0.118,0.018-0.235,0.04-0.353,0.057
				c-5.248,0.757-10.585,1.164-15.891,1.308c-5.258,0.142-10.52,0.268-15.78,0.303c-2.651,0.018-5.308,0.082-7.959,0.004
				c-2.561-0.076-5.118-0.224-7.676-0.371c-2.45-0.141-4.891-0.35-7.343-0.452c-1.824-0.076-4.062-0.158-5.517-1.311
				c-0.004,0.004-0.007,0.007-0.01,0.01c-0.478-0.249-1.339,0.332-0.977,0.792c1.123,1.423,3.221,1.659,4.995,1.787
				c2.249,0.162,4.514,0.276,6.767,0.385c5.764,0.28,11.543,0.064,17.311-0.054c5.838-0.119,11.661-0.233,17.493-0.535
				c5.647-0.292,11.399-0.454,16.967-1.44c0.954-0.169,1.945-0.303,2.807-0.742C188.452,251.89,189.546,250.952,188.774,250.487z"/>
			<path style="opacity:0.65;fill:#92422B;" d="M166.577,264.869c-1.133-0.059-2.292,0.127-3.412,0.276
				c-1.223,0.163-2.44,0.36-3.668,0.488c-2.426,0.252-4.865,0.247-7.302,0.168c-2.342-0.076-4.707-0.211-7.026-0.53
				c-2.216-0.304-4.556-0.691-6.653-1.423c-0.152-0.053-0.4,0.177-0.238,0.29c0.926,0.644,1.808,1.143,2.906,1.523
				c1.04,0.36,2.157,0.573,3.254,0.725c2.344,0.324,4.726,0.479,7.094,0.566c2.496,0.092,5.036,0.069,7.513-0.271
				c1.207-0.166,2.402-0.401,3.597-0.628c1.282-0.244,2.589-0.451,3.851-0.772C166.689,265.23,166.909,264.886,166.577,264.869z"/>
		</g>
	</g>
	<path style="fill:#C4C6C8;" d="M247.333,164.788c-4.606-0.576-9.789-0.576-17.85-4.031c-8.061-3.455-27.062-4.606-41.457-1.727
		c-14.395,2.879-19.916,11.274-21.592,12.956c-2.801,2.81-10.364,3.455-11.804,3.167c-1.439,0.288-9.003-0.356-11.804-3.167
		c-1.676-1.682-7.198-10.076-21.592-12.956c-14.395-2.879-33.396-1.727-41.457,1.727c-8.061,3.455-13.243,3.455-17.85,4.031
		c-4.606,0.576-4.606,4.031-4.606,4.031c0.576,8.637,3.616,7.807,5.182,10.94c0.576,1.152,1.152,7.485,1.727,15.546
		c0.576,8.061,7.485,21.305,18.426,25.911c10.94,4.606,32.245,6.91,45.488,0c13.243-6.91,16.122-23.032,18.426-31.093
		c2.303-8.061,8.061-6.334,8.061-6.334s5.758-1.727,8.061,6.334c2.303,8.061,5.182,24.183,18.426,31.093
		c13.243,6.91,34.548,4.606,45.488,0c10.94-4.606,17.85-17.85,18.425-25.911c0.576-8.061,1.152-14.395,1.727-15.546
		c1.566-3.133,4.606-2.303,5.182-10.94C251.94,168.818,251.94,165.363,247.333,164.788z M124.977,216.897
		c-13.243,6.91-34.548,5.758-45.488-2.879c-10.94-8.637-10.94-28.214-9.789-35.699c0,0,0-9.788,17.274-12.667
		c17.274-2.879,32.82-3.455,44.912,4.606c0,0,7.485,4.031,8.061,13.819C140.523,193.865,138.22,209.988,124.977,216.897z
		 M229.771,214.018c-10.94,8.637-32.245,9.789-45.488,2.879c-13.243-6.91-15.547-23.032-14.971-32.82
		c0.576-9.789,8.061-13.819,8.061-13.819c12.092-8.061,27.638-7.485,44.912-4.606s17.274,12.667,17.274,12.667
		C240.712,185.804,240.712,205.381,229.771,214.018z"/>
</g>
</svg>
