<?xml version="1.0" encoding="utf-8"?>
<!-- Generator: Adobe Illustrator 27.5.0, SVG Export Plug-In . SVG Version: 6.00 Build 0)  -->
<svg version="1.1" xmlns="http://www.w3.org/2000/svg" xmlns:xlink="http://www.w3.org/1999/xlink" x="0px" y="0px"
	 viewBox="0 0 750 500" style="enable-background:new 0 0 750 500;" xml:space="preserve">
<g id="BACKGROUND">
</g>
<g id="OBJECTS">
	<g>
		<path style="fill:#C7F4FF;" d="M614.698,392.522c2.952-15.171,4.509-30.839,4.509-46.873
			c0-134.872-109.335-244.207-244.207-244.207S130.793,210.777,130.793,345.649c0,16.034,1.557,31.703,4.509,46.873H614.698z"/>
		<polygon style="fill:#8BC7D1;" points="631.01,298.885 631.01,244.407 587.49,244.407 587.49,270.207 570.629,270.207 
			570.629,253.821 520.104,253.821 520.104,206.716 463.084,206.716 463.084,256.217 441.786,256.217 441.786,221.787 
			436.868,221.787 436.868,206.716 390.913,206.716 390.913,221.787 382.406,221.787 382.406,275.811 348.061,275.811 
			348.061,221.787 284.645,221.787 284.645,268.357 243.583,268.357 243.583,363.687 284.645,363.687 284.645,380.545 
			336.947,380.545 336.947,382.363 396.661,382.363 396.661,359.49 441.786,359.49 441.786,341.553 463.084,341.553 
			463.084,346.293 520.104,346.293 520.104,335.851 557.641,335.851 557.641,344.819 587.49,344.819 587.49,359.49 619.207,359.49 
			619.207,382.363 661.272,382.363 661.272,298.885 		"/>
		<g>
			<path style="fill:#8D9E4D;" d="M350.915,330.752c-2.327,0-4.554,0.405-6.64,1.117c-3.867-10.025-13.588-17.14-24.976-17.14
				c-1.452,0-2.877,0.12-4.266,0.342c-5.699-5.873-13.671-9.528-22.501-9.528c-12.871,0-23.926,7.758-28.758,18.85
				c-0.855-0.095-1.722-0.147-2.602-0.147c-9.054,0-16.901,5.145-20.793,12.667c-0.058-0.001-0.113-0.009-0.171-0.009
				c-8.991,0-16.28,7.289-16.28,16.28c0,8.991,7.289,16.28,16.28,16.28c2.985,0,5.773-0.817,8.178-2.219
				c3.676,2.403,8.066,3.805,12.785,3.805c6.345,0,12.096-2.529,16.312-6.629c4.468,2.448,9.595,3.843,15.049,3.843
				c5.009,0,9.741-1.181,13.941-3.269c3.809,2.083,8.179,3.269,12.826,3.269c5.624,0,10.839-1.738,15.147-4.7
				c3.747,5.025,9.718,8.293,16.469,8.293c11.351,0,20.553-9.202,20.553-20.553C371.468,339.954,362.267,330.752,350.915,330.752z"
				/>
			<path style="fill:#8D9E4D;" d="M652.899,343.04c-2.327,0-4.554,0.405-6.64,1.117c-3.867-10.025-13.588-17.14-24.976-17.14
				c-1.452,0-2.877,0.12-4.266,0.342c-5.699-5.873-13.671-9.527-22.501-9.527c-12.871,0-23.926,7.757-28.758,18.849
				c-0.855-0.095-1.722-0.147-2.602-0.147c-9.054,0-16.901,5.145-20.793,12.667c-0.058-0.001-0.113-0.009-0.171-0.009
				c-8.991,0-16.28,7.289-16.28,16.28c0,8.991,7.289,16.28,16.28,16.28c2.985,0,5.773-0.817,8.178-2.219
				c3.676,2.403,8.066,3.805,12.785,3.805c6.345,0,12.096-2.529,16.312-6.629c4.468,2.448,9.595,3.843,15.049,3.843
				c5.009,0,9.741-1.181,13.941-3.269c3.809,2.083,8.179,3.269,12.826,3.269c5.624,0,10.839-1.738,15.147-4.7
				c3.747,5.025,9.718,8.293,16.469,8.293c11.351,0,20.553-9.202,20.553-20.553C673.452,352.242,664.25,343.04,652.899,343.04z"/>
			<rect x="68.893" y="363.688" style="fill:#ADC46C;" width="612.214" height="43.667"/>
			<ellipse style="fill:#8D9E4D;" cx="171.063" cy="377.145" rx="97.378" ry="8.376"/>
			<ellipse style="fill:#8D9E4D;" cx="260.803" cy="379.85" rx="41.199" ry="8.994"/>
			<ellipse style="fill:#8D9E4D;" cx="491.231" cy="392.522" rx="139.78" ry="8.376"/>
		</g>
		<g>
			<g>
				<path style="fill:#351459;" d="M238.613,376.36H93.996c-3.095,0-5.877-1.341-7.797-3.473c-1.673-1.858-2.691-4.317-2.691-7.014
					v-262.74c0-2.667,0.996-5.102,2.636-6.953c1.921-2.168,4.727-3.535,7.852-3.535h144.617c2.896,0,5.518,1.174,7.416,3.072
					c1.898,1.898,3.072,4.52,3.072,7.416v262.74c0,2.142-0.642,4.134-1.744,5.794C245.478,374.496,242.263,376.36,238.613,376.36z"
					/>
				<rect x="92.616" y="114.701" style="fill:#FFFFFF;" width="147.377" height="239.359"/>
				<path style="fill:#FFFFFF;" d="M176.704,107.541h-20.799c-1.13,0-2.046-0.916-2.046-2.046l0,0c0-1.13,0.916-2.046,2.046-2.046
					h20.799c1.13,0,2.046,0.916,2.046,2.046l0,0C178.75,106.625,177.834,107.541,176.704,107.541z"/>
				<circle style="fill:#FFFFFF;" cx="193.65" cy="105.495" r="2.566"/>
				<circle style="fill:#FFFFFF;" cx="210.315" cy="105.495" r="2.566"/>
				<g>
					<polygon style="fill:#C1C1C1;" points="98.541,196.962 165.199,203.542 143.816,169.344 98.541,177.51 					"/>
					<polygon style="fill:#ADC46C;" points="208.58,157.663 199.623,206.94 234.268,210.36 234.268,153.03 					"/>
					<polygon style="fill:#ADC46C;" points="168.052,203.823 197.357,206.716 206.195,158.093 146.222,168.91 					"/>
					<polygon style="fill:#ADC46C;" points="234.268,220.32 136.111,204.472 154.267,248.663 234.268,234.215 					"/>
					<polygon style="fill:#ADC46C;" points="133.553,204.219 98.541,200.763 98.541,244.407 151.982,249.075 					"/>
					<polygon style="fill:#ADC46C;" points="199.12,244.407 121.849,258.361 140.073,281.731 183.711,283.69 					"/>
					<polygon style="fill:#ADC46C;" points="164.865,286.631 98.541,283.655 98.541,298.845 168.482,298.845 					"/>
					<polygon style="fill:#C1C1C1;" points="119.325,258.817 98.541,262.57 98.541,279.867 137.09,281.597 					"/>
					<polygon style="fill:#C1C1C1;" points="167.265,286.738 170.849,298.845 234.268,298.845 234.268,289.745 					"/>
					<polygon style="fill:#ADC46C;" points="172.714,160.287 163.909,143.52 98.541,143.52 98.541,173.666 					"/>
					<polygon style="fill:#ADC46C;" points="175.056,159.865 234.268,149.185 234.268,143.52 166.473,143.52 					"/>
					<polygon style="fill:#C1C1C1;" points="234.268,238.06 201.744,243.933 186.107,283.797 234.268,285.958 					"/>
				</g>
				<polygon style="fill:#ADC46C;" points="108.58,132.286 104.614,128.32 103.56,129.374 108.58,134.394 113.6,129.374 
					112.547,128.32 				"/>
				<g>
					<path style="fill:#C9314B;" d="M203.479,268.357l-15.295-15.295c-4.193-4.193-6.304-9.678-6.335-15.173
						c-0.031-5.577,2.08-11.163,6.335-15.418l0,0c4.524-4.524,10.554-6.625,16.477-6.303c5.136,0.279,10.191,2.38,14.114,6.303l0,0
						c4.224,4.224,6.336,9.76,6.336,15.295s-2.112,11.072-6.336,15.295L203.479,268.357z"/>
					<circle style="fill:#FFFFFF;" cx="203.479" cy="237.766" r="11.82"/>
				</g>
			</g>
			<g>
				<g>
					<path style="fill:#8BB73D;" d="M194.248,338.401h-51.533c-1.992,0-3.848-0.584-5.406-1.59c-2.752-1.777-4.574-4.871-4.574-8.39
						v0c0-2.309,0.784-4.435,2.101-6.126c1.826-2.345,4.676-3.854,7.879-3.854h51.533c3.749,0,7.015,2.067,8.721,5.124
						c0.802,1.437,1.259,3.093,1.259,4.856v0c0,2.148-0.678,4.137-1.833,5.765C200.587,336.737,197.612,338.401,194.248,338.401z"/>
					
						<text transform="matrix(1 0 0 1 145.5719 331.9144)" style="fill:#FFFFFF; font-family:'Montserrat-SemiBold'; font-size:11.0985px;">PICK UP</text>
				</g>
				
					<text transform="matrix(1 0 0 1 122.7746 134.3939)" style="fill:#736089; font-family:'Montserrat-SemiBold'; font-size:6.9756px;">YOUR LOCATION</text>
			</g>
		</g>
		<g>
			<path style="fill:#371D4F;" d="M292.18,270.112L292.18,270.112c-0.33-0.156-0.561-0.439-0.659-0.765
				c-0.08-0.267-0.071-0.561,0.045-0.837l4.85-11.533c0.119-0.282,0.328-0.496,0.58-0.624c0.331-0.168,0.734-0.187,1.097-0.014
				l5.128,2.451c0.301,0.144,0.518,0.394,0.627,0.685c0.109,0.291,0.109,0.622-0.024,0.928l-5.102,11.74
				c-0.107,0.246-0.289,0.447-0.515,0.578c-0.105,0.061-0.22,0.107-0.342,0.135l-1.916,0.444c-0.448,0.104-0.918-0.049-1.219-0.397
				l-2.141-2.48C292.476,270.292,292.337,270.186,292.18,270.112z"/>
			<path style="fill:#FCBC81;" d="M289.838,273.921l0.786-1.651l0.727-0.531l0.49-1.959l2.496,1.381c0,0,2.232-1.496,2.692-3.624
				c0.46-2.128,0.748-2.972,1.266-1.774c0.518,1.199,1.953,5.743,0.775,7.008c-1.178,1.266-4.054,2.013-4.054,2.013l-1.492,1.027
				L289.838,273.921z"/>
			<path style="fill:#C9314B;" d="M267.28,363.88c0,0,2.19,4.805,5.733,8.22s2.145,7.75,2.145,7.75l-16.619-7.227v-13.819
				l6.831-1.113L267.28,363.88z"/>
			<path style="fill:#C9314B;" d="M265.369,382.363h0.232c-0.217-4.294-3.107-7.127-4.053-11.1l-2.396-3.144l-5.059,3.155
				c-2.246,3.448-2.012,11.089-2.012,11.089H265.369z"/>
			<path style="fill:#256599;" d="M283.061,330.507c-0.191-3.27-9.038-33.12-9.038-33.12l-3.492-1.285c0,0-0.471,1.723-1.151,4.215
				l-14.831-0.664c0,0-1.589,3.519-0.081,17.303c1.508,13.784-0.377,54.318-0.377,54.318l7.455-0.011l1.311-9.904l4.421,2.521
				C267.28,363.88,283.252,333.777,283.061,330.507z M267.533,326.043c1.953,4.507,4.131,9.37,4.131,9.37
				c-2.993,3.634-5.503,9.506-7.311,14.649L267.533,326.043z"/>
			<path style="fill:#C9314B;" d="M255.601,258.593c0,0-3.362,1.338-4.352,10.567s3.657,20.638,3.657,20.638
				s-0.272,8.241-2.826,12.054c0,0,12.597,6.299,24.736-1.76c0,0-1.716-24.806-10.455-35.842L255.601,258.593z"/>
			<path style="fill:#371D4F;" d="M259.048,257.047c0,0-4.77-2.354-5.636,2.931c-0.866,5.284,5.982,13.047,5.982,13.047
				s-0.43-5.368,3.429-6.38c3.859-1.012,6.934,1.518,6.934,1.518S266.079,255.794,259.048,257.047z"/>
			<path style="fill:#A3761D;" d="M269.06,246.688c0,0,5.087-4.416,0.516-9.269c0.938-2.339-1.298-7.413-7.344-7.022
				c-7.143,0.462-11.482,3.689-12.066,10.413c-0.584,6.725,5.199,10.797,5.199,10.797l10.248-0.617L269.06,246.688z"/>
			<path style="fill:#FCBC81;" d="M268.08,238.236c0,0,4.131,8.761,2.648,13.388c-1.484,4.628-4.915,5.579-8.004,3.555
				c0,0-1.005,1.852-0.492,3.656c0,0,1.791,2.619,0.977,6.379c0,0-7.832-3.573-4.539-7.455c0,0,0.048-3.126,0-5.696
				c0,0-3.501,1.413-4.212-1.073c-0.711-2.486,2.088-3.198,3.056-1.712c0,0,0.969-4.218-0.108-6.908c0,0,4.273-0.747,4.666-6.4
				C262.071,235.969,265.625,239.376,268.08,238.236z"/>
			<path style="fill:#C9314B;" d="M260.803,272.089l13.094,8.166l16.214-8.611l4.226,5.161c0,0-15.809,14.929-20.146,14.276
				c-4.337-0.653-20.734-11.451-20.734-11.451L260.803,272.089z"/>
			<path style="fill:#A52541;" d="M256.755,281.394c0,0,15.342,10.942,19.163,9.708l0.069,1.731c0,0-6.36-0.524-10.056-3.035
				C262.235,287.287,256.755,281.394,256.755,281.394z"/>
			<polygon style="fill:#A52541;" points="273.897,280.254 260.803,272.089 273.014,277.587 			"/>
		</g>
		<g>
			<path style="fill:#F9BB0B;" d="M626.153,311.905h-12.403l-23.712-24.963c-2.335-2.459-5.095-4.418-8.113-5.808
				c-3.433-1.581-7.201-2.424-11.058-2.424H468.081c-2.147,0-4.274,0.261-6.337,0.771c-2.845,0.702-5.569,1.877-8.052,3.488
				l-44.607,28.936l0,0l-35.524,10.032c-7.295,2.06-13.61,6.115-18.422,11.473c-6.276,6.988-9.994,16.193-9.994,26.079v0h294.875
				v-33.72c0-3.827-1.55-7.292-4.057-9.801C633.452,313.459,629.984,311.905,626.153,311.905L626.153,311.905z"/>
			<path style="fill:#F4A20F;" d="M358.465,330.149c-1.171,1.027-2.291,2.107-3.328,3.262c-6.276,6.988-9.995,16.193-9.995,26.079v0
				h294.875v-29.341H358.465z"/>
			<rect x="631.01" y="326.346" style="fill:#C9314B;" width="11.4" height="19.947"/>
			<ellipse style="fill:#FFFFFF;" cx="364.994" cy="341.531" rx="6.434" ry="8.532"/>
			<path style="fill:#5F3E93;" d="M454.531,335.851h-5.702v-5.702h5.702V335.851z M460.233,335.851h-5.702v5.702h5.702V335.851z
				 M465.935,330.149h-5.702v5.702h5.702V330.149z M471.637,335.851h-5.702v5.702h5.702V335.851z M477.339,330.149h-5.702v5.702
				h5.702V330.149z M483.042,335.851h-5.702v5.702h5.702V335.851z M488.743,330.149h-5.702v5.702h5.702V330.149z M494.445,335.851
				h-5.702v5.702h5.702V335.851z M500.148,330.149h-5.702v5.702h5.702V330.149z M505.85,335.851h-5.702v5.702h5.702V335.851z
				 M511.552,330.149h-5.702v5.702h5.702V330.149z M517.254,335.851h-5.702v5.702h5.702V335.851z M522.956,330.149h-5.702v5.702
				h5.702V330.149z M528.658,335.851h-5.702v5.702h5.702V335.851z M534.36,330.149h-5.702v5.702h5.702V330.149z M540.062,335.851
				h-5.702v5.702h5.702V335.851z M545.764,330.149h-5.702v5.702h5.702V330.149z M551.466,335.851h-5.702v5.702h5.702V335.851z"/>
			<rect x="415.449" y="354.248" style="fill:#5F3E93;" width="181.718" height="19.383"/>
			<path style="fill:#5F3E93;" d="M398.079,373.631h-57.33c-2.1,0-3.802-1.702-3.802-3.802V358.05c0-2.1,1.702-3.802,3.802-3.802
				h57.33c2.1,0,3.802,1.702,3.802,3.802v11.779C401.881,371.929,400.179,373.631,398.079,373.631z"/>
			<path style="fill:#5F3E93;" d="M641.339,373.631h-57.33c-2.1,0-3.802-1.702-3.802-3.802V358.05c0-2.1,1.702-3.802,3.802-3.802
				h57.33c2.1,0,3.802,1.702,3.802,3.802v11.779C645.141,371.929,643.439,373.631,641.339,373.631z"/>
			<g>
				<circle style="fill:#351459;" cx="401.881" cy="365.767" r="29.917"/>
				<circle style="fill:#7953AA;" cx="401.881" cy="365.767" r="19.475"/>
				<circle style="fill:#FFFFFF;" cx="401.881" cy="365.767" r="14.778"/>
				<circle style="fill:#CCCCCC;" cx="401.881" cy="365.767" r="12.665"/>
			</g>
			<g>
				<circle style="fill:#351459;" cx="580.207" cy="365.767" r="29.917"/>
				<circle style="fill:#7953AA;" cx="580.207" cy="365.767" r="19.475"/>
				<circle style="fill:#FFFFFF;" cx="580.207" cy="365.767" r="14.778"/>
				<circle style="fill:#CCCCCC;" cx="580.207" cy="365.767" r="12.665"/>
			</g>
			<g>
				<polygon style="fill:#FFFFFF;" points="446.678,287.518 409.084,311.905 416.304,311.905 451.246,287.518 				"/>
				<polygon style="fill:#FFFFFF;" points="590.586,287.518 585,287.518 606.53,311.905 613.751,311.905 				"/>
			</g>
			<g>
				<polygon style="fill:#FFFFFF;" points="518.113,311.905 597.168,311.905 577.757,287.518 518.113,287.518 				"/>
				<polygon style="fill:#FFFFFF;" points="511.417,287.518 457.169,287.518 425.667,311.905 511.417,311.905 				"/>
			</g>
			<rect x="490.673" y="319.1" style="fill:#FFFFFF;" width="20.744" height="3.984"/>
			<rect x="570.629" y="319.1" style="fill:#FFFFFF;" width="20.744" height="3.984"/>
		</g>
		<path style="fill:#7953AA;" d="M522.956,281.394h-34.212v-6.389c0-2.481,2.011-4.492,4.492-4.492h25.227
			c2.481,0,4.492,2.011,4.492,4.492V281.394z"/>
		<g>
			<g>
				<path style="fill:#C9314B;" d="M505.85,253.821l-33.555-33.555c-9.197-9.197-13.83-21.231-13.898-33.286
					c-0.069-12.234,4.564-24.489,13.898-33.824l0,0c9.925-9.925,23.154-14.535,36.147-13.828
					c11.267,0.613,22.356,5.222,30.963,13.828l0,0c9.266,9.266,13.899,21.41,13.899,33.555s-4.633,24.289-13.899,33.555
					L505.85,253.821z"/>
				<circle style="fill:#FFFFFF;" cx="505.85" cy="186.712" r="25.931"/>
			</g>
			<path style="fill:#FFFFFF;" d="M299.004,181.695c0,0.528-0.428,0.956-0.956,0.956h-3.83c-0.528,0-0.956-0.428-0.956-0.956
				s0.428-0.956,0.956-0.956h3.83C298.576,180.739,299.004,181.167,299.004,181.695z M275.071,180.739h-3.83
				c-0.528,0-0.956,0.428-0.956,0.956s0.428,0.956,0.956,0.956h3.83c0.528,0,0.956-0.428,0.956-0.956
				S275.599,180.739,275.071,180.739z M286.56,180.739h-3.83c-0.528,0-0.956,0.428-0.956,0.956s0.428,0.956,0.956,0.956h3.83
				c0.528,0,0.956-0.428,0.956-0.956S287.088,180.739,286.56,180.739z M309.537,180.739h-3.83c-0.528,0-0.956,0.428-0.956,0.956
				s0.428,0.956,0.956,0.956h3.83c0.528,0,0.956-0.428,0.956-0.956S310.065,180.739,309.537,180.739z M321.026,180.739h-3.83
				c-0.528,0-0.956,0.428-0.956,0.956s0.428,0.956,0.956,0.956h3.83c0.528,0,0.956-0.428,0.956-0.956
				S321.554,180.739,321.026,180.739z M229.117,180.739h-3.83c-0.528,0-0.956,0.428-0.956,0.956s0.428,0.956,0.956,0.956h3.83
				c0.528,0,0.956-0.428,0.956-0.956S229.644,180.739,229.117,180.739z M332.515,180.739h-3.83c-0.528,0-0.956,0.428-0.956,0.956
				s0.428,0.956,0.956,0.956h3.83c0.528,0,0.956-0.428,0.956-0.956S333.043,180.739,332.515,180.739z M217.628,180.739h-3.83
				c-0.528,0-0.956,0.428-0.956,0.956s0.428,0.956,0.956,0.956h3.83c0.528,0,0.956-0.428,0.956-0.956
				S218.156,180.739,217.628,180.739z M252.094,180.739h-3.83c-0.528,0-0.956,0.428-0.956,0.956s0.428,0.956,0.956,0.956h3.83
				c0.528,0,0.956-0.428,0.956-0.956S252.622,180.739,252.094,180.739z M263.583,180.739h-3.83c-0.528,0-0.956,0.428-0.956,0.956
				s0.428,0.956,0.956,0.956h3.83c0.528,0,0.956-0.428,0.956-0.956S264.11,180.739,263.583,180.739z M240.605,180.739h-3.83
				c-0.528,0-0.956,0.428-0.956,0.956s0.428,0.956,0.956,0.956h3.83c0.528,0,0.956-0.428,0.956-0.956
				S241.133,180.739,240.605,180.739z M424.424,180.739h-3.83c-0.528,0-0.956,0.428-0.956,0.956s0.428,0.956,0.956,0.956h3.83
				c0.528,0,0.956-0.428,0.956-0.956S424.952,180.739,424.424,180.739z M412.935,180.739h-3.829c-0.528,0-0.956,0.428-0.956,0.956
				s0.428,0.956,0.956,0.956h3.829c0.528,0,0.956-0.428,0.956-0.956S413.463,180.739,412.935,180.739z M401.447,180.739h-3.83
				c-0.528,0-0.956,0.428-0.956,0.956s0.428,0.956,0.956,0.956h3.83c0.528,0,0.956-0.428,0.956-0.956
				S401.975,180.739,401.447,180.739z M344.003,180.739h-3.829c-0.528,0-0.956,0.428-0.956,0.956s0.428,0.956,0.956,0.956h3.829
				c0.528,0,0.956-0.428,0.956-0.956S344.531,180.739,344.003,180.739z M435.912,180.739h-3.829c-0.528,0-0.956,0.428-0.956,0.956
				s0.428,0.956,0.956,0.956h3.829c0.528,0,0.956-0.428,0.956-0.956S436.441,180.739,435.912,180.739z M355.492,180.739h-3.83
				c-0.528,0-0.956,0.428-0.956,0.956s0.428,0.956,0.956,0.956h3.83c0.528,0,0.956-0.428,0.956-0.956
				S356.019,180.739,355.492,180.739z M366.98,180.739h-3.83c-0.528,0-0.956,0.428-0.956,0.956s0.428,0.956,0.956,0.956h3.83
				c0.528,0,0.956-0.428,0.956-0.956S367.508,180.739,366.98,180.739z M389.958,180.739h-3.829c-0.528,0-0.956,0.428-0.956,0.956
				s0.428,0.956,0.956,0.956h3.829c0.528,0,0.956-0.428,0.956-0.956S390.486,180.739,389.958,180.739z M378.469,180.739h-3.83
				c-0.528,0-0.956,0.428-0.956,0.956s0.428,0.956,0.956,0.956h3.83c0.528,0,0.956-0.428,0.956-0.956
				S378.998,180.739,378.469,180.739z M204.228,184.562c0.528,0,0.956-0.428,0.956-0.956v-0.956h0.956
				c0.528,0,0.956-0.428,0.956-0.956s-0.428-0.956-0.956-0.956h-1.912c-0.528,0-0.956,0.428-0.956,0.956v1.912
				C203.272,184.134,203.7,184.562,204.228,184.562z M204.228,205.91c0.528,0,0.956-0.428,0.956-0.956v-3.558
				c0-0.528-0.428-0.956-0.956-0.956s-0.956,0.428-0.956,0.956v3.558C203.272,205.482,203.7,205.91,204.228,205.91z
				 M204.228,216.583c0.528,0,0.956-0.428,0.956-0.956v-3.557c0-0.528-0.428-0.956-0.956-0.956s-0.956,0.428-0.956,0.956v3.557
				C203.272,216.155,203.7,216.583,204.228,216.583z M204.228,195.236c0.528,0,0.956-0.428,0.956-0.956v-3.558
				c0-0.528-0.428-0.956-0.956-0.956s-0.956,0.428-0.956,0.956v3.558C203.272,194.808,203.7,195.236,204.228,195.236z
				 M204.228,227.257c0.528,0,0.956-0.428,0.956-0.956v-3.558c0-0.528-0.428-0.956-0.956-0.956s-0.956,0.428-0.956,0.956v3.558
				C203.272,226.829,203.7,227.257,204.228,227.257z M445.307,178.173c-1.945,0-3.522,1.577-3.522,3.522s1.577,3.522,3.522,3.522
				c1.945,0,3.522-1.577,3.522-3.522S447.252,178.173,445.307,178.173z M204.228,232.31c-1.588,0-2.875,1.287-2.875,2.875
				s1.287,2.875,2.875,2.875s2.875-1.287,2.875-2.875S205.816,232.31,204.228,232.31z"/>
		</g>
	</g>
</g>
</svg>
