<?xml version="1.0" encoding="utf-8"?>
<!-- Generator: Adobe Illustrator 27.5.0, SVG Export Plug-In . SVG Version: 6.00 Build 0)  -->
<svg version="1.1" xmlns="http://www.w3.org/2000/svg" xmlns:xlink="http://www.w3.org/1999/xlink" x="0px" y="0px"
	 viewBox="0 0 750 500" style="enable-background:new 0 0 750 500;" xml:space="preserve">
<g id="BACKGROUND">
	<rect x="3.45" style="fill:#FFFFFF;" width="750" height="500"/>
</g>
<g id="OBJECTS">
	<g>
		<g>
			<g>
				<polygon style="fill:#E8E9EA;" points="151.495,456.407 55.329,456.407 72.196,450.074 168.362,450.074 				"/>
				<polygon style="fill:#E8E9EA;" points="325.561,456.407 229.395,456.407 246.262,450.074 342.428,450.074 				"/>
				<polygon style="fill:#E8E9EA;" points="499.627,456.407 403.461,456.407 420.328,450.074 516.494,450.074 				"/>
				<polygon style="fill:#E8E9EA;" points="673.693,456.407 577.527,456.407 594.394,450.074 690.56,450.074 				"/>
			</g>
			<g style="opacity:0.6;">
				<path style="fill:#FDE887;" d="M108.8,358.996c0,0,18.721-76.123,121.906-81.016s94.599-53.384,142.238-137.447
					c41.482-73.199,128.973-88.201,194.733-50.702s122.125,137.986,116.441,287.002H108.8V358.996z"/>
				<path style="fill:#FEF7B2;" d="M100.736,270.709c0,0,6.012-113.842,101.365-178.339c95.353-64.497,154.341,4.96,163.095,102.225
					s84.6,86.227,193.828,52.618C678.059,210.587,686.64,383.52,686.64,383.52H97.027L100.736,270.709z"/>
			</g>
			<g>
				<rect x="259.891" y="183.616" style="fill:#7DB957;" width="52.653" height="225.822"/>
				<rect x="365.197" y="277.254" style="fill:#7DB957;" width="52.653" height="132.184"/>
				<rect x="372.944" y="211.162" style="fill:#7DB957;" width="37.157" height="66.092"/>
				<rect x="381.525" y="171.943" style="fill:#7DB957;" width="19.995" height="39.219"/>
				<rect x="387.766" y="132.725" style="fill:#7DB957;" width="7.514" height="39.219"/>
				<polygon style="fill:#7DB957;" points="365.197,409.438 312.544,409.438 312.544,343.346 365.197,326.399 				"/>
				<polygon style="fill:#7DB957;" points="305.181,183.616 267.254,183.616 267.254,154.81 				"/>
				<rect x="417.849" y="357.603" style="fill:#7DB957;" width="80.401" height="51.835"/>
				<polygon style="fill:#7DB957;" points="458.05,357.603 424.454,357.603 424.454,329.52 458.05,343.346 				"/>
				<rect x="498.25" y="228.109" style="fill:#7DB957;" width="78.008" height="181.329"/>
				<rect x="506.831" y="179.744" style="fill:#7DB957;" width="60.846" height="48.365"/>
				<polygon style="fill:#7DB957;" points="560.657,164.143 560.657,179.744 539.595,179.744 				"/>
				<polygon style="fill:#7DB957;" points="652.706,409.438 576.258,409.438 576.258,283.495 614.482,313.918 652.706,313.918 				
					"/>
				<rect x="652.706" y="226.579" style="fill:#7DB957;" width="50.705" height="182.859"/>
				<polygon style="fill:#7DB957;" points="125.372,249.831 74.667,226.579 74.667,409.438 125.372,409.438 				"/>
				<rect x="662.067" y="194.595" style="fill:#7DB957;" width="31.983" height="31.983"/>
				<rect x="686.64" y="147.001" style="fill:#7DB957;" width="3.77" height="47.595"/>
				<rect x="173.737" y="311.578" style="fill:#7DB957;" width="86.154" height="97.86"/>
				<polygon style="fill:#7DB957;" points="125.372,352.142 173.737,335.76 173.737,409.438 125.372,409.438 				"/>
				<rect x="181.538" y="296.527" style="fill:#7DB957;" width="40.174" height="15.051"/>
				<rect x="187.389" y="283.495" style="fill:#7DB957;" width="29.425" height="13.032"/>
				<rect x="44.888" y="379.659" style="fill:#7DB957;" width="29.779" height="29.779"/>
			</g>
			<g>
				<g>
					<path style="fill:#3C4652;" d="M218.062,409.637H76.046c-5.151,0-9.327-4.176-9.327-9.327V134.708
						c0-5.151,4.176-9.327,9.327-9.327h142.016c5.151,0,9.327,4.176,9.327,9.327v265.601
						C227.39,405.461,223.214,409.637,218.062,409.637z"/>
					<path style="fill:#FFFFFF;" d="M212.388,134.196h-35.622c-5.809,0-11.095,3.359-13.562,8.618v0
						c-1.278,2.725-4.017,4.465-7.027,4.465h-12.109c-3.01,0-5.749-1.74-7.027-4.466l0,0c-2.467-5.259-7.752-8.618-13.562-8.618
						H81.72c-2.399,0-4.344,1.945-4.344,4.344v257.937c0,2.399,1.945,4.344,4.344,4.344h130.667c2.399,0,4.344-1.945,4.344-4.344
						V138.54C216.732,136.141,214.787,134.196,212.388,134.196z"/>
					<path style="fill:#0F1B31;" d="M153.188,136.445c0,1.694-1.373,3.067-3.067,3.067c-1.694,0-3.067-1.373-3.067-3.067
						c0-1.694,1.373-3.067,3.067-3.067C151.815,133.378,153.188,134.751,153.188,136.445z"/>
				</g>
				<g>
					<rect x="77.376" y="175.147" style="fill:#7DB957;" width="139.356" height="166.755"/>
					<g>
						<path style="fill:#7DB957;" d="M172.765,383.429h-54.003c-1.378,0-2.495-1.117-2.495-2.495v-12.069
							c0-1.378,1.117-2.495,2.495-2.495h54.003c1.378,0,2.495,1.117,2.495,2.495v12.069
							C175.26,382.312,174.143,383.429,172.765,383.429z"/>
						
							<text transform="matrix(1 0 0 1 125.9829 378.2038)" style="fill:#FFFFFF; font-family:'Montserrat-ExtraBold'; font-size:9.9172px;">PICK UP</text>
					</g>
					<g>
						<polyline style="fill:none;stroke:#D4EAA4;stroke-width:5;stroke-miterlimit:10;" points="93.229,175.147 93.229,200.562 
							145.763,200.562 145.763,222.481 						"/>
						<path style="fill:none;stroke:#D4EAA4;stroke-width:5;stroke-miterlimit:10;" d="M139.424,260.147h-28.07
							c-11.23,0-20.333,9.104-20.333,20.333v0c0,11.23,9.104,20.333,20.333,20.333h0c2.064,0,3.737,1.673,3.737,3.737v37.351"/>
						<path style="fill:none;stroke:#D4EAA4;stroke-width:5;stroke-miterlimit:10;" d="M111.354,300.814h12.421
							c2.064,0,3.737,1.673,3.737,3.737v37.351"/>
						<polyline style="fill:none;stroke:#D4EAA4;stroke-width:5;stroke-miterlimit:10;" points="145.763,270.511 145.763,326.814 
							204.757,326.814 204.757,341.902 						"/>
						<path style="fill:none;stroke:#D4EAA4;stroke-width:5;stroke-miterlimit:10;" d="M216.732,298.814h-30.975v-63.876
							c0-18.985-15.391-34.376-34.376-34.376h-5.618"/>
						<path style="fill:none;stroke:#D4EAA4;stroke-width:5;stroke-miterlimit:10;" d="M204.757,175.147v76.363
							c0,10.493-8.507,19-19,19l0,0"/>
					</g>
					<g>
						<path style="fill:#FFFFFF;" d="M145.422,218.195c-18.491,0.277-28.667,21.729-17.61,36.551l14.622,19.6
							c1.675,2.245,5.039,2.245,6.714,0l14.835-19.886C175.224,239.392,164.326,217.912,145.422,218.195z M147.056,249.688
							c-6.367,0.802-11.721-4.552-10.919-10.919c0.547-4.339,4.05-7.842,8.388-8.389c6.368-0.803,11.723,4.553,10.92,10.92
							C154.898,245.638,151.395,249.141,147.056,249.688z"/>
					</g>
					<rect x="77.376" y="341.902" style="fill:#FDCE59;" width="139.356" height="5.912"/>
					<rect x="77.376" y="169.236" style="fill:#FDCE59;" width="139.356" height="5.912"/>
				</g>
			</g>
			<path style="fill:#E8E9EA;" d="M227.39,427.937c0,1.699-36.493,3.077-81.509,3.077c-45.016,0-81.509-1.378-81.509-3.077
				c0-1.7,36.493-3.078,81.509-3.078C190.897,424.859,227.39,426.237,227.39,427.937z"/>
			<path style="fill:#E8E9EA;" d="M713.143,427.937c0,1.699-36.493,3.077-81.509,3.077s-81.509-1.378-81.509-3.077
				c0-1.7,36.493-3.078,81.509-3.078S713.143,426.237,713.143,427.937z"/>
			<g>
				<path style="fill:#021B2D;" d="M621.641,411.858c0,0,0.494-0.556,1.045,1.508c0.551,2.064,0.397,10.607-1.045,12.316
					c-1.442,1.709-36.184,4.746-37.516,1.327c-1.204-3.089,26.772-18.471,26.772-18.471L621.641,411.858z"/>
				<path style="fill:#021B2D;" d="M674.91,409.198c0,0,0.961,0.132,1.732,2.124c0.771,1.992,2.202,12.969,0.953,14.824
					c-1.248,1.855-36.583,3.254-38.278,0c-1.532-2.941,24.638-15.937,24.638-15.937L674.91,409.198z"/>
				<path style="fill:#F4C6BA;" d="M609.634,403.914l-0.613,6.807c0,0,5.199,4.234,12.621,1.137l0.613-6.807L609.634,403.914z"/>
				<path style="fill:#F4C6BA;" d="M661.476,405.861l1.161,6.735c0,0,6.114,2.752,12.488-2.152l-1.161-6.735L661.476,405.861z"/>
				<path style="fill:#002545;" d="M647.851,290.472c0,0-7.336,54.522-19.866,65.531c-13.413,11.784-21.267-6.453-20.11-16.705
					c0.518-4.551,2.062-15.463,3.628-26.193c0.888-6.06,1.777-12.063,2.489-16.83c0.866-5.792,1.464-9.756,1.464-9.756
					L647.851,290.472z"/>
				<path style="fill:#021B2D;" d="M618.491,298.389c0,0-0.154,11.71-6.988,14.717c0.888-6.06,1.777-12.063,2.489-16.83
					L618.491,298.389z"/>
				<path style="fill:#002545;" d="M607.876,339.296c0,0-0.967,55.25-0.112,65.882c0,0,12.625,3.797,16.422,0l13.775-68.69
					C637.962,336.487,620.043,320.117,607.876,339.296z"/>
				<path style="fill:#002545;" d="M672.016,315.469c-0.211,18.06-2.819,41.109-14.518,43.223
					c-14.569,2.626-18.879-20.237-19.537-64.385l33.286-0.651c0,0,0.097,1.059,0.228,2.905
					C671.732,300.336,672.113,307.404,672.016,315.469z"/>
				<path style="fill:#002545;" d="M670.686,334.748l5.141,70.855c0,0-11.294,4.221-16.145,1.261l-16.145-59.103
					C643.536,347.762,656.052,325.502,670.686,334.748z"/>
				<path style="fill:#021B2D;" d="M672.016,315.469c-7.216-3.019-7.108-16.938-7.108-16.938l6.567-1.971
					C671.732,300.336,672.113,307.404,672.016,315.469z"/>
				<g>
					<path style="fill:#F4C6BA;" d="M691.031,208.815c0,0,12.604-10.615,24.47-34.035c5.097-10.059-1.893-7.181-10.711,1.083
						c-11.713,10.977-21.746,25.451-21.746,25.451L691.031,208.815z"/>
					<path style="fill:#F4C6BA;" d="M672.622,229.328c0,0,12.337-6.767,20.561-24.829c8.224-18.062-15.718-1.502-26.049,12.032
						L672.622,229.328z"/>
					<path style="fill:#1C6C35;" d="M659.214,216.941l18.375-13.125c0,0,10.583,9.927,10.708,15.262
						c0,0-19.583,20.238-24.083,22.613L659.214,216.941z"/>
					<path style="fill:#F4C6BA;" d="M611.895,230.646c0,0-7.498,5.614-10.07,25.293s15.468-3.169,21.381-19.136L611.895,230.646z"/>
					<path style="fill:#1C6C35;" d="M626.875,218.972c-3.73,0.691-11.453,4.057-15.545,8.802c-6.099,7.072-8.503,13.851-9.45,18.244
						c2.135,3.022,13.289,5.225,16.845,5.61l4.628-8.559C623.353,243.07,628.898,232.711,626.875,218.972z"/>
					<path style="fill:#36964E;" d="M674.306,301.709c-0.165,0.364-15.822,3.275-31.484,2.848
						c-15.674-0.427-31.348-4.186-31.473-4.459c-0.04-0.086-0.017-0.706,0.057-1.76c0.046-0.621,0.108-1.395,0.188-2.301
						c0.963-10.747,4.431-39.754,8.606-49.379c4.277-9.876,6.55-22.81,6.487-27.663c4.733-1.361,16.414-0.45,16.414-0.45l6.817,0.45
						c0,0,4.629-0.887,9.296-2.054c6.939,19.587,12.153,67.454,14.278,79.494c0.154,0.854,0.285,1.623,0.399,2.289
						C674.192,300.519,674.357,301.601,674.306,301.709z"/>
					<path style="fill:#F4C6BA;" d="M648.722,213.527c0.165,2.238,0.689,4.101,1.196,5.468c-6.305,4.471-12.2,0-12.2,0
						c0.256-0.678,0.518-1.492,0.74-2.426c0.228-0.974,0.41-2.079,0.484-3.298c0.171-2.791-0.279-5.143-0.78-6.852
						c-0.148-0.495-0.302-0.934-0.444-1.316h12.2c-0.199,0.541-0.41,1.19-0.604,1.942c-0.342,1.321-0.627,2.956-0.644,4.824
						C648.665,212.405,648.682,212.957,648.722,213.527z"/>
					<path style="fill:#EF9C9C;" d="M649.312,207.047c-0.342,1.323-0.624,2.957-0.642,4.822c-2.827,1.792-6.504,3.755-10.212,4.7
						c0.23-0.977,0.412-2.082,0.487-3.301c0.171-2.786-0.28-5.142-0.785-6.849c0.336-0.543,0.629-0.994,0.839-1.315
						c0.222-0.334,0.354-0.525,0.354-0.525l2.12,0.525L649.312,207.047z"/>
					<g>
						<g>
							<path style="fill:#F4C6BA;" d="M660.893,206.209c-6.989,5.788-26.389,5.788-33.378,0c-7.909-6.55-10.987-30.501-3.078-37.051
								c6.989-5.788,32.547-5.788,39.536,0C671.88,175.708,668.802,199.659,660.893,206.209z"/>
							<path style="fill:#F4C6BA;" d="M621.861,183.176c-0.581-1.275-4.461-1.639-6.769,0c-2.307,1.639,0.154,8.817,2.615,9.792
								c2.048,0.811,4.153,0.923,4.922,0C623.399,192.045,622.938,185.538,621.861,183.176z"/>
							<path style="fill:#F4C6BA;" d="M666.06,183.176c0.581-1.275,4.461-1.639,6.768,0c2.307,1.639-0.154,8.817-2.615,9.792
								c-2.048,0.811-4.153,0.923-4.923,0C664.521,192.045,664.983,185.538,666.06,183.176z"/>
						</g>
						<g>
							
								<path style="fill:none;stroke:#6C341E;stroke-width:1.4832;stroke-linecap:round;stroke-linejoin:round;stroke-miterlimit:10;" d="
								M644.708,184.681c-0.123,1.008-0.267,1.928-0.415,2.337c0,0-4.568-1.294-5.333,1.843c-0.878,3.604,3.058,5.233,3.058,5.233"
								/>
							
								<path style="fill:none;stroke:#6C341E;stroke-width:1.4832;stroke-linecap:round;stroke-linejoin:round;stroke-miterlimit:10;" d="
								M629.404,179.591c0,0,1-2.923,4.461-2.307"/>
							
								<path style="fill:none;stroke:#6C341E;stroke-width:1.4832;stroke-linecap:round;stroke-linejoin:round;stroke-miterlimit:10;" d="
								M659.669,179.24c0,0-1-2.923-4.461-2.307"/>
							<ellipse style="fill:#6C341E;" cx="632.75" cy="183.692" rx="1.115" ry="2.353"/>
							<path style="fill:#6C341E;" d="M657.164,183.692c0,1.299-0.499,2.353-1.115,2.353c-0.616,0-1.115-1.053-1.115-2.353
								s0.499-2.353,1.115-2.353C656.665,181.339,657.164,182.393,657.164,183.692z"/>
						</g>
						<path style="fill:#6C341E;" d="M618.843,186.381c0.396,1.484,0.208,2.822-0.418,2.989c-0.627,0.167-0.489-1.203-0.884-2.687
							c-0.396-1.484-1.175-2.52-0.548-2.687S618.447,184.897,618.843,186.381z"/>
						<path style="fill:#6C341E;" d="M668.825,186.381c-0.396,1.484-0.208,2.822,0.418,2.989c0.627,0.167,0.489-1.203,0.885-2.687
							c0.396-1.484,1.175-2.52,0.548-2.687C670.05,183.829,669.221,184.897,668.825,186.381z"/>
						<path style="fill:#FF738F;" d="M635.103,191.846c0,0.764-1.992,1.383-4.449,1.383c-2.457,0-4.449-0.619-4.449-1.383
							s1.992-1.383,4.449-1.383C633.111,190.463,635.103,191.082,635.103,191.846z"/>
						<path style="fill:#FF738F;" d="M662.568,191.846c0,0.764-1.991,1.383-4.448,1.383c-2.457,0-4.449-0.619-4.449-1.383
							s1.992-1.383,4.449-1.383C660.576,190.463,662.568,191.082,662.568,191.846z"/>
					</g>
					<g>
						<path style="fill:#3C4652;" d="M645.322,285.524l-11.972-9.706c-0.434-0.352-0.501-0.99-0.149-1.424l18.153-22.39
							c0.352-0.434,0.989-0.501,1.424-0.149l11.972,9.706c0.434,0.352,0.501,0.99,0.149,1.424l-18.153,22.391
							C646.394,285.81,645.757,285.876,645.322,285.524z"/>
						<g>
							<path style="fill:#0F1B31;" d="M654.738,257.159l-2.942-2.385c-0.424-0.344-0.49-0.967-0.146-1.392l0,0
								c0.344-0.424,0.967-0.49,1.392-0.145l2.942,2.385c0.425,0.344,0.49,0.967,0.146,1.392l0,0
								C655.785,257.438,655.162,257.504,654.738,257.159z"/>
							<path style="fill:#C8CBD4;" d="M653.143,254.593c-0.204,0.252-0.574,0.291-0.826,0.086c-0.252-0.204-0.291-0.574-0.086-0.826
								c0.204-0.252,0.574-0.291,0.826-0.086C653.309,253.971,653.348,254.341,653.143,254.593z"/>
						</g>
					</g>
					<path style="fill:#F4C6BA;" d="M608.613,254.491c0,0,13.188,2.893,34.787,17.82c9.276,6.411,1.761,7.215-9.931,4.156
						c-15.53-4.063-28.923-6.156-31.503-14.147C600.996,259.321,608.613,254.491,608.613,254.491z"/>
					<path style="fill:#F4C6BA;" d="M656.178,277.946c0,0,0.898,0.145,1.853-1.288c0.955-1.433,0.323-2.698,0.323-2.698
						s1.586-0.169,2.449-2.17c0.862-2.001-1.03-2.746-1.03-2.746s-1.051,0.978-5.714,1.939c-4.663,0.961-7.417-0.944-7.417-0.944
						s-3.974-2.333-4.573-6.588l0.011-0.031c0,0,2.729-3.343,2.492-5.093c-0.237-1.751-1.64-2.612-2.422-1.139
						c-0.782,1.474-5.17,8.686-5.17,8.686l0.002,0.001c-2.563,3.366-0.167,10.603,2.616,11.905
						c7.42,3.473,13.523,3.556,15.363,2.606C656.801,279.436,656.178,277.946,656.178,277.946z"/>
					<path style="fill:#00182E;" d="M656.049,170.606c-5.528-1.127-12.063,4.009-18.67,3.745c-7.436-0.297-6.211-5.397-9.459-2.929
						c-3.601,2.737-2.239,6.34-3.52,8.169c-1.281,1.829-1.821,4.667-1.606,7.591c0.215,2.924,1.061,5.337-0.482,4.664
						c-1.543-0.673-2.466-9.694-2.466-9.694l-0.022-8.208c0,0,1.087-7.333,13.19-10.252c12.103-2.919,28.69,0.925,31.894,3.275
						c3.204,2.349,4.42,11.076,4.42,11.076l-0.769,4.057c0,0-1.088,7.933-1.871,9.072c-0.783,1.139-2.572,2.34-2.136,1.566
						c0.436-0.774,0.213-12.101,0.356-14.344C665.051,176.151,663.115,172.046,656.049,170.606z"/>
					
						<path style="fill:none;stroke:#6C341E;stroke-width:1.4832;stroke-linecap:round;stroke-linejoin:round;stroke-miterlimit:10;" d="
						M638.16,199.114c0.248,0.345,1.936,2.618,4.98,2.881c3.753,0.324,6.048-2.712,6.172-2.881"/>
					<path style="fill:#021B2D;" d="M620.027,179.591c0,0-1.755-1.303-3.27-6.872c-1.516-5.57,2.665-4.951,4.201-7.901
						s0.192-6.599,3.841-9.288s5.456,0.85,9.066-1.783c3.61-2.634,9.999-8.012,15.447-4.17c5.448,3.841,5.524,8.162,8.127,7.586
						c2.603-0.576,5.772-1.632,8.461,0.672c2.689,2.305,1.622,6.53,2.684,7.586c1.062,1.056,3.366,0.864,4.326,4.033
						c0.96,3.169-1.88,6.809-3.581,8.59c-1.701,1.781-6.761-8.59-6.761-8.59l-38.131-0.295L620.027,179.591z"/>
					<g>
						<path style="fill:#FFFFFF;" d="M626.654,220.331c-0.03,0.63-0.09,1.34-0.18,2.11c-14.42,3.96-18.41,20.11-19.43,26.52
							c-0.67-0.23-1.31-0.48-1.9-0.74C606.374,241.031,610.914,224.161,626.654,220.331z"/>
					</g>
					<g>
						<path style="fill:#F4C6BA;" d="M709.449,173.605c0,0-2.081-2.047-2.807-5.002c-1.012-4.121-3.516-5.751-2.991-6.849
							c0.688-1.438,2.706-0.046,3.146,0.145c0.799,0.347,2.333,2.708,3.208,3.5c0.561,0.508,3.493,1.245,4.12,4.335
							C714.753,172.825,709.449,173.605,709.449,173.605z"/>
						<path style="fill:#F4C6BA;" d="M709.573,166.264c0,0,2.725-7.507,3.483-9.709c0.758-2.202,1.595-3.208,2.764-2.635
							c1.859,0.911-4.805,16.384-4.805,16.384L709.573,166.264z"/>
						<path style="fill:#F4C6BA;" d="M714.314,164.285c0,0,1.997-5.742,2.756-7.944c0.758-2.202,1.595-3.208,2.764-2.635
							c1.859,0.911-4.077,14.618-4.077,14.618L714.314,164.285z"/>
						<path style="fill:#F4C6BA;" d="M716.794,168.13c0,0,1.998-5.742,2.756-7.944c0.758-2.202,1.595-3.208,2.764-2.635
							c1.859,0.911-4.077,14.618-4.077,14.618L716.794,168.13z"/>
						<path style="fill:#F4C6BA;" d="M713.872,173.131c0,0,6.481-5.957,7.629-7.709c1.148-1.752,2.498-2.747,2.992-1.686
							c1.787,3.835-10.257,13.234-10.257,13.234L713.872,173.131z"/>
						<polygon style="fill:#F4C6BA;" points="712.582,161.093 719.708,165.051 718.797,170.826 713.281,175.167 710.815,170.153 
													"/>
					</g>
				</g>
			</g>
			<circle style="fill:#FDCE59;" cx="366.88" cy="68.418" r="33.519"/>
			<path style="fill:#F19841;" d="M598.363,378.702v5.318c0,5.816-4.714,10.53-10.53,10.53H197.217c-5.81,0-10.53-4.71-10.53-10.53
				v-5.318c0-2.099,1.702-3.801,3.802-3.801h404.073C596.661,374.901,598.363,376.603,598.363,378.702z"/>
			<path style="fill:#FFD844;" d="M593.36,329.801v45.1H191.69v-46.85c0-4.25,2.56-8.08,6.48-9.71l41.52-17.32h245.34l99.72,18.43
				C589.74,320.371,593.36,324.72,593.36,329.801z"/>
			
				<line style="fill:none;stroke:#F3A241;stroke-width:2;stroke-miterlimit:10;" x1="355.693" y1="311.578" x2="355.693" y2="366.37"/>
			<g>
				<circle style="fill:#3C4652;" cx="267.254" cy="387.831" r="45.29"/>
				<circle style="fill:#5A6777;" cx="267.254" cy="387.831" r="35.553"/>
				<circle style="fill:#E0E1E2;" cx="267.254" cy="387.831" r="29.667"/>
				<path style="fill:#5A6777;" d="M273.057,387.831c0,3.205-2.598,5.803-5.803,5.803s-5.803-2.598-5.803-5.803
					s2.598-5.803,5.803-5.803S273.057,384.626,273.057,387.831z"/>
				<path style="fill:#5A6777;" d="M266.11,372.657v-9.937c-13.353,0.599-23.995,11.61-23.995,25.111h9.908
					C252.023,379.805,258.234,373.244,266.11,372.657z"/>
			</g>
			<g>
				<circle style="fill:#3C4652;" cx="510.691" cy="387.831" r="45.29"/>
				
					<ellipse transform="matrix(0.182 -0.9833 0.9833 0.182 36.3831 819.3972)" style="fill:#5A6777;" cx="510.691" cy="387.831" rx="35.553" ry="35.553"/>
				<circle style="fill:#E0E1E2;" cx="510.691" cy="387.831" r="29.667"/>
				<path style="fill:#5A6777;" d="M510.691,393.633c-3.205,0-5.803-2.598-5.803-5.803s2.598-5.803,5.803-5.803
					c3.205,0,5.803,2.598,5.803,5.803S513.896,393.633,510.691,393.633z"/>
				<path style="fill:#5A6777;" d="M525.865,386.686h9.937c-0.599-13.353-11.61-23.995-25.111-23.995v9.908
					C518.717,372.599,525.278,378.81,525.865,386.686z"/>
			</g>
			<path style="fill:#FFD844;" d="M239.69,301.02h245.34l-44.928-59.603c-3.214-4.264-8.244-6.771-13.583-6.771H289.321
				c-5.962,0-11.488,3.121-14.566,8.226L239.69,301.02z"/>
			<g>
				<path style="fill:#F2EEC5;" d="M358.523,301.02h109.192l-38.586-51.19c-2.76-3.662-7.08-5.816-11.666-5.816h-58.94V301.02z"/>
				<path style="fill:#F2EEC5;" d="M352.863,244.015h-53.233c-5.12,0-9.866,2.68-12.51,7.065l-30.115,49.941h95.858V244.015z"/>
			</g>
			<path style="fill:#D07D37;" d="M382.278,316.911h-14.256c-2.001,0-3.624-1.622-3.624-3.624v-1.71h21.503v1.71
				C385.902,315.289,384.279,316.911,382.278,316.911z"/>
			<path style="fill:#D07D37;" d="M343.611,316.911h-14.256c-2.001,0-3.624-1.622-3.624-3.624v-1.71h21.503v1.71
				C347.235,315.289,345.613,316.911,343.611,316.911z"/>
			<polygon style="fill:#FFFFFF;" points="437.689,301.02 419.352,301.02 392.352,244.015 410.689,244.015 			"/>
			<polygon style="fill:#FFFFFF;" points="410.533,301.02 402.98,301.02 375.98,244.015 383.533,244.015 			"/>
			<polygon style="fill:#FFFFFF;" points="349.533,301.02 341.98,301.02 314.98,244.015 322.533,244.015 			"/>
			<polygon style="fill:#FFFFFF;" points="337.36,301.02 333.568,301.02 306.568,244.015 310.36,244.015 			"/>
			<g>
				<path style="fill:#FFFFFF;" d="M579.61,336.915c-1.737,4.967-8.797,7.017-15.77,4.579c-6.973-2.438-11.217-8.441-9.481-13.408
					c1.737-4.967,8.797-7.017,15.77-4.579C577.102,325.944,581.347,331.948,579.61,336.915z"/>
			</g>
			<g>
				<rect x="367.178" y="343.346" style="fill:#FFFFFF;" width="11.462" height="11.462"/>
				<rect x="378.626" y="354.794" style="fill:#FFFFFF;" width="11.462" height="11.462"/>
				<rect x="390.088" y="343.346" style="fill:#FFFFFF;" width="11.462" height="11.462"/>
				<rect x="401.536" y="354.794" style="fill:#FFFFFF;" width="11.462" height="11.462"/>
				<rect x="412.999" y="343.346" style="fill:#FFFFFF;" width="11.462" height="11.462"/>
				<rect x="424.446" y="354.794" style="fill:#FFFFFF;" width="11.462" height="11.462"/>
				<rect x="435.909" y="343.346" style="fill:#FFFFFF;" width="11.462" height="11.462"/>
				<rect x="447.357" y="354.794" style="fill:#FFFFFF;" width="11.462" height="11.462"/>
			</g>
			<g>
				<rect x="199.054" y="343.346" style="fill:#FFFFFF;" width="11.462" height="11.462"/>
				<rect x="210.502" y="354.794" style="fill:#FFFFFF;" width="11.462" height="11.462"/>
				<rect x="221.965" y="343.346" style="fill:#FFFFFF;" width="11.462" height="11.462"/>
				<rect x="302.807" y="343.346" style="fill:#FFFFFF;" width="11.462" height="11.462"/>
				<rect x="314.255" y="354.794" style="fill:#FFFFFF;" width="11.462" height="11.462"/>
				<rect x="325.717" y="343.346" style="fill:#FFFFFF;" width="11.462" height="11.462"/>
				<rect x="337.165" y="354.794" style="fill:#FFFFFF;" width="11.462" height="11.462"/>
			</g>
			<path style="fill:#D07D37;" d="M366.908,228.429h-22.43c-2.182,0-3.952,1.769-3.952,3.952v2.265h30.333v-2.265
				C370.86,230.198,369.091,228.429,366.908,228.429z"/>
			<path style="fill:#FFD844;" d="M362.12,228.429h-12.853v-16.221c0-3.549,2.877-6.426,6.426-6.426l0,0
				c3.549,0,6.426,2.877,6.426,6.426V228.429z"/>
		</g>
	</g>
</g>
</svg>
