<?xml version="1.0" encoding="utf-8"?>
<!-- Generator: Adobe Illustrator 27.5.0, SVG Export Plug-In . SVG Version: 6.00 Build 0)  -->
<svg version="1.1" id="Layer_1" xmlns="http://www.w3.org/2000/svg" xmlns:xlink="http://www.w3.org/1999/xlink" x="0px" y="0px"
	 viewBox="0 0 3205 2000" style="enable-background:new 0 0 3205 2000;" xml:space="preserve">
<rect style="fill:#FFFFFF;" width="3205" height="2000"/>
<polygon style="fill:#E6EBF7;" points="3064.445,1803.788 3064.445,1405.257 2928.371,1405.257 2928.371,1111.276 
	2797.464,1111.276 2797.464,1242.176 2689.132,1242.176 2689.132,1200.03 2689.132,940.554 2511.757,940.554 2511.757,1216.353 
	2458.697,1218.122 2458.697,940.036 2396.793,940.036 2396.793,821.536 2359.651,821.536 2359.651,741.945 2214.621,741.945 
	2214.621,821.536 2177.479,821.536 2177.479,940.036 2115.575,940.036 2115.575,1090.678 2087.012,1092.453 2078.434,646.159 
	1887.417,646.159 1887.417,883.579 1820.208,885.349 1820.208,514.273 1797.215,514.273 1797.215,435.966 1595.587,435.966 
	1595.587,514.273 1572.594,514.273 1572.594,1014.334 1530.146,1014.334 1530.146,858.413 1494.773,858.413 1494.773,782.166 
	1443.481,782.166 1443.481,559.609 1369.197,559.609 1369.197,782.166 1317.906,782.166 1317.906,858.413 1282.533,858.413 
	1282.533,1122.209 1257.771,1122.209 1238.316,1121.948 1238.316,816.316 714.79,821.32 714.79,1509.547 670.574,1509.547 
	670.574,1419.345 511.394,1419.345 511.394,1592.675 465.408,1592.675 465.408,1529.003 364.594,1529.003 364.594,1638.66 
	364.594,1658.115 263.78,1658.115 263.78,1803.788 "/>
<g>
	<path style="fill:#3C8F7C;" d="M754.411,1795.037c0,0-66.319-382.678-93.136-422.196c-37.061-54.615-83.144,112.976-85.391,98.245
		c-21.226-139.108-16.784-314.556-116.054-341.143c-56.431-15.114,3.731,131.031-3.277,168.687s-100.882-96.781-158.697-167.907
		c-57.815-71.127-93.217-31.884-59.703,54.404c32.407,83.438,149.806,181.207,123.526,189.575s-173.639-107.866-195.848-65.028
		c-27.23,52.522,199.772,145.233,176.996,155.692c-22.776,10.46-130.914-38.712-130.914,3.127s149.428,52.294,145.541,70.384
		c-6.293,29.294-100.158-45.701-107.489-5.059c-7.498,41.57,127.423,44.723,122.711,77.237
		c-2.708,18.686-36.691-0.872-42.837,24.815c-14.016,58.574,198.592,140.653,198.592,140.653L754.411,1795.037z"/>
	<path style="fill:#96D9C9;" d="M860.214,1804.94c-26.982-35.102-186.363-231.437-282.838-262.775
		c-106.492-34.592-6.124,102.799-6.124,102.799s-188.914-207.275-258.239-188.589c-63.548,17.129,0,145.607,0,145.607
		s-71.574-71.145-158.371-71.145c-84.474,0,61.344,260.597,69.085,274.103H860.214z"/>
	<g>
		<path style="fill:#50BFA5;" d="M199.883,1665.494c-0.513,3.243-3.881,12.664-1.803,21.97c1.231,9.177,7.91,18.238,7.959,17.787
			c0.574-0.028-10.41-2.982-17.838-12.425c-7.948-8.668-12.34-23.823-10.58-30.363c1.871-13.788,13.296-20.492,18.015-16.464
			C200.479,1649.926,200.609,1658.321,199.883,1665.494z"/>
		<path style="fill:#50BFA5;" d="M269.316,1690.438c-0.513,3.244-3.881,12.665-1.804,21.971c1.232,9.177,7.909,18.238,7.958,17.787
			c0.574-0.028-10.41-2.982-17.838-12.425c-7.948-8.668-12.34-23.823-10.58-30.363c1.871-13.788,13.296-20.492,18.015-16.464
			C269.913,1674.871,270.042,1683.267,269.316,1690.438z"/>
		<path style="fill:#50BFA5;" d="M339.867,1721.993c-0.513,3.243-3.881,12.664-1.803,21.97c1.232,9.177,7.909,18.238,7.959,17.787
			c0.574-0.027-10.41-2.982-17.838-12.425c-7.948-8.668-12.34-23.823-10.58-30.363c1.871-13.788,13.296-20.492,18.015-16.463
			C340.463,1706.425,340.593,1714.821,339.867,1721.993z"/>
		<path style="fill:#50BFA5;" d="M179.155,1730.586c1.427-2.677,4.185-11.506,10.892-17.199c6.012-6.073,15.973-9.012,15.758-8.652
			c0.407,0.343-9.33-3.631-20.056-0.832c-10.678,1.937-22.344,10.645-24.685,16.45c-6.291,11.208-1.6,22.546,4.119,22.221
			C170.936,1742.393,175.701,1736.278,179.155,1730.586z"/>
		<path style="fill:#50BFA5;" d="M251.377,1756.236c1.426-2.678,4.184-11.506,10.891-17.2c6.012-6.073,15.973-9.011,15.758-8.651
			c0.407,0.342-9.331-3.631-20.057-0.833c-10.678,1.937-22.344,10.646-24.685,16.45c-6.29,11.209-1.6,22.547,4.119,22.221
			C243.158,1768.043,247.923,1761.929,251.377,1756.236z"/>
		<path style="fill:#50BFA5;" d="M132.487,1670.112c0.286,1.927,0.052,7.859,2.879,12.753c2.326,4.973,7.713,8.906,7.66,8.642
			c0.32-0.118-6.419,0.173-12.298-3.842c-6.035-3.484-11.21-11.274-11.376-15.289c-1.389-8.136,3.886-13.971,7.271-12.534
			C130.061,1661.197,131.625,1665.924,132.487,1670.112z"/>
		<path style="fill:#50BFA5;" d="M121.179,1702.685c1.248-1.492,4.142-6.67,9.103-9.356c4.575-3.017,11.217-3.541,11.035-3.344
			c0.21,0.269-5.381-3.518-12.485-3.182c-6.96-0.199-15.432,3.723-17.666,7.058c-5.426,6.204-3.973,13.945-0.34,14.499
			C114.463,1709.009,118.261,1705.801,121.179,1702.685z"/>
		<g>
			<g>
				<path style="fill:#50BFA5;" d="M281.592,1396.065c77.185,120.958,134.373,266.088,166.581,408.836h8.325
					c-32.073-139.759-91.918-286.077-168.975-406.902c-17.909-28.081-37.247-61.394-70.778-72.348
					c-0.647-0.212-0.893,0.775-0.275,1.009C247.097,1338.239,264.836,1369.809,281.592,1396.065z"/>
			</g>
			<g>
				<path style="fill:#50BFA5;" d="M432.528,1804.901c-86.252-117.689-194.929-232.225-319.614-326.817
					c-1.245-0.944-2.924,1.232-1.672,2.199c118.255,91.209,224.925,202.906,312.961,324.618H432.528z"/>
			</g>
			<path style="fill:#50BFA5;" d="M274.538,1321.053c-1.987,2.932-9.593,10.579-11.828,20.626
				c-3.001,9.531-0.631,21.462-0.377,21.044c0.573,0.237-8.8-7.715-11.729-20.364c-3.792-12.132-1.138-28.96,3.578-34.536
				c8.145-12.604,22.374-13.881,25.138-7.769C282.253,1306.123,278.534,1314.383,274.538,1321.053z"/>
			<path style="fill:#50BFA5;" d="M256.072,1429.021c2.882-2.051,10.352-9.832,20.319-12.271c9.438-3.199,21.373-1.058,20.961-0.793
				c0.248,0.57-7.861-8.677-20.523-11.366c-12.163-3.564-28.878-0.57-34.341,4.271c-12.398,8.419-13.39,22.72-7.246,25.371
				C241.349,1437.055,249.505,1433.16,256.072,1429.021z"/>
			<path style="fill:#50BFA5;" d="M283.939,1476.341c2.882-2.051,10.352-9.832,20.319-12.271c9.438-3.199,21.373-1.058,20.961-0.793
				c0.248,0.57-7.861-8.677-20.522-11.366c-12.163-3.564-28.878-0.57-34.342,4.271c-12.398,8.419-13.39,22.72-7.246,25.371
				C269.215,1484.376,277.372,1480.48,283.939,1476.341z"/>
			<path style="fill:#50BFA5;" d="M184.541,1586.101c2.882-2.052,10.352-9.833,20.319-12.272c9.438-3.199,21.372-1.057,20.961-0.793
				c0.247,0.57-7.862-8.677-20.523-11.366c-12.163-3.563-28.879-0.569-34.342,4.271c-12.397,8.419-13.39,22.72-7.246,25.371
				C169.818,1594.135,177.975,1590.24,184.541,1586.101z"/>
			<path style="fill:#50BFA5;" d="M133.76,1541.21c2.882-2.051,10.352-9.832,20.319-12.272c9.438-3.199,21.373-1.057,20.961-0.793
				c0.247,0.57-7.861-8.677-20.523-11.365c-12.164-3.564-28.879-0.57-34.342,4.271c-12.398,8.42-13.39,22.721-7.246,25.372
				C119.036,1549.245,127.192,1545.35,133.76,1541.21z"/>
			<path style="fill:#50BFA5;" d="M313.528,1374.598c-2.423,2.581-11.135,8.929-14.921,18.497
				c-4.461,8.938-3.996,21.094-3.679,20.722c0.529,0.324-7.478-9.012-8.383-21.966c-1.837-12.58,3.427-28.778,8.96-33.538
				c10.023-11.157,24.276-10.167,26.044-3.695C323.493,1361.075,318.521,1368.644,313.528,1374.598z"/>
			<path style="fill:#50BFA5;" d="M354.505,1428.262c-3.449,1.836-15.496,5.164-21.556,14.21c-6.859,8.05-7.729,21.818-7.274,21.54
				c0.645,0.59-8.587-13.282-8.188-28.131c-0.854-14.832,7.925-30.64,15.664-33.566c14.327-8.13,32.656-0.878,34.16,7.107
				C369.043,1417.468,361.691,1423.771,354.505,1428.262z"/>
			<path style="fill:#50BFA5;" d="M397.633,1509.542c-3.707,1.228-16.141,2.476-23.63,10.37c-8.11,6.778-11.276,20.204-10.78,20.006
				c0.537,0.69-6.239-14.543-3.357-29.111c1.645-14.766,12.948-28.867,21.067-30.445c15.485-5.597,32.338,4.645,32.482,12.771
				C413.773,1501.355,405.47,1506.327,397.633,1509.542z"/>
			<path style="fill:#50BFA5;" d="M270.013,1566.161c-2.701,1.689-12.312,5.085-16.728,12.79
				c-5.122,6.939-5.049,18.189-4.694,17.937c0.558,0.443-7.739-10.313-8.257-22.414c-1.536-12.017,4.708-25.377,10.837-28.199
				c11.192-7.432,26.514-2.58,28.19,3.83C281.226,1556.55,275.603,1562.097,270.013,1566.161z"/>
			<path style="fill:#50BFA5;" d="M203.572,1340.083c1.615-1.34,5.695-6.271,11.484-8.151c5.444-2.307,12.598-1.563,12.365-1.39
				c0.171,0.327-5.029-4.788-12.636-5.822c-7.351-1.574-17.108,0.931-20.129,4.034c-6.967,5.524-6.93,14.028-3.18,15.327
				C195.212,1345.482,199.867,1342.82,203.572,1340.083z"/>
			<path style="fill:#50BFA5;" d="M219.046,1305.543c-0.071,2.102-1.473,8.354,0.577,14.104c1.502,5.734,6.456,10.966,6.452,10.675
				c0.362-0.063-6.849-1.073-12.311-6.487c-5.73-4.881-9.709-14.164-9.104-18.459c0.108-8.91,6.842-14.072,10.157-11.885
				C218.204,1295.604,218.945,1300.928,219.046,1305.543z"/>
			<path style="fill:#50BFA5;" d="M97.189,1495.484c1.616-1.34,5.695-6.271,11.485-8.151c5.443-2.308,12.597-1.563,12.365-1.39
				c0.171,0.326-5.029-4.788-12.636-5.822c-7.351-1.574-17.108,0.931-20.129,4.034c-6.967,5.524-6.93,14.028-3.18,15.327
				C88.83,1500.884,93.485,1498.222,97.189,1495.484z"/>
			<path style="fill:#50BFA5;" d="M115.856,1460.646c-0.243,2.09-2.15,8.205-0.576,14.104c1.029,5.838,5.539,11.459,5.559,11.169
				c0.366-0.033-6.738-1.633-11.739-7.478c-5.313-5.335-8.521-14.914-7.566-19.146c0.834-8.871,7.968-13.462,11.093-11.01
				C115.829,1450.672,116.133,1456.039,115.856,1460.646z"/>
		</g>
		<path style="fill:#50BFA5;" d="M128.901,1689.367c22.247,2.012,44.229,6.105,65.83,11.781
			c39.404,10.354,77.307,25.648,114.604,41.909c18.335,7.993,36.79,15.878,54.775,24.64c8.406,4.096,16.872,8.206,24.619,13.455
			c10.443,7.075,26.742,21.258,28.716,23.494l-8.564,0.255c-5.85-4.766-27.333-22.907-57.151-37.271
			c-70.663-34.041-144.068-68.95-222.882-77.618C128.438,1689.966,128.487,1689.33,128.901,1689.367z"/>
	</g>
</g>
<path style="fill:#96D9C9;" d="M987.254,1797.178c20.917-17.926,33.569-36.94,30.329-55.853
	c-5.779-33.734-53.674-12.055-55.494-36.411c-3.167-42.382,179.642-32.469,173.601-86.807
	c-5.906-53.128-140.27,33.779-145.892-4.616c-3.471-23.712,199.68-21.704,203.808-75.613c4.129-53.909-146.993-1.753-176.768-17.589
	s286.419-111.778,254.771-182.273c-25.813-57.495-236.603,77.005-271.323,63.501c-34.721-13.504,133.721-127.316,185.789-231.468
	c53.846-107.709,9.833-161.939-75.387-76.283s-225.461,249.15-231.224,199.907c-5.764-49.244,90.033-231.318,12.212-217.689
	c-136.898,23.975-148.202,250.495-190.639,427.534c-4.494,18.746-50.289-201.964-105.807-135.432
	c-28.557,34.222,24.403,286.228,57.417,429.092H987.254z"/>
<ellipse transform="matrix(0.086 -0.9963 0.9963 0.086 789.0974 2292.3064)" style="fill:#FFFFFF;" cx="1643.885" cy="716.085" rx="72.54" ry="72.539"/>
<path style="fill:#F48C7F;" d="M2275.503,627.837c-2.292,18.066,16.522,32.404,33.255,31.273
	c18.498-1.25,34.188-16.42,36.894-34.597c2.929-19.675-8.894-35.41-27.183-36.852c-17.804-1.404-29.192,14.443-24.051,30.434
	c3.687,11.464,14.152,15.739,19.424,12.575c4.109-2.466,3.86-8.683-1.114-9.781c-1.993-0.44-4.048,0.672-5.107,2.202
	c-4.354-1.728-8.499-9.657-5.687-18.217c3.592-10.934,17.416-11.56,26-6.46c10.929,6.491,12.646,20.468,8.638,31.606
	c-4.208,11.695-15.692,20.907-28.196,21.794c-14.164,1.005-26.63-9.853-27.762-23.962
	C2280.347,624.522,2275.914,624.603,2275.503,627.837z"/>
<path style="fill:#F48C7F;" d="M2592.652,567.394l11.879-26.809l-15.352-24.984c-1.748-2.846,0.525-6.461,3.848-6.118l29.168,3.012
	l19.018-22.321c2.166-2.542,6.307-1.497,7.007,1.769l6.148,28.671l27.105,11.19c3.087,1.274,3.372,5.536,0.483,7.21l-25.369,14.708
	l-2.265,29.236c-0.258,3.33-4.223,4.919-6.709,2.688l-21.827-19.582l-28.505,6.88C2594.035,573.728,2591.3,570.448,2592.652,567.394
	z"/>
<path style="fill:#F7CC7F;" d="M1480.319,377.523l8.91-20.109l-11.515-18.741c-1.311-2.134,0.394-4.846,2.886-4.589l21.879,2.259
	l14.265-16.742c1.625-1.907,4.731-1.123,5.256,1.326l4.612,21.506l20.331,8.393c2.315,0.956,2.53,4.152,0.362,5.409l-19.028,11.032
	l-1.699,21.93c-0.194,2.498-3.167,3.689-5.032,2.016l-16.373-14.688l-21.381,5.161
	C1481.356,382.274,1479.305,379.814,1480.319,377.523z"/>
<polygon style="fill:#50BFA5;" points="2792.147,799.459 2804.764,776.539 2843.885,792.764 2866.465,761.526 2897.727,768.882 
	2901.45,753.057 2859.639,743.218 2838.24,772.821 2797.542,755.943 2778.558,790.433 "/>
<polygon style="fill:#07345A;" points="1765.955,304.934 1743.742,291.111 1762.035,252.913 1732.048,228.696 1741.063,197.871 
	1725.46,193.308 1713.401,234.534 1741.818,257.483 1722.79,297.222 1756.216,318.022 "/>
<path style="fill:#50BFA5;" d="M2058.078,461.519l16.441-26.707l-13.203-5.355c-2.89-1.172-4.282-4.464-3.11-7.353l0,0
	c1.172-2.89,4.464-4.282,7.354-3.11l15.228,6.175l14.699-23.983l-14.103-5.719c-2.89-1.172-4.282-4.464-3.11-7.353l0,0
	c1.172-2.889,4.464-4.281,7.354-3.11l16.127,6.54l17.071-27.464c1.451-2.334,4.371-3.284,6.917-2.252l2.462,0.999
	c3.231,1.31,4.515,5.208,2.692,8.182l-15.878,25.915l23.382,9.482l17.072-27.464c1.45-2.333,4.369-3.284,6.916-2.251l2.687,1.09
	c3.231,1.311,4.515,5.208,2.692,8.181l-15.878,25.915l13.204,5.354c2.89,1.172,4.281,4.464,3.109,7.354l0,0
	c-1.171,2.889-4.463,4.282-7.353,3.11l-15.228-6.175l-14.476,24.074l14.104,5.72c2.89,1.171,4.282,4.464,3.11,7.353l0,0
	c-1.172,2.89-4.464,4.282-7.354,3.11l-16.127-6.54l-17.438,28.323c-1.445,2.347-4.375,3.308-6.93,2.272l-2.879-1.168
	c-3.236-1.312-4.517-5.218-2.686-8.191l16.442-26.706l-23.382-9.482l-17.438,28.323c-1.444,2.348-4.374,3.308-6.929,2.272
	l-2.879-1.167C2057.527,468.397,2056.247,464.492,2058.078,461.519z M2117.658,440.122l14.7-23.983l-23.382-9.482l-14.7,23.983
	L2117.658,440.122z"/>
<g>
	<path style="fill:#E25A44;" d="M1342.717,182.645L1342.717,182.645c-0.067-0.024-0.136-0.045-0.202-0.069
		c-1.897-0.684-3.829-1.294-5.781-1.858c-0.666-0.192-1.329-0.392-2-0.57c-0.706-0.187-1.42-0.353-2.133-0.524
		c-0.724-0.174-1.447-0.347-2.177-0.504c-0.689-0.148-1.382-0.283-2.076-0.415c-0.777-0.149-1.557-0.29-2.341-0.419
		c-0.666-0.11-1.333-0.215-2.003-0.311c-0.847-0.122-1.698-0.227-2.552-0.326c-0.621-0.072-1.24-0.146-1.865-0.206
		c-0.975-0.093-1.958-0.161-2.941-0.225c-0.518-0.033-1.032-0.078-1.552-0.103c-1.511-0.072-3.03-0.116-4.56-0.116h-701.31
		c-1.632,0-3.254,0.042-4.866,0.124c-3.224,0.164-6.405,0.49-9.535,0.97c-1.565,0.24-3.118,0.518-4.657,0.835
		c-40.015,8.216-70.823,41.791-75.021,83.259c-0.323,3.19-0.488,6.426-0.488,9.702v1171.004v267.158
		c0,41.066,26.003,76.032,62.385,89.244l0,0c0.161,0.059,0.325,0.107,0.486,0.165c1.804,0.645,3.637,1.225,5.49,1.76
		c0.668,0.193,1.333,0.393,2.007,0.571c0.706,0.188,1.42,0.354,2.133,0.524c0.724,0.174,1.447,0.347,2.177,0.504
		c0.689,0.148,1.381,0.283,2.075,0.416c0.777,0.148,1.558,0.289,2.342,0.419c0.666,0.11,1.332,0.215,2.002,0.311
		c0.847,0.122,1.698,0.227,2.553,0.326c0.621,0.071,1.241,0.146,1.865,0.206c0.975,0.093,1.957,0.161,2.941,0.225
		c0.518,0.032,1.032,0.077,1.551,0.103c1.512,0.072,3.03,0.115,4.56,0.115h701.31c3.265,0,6.49-0.166,9.669-0.489
		c44.507-4.536,79.89-40.039,84.41-84.698c0.323-3.189,0.488-6.426,0.488-9.701V539.047V271.889
		C1405.102,230.823,1379.1,195.857,1342.717,182.645z"/>
	<g>
		<rect x="560.5" y="306.327" style="fill:#EAFCFC;" width="801.477" height="1369.286"/>
		<path style="fill:#FFFFFF;" d="M1361.977,883.128l-231.32-18.979l-6.594-135.577l-56.841-2.358v-92.386l294.756,126.43v-25.942
			l-97.779-41.94l-18.509-386.048h-23.87l18.007,375.594l-172.605-74.036v-2.637h-6.147l-39.274-16.846l-0.183-282.076h-23.842
			l0.176,271.847L758.813,475.601V306.327h-47.685v148.82L560.5,390.539v25.942l150.628,64.609v150.834L560.5,561.611v26.311
			l150.628,70.313v89.06l-135.99,172.626L560.5,920.21v23.847l119.723-2.366v162.354l125.006,69.444l-131.146,57.653L560.5,1150.094
			v29.29l107.264,76.54l0.09-0.126l-25.836,419.815h47.775l16.053-260.854l201.51,73.659l-23.065,187.195h24.022l22.03-178.793
			l196.674,71.892l-34.426,106.901h25.048l31.788-98.71l212.55,77.694v-25.385l-205.236-75.021l58.103-180.426l-74.365-41.312
			c25.837-31.289,81.642-98.946,137.325-166.949c35.467-43.313,62.904-77.009,84.173-103.294v-37.965
			c-26.362,32.758-60.396,74.573-96.971,119.271l-124.636-79.655l-8.545-175.695l230.152,18.882V883.128z M1078.552,774.409
			l13.114,269.627l-143.629-124.76V768.995L1078.552,774.409z M758.813,501.543l284.566,122.059v101.623L758.813,713.42V501.543z
			 M605.969,919.312L731.463,760.01l192.731,7.995v145.019L605.969,919.312z M704.066,1090.015V941.22l227.697-4.499
			l138.463,120.271L832.638,1161.44L704.066,1090.015z M1186.146,1385.099L1134.331,1546l-426.957-156.068l7.674-124.709
			l142.524-62.655L1186.146,1385.099z M1249.797,1162.093c-43.754,53.404-90.042,109.617-130.511,158.589l-234.305-130.164
			l242.492-106.603L1249.797,1162.093z"/>
		<g>
			<g>
				<polygon style="fill:#C0DDE3;" points="1139.314,1569.104 671.631,1401.966 679.821,1249.626 1090.05,1068.293 927.79,929.213 
					927.79,753.42 726.456,747.364 726.456,587.173 743.486,587.173 743.486,730.838 944.819,736.894 944.819,921.38 
					1121.647,1072.946 696.266,1260.977 689.318,1390.201 1145.045,1553.067 				"/>
			</g>
		</g>
		<path style="fill:#183658;" d="M690.921,530.367l43.64,86.623l45.809-85.495c13.562-31.36-8.208-67.138-42.346-68.558
			c-0.505-0.021-1.012-0.035-1.521-0.041c-0.509-0.006-1.016-0.005-1.521,0.003C700.818,463.457,678.153,498.675,690.921,530.367z
			 M713.248,512.391c0.157-12.497,10.416-22.5,22.913-22.343c12.497,0.158,22.5,10.416,22.343,22.913
			c-0.158,12.497-10.416,22.499-22.913,22.342C723.093,535.146,713.09,524.888,713.248,512.391z"/>
		<path style="fill:#184655;" d="M1096.926,1482.482l43.64,86.622l45.809-85.495c13.562-31.36-8.208-67.139-42.346-68.558
			c-0.505-0.021-1.012-0.034-1.521-0.041s-1.016-0.006-1.521,0.003C1106.824,1415.572,1084.159,1450.79,1096.926,1482.482z
			 M1119.253,1464.506c0.157-12.496,10.416-22.5,22.913-22.342c12.497,0.157,22.5,10.415,22.342,22.912
			c-0.157,12.497-10.416,22.5-22.913,22.343C1129.099,1487.262,1119.095,1477.003,1119.253,1464.506z"/>
	</g>
	<path style="fill:#FFFFFF;" d="M1130.558,263.296h-340.06c-0.479,0-0.868-0.389-0.868-0.868v-15.422
		c0-0.479,0.388-0.868,0.868-0.868h340.06c0.479,0,0.868,0.389,0.868,0.868v15.422
		C1131.426,262.907,1131.037,263.296,1130.558,263.296z"/>
	<path style="opacity:0.3;fill:#DAEEF7;" d="M998.649,1741.586c0,21.739-17.563,39.362-39.229,39.362
		c-21.666,0-39.229-17.623-39.229-39.362c0-21.74,17.564-39.363,39.229-39.363C981.086,1702.223,998.649,1719.846,998.649,1741.586z
		"/>
	<rect x="560.5" y="1618.163" style="opacity:0.2;fill:#3CB4C5;" width="798.758" height="57.45"/>
	<rect x="560.5" y="306.327" style="opacity:0.2;fill:#3CB4C5;" width="801.477" height="72.666"/>
</g>
<g>
	<path style="fill:#F7CC7F;" d="M2458.566,927.55h-296.051c-10.226,0-18.516,8.318-18.516,18.579v122.589
		c0,10.261,8.29,18.579,18.516,18.579h233.08c9.434,13.208,26.536,36.86,28.046,36.86c1.413,0-1.308-22.341-3.226-36.86h38.15
		c10.227,0,18.516-8.318,18.516-18.579V946.129C2477.082,935.869,2468.793,927.55,2458.566,927.55z"/>
	<path style="fill:#FFFFFF;" d="M2269.883,979.281h-85.262c-1.449,0-2.623-1.174-2.623-2.623v-2.849
		c0-1.448,1.174-2.623,2.623-2.623h85.262c1.449,0,2.623,1.174,2.623,2.623v2.849
		C2272.506,978.106,2271.332,979.281,2269.883,979.281z"/>
	<path style="fill:#FFFFFF;" d="M2240.512,1014.613h-55.891c-1.449,0-2.623-1.174-2.623-2.623v-2.848
		c0-1.448,1.174-2.623,2.623-2.623h55.891c1.448,0,2.623,1.175,2.623,2.623v2.848
		C2243.135,1013.44,2241.96,1014.613,2240.512,1014.613z"/>
	<path style="fill:#FFFFFF;" d="M2323.13,1014.613h-61.011c-1.448,0-2.622-1.174-2.622-2.623v-2.848
		c0-1.448,1.174-2.623,2.622-2.623h61.011c1.448,0,2.623,1.175,2.623,2.623v2.848
		C2325.753,1013.44,2324.578,1014.613,2323.13,1014.613z"/>
	<path style="fill:#FFFFFF;" d="M2437.806,1014.613h-90.443c-1.448,0-2.623-1.174-2.623-2.623v-2.848
		c0-1.448,1.175-2.623,2.623-2.623h90.444c1.447,0,2.622,1.175,2.622,2.623v2.848
		C2440.429,1013.44,2439.254,1014.613,2437.806,1014.613z"/>
	<path style="fill:#FFFFFF;" d="M2437.807,979.281h-143.208c-1.448,0-2.622-1.174-2.622-2.623v-2.848
		c0-1.448,1.174-2.623,2.622-2.623h143.208c1.447,0,2.622,1.174,2.622,2.623v2.848
		C2440.429,978.106,2439.254,979.281,2437.807,979.281z"/>
	<path style="fill:#FFFFFF;" d="M2300.621,1050.615h-116c-1.449,0-2.623-1.174-2.623-2.623v-2.848c0-1.448,1.174-2.623,2.623-2.623
		h116c1.448,0,2.622,1.175,2.622,2.623v2.848C2303.243,1049.441,2302.069,1050.615,2300.621,1050.615z"/>
	<path style="fill:#FFFFFF;" d="M2437.807,1050.615h-116.039c-1.448,0-2.623-1.174-2.623-2.623v-2.848
		c0-1.448,1.175-2.623,2.623-2.623h116.039c1.447,0,2.622,1.175,2.622,2.623v2.848
		C2440.429,1049.441,2439.254,1050.615,2437.807,1050.615z"/>
</g>
<g>
	<path style="fill:#183658;" d="M918.448,1611.236c0,0,378.483,62.808,383.022,60.085s53.55-214.201,53.55-214.201
		s-312.979-56.273-318.048-56.273c-5.069,0-73.142,54.458-74.049,58.089C962.015,1462.565,918.448,1611.236,918.448,1611.236z"/>
	<path style="fill:#183658;" d="M2072.958,1664.968c9.076,0.907,467.431-8.913,467.431-8.913l-34.489-105.448
		c0,0-63.534-96.078-97.117-94.328c-33.582,1.749-233.304-30.635-267.773-6.728c-34.469,23.906-65.327,4.846-81.665,62.027
		c-16.338,57.181-29.081,63.584-16.355,98.049C2055.713,1644.092,2072.958,1664.968,2072.958,1664.968z"/>
	<g>
		
			<ellipse transform="matrix(0.0022 -1 1 0.0022 -541.7087 2754.884)" style="fill:#1A1A1A;" cx="1109.564" cy="1648.882" rx="156.059" ry="156.007"/>
		<ellipse style="fill:#9E9DA2;" cx="1109.564" cy="1648.882" rx="108.545" ry="108.581"/>
		<ellipse style="fill:#D8D9DD;" cx="1109.564" cy="1648.882" rx="72.592" ry="72.616"/>
	</g>
	<g>
		
			<ellipse transform="matrix(0.0022 -1 1 0.0022 656.8305 3956.0154)" style="fill:#1A1A1A;" cx="2310.704" cy="1648.882" rx="156.059" ry="156.007"/>
		<ellipse style="fill:#9E9DA2;" cx="2310.704" cy="1648.882" rx="108.545" ry="108.581"/>
		<ellipse style="fill:#D8D9DD;" cx="2310.704" cy="1648.882" rx="72.593" ry="72.616"/>
	</g>
	<path style="fill:#F7CC7F;" d="M2668.871,1500.359c-13.19-86.972-55.825-105.238-181.949-130.464
		c-139.171-27.834-315.856-118.597-315.856-118.597s-301.334-147.643-375.155-164.585s-255.348-12.102-407.83-10.892
		c-152.482,1.211-242.035,43.566-319.487,104.076c-77.452,60.508-211.781,106.495-211.781,106.495l-24.403,4.357
		c-25.094,4.481-43.367,26.306-43.367,51.797v215.82c0,24.438,16.46,45.81,40.086,52.05l88.192,23.297l0,0
		c7.183,1.238,13.861-3.869,14.653-11.115c9.659-88.293,85.984-155.393,177.001-155.284c96.781,0.115,176.149,79.64,176.088,176.421
		c-0.007,10.997-1.025,21.757-2.962,32.194c-2,10.776,6.279,20.713,17.24,20.713h811.653c15.771,0,28.024-13.858,25.934-29.49
		c-1.007-7.523-1.538-15.196-1.562-22.989c-0.288-95.593,77.014-174.842,172.586-176.811c99.074-2.041,180.028,77.66,180.028,176.27
		c0,6.528-0.356,12.974-1.05,19.317c-1.964,17.965,11.938,33.703,30.011,33.703h116.715c21.22,0,38.423-17.202,38.423-38.423
		v-113.048C2672.079,1530.178,2671.119,1515.186,2668.871,1500.359z"/>
	<path style="fill:#CF283C;" d="M794.185,1368.08h96.128c8.234,0,13.812,8.386,10.629,15.98l-10.799,25.766
		c-10.295,24.563-34.326,40.547-60.958,40.547h-35c-6.85,0-12.404-5.554-12.404-12.404v-57.484
		C781.781,1373.634,787.335,1368.08,794.185,1368.08z"/>
	<path style="fill:#F3FCFF;" d="M2515.966,1408.017c52.938,8.105,113.905,58.236,113.905,58.236
		c14.573,15.661,2.535,41.086-18.815,39.736l-103.218-6.523c-21.439-1.354-39.722-16.019-45.699-36.652l0,0
		C2452.1,1428.152,2460.642,1399.545,2515.966,1408.017z"/>
	<path style="fill:#EAB054;" d="M789.602,1566.403c-6.617-0.161-11.308,6.488-8.867,12.641
		c6.904,17.398,21.711,31.074,40.643,36.075l98.819,26.103c8.048,1.388,15.531-4.335,16.419-12.454
		c1.83-16.732,5.824-32.771,11.656-47.891c1.976-5.121-1.751-10.644-7.239-10.777L789.602,1566.403z"/>
	<path style="fill:#EAB054;" d="M2488.807,1607.076c-7.509-0.184-13.303,6.401-12.34,13.85c1.068,8.275,1.621,16.713,1.621,25.279
		c0,7.244-0.396,14.396-1.165,21.435c-2.179,19.935,13.248,37.397,33.301,37.397h129.507c23.547,0,42.635-19.088,42.635-42.635
		v-33.515c0-9.504-7.581-17.272-17.082-17.504L2488.807,1607.076z"/>
	<path style="opacity:0.5;fill:#FEB546;" d="M2171.285,1301.27c-1.719-0.944-173.285-95.071-287.061-147.769
		c-112.643-52.172-238.389-46.641-243.809-46.367c-14.449-0.332-315.29-6.856-407.78,21.971
		c-93.17,29.04-214.515,161.325-219.635,166.942l-1.414,1.551l32.632,153.117l3.495-0.196c94.896-5.36,167.543,19.9,210.061,73.033
		c32.14,40.166,36.109,82.585,36.146,83.009l0.313,3.644l342.153,8.794v0.024l3.95,0.077l4.218,0.108v-0.026l476.748,9.299
		l0.063-4.1c2.381-154.93,51.363-316.721,51.858-318.336l0.973-3.178L2171.285,1301.27z M1301.621,1602.223
		c-1.645-11.489-8.861-47.847-37.194-83.431c-30.536-38.35-92.341-82.556-213.675-76.614l-30.297-142.161
		c14.046-15.097,128.834-136.378,214.612-163.114c85.819-26.748,364.563-22.382,401.32-21.681v495.604L1301.621,1602.223z
		 M2113.271,1620.154l-468.717-9.143v-495.858c22.054-0.637,134.635-1.298,236.235,45.76
		c105.401,48.818,260.633,133.338,283.675,145.935C2157.633,1330.208,2116.207,1477.38,2113.271,1620.154z"/>
	<path style="opacity:0.5;fill:#FEB546;" d="M780.736,1579.044c6.904,17.398,21.711,31.074,40.643,36.075l98.819,26.103
		c8.048,1.388,15.531-4.335,16.419-12.454c0.706-6.459,1.743-12.812,3.076-19.051L780.736,1579.044z"/>
	<path style="opacity:0.5;fill:#FEB546;" d="M2477.861,1655.378c-0.191,4.121-0.495,8.212-0.938,12.262
		c-2.179,19.935,13.248,37.397,33.301,37.397h129.507c23.547,0,42.635-19.088,42.635-42.635v-7.024H2477.861z"/>
	<path style="fill:#EAB054;" d="M2143.017,1655.378c-0.026-8.838,0.606-17.536,1.845-26.052
		c1.486-10.227-6.137-19.495-16.469-19.747l-844.201-20.604c-9.209-0.226-15.849,8.563-13.338,17.426
		c4.38,15.461,6.725,31.745,6.714,48.542c-0.007,11.133-1.033,22.025-2.983,32.595c-2.038,11.039,6.289,21.256,17.515,21.256
		h826.111c16.206,0,28.458-14.334,26.345-30.401C2143.563,1670.857,2143.04,1663.178,2143.017,1655.378z"/>
	<path style="opacity:0.5;fill:#FEB546;" d="M2143.017,1655.378c-0.001-0.146,0.007-0.29,0.007-0.436h-865.456
		c-0.007,11.133-1.033,22.025-2.983,32.595c-2.038,11.039,6.289,21.256,17.515,21.256h826.111c16.206,0,28.458-14.334,26.345-30.401
		C2143.563,1670.857,2143.04,1663.178,2143.017,1655.378z"/>
	<path style="fill:#EAB054;" d="M1202.557,1362.68h-105.325c-2.495,0-4.519-2.022-4.519-4.518v-9.419
		c0-2.495,2.023-4.519,4.519-4.519h105.325c2.496,0,4.519,2.023,4.519,4.519v9.419
		C1207.076,1360.657,1205.053,1362.68,1202.557,1362.68z"/>
	<path style="fill:#EAB054;" d="M1783.223,1371.908h-105.324c-2.496,0-4.519-2.023-4.519-4.519v-9.419
		c0-2.495,2.022-4.518,4.519-4.518h105.324c2.496,0,4.519,2.022,4.519,4.518v9.419
		C1787.741,1369.885,1785.719,1371.908,1783.223,1371.908z"/>
	<path style="fill:#183658;" d="M1112.854,1315.744l466.546,4.409c0,0,28.555-0.769,32.441-27.639
		c3.887-26.871,3.558-141.957,3.558-141.957s-3.387-23.106-25.518-23.403c-13.449-0.181-126.167-8.236-235.799,5.118
		c-89.432,10.894-172.165,51.741-234.886,114.483l-33.117,33.128C1086.08,1279.884,1063.744,1315.28,1112.854,1315.744z"/>
	<path style="fill:#183658;" d="M1667.332,1165.155v120.665c0,15.677,12.025,28.554,27.238,29.166l366.599,14.741
		c8.416,0.339,16.659-3.464,21.482-10.573c6.58-9.699,7.341-25.654-25.507-47.045c-57.128-37.199-202.468-117.655-256.234-125.441
		c-34.225-4.956-78.999-7.107-107.027-8.018C1679.35,1138.18,1667.332,1150.183,1667.332,1165.155z"/>
</g>
<g>
	<path style="fill:#183658;" d="M2442.414,1183.122l-2.406,2.161c-1.237,1.111-3.1,1.064-4.16-0.104l-42.698-47.099
		c-1.06-1.169-0.916-3.018,0.321-4.13l2.406-2.161c1.237-1.111,3.1-1.065,4.16,0.104l42.698,47.099
		C2443.795,1180.161,2443.651,1182.01,2442.414,1183.122z"/>
	<path style="fill:#F7A491;" d="M2587.174,1144.858c-5.707-4.656-49.842,14.775-49.281,21.54
		c0.56,6.766-30.797,72.343-30.797,72.343l-54.188-43.354l-0.022,0.014c-0.479-1.568-5.616-18.43-5.866-21.446
		c-0.262-3.164-9.418-8.7-13.671-7.885s3.637,6.168,4.154,7.15c1.41,2.675-4.041,3.679-4.041,3.679s-15.657-8.622-15.989-13.692
		c-0.333-5.07-3.565-15.699-6.947-13.476c-1.745,1.147-1.729,8.688-1.185,12.265c-1.005-4.061-2.431-8.647-3.815-9.102
		c-2.534-0.83-3.793,2.402-3.333,3.99c0.46,1.587,4.55,18.83,5.792,20.771c1.215,1.896,26.499,22.336,30.142,26.772
		c0,0,70.09,80.396,75.08,82.5c4.378,1.846,19.991-25.86,34.741-44.254C2562.698,1224.281,2605.008,1159.408,2587.174,1144.858z"/>
	<path style="fill:#F48C7F;" d="M2728.597,1736.021c0,0,9.632,9.431,9.851,12.891c0.218,3.461,0.853,40.535-3.079,43.996
		s-15.481,5.915-11.768,9.808c2.806,2.942,24.396,2.313,38.704,1.523c4.177-0.23,9.415-33.67,11.069-38.585
		c2.402-7.138,8.245-23.216,6.062-28.19c-1.064-2.425-6.156-7.406-13.331-12.057c-7.548-4.891-14.768-15.78-14.768-15.78
		L2728.597,1736.021z"/>
	<path style="fill:#F7A491;" d="M2628.826,1757.979c0,0,8.619,24.432,8.63,24.494c0.641,3.871,3.164,13.434,3.164,16.952
		c0,13.22-59.413-11.221-46.099-17.079c1.206-0.53,4.986-4.766,5.383-9.265c0.611-6.932-5.004-15.626-5.004-15.626
		L2628.826,1757.979z"/>
	<g>
		<path style="fill:#355389;" d="M2535.621,1303.037c0,0-4.331,43.798-4.331,44.451c0,70.849-13.997,209.242-11.335,222.562
			c6.494,32.489,76.384,198.226,76.384,198.226l37.774-4.53l-49.224-198.434l18.114-79.87l25.632-157.879L2535.621,1303.037z"/>
		<path style="fill:#466EB6;" d="M2662.396,1341.776l7.168,41.511l19.392,170.844l73.852,166.975c0,0-10.388,24.296-25.713,27.708
			l-117.541-171.431l-73.014-219.361l2.563-48.735L2662.396,1341.776z"/>
	</g>
	<path style="fill:#3C8F7C;" d="M2520.557,1198.755l52.379,5.365c0,0,2.403-43.087,2.403-63.64c0-24.936-2.116-57.053-5.118-56.361
		c-8.423,1.939-19.766,6.605-26.52,15.916C2520.333,1132.253,2520.557,1198.755,2520.557,1198.755z"/>
	<path style="fill:#50BFA5;" d="M2546.289,1136.083c-1.098,7.602-21.232,214.287-21.232,214.287
		c95.371,46.219,147.998,8.233,147.998,8.233s-3.121-145.138,0.619-164.893c2.475-13.069,5.56-99.918-2.881-102.351
		c-10.832-3.122-23.252-6.437-36.789-7.847c-11.556-1.203-56.444-1.9-64.475,0.807
		C2569.529,1084.32,2550.902,1104.111,2546.289,1136.083z"/>
	<path style="fill:#50BFA5;" d="M2765.637,1725.172c0,0-22.197,62.713-30.887,65.74c-2.307,0.804-13.378,2.844-15.467,7.756
		c-0.629,1.48,0,6.424,0,6.424h46.27c0,0,5.852-27.632,8.164-39.773c0,0,12.248-29.663,10.887-32.359
		C2783.242,1730.264,2765.637,1725.172,2765.637,1725.172z"/>
	<path style="fill:#50BFA5;" d="M2644,1803.788l-6.805-21.566c0,0-14.289,6.065-21.433,5.055
		c-7.145-1.011-21.093-5.055-21.093-5.055c-28.518,9.418-51.88,13.989-47.63,21.566l0,0H2644z"/>
	<g>
		<path style="fill:#F7A491;" d="M2513.206,1286.929c-0.216-0.091-0.991-0.702-1.438-1.072c1.695-20.249,1.39-39.87-4.943-46.504
			c0.151-0.317,1.537-3.271,2.981-6.332c7.341,5.696,10.828,20.83,9.46,45.396c-0.095,1.69-0.578,2.979-0.969,5.088
			C2516.171,1285.85,2514.239,1287.364,2513.206,1286.929z"/>
	</g>
	<path style="fill:#F8A492;" d="M2767.512,1352.56c0.059-0.443,0.066-0.887,0.023-1.331
		c-1.405-14.313-13.249-134.506-15.244-139.615c-1.801-4.613-54.92-80.845-54.92-80.845l-26.108,35.691l51.086,68.374
		c1.146,4.346,19.576,85.481,19.576,85.481s3.778,14.789,5.471,23.648c-0.771,2.134-1.529,4.149-2.2,5.804
		c-1.693,3.535-3.689,6.436-5.505,8.877c-2.283,3.071-6.059,9.78-6.523,11.575c-0.542,2.088-1.517,6.426-2.068,9.044
		c-0.553,2.618-1.309,5.667-1.436,7.088c-0.077,0.864-0.966,2.59-1.65,3.808c-1.02,1.814,0.72,3.956,2.69,3.3
		c1.855-0.619,3.301-3.029,4.191-4.531c2.514-4.24,3.854-11.982,4.479-11.572c0.625,0.409,2.827,13.544,3.176,15.029
		s2.991,16.737,4.482,19.524s3.464,2.321,3.987,0.575c0.451-1.502-1.646-22.843-1.646-22.843s-0.261-2.722,0.928-1.871
		c1.188,0.851,3.13,20.223,3.956,23.057c0.827,2.834,2.71,4.338,4.309,2.06c1.944-2.771-1.399-23.319-1.399-23.319
		s-0.374-2.583,0.726-2.343s2.478,16.751,3.333,18.179s3.016,1.94,4.046-0.44c1.213-2.803-1.93-21.121-1.93-21.121
		s0.155-1.458,0.841-0.974c0.686,0.483,2.863,14.474,4.281,15.77c1.191,1.088,2.185,0.032,2.185,0.032
		c2.604-1.782-1.388-15.091-1.349-21.707c0.039-6.617-3.02-14.053-2.107-21.932C2767.25,1354.536,2767.41,1353.323,2767.512,1352.56
		z"/>
	<path style="fill:#3C8F7C;" d="M2738.871,1179.049l-45.375,30.568c0,0-25.574-38.186-39.303-51.779
		c-17.197-17.03,6.265-69.2,17.345-66.249C2696.322,1098.191,2738.871,1179.049,2738.871,1179.049z"/>
	<path style="fill:#F7A491;" d="M2630.669,1038.83l6.787,44.886c0,0-24.786,53.444-39.582,48.81
		c-12.415-3.889-4.777-51.178-4.777-51.178s6.767-25.396,4.737-38.104C2595.805,1030.535,2630.669,1038.83,2630.669,1038.83z"/>
	<path style="fill:#F47458;" d="M2597.834,1043.244c-2.029-12.708,32.835-4.414,32.835-4.414l0.563,3.723
		c-1.021,2.49-2.268,4.622-3.781,6.256c-7.787,8.41-19.96,13.461-30.484,13.843
		C2598.02,1055.799,2598.666,1048.455,2597.834,1043.244z"/>
	<g>
		<path style="fill:#F7A491;" d="M2636.39,975.329c0.984-0.359,7.898,51.122-5.221,65.287s-38.679,18.801-47.847,7.645
			c-10.141-12.34-9.632-67.67,10.765-82.242C2614.483,951.448,2636.39,975.329,2636.39,975.329z"/>
		<path style="fill:#184655;" d="M2601.852,938.481c15.766,3.226,25.978,12.893,29.729,17.013
			c7.157,0.848,16.888,4.818,26.935,21.51c12.354,20.524,3.23,43.263-11.15,54.419s-14.181,24.043-14.181,24.043l-2.273-6.665
			c-1.678-5.05-2.362-10.404-1.802-15.7c0.337-3.179,1.016-6.615,2.326-9.44c3.459-7.45-7.43-12.4-10.482-18.599
			c-2.351-4.773-2.465-15.693-6.169-23.583l-4.423-6.022c0,0-10.206-7.968-20.189-5.72
			C2580.188,971.984,2581.624,934.342,2601.852,938.481z"/>
		<path style="fill:#F7A491;" d="M2621.624,1014.222c-0.104,6.281,2.741,11.423,6.355,11.485c3.614,0.062,6.629-4.98,6.733-11.261
			c0.104-6.281-2.742-11.423-6.356-11.485C2624.742,1002.899,2621.729,1007.94,2621.624,1014.222z"/>
	</g>
	<path style="fill:#FFFFFF;" d="M2600.32,1028.734l-19.774-1.027c0,0,0.067,7.561,8.75,8.264
		C2599.883,1036.829,2600.32,1028.734,2600.32,1028.734z"/>
</g>
<g>
	<path style="fill:#F47458;" d="M1528.906,771.813l111.617,221.554l117.165-218.67c34.687-80.209-20.995-171.719-108.308-175.349
		c-1.292-0.054-2.589-0.089-3.891-0.106c-1.301-0.017-2.599-0.014-3.892,0.007C1554.222,600.678,1496.251,690.755,1528.906,771.813z
		 M1586.011,725.836c0.402-31.963,26.641-57.548,58.604-57.145c31.963,0.403,57.548,26.641,57.146,58.604
		c-0.403,31.963-26.641,57.548-58.604,57.145C1611.192,784.037,1585.608,757.799,1586.011,725.836z"/>
</g>
<path style="fill:#183658;" d="M3085.389,1832.009H183.838c-6.931,0-12.55-5.619-12.55-12.55v-3.122
	c0-6.931,5.619-12.549,12.55-12.549h2901.551c6.93,0,12.549,5.618,12.549,12.549v3.122
	C3097.938,1826.39,3092.318,1832.009,3085.389,1832.009z"/>
</svg>
