<?xml version="1.0" encoding="utf-8"?>
<!-- Generator: Adobe Illustrator 27.5.0, SVG Export Plug-In . SVG Version: 6.00 Build 0)  -->
<svg version="1.1" xmlns="http://www.w3.org/2000/svg" xmlns:xlink="http://www.w3.org/1999/xlink" x="0px" y="0px"
	 viewBox="0 0 500 500" style="enable-background:new 0 0 500 500;" xml:space="preserve">
<g id="BACKGROUND">
	<rect style="fill-rule:evenodd;clip-rule:evenodd;fill:#C7CAF2;" width="500" height="500"/>
	<path style="fill-rule:evenodd;clip-rule:evenodd;fill:#FFFFFF;" d="M348.423,0c-34.756,58.514-152.4,0-198.35,55
		c-32.87,39.344-18.773,161.09-80.199,168.804C38.656,227.725,15.37,222.583,0,216.58V500l500-171.181V0H348.423z"/>
</g>
<g id="OBJECTS">
	<g>
		<rect x="213" y="47.874" style="fill-rule:evenodd;clip-rule:evenodd;fill:#DCDFF7;" width="107.126" height="254.288"/>
		<g>
			<rect x="297.514" y="58.514" style="fill-rule:evenodd;clip-rule:evenodd;fill:#C7CAF2;" width="10.597" height="243.648"/>
			<rect x="273.348" y="58.514" style="fill-rule:evenodd;clip-rule:evenodd;fill:#C7CAF2;" width="10.597" height="243.648"/>
			<rect x="249.181" y="58.514" style="fill-rule:evenodd;clip-rule:evenodd;fill:#C7CAF2;" width="10.597" height="243.648"/>
			<rect x="225.015" y="58.514" style="fill-rule:evenodd;clip-rule:evenodd;fill:#C7CAF2;" width="10.597" height="243.648"/>
		</g>
		<rect x="241.675" y="18" style="fill-rule:evenodd;clip-rule:evenodd;fill:#DCDFF7;" width="49.776" height="29.874"/>
		<rect x="250.602" y="26.927" style="fill-rule:evenodd;clip-rule:evenodd;fill:#C7CAF2;" width="40.848" height="20.947"/>
	</g>
	<g>
		<rect x="39.939" y="85.828" style="fill-rule:evenodd;clip-rule:evenodd;fill:#DCDFF7;" width="133.939" height="312.015"/>
		<g>
			
				<rect x="102.012" y="102.879" transform="matrix(-1.836970e-16 1 -1 -1.836970e-16 276.7566 62.9405)" style="fill-rule:evenodd;clip-rule:evenodd;fill:#C7CAF2;" width="9.793" height="133.939"/>
			
				<rect x="102.012" y="80.546" transform="matrix(-1.836970e-16 1 -1 -1.836970e-16 254.4232 40.6072)" style="fill-rule:evenodd;clip-rule:evenodd;fill:#C7CAF2;" width="9.793" height="133.939"/>
			
				<rect x="102.012" y="58.213" transform="matrix(-1.836970e-16 1 -1 -1.836970e-16 232.0899 18.2738)" style="fill-rule:evenodd;clip-rule:evenodd;fill:#C7CAF2;" width="9.793" height="133.939"/>
			
				<rect x="102.012" y="35.879" transform="matrix(-1.836970e-16 1 -1 -1.836970e-16 209.7565 -4.0595)" style="fill-rule:evenodd;clip-rule:evenodd;fill:#C7CAF2;" width="9.793" height="133.939"/>
		</g>
		<g>
			
				<rect x="102.012" y="191.543" transform="matrix(-1.836970e-16 1 -1 -1.836970e-16 365.4206 151.6045)" style="fill-rule:evenodd;clip-rule:evenodd;fill:#C7CAF2;" width="9.793" height="133.939"/>
			
				<rect x="102.012" y="169.21" transform="matrix(-1.836970e-16 1 -1 -1.836970e-16 343.0872 129.2711)" style="fill-rule:evenodd;clip-rule:evenodd;fill:#C7CAF2;" width="9.793" height="133.939"/>
			
				<rect x="102.012" y="146.877" transform="matrix(-1.836970e-16 1 -1 -1.836970e-16 320.7539 106.9379)" style="fill-rule:evenodd;clip-rule:evenodd;fill:#C7CAF2;" width="9.793" height="133.939"/>
			
				<rect x="102.012" y="124.543" transform="matrix(-1.836970e-16 1 -1 -1.836970e-16 298.4206 84.6045)" style="fill-rule:evenodd;clip-rule:evenodd;fill:#C7CAF2;" width="9.793" height="133.939"/>
		</g>
		<g>
			
				<rect x="102.012" y="283.669" transform="matrix(-1.836970e-16 1 -1 -1.836970e-16 457.5465 243.7305)" style="fill-rule:evenodd;clip-rule:evenodd;fill:#C7CAF2;" width="9.793" height="133.939"/>
			
				<rect x="102.012" y="261.336" transform="matrix(-1.836970e-16 1 -1 -1.836970e-16 435.2133 221.3972)" style="fill-rule:evenodd;clip-rule:evenodd;fill:#C7CAF2;" width="9.793" height="133.939"/>
			
				<rect x="102.012" y="239.003" transform="matrix(-1.836970e-16 1 -1 -1.836970e-16 412.8799 199.0638)" style="fill-rule:evenodd;clip-rule:evenodd;fill:#C7CAF2;" width="9.793" height="133.939"/>
			
				<rect x="102.012" y="216.669" transform="matrix(-1.836970e-16 1 -1 -1.836970e-16 390.5465 176.7305)" style="fill-rule:evenodd;clip-rule:evenodd;fill:#C7CAF2;" width="9.793" height="133.939"/>
		</g>
		<rect x="101.419" y="58.221" style="fill-rule:evenodd;clip-rule:evenodd;fill:#DCDFF7;" width="64.488" height="27.608"/>
		<rect x="134.239" y="66.47" style="fill-rule:evenodd;clip-rule:evenodd;fill:#C7CAF2;" width="31.669" height="19.358"/>
	</g>
	<g>
		<rect x="340.526" y="91.519" style="fill-rule:evenodd;clip-rule:evenodd;fill:#DCDFF7;" width="95.158" height="274.524"/>
		<g>
			
				<rect x="383.797" y="117.865" transform="matrix(-1.836970e-16 1 -1 -1.836970e-16 553.5491 -222.6614)" style="fill-rule:evenodd;clip-rule:evenodd;fill:#C7CAF2;" width="8.616" height="95.158"/>
			
				<rect x="383.797" y="98.215" transform="matrix(-1.836970e-16 1 -1 -1.836970e-16 533.8993 -242.3112)" style="fill-rule:evenodd;clip-rule:evenodd;fill:#C7CAF2;" width="8.616" height="95.158"/>
			
				<rect x="383.797" y="78.565" transform="matrix(-1.836970e-16 1 -1 -1.836970e-16 514.2494 -261.9611)" style="fill-rule:evenodd;clip-rule:evenodd;fill:#C7CAF2;" width="8.616" height="95.158"/>
			
				<rect x="383.797" y="58.915" transform="matrix(-1.836970e-16 1 -1 -1.836970e-16 494.5996 -281.6109)" style="fill-rule:evenodd;clip-rule:evenodd;fill:#C7CAF2;" width="8.616" height="95.158"/>
		</g>
		<g>
			
				<rect x="383.797" y="195.875" transform="matrix(-1.836970e-16 1 -1 -1.836970e-16 631.5596 -144.6509)" style="fill-rule:evenodd;clip-rule:evenodd;fill:#C7CAF2;" width="8.616" height="95.158"/>
			
				<rect x="383.797" y="176.225" transform="matrix(-1.836970e-16 1 -1 -1.836970e-16 611.9097 -164.3008)" style="fill-rule:evenodd;clip-rule:evenodd;fill:#C7CAF2;" width="8.616" height="95.158"/>
			
				<rect x="383.797" y="156.576" transform="matrix(-1.836970e-16 1 -1 -1.836970e-16 592.2599 -183.9506)" style="fill-rule:evenodd;clip-rule:evenodd;fill:#C7CAF2;" width="8.616" height="95.158"/>
			
				<rect x="383.797" y="136.926" transform="matrix(-1.836970e-16 1 -1 -1.836970e-16 572.6101 -203.6004)" style="fill-rule:evenodd;clip-rule:evenodd;fill:#C7CAF2;" width="8.616" height="95.158"/>
		</g>
		<g>
			
				<rect x="383.797" y="276.932" transform="matrix(-1.836970e-16 1 -1 -1.836970e-16 712.616 -63.5945)" style="fill-rule:evenodd;clip-rule:evenodd;fill:#C7CAF2;" width="8.616" height="95.158"/>
			
				<rect x="383.797" y="257.282" transform="matrix(-1.836970e-16 1 -1 -1.836970e-16 692.9661 -83.2443)" style="fill-rule:evenodd;clip-rule:evenodd;fill:#C7CAF2;" width="8.616" height="95.158"/>
			
				<rect x="383.797" y="237.632" transform="matrix(-1.836970e-16 1 -1 -1.836970e-16 673.3163 -102.8942)" style="fill-rule:evenodd;clip-rule:evenodd;fill:#C7CAF2;" width="8.616" height="95.158"/>
			
				<rect x="383.797" y="217.982" transform="matrix(-1.836970e-16 1 -1 -1.836970e-16 653.6665 -122.544)" style="fill-rule:evenodd;clip-rule:evenodd;fill:#C7CAF2;" width="8.616" height="95.158"/>
		</g>
	</g>
	<g>
		<rect x="2.871" y="327.921" style="fill-rule:evenodd;clip-rule:evenodd;fill:#DCDFF7;" width="197.096" height="172.079"/>
		<g>
			
				<rect x="107.541" y="341.752" transform="matrix(-1 -1.224647e-16 1.224647e-16 -1 224.8744 817.442)" style="fill-rule:evenodd;clip-rule:evenodd;fill:#C7CAF2;" width="9.793" height="133.939"/>
			
				<rect x="129.874" y="341.752" transform="matrix(-1 -1.224647e-16 1.224647e-16 -1 269.5411 817.442)" style="fill-rule:evenodd;clip-rule:evenodd;fill:#C7CAF2;" width="9.793" height="133.939"/>
			
				<rect x="152.207" y="341.752" transform="matrix(-1 -1.224647e-16 1.224647e-16 -1 314.2078 817.442)" style="fill-rule:evenodd;clip-rule:evenodd;fill:#C7CAF2;" width="9.793" height="133.939"/>
			
				<rect x="174.541" y="341.752" transform="matrix(-1 -1.224647e-16 1.224647e-16 -1 358.8744 817.442)" style="fill-rule:evenodd;clip-rule:evenodd;fill:#C7CAF2;" width="9.793" height="133.939"/>
		</g>
		<g>
			
				<rect x="15.415" y="341.752" transform="matrix(-1 -1.224647e-16 1.224647e-16 -1 40.6225 817.442)" style="fill-rule:evenodd;clip-rule:evenodd;fill:#C7CAF2;" width="9.793" height="133.939"/>
			
				<rect x="37.748" y="341.752" transform="matrix(-1 -1.224647e-16 1.224647e-16 -1 85.2892 817.442)" style="fill-rule:evenodd;clip-rule:evenodd;fill:#C7CAF2;" width="9.793" height="133.939"/>
			
				<rect x="60.081" y="341.752" transform="matrix(-1 -1.224647e-16 1.224647e-16 -1 129.9558 817.442)" style="fill-rule:evenodd;clip-rule:evenodd;fill:#C7CAF2;" width="9.793" height="133.939"/>
			
				<rect x="82.415" y="341.752" transform="matrix(-1 -1.224647e-16 1.224647e-16 -1 174.6225 817.442)" style="fill-rule:evenodd;clip-rule:evenodd;fill:#C7CAF2;" width="9.793" height="133.939"/>
		</g>
		<g>
			<rect x="102.601" y="308.563" style="fill-rule:evenodd;clip-rule:evenodd;fill:#C7CAF2;" width="65.079" height="19.358"/>
		</g>
	</g>
	<polygon style="fill-rule:evenodd;clip-rule:evenodd;fill:#DCDFF7;" points="25,500 500,67 500,405.667 411,500 	"/>
	
		<ellipse style="opacity:0.1;fill-rule:evenodd;clip-rule:evenodd;fill:#1C3666;" cx="303.538" cy="369.182" rx="175.767" ry="5.705"/>
	<path style="opacity:0.1;fill-rule:evenodd;clip-rule:evenodd;fill:#1C3666;" d="M161.446,427.124
		c0,5.507-24.005,9.971-53.618,9.971c-29.612,0-53.617-4.464-53.617-9.971c0-5.507,24.005-9.971,53.617-9.971
		C137.44,417.153,161.446,421.617,161.446,427.124z"/>
	<g>
		<path style="fill-rule:evenodd;clip-rule:evenodd;fill:#FBBD61;" d="M156.714,296.274c2.287-6.862,26.142-4.248,36.925-7.189
			c10.783-2.941,26.468-31.697,32.023-34.62c5.555-2.924,91.169-4.592,115.342,0c19.17,3.641,44.48,27.045,54.137,36.578
			c2.653,2.619,6.117,4.252,9.826,4.632l40.967,4.198c7.813,0.801,14.532,5.881,17.431,13.18l11.756,29.593H155.407
			C155.407,342.645,154.427,303.136,156.714,296.274z"/>
		<path style="fill-rule:evenodd;clip-rule:evenodd;fill:#F2AB4E;" d="M204.271,294.573c10.783-2.941,21.225-32.632,26.78-35.556
			c5.555-2.924,83.577-5.113,107.751-0.521c19.17,3.641,32.854,29.897,42.512,39.43c2.653,2.619,6.117,4.252,9.826,4.632
			l53.317,4.198c7.813,0.801,14.532,5.881,17.431,13.18l9.022,22.71H155.407c0,0-0.677-27.286,0.408-40.445
			C161.01,296.406,194.019,297.369,204.271,294.573z"/>
		<path style="fill-rule:evenodd;clip-rule:evenodd;fill:#DC6F6F;" d="M452.336,315.156h11.867l5.024,12.646H453.67
			c-0.915,0-1.692-0.67-1.827-1.575l-1.333-8.952C450.343,316.159,451.208,315.156,452.336,315.156z"/>
		<path style="fill-rule:evenodd;clip-rule:evenodd;fill:#1C3666;" d="M355.228,259.864c15.96,8.467,32.523,23.882,39.915,31.179
			c0.651,0.642,1.351,1.224,2.091,1.743l0.005,0.005h-25.275c-1.594,0-3.125-0.628-4.26-1.748l-31.592-31.179H355.228z"/>
		<path style="fill-rule:evenodd;clip-rule:evenodd;fill:#1C3666;" d="M284.799,260.671h38.315c2.55,0,4.994,1.018,6.791,2.828
			l31.918,32.159c0.342,0.344,0.097,0.93-0.388,0.928l-72.333-0.263c-0.274-0.001-0.505-0.205-0.539-0.477l-4.304-34.563
			C284.218,260.958,284.472,260.671,284.799,260.671z"/>
		<path style="fill-rule:evenodd;clip-rule:evenodd;fill:#1C3666;" d="M222.618,292.548l17.014-30.485
			c0.48-0.859,1.387-1.392,2.371-1.392h33.931c1.398,0,2.567,1.061,2.702,2.452l2.969,30.485c0.155,1.596-1.099,2.978-2.702,2.978
			h-53.914C222.916,296.586,221.608,294.358,222.618,292.548z"/>
		<path style="fill-rule:evenodd;clip-rule:evenodd;fill:#1C3666;" d="M200.247,284.935c7.525-6.784,15.834-19.729,21.319-26.439
			l8.265,2.175c0,0-15.74,28.521-20.449,28.655C206.749,289.401,203.021,287.035,200.247,284.935z"/>
		<path style="fill-rule:evenodd;clip-rule:evenodd;fill:#DC6F6F;" d="M153.893,310.875c0.032-1.064,0.904-1.908,1.969-1.908h14.29
			c1.313,0,2.377,1.064,2.377,2.377v12.062c0,1.313-1.064,2.377-2.377,2.377h-14.463c-1.089,0-1.97-0.882-1.969-1.971
			C153.723,319.524,153.77,315.013,153.893,310.875z"/>
		<path style="fill-rule:evenodd;clip-rule:evenodd;fill:#1C3666;" d="M152.298,336.512h24.437c1.165,0,2.109,0.944,2.109,2.109
			v1.916c0,1.165-0.944,2.109-2.109,2.109h-24.437c-1.165,0-2.109-0.944-2.109-2.109v-1.916
			C150.189,337.456,151.134,336.512,152.298,336.512z"/>
		<path style="fill-rule:evenodd;clip-rule:evenodd;fill:#1C3666;" d="M452.598,336.512h24.437c1.165,0,2.109,0.944,2.109,2.109
			v1.916c0,1.165-0.944,2.109-2.109,2.109h-24.437c-1.165,0-2.109-0.944-2.109-2.109v-1.916
			C450.489,337.456,451.433,336.512,452.598,336.512z"/>
		<circle style="fill-rule:evenodd;clip-rule:evenodd;fill:#1C3666;" cx="403.781" cy="343.946" r="22.467"/>
		<circle style="fill-rule:evenodd;clip-rule:evenodd;fill:#FFFFFF;" cx="403.781" cy="343.946" r="15.202"/>
		<path style="fill-rule:evenodd;clip-rule:evenodd;fill:#1C3666;" d="M396.852,343.946c0,3.826,3.102,6.928,6.928,6.928
			c3.826,0,6.928-3.102,6.928-6.928c0-3.826-3.102-6.928-6.928-6.928C399.954,337.017,396.852,340.119,396.852,343.946z"/>
		<circle style="fill-rule:evenodd;clip-rule:evenodd;fill:#1C3666;" cx="229.477" cy="343.946" r="22.467"/>
		<circle style="fill-rule:evenodd;clip-rule:evenodd;fill:#DCDFF7;" cx="229.477" cy="343.946" r="15.202"/>
		<path style="fill-rule:evenodd;clip-rule:evenodd;fill:#1C3666;" d="M222.549,343.946c0,3.826,3.102,6.928,6.928,6.928
			c3.826,0,6.928-3.102,6.928-6.928c0-3.826-3.102-6.928-6.928-6.928C225.651,337.017,222.549,340.119,222.549,343.946z"/>
		<polyline style="fill-rule:evenodd;clip-rule:evenodd;fill:none;stroke:#FBBD61;stroke-miterlimit:10;" points="290.909,299.248 
			296.649,335.291 357.457,335.291 		"/>
		<path style="fill-rule:evenodd;clip-rule:evenodd;fill:none;stroke:#FBBD61;stroke-miterlimit:10;" d="M231.715,267.308
			l-16.676,27.444l4.837,17.938c0,0,17.677,3.049,24.803,6.637s12.48,15.964,12.48,15.964h30.88"/>
		<path style="fill-rule:evenodd;clip-rule:evenodd;fill:#F2AB4E;" d="M363.741,295.967l-4.852-4.07
			c-0.288-0.241-0.651-0.374-1.027-0.374h-3.023c-0.882,0-1.597,0.715-1.597,1.598v4.07c0,0.882,0.715,1.598,1.597,1.598h7.876
			c1.178,0,1.951-1.231,1.439-2.292l0,0C364.055,296.293,363.915,296.112,363.741,295.967z"/>
		<path style="fill-rule:evenodd;clip-rule:evenodd;fill:#F2AB4E;" d="M361.409,297.94l-4.853-4.07
			c-0.288-0.241-0.651-0.373-1.027-0.373h-3.023c-0.882,0-1.597,0.715-1.597,1.597v4.07c0,0.882,0.715,1.598,1.597,1.598h7.876
			c1.178,0,1.951-1.231,1.439-2.292l0,0C361.723,298.266,361.582,298.085,361.409,297.94z"/>
		<path style="fill-rule:evenodd;clip-rule:evenodd;fill:#FBBD61;" d="M361.821,298.469c-0.098-0.204-0.239-0.384-0.412-0.529
			l-4.852-4.07c-0.288-0.241-0.651-0.373-1.027-0.373h-2.288v-0.376c0-0.882,0.715-1.597,1.598-1.597h3.023
			c0.376,0,0.739,0.132,1.027,0.374l4.852,4.07c0.173,0.145,0.314,0.326,0.412,0.529c0.512,1.061-0.261,2.292-1.439,2.292h-0.789
			C361.9,298.681,361.871,298.574,361.821,298.469z"/>
		<g>
			<path style="fill-rule:evenodd;clip-rule:evenodd;fill:#F2AB4E;" d="M351.756,283.508c1.91,0,3.459,1.549,3.459,3.459v11.648
				c0,1.91-1.549,3.459-3.459,3.459c-0.765,0-1.384-0.62-1.384-1.384v-15.797C350.372,284.128,350.992,283.508,351.756,283.508z"/>
			<path style="fill-rule:evenodd;clip-rule:evenodd;fill:#FBBD61;" d="M353.959,301.036v-11.648c0-1.91-1.548-3.459-3.459-3.459
				c-0.044,0-0.086,0.009-0.129,0.013v-1.05c0-0.765,0.62-1.384,1.384-1.384c1.91,0,3.459,1.549,3.459,3.459v11.648
				c0,1.079-0.494,2.042-1.268,2.676C353.953,301.207,353.959,301.122,353.959,301.036z"/>
		</g>
	</g>
	<g>
		<path style="fill-rule:evenodd;clip-rule:evenodd;fill:#1C3666;" d="M265.086,113.746H160.421
			c-6.299,0-11.405,5.106-11.405,11.405v229.473c0,6.299,5.106,11.405,11.405,11.405h104.664c6.299,0,11.405-5.106,11.405-11.405
			V125.151C276.491,118.852,271.385,113.746,265.086,113.746z"/>
		<path style="fill-rule:evenodd;clip-rule:evenodd;fill:#C7CAF2;" d="M262.099,119.295H233.55c-2,0-3.962,0.548-5.674,1.583
			l-9.449,5.717c-3.488,2.111-7.859,2.111-11.347,0l-9.449-5.718c-1.711-1.035-3.673-1.583-5.673-1.583h-28.549
			c-5.94,0-10.755,4.815-10.755,10.754v212.347c0,5.94,4.815,10.755,10.755,10.755h98.691c5.939,0,10.754-4.815,10.754-10.755
			V130.05C272.853,124.11,268.038,119.295,262.099,119.295z"/>
		<path style="fill-rule:evenodd;clip-rule:evenodd;fill:#C7CAF2;" d="M214.643,122.881c0,1.044-0.846,1.89-1.89,1.89
			s-1.89-0.846-1.89-1.89c0-1.044,0.846-1.89,1.89-1.89S214.643,121.838,214.643,122.881z"/>
		<path style="fill:#DCDFF7;" d="M241.707,325.326h10.04l8.967-30.677h12.139v-9.637H198.99l17.595-76.563l56.269,0.387v-9.638
			l-63.931-0.439l-0.006,0.027h-43.687c4.166-17.68,7.51-31.908,10.194-43.36h97.43v-9.637h-95.175
			c2.93-12.533,4.867-20.893,6.15-26.492h-9.869c-1.561,6.741-3.691,15.861-6.182,26.492h-15.124v9.637h12.864
			c-3.873,16.503-8.371,35.608-12.864,54.665v41.979c3.859-16.332,7.279-30.816,10.304-43.647h43.744l-17.601,76.59h-36.447v9.637
			h34.233l-13.444,58.503h9.888l13.444-58.503h53.9L241.707,325.326z"/>
		<g>
			<path style="fill-rule:evenodd;clip-rule:evenodd;fill:#DC6F6F;" d="M196.127,272.222c0-6.03-5.094-10.869-11.213-10.451
				c-5.31,0.363-9.551,4.766-9.733,10.085c-0.06,1.77,0.319,3.446,1.037,4.928l0,0l8.018,13.324c0.642,1.067,2.188,1.067,2.83,0
				l8.018-13.324l0,0C195.752,275.405,196.127,273.858,196.127,272.222z"/>
			<path style="fill-rule:evenodd;clip-rule:evenodd;fill:#FFFFFF;" d="M190.265,272.353c0,2.548-2.066,4.614-4.614,4.614
				s-4.614-2.066-4.614-4.614c0-2.548,2.066-4.614,4.614-4.614S190.265,269.804,190.265,272.353z"/>
		</g>
		<g>
			<path style="fill-rule:evenodd;clip-rule:evenodd;fill:#FBBD61;" d="M249.584,199.71l-2.869,0.335h-4.018
				c-0.815,0-1.476,0.661-1.476,1.476v6.555c0,0.815,0.661,1.476,1.476,1.476h3.85l3.037,0.355h9.625l1.883-0.355
				c0.485,0,0.878-0.393,0.878-0.878v-7.75c0-0.485-0.393-0.878-0.878-0.878h-0.105l-1.778-0.335H249.584z"/>
			<g>
				<path style="fill-rule:evenodd;clip-rule:evenodd;fill:#1C3666;" d="M242.792,208.971c-0.503-0.152-0.87-0.618-0.87-1.17v-0.184
					h-0.297c-0.089,0-0.161,0.072-0.161,0.161v0.173c0,0.765,0.62,1.385,1.385,1.385h0.063v-0.212
					C242.91,209.05,242.861,208.991,242.792,208.971z"/>
				<path style="fill-rule:evenodd;clip-rule:evenodd;fill:#1C3666;" d="M246.935,209.087l1.882-0.724
					c0.158-0.061,0.251-0.228,0.212-0.392c-0.253-1.082-0.154-3.163-0.154-3.163s-0.099-2.081,0.154-3.163
					c0.039-0.165-0.054-0.331-0.212-0.392l-1.882-0.724c-0.21-0.081-0.438,0.057-0.465,0.28c-0.062,0.521-0.14,1.643-0.14,3.999
					c0,2.355,0.078,3.478,0.14,3.999C246.497,209.03,246.725,209.167,246.935,209.087z"/>
				<path style="fill-rule:evenodd;clip-rule:evenodd;fill:#1C3666;" d="M253.144,209.263v-0.514c0-0.123-0.112-0.223-0.251-0.223
					h-3.173c-0.031,0-0.062,0.005-0.09,0.015l-1.419,0.486c-0.136,0.046-0.129,0.221,0.01,0.256c1.35,0.344,3.904,0.243,4.689,0.202
					C253.042,209.479,253.144,209.381,253.144,209.263z"/>
				<path style="fill-rule:evenodd;clip-rule:evenodd;fill:#1C3666;" d="M258.842,208.526h-4.617c-0.156,0-0.283,0.127-0.283,0.283
					v0.34c0,0.157,0.128,0.284,0.285,0.283l4.739-0.044c0.2-0.002,0.335-0.205,0.259-0.39l-0.122-0.296
					C259.06,208.595,258.957,208.526,258.842,208.526z"/>
				<path style="fill-rule:evenodd;clip-rule:evenodd;fill:#1C3666;" d="M242.792,200.645c0.069-0.021,0.118-0.08,0.118-0.151
					v-0.212h-0.063c-0.765,0-1.385,0.62-1.385,1.385v0.173c0,0.089,0.072,0.161,0.161,0.161h0.297v-0.184
					C241.922,201.263,242.289,200.797,242.792,200.645z"/>
				<path style="fill-rule:evenodd;clip-rule:evenodd;fill:#1C3666;" d="M248.22,200.333c-0.14,0.036-0.146,0.21-0.01,0.256
					l1.419,0.486c0.029,0.01,0.06,0.015,0.09,0.015h3.173c0.139,0,0.251-0.1,0.251-0.223v-0.514c0-0.118-0.102-0.216-0.235-0.223
					C252.125,200.089,249.57,199.988,248.22,200.333z"/>
				<path style="fill-rule:evenodd;clip-rule:evenodd;fill:#1C3666;" d="M253.943,200.468v0.34c0,0.156,0.126,0.283,0.283,0.283
					h4.617c0.115,0,0.218-0.069,0.261-0.175l0.122-0.296c0.076-0.185-0.059-0.388-0.259-0.39l-4.739-0.044
					C254.071,200.184,253.943,200.311,253.943,200.468z"/>
				<path style="fill-rule:evenodd;clip-rule:evenodd;fill:#1C3666;" d="M259.816,201.437c-0.146,0.111-0.232,0.284-0.232,0.468
					v2.904v2.903c0,0.184,0.086,0.357,0.232,0.468l0.586,0.444c0.113,0.086,0.276,0.005,0.276-0.137v-3.678v-3.678
					c0-0.142-0.163-0.223-0.276-0.137L259.816,201.437z"/>
			</g>
		</g>
	</g>
	<g>
		<g>
			<path style="fill-rule:evenodd;clip-rule:evenodd;fill:#294687;" d="M73.691,256.828c0-13.926-0.752-66.967-2.39-70.449
				c-1.638-3.482-3.481-3.823-3.481-3.823s-5.324,64.783-5.802,69.288c-0.478,4.505,0.341,13.585,2.321,18.432
				c1.98,4.847,6.826,9.898,6.826,9.898S73.691,270.754,73.691,256.828z"/>
			<path style="fill-rule:evenodd;clip-rule:evenodd;fill:#F2AB4E;" d="M120.487,197.268c2.321-0.888,6.07-1.602,6.138-4.811
				c0.068-3.208,0.484-9.997-2.793-14.878c-3.277-4.881-48.332-4.477-50.858-3.452c-2.526,1.024-4.71,5.87-4.881,7.406
				c-0.171,1.536,0.41,2.15,1.502,4.915c1.092,2.765,1.331,7.134,1.331,7.134S118.166,198.155,120.487,197.268z"/>
			<path style="fill-rule:evenodd;clip-rule:evenodd;fill:#DBB294;" d="M137.624,296.834c1.229-3.413,0.887-7.373,0.887-7.373
				l-8.328-0.068l-1.161,14.131c0,0,2.389,0.478,4.71-0.751C136.054,301.544,136.395,300.247,137.624,296.834z"/>
			<path style="fill-rule:evenodd;clip-rule:evenodd;fill:#696BB3;" d="M143.78,284.995c-0.843-11.774-8.488-72.139-10.395-81.406
				c-3.137-15.243-10.828-20.752-10.828-20.752l6.942,108.09c0,0,5.188,0.375,8.021-0.341c1.484-0.376,3.175-1.285,4.448-2.066
				C143.185,287.774,143.882,286.418,143.78,284.995z"/>
			<path style="fill-rule:evenodd;clip-rule:evenodd;fill:#1C3666;" d="M89.6,411.18c-0.103-2.458-0.307-4.13-0.307-4.13
				s-0.99-0.171-3.038-0.614c-2.048-0.444-11.059,0.136-11.059,0.136l-0.751,19.046c0,0,2.321,2.765,4.608,3.482
				c2.287,0.717,8.328,1.092,11.127,0.99c2.799-0.102,7.27-2.048,7.27-2.048s-0.887-2.594-2.799-5.052
				c-1.911-2.458-5.188-3.686-5.188-3.686S89.703,413.638,89.6,411.18z"/>
			<path style="fill-rule:evenodd;clip-rule:evenodd;fill:#1C3666;" d="M143.697,420.807c1.274-0.84,0.138-5.173-3.841-8.547
				c-3.979-3.374-11.372-3.109-12.733-3.565c-1.361-0.456-5.039-3.041-5.423-5.677c-0.384-2.636-0.839-2.993-0.839-2.993
				l-13.846,3.512c0,0,0.13,6.55,0.472,9.981c0.342,3.431,0.623,4.635,0.623,4.635s13.453,2.688,21.19,3
				C137.037,421.465,142.422,421.647,143.697,420.807z"/>
			<path style="fill-rule:evenodd;clip-rule:evenodd;fill:#294687;" d="M116.121,404.523c5.154-0.819,7.27-2.765,7.27-2.765
				l7.919-120.111c0,0-17.588,2.304-23.278,4.437c-5.69,2.134-11.673,7.236-11.673,7.236l2.047,16.417l7.1,93.523
				C105.506,403.259,110.967,405.342,116.121,404.523z"/>
			<path style="fill-rule:evenodd;clip-rule:evenodd;fill:#1C3666;" d="M108.032,286.084c-5.69,2.133-11.673,7.236-11.673,7.236
				l2.047,16.417l2.041,26.882c2.192-27.486,7.003-32.343,14.193-37.286c1.577-1.084,3.345-2.019,5.224-2.828
				c5.199-2.239,10.601-2.026,10.974-7.674l0.474-7.184C131.31,281.647,113.722,283.95,108.032,286.084z"/>
			<path style="fill-rule:evenodd;clip-rule:evenodd;fill:#294687;" d="M80.35,408.412c6.451,0.478,10.479-1.502,10.479-1.502
				l11.81-121.749c0,0-5.734-2.73-14.882-3.277c-9.147-0.546-18.443,0.742-18.443,0.742l3.732,123.294
				C73.046,405.921,73.899,407.934,80.35,408.412z"/>
			<path style="fill-rule:evenodd;clip-rule:evenodd;fill:#1C3666;" d="M69.313,282.627l0.47,15.539
				c1.854-2.734,4.11-4.335,6.84-3.827c9.002,1.675,20.259,1.281,25.026,1.006l0.988-10.183c0,0-5.734-2.731-14.882-3.277
				C78.609,281.339,69.313,282.627,69.313,282.627z"/>
			<path style="fill-rule:evenodd;clip-rule:evenodd;fill:#696BB3;" d="M67.852,281.4c0,0,10.376,10.513,33.859,8.601
				c23.483-1.911,31.675-6.417,31.675-6.417s-3.959-60.209-7.236-78.504c-3.277-18.295-3.592-22.243-3.592-22.243
				s-11.255-5.75-15.88-6.67c-4.625-0.919-16.297,0.028-16.297,0.028s-15.426,4.096-19.081,8.703c0,0,1.877,60.594,1.057,72.608
				C71.537,269.522,67.852,281.4,67.852,281.4z"/>
			<path style="fill-rule:evenodd;clip-rule:evenodd;fill:#1C3666;" d="M113.612,158.75c0,0,7.239-7.555,5.942-14.108
				c-1.297-6.553-9.292-6.735-9.292-6.735s3.026-8.596-10.975-6.068c-8.738,1.578-10.558,6.371-10.558,6.371
				s-5.658,2.666-5.522,6.25c0.136,3.584-0.3,9.153,0.055,11.711c1.28,9.223,6.263,12.925,6.263,12.925L113.612,158.75z"/>
			<path style="fill-rule:evenodd;clip-rule:evenodd;fill:#DBB294;" d="M89.111,163.88c-0.383-0.548-1.778-6.009-1.778-6.009
				s-0.844-2.176-2.035-2.42c-1.191-0.244-3.767,2.061-1.634,5.953C85.797,165.296,89.709,164.736,89.111,163.88z"/>
			<path style="fill-rule:evenodd;clip-rule:evenodd;fill:#DBB294;" d="M110.382,166.171c-0.12,0.065-0.157,0.101-0.08,0.122
				C110.326,166.3,110.353,166.254,110.382,166.171z"/>
			<path style="fill-rule:evenodd;clip-rule:evenodd;fill:#DBB294;" d="M114.821,157.445c-1.365-1.161-3.689,1.971-3.689,1.971
				s-0.75,6.755-0.87,7.784c0.512,0.372,2.604-0.882,3.528-3.323C114.623,161.674,116.186,158.606,114.821,157.445z"/>
			<path style="fill-rule:evenodd;clip-rule:evenodd;fill:#DBB294;" d="M90.662,171.283l-0.409,7.134
				c-0.029,0.499,0.089,1.004,0.377,1.413c0.56,0.793,1.887,1.928,5.021,2.644c3.371,0.771,6.714-0.051,8.66-0.73
				c1.04-0.363,1.758-1.31,1.834-2.409l0.404-5.857L90.662,171.283z"/>
			<path style="fill-rule:evenodd;clip-rule:evenodd;fill:#C1997E;" d="M90.511,173.916c0.67,2.63,1.718,4.831,3.353,5.701
				c3.717,1.978,8.827,1.863,12.282-0.302l0.403-5.837l-15.887-2.195L90.511,173.916z"/>
			<path style="fill-rule:evenodd;clip-rule:evenodd;fill:#DBB294;" d="M109.129,172.314c1.392-3.783,2.415-16.021,2.415-16.021
				c-2.306,1.37-2.916-2.858-3.216-5.583c-4.828,5.262-14.359-1.526-14.17-4.077c-1.502,4.564-2.298,6.814-5.066,10.169
				c0,0-0.881,16.933,4.444,19.766C98.862,179.401,107.054,177.955,109.129,172.314z"/>
			<path style="fill-rule:evenodd;clip-rule:evenodd;fill:#1C3666;" d="M107.039,183.022c-1.128-0.315-10.09-0.177-11.49,0.096
				c-1.4,0.273-1.536,1.843-1.536,1.843l-1.98,11.469l13.448-1.604c0,0,1.22-5.287,1.696-7.637
				C107.634,184.933,108.166,183.337,107.039,183.022z"/>
			<path style="fill-rule:evenodd;clip-rule:evenodd;fill:#DBB294;" d="M91.496,191.643c-1.978,0.299-2.91,2.535-3.695,4.036
				c-0.785,1.502-0.853,6.451-0.853,6.451l-3.686,5.154c0,0,0.376,0.751,1.775,2.15c1.399,1.399,5.7,2.492,5.7,2.492
				s0.648-1.058,1.433-2.287c0.785-1.229,1.843-0.887,4.745-1.57c2.901-0.683,3.618-2.253,4.505-3.311
				c0.887-1.058,2.219-1.161,3.038-2.423c0.819-1.263-0.615-2.117,0.102-3.174c0.717-1.058,1.331-1.024,1.399-2.492
				c0.068-1.468,0.376-1.706,0.751-3.379c0.376-1.673-0.707-2.162-0.707-2.162l-13.42,2.118l0.279-1.617
				C92.862,191.629,91.758,191.603,91.496,191.643z"/>
			<path style="fill-rule:evenodd;clip-rule:evenodd;fill:#1C3666;" d="M134.411,242.421c-0.41-12.97-4.915-35.498-6.144-42.87
				c-1.061-6.367-3.634-13.233-4.014-14.936c-0.062-0.275-0.172-0.539-0.329-0.773c-3.018-4.487-7.828-4.187-7.828-4.187
				c5.238,7.024,13.586,60.394,14.873,71.191c0.643,5.399,0.587,7.423,0.587,7.423S134.82,255.391,134.411,242.421z"/>
			<path style="fill-rule:evenodd;clip-rule:evenodd;fill:#696BB3;" d="M74.713,197.025c-1.706-4.198-3.413-12.126-3.413-12.126
				s-16.066,48.642-16.612,54.376c-0.546,5.734,3.573,10.246,3.573,10.246s18.431-35.77,18.363-38.228
				C76.556,208.834,76.419,201.223,74.713,197.025z"/>
			<path style="fill-rule:evenodd;clip-rule:evenodd;fill:#1C3666;" d="M69.013,262.526c0,0-1.229,3.243-0.512,4.335
				c0.717,1.092,2.609,0.609,2.609,0.609s7.324-12.248,9.781-29.724c2.458-17.476-0.58-58.193-0.58-58.193
				c-0.078-1.218-5.251-0.626-6.131,2.104c-0.249,0.774,3.14,23.665,2.443,43.143C76.062,240.514,69.013,262.526,69.013,262.526z"/>
			<path style="fill-rule:evenodd;clip-rule:evenodd;fill:#696BB3;" d="M93.946,209.167l-7.425-5.183
				c-0.964-0.673-2.286-0.466-2.999,0.469c0,0-23.552,25.396-28.835,34.821c-0.898,1.602-0.762,11.1,2.481,13.796
				c3.242,2.697,9.079,3.14,11.332,0.239c1.968-2.535,21.217-33.418,26.053-41.187C95.17,211.132,94.902,209.835,93.946,209.167z"/>
			<path style="fill-rule:evenodd;clip-rule:evenodd;fill:none;stroke:#5359A0;stroke-miterlimit:10;" d="M131.712,284.328
				c1.154-0.458,1.673-0.744,1.673-0.744s-0.664-10.1-1.673-23.284"/>
			<path style="fill-rule:evenodd;clip-rule:evenodd;fill:none;stroke:#5359A0;stroke-miterlimit:10;" d="M75.064,213.805
				c-7.308,8.232-17.182,19.771-20.376,25.47"/>
			<path style="fill-rule:evenodd;clip-rule:evenodd;fill:#FFFFFF;" d="M83.507,432.871c4.964,0.545,7.078,0.298,9.216,0
				c2.62-0.365,4.027-1.092,4.369-1.741c0.341-0.649,0.547-1.332,0.359-3.089c-0.188-1.758-0.57-2.079-0.848-1.939
				c-0.277,0.14,0.955,2.594-4.764,3.309c-4.005,0.501-10.413-0.482-11.95-1.284c-1.09-0.569-3.644-2.089-5.036-2.925
				c-0.413-0.248-0.934,0.054-0.929,0.535c0.009,0.802,0.019,0.788-0.01,1.307c-0.051,0.922,0.383,1.537,1.066,2.015
				C75.663,429.537,78.708,432.345,83.507,432.871z"/>
			<path style="fill-rule:evenodd;clip-rule:evenodd;fill:#FFFFFF;" d="M87.518,416.863c0.742,0,1.348-0.607,1.348-1.348
				s-0.607-1.348-1.348-1.348h-5.154c-0.742,0-1.348,0.607-1.348,1.348s0.607,1.348,1.348,1.348H87.518z"/>
			<path style="fill-rule:evenodd;clip-rule:evenodd;fill:#FFFFFF;" d="M87.415,412.153c0.742,0,1.348-0.607,1.348-1.348
				c0-0.742-0.607-1.348-1.348-1.348h-5.154c-0.742,0-1.348,0.607-1.348,1.348c0,0.742,0.607,1.348,1.348,1.348H87.415z"/>
			<path style="fill-rule:evenodd;clip-rule:evenodd;fill:#FFFFFF;" d="M87.593,421.152c0.739-0.066,1.289-0.723,1.223-1.462v0
				c-0.066-0.739-0.724-1.289-1.462-1.223l-5.134,0.457c-0.739,0.066-1.289,0.724-1.223,1.462v0
				c0.066,0.739,0.723,1.289,1.462,1.223L87.593,421.152z"/>
			<path style="fill-rule:evenodd;clip-rule:evenodd;fill:#FFFFFF;" d="M116.576,421.561c5.663,1.076,18.196,2.118,20.094,2.321
				c3.217,0.344,7.955,0.302,8.481-3.595c0.34-2.521-1.207-2.231-1.207-2.231s-0.779,1.955-2.336,2.537
				c-4.076,1.522-32.155-3.943-33.484-3.886c-0.519,0.022-0.883,0.513-0.758,1.017c0.252,1.015,0.446,1.84,0.874,2.257
				C108.902,420.623,110.913,420.486,116.576,421.561z"/>
			<path style="fill-rule:evenodd;clip-rule:evenodd;fill:#FFFFFF;" d="M125.489,414.201l2.48-3.52
				c0.357-0.506,0.234-1.213-0.272-1.569l-0.001,0c-0.506-0.357-1.212-0.234-1.569,0.272l-2.48,3.52
				c-0.357,0.507-0.234,1.213,0.272,1.569l0.001,0C124.426,414.83,125.132,414.707,125.489,414.201z"/>
			<path style="fill-rule:evenodd;clip-rule:evenodd;fill:#FFFFFF;" d="M123.067,407.415l-3.151,2.935
				c-0.453,0.422-0.479,1.138-0.057,1.591l0,0c0.422,0.453,1.138,0.479,1.592,0.056l3.151-2.935
				c0.453-0.422,0.479-1.138,0.056-1.592v0C124.236,407.018,123.52,406.993,123.067,407.415z"/>
			<path style="fill-rule:evenodd;clip-rule:evenodd;fill:#FFFFFF;" d="M120.406,404.001l-3.98,1.643
				c-0.573,0.236-0.848,0.898-0.611,1.471v0c0.236,0.573,0.898,0.848,1.471,0.611l3.98-1.643c0.573-0.236,0.848-0.898,0.611-1.47
				l0,0C121.64,404.04,120.979,403.765,120.406,404.001z"/>
			
				<line style="fill-rule:evenodd;clip-rule:evenodd;fill:none;stroke:#1C3666;stroke-miterlimit:10;" x1="109.845" y1="397.737" x2="106.151" y2="314"/>
			<polyline style="fill-rule:evenodd;clip-rule:evenodd;fill:none;stroke:#1C3666;stroke-miterlimit:10;" points="77.26,404.709 
				77.26,302.895 80.913,294.339 			"/>
			
				<line style="fill-rule:evenodd;clip-rule:evenodd;fill:none;stroke:#5359A0;stroke-miterlimit:10;" x1="81.851" y1="232.45" x2="94.553" y2="212.122"/>
		</g>
		<path style="fill-rule:evenodd;clip-rule:evenodd;fill:#094869;" d="M94.298,158.368c0,0,0.996-1.302,2.727-1.188
			c1.731,0.113,3.072,1.843,2.847,2.263c-0.225,0.42-1.19-0.341-1.798-0.813s-1.468-0.602-2.308-0.262
			c-0.839,0.34-1.678,1.075-1.836,0.76C93.773,158.813,94.298,158.368,94.298,158.368z"/>
		<path style="fill-rule:evenodd;clip-rule:evenodd;fill:#094869;" d="M98.074,162.419c0,0.688-0.405,1.245-0.905,1.245
			c-0.5,0-0.905-0.558-0.905-1.245c0-0.688,0.405-1.246,0.905-1.246C97.669,161.173,98.074,161.731,98.074,162.419z"/>
		<path style="fill-rule:evenodd;clip-rule:evenodd;fill:#094869;" d="M109.551,158.512c0,0-0.996-1.301-2.727-1.189
			c-1.731,0.113-3.072,1.844-2.847,2.263c0.225,0.42,1.19-0.341,1.798-0.813c0.609-0.472,1.468-0.602,2.308-0.262
			c0.839,0.34,1.678,1.075,1.836,0.76C110.076,158.957,109.551,158.512,109.551,158.512z"/>
		<path style="fill-rule:evenodd;clip-rule:evenodd;fill:#094869;" d="M105.775,162.563c0,0.688,0.405,1.246,0.905,1.246
			c0.5,0,0.905-0.558,0.905-1.246c0-0.688-0.405-1.246-0.905-1.246C106.18,161.317,105.775,161.875,105.775,162.563z"/>
		<path style="fill-rule:evenodd;clip-rule:evenodd;fill:#C1997E;" d="M103.056,162.065c0,0-0.236,4.789,0.656,5.2
			c0.892,0.411,0.996,1.075,0.42,1.831c-0.577,0.757-3.461,1.15-3.068,0.626c0.393-0.525,2.176-0.42,2.071-1.259
			c-0.105-0.839-0.787-0.105-0.76-1.757C102.4,165.054,102.872,158.918,103.056,162.065z"/>
		<path style="fill-rule:evenodd;clip-rule:evenodd;fill:#AF6C3F;" d="M98.074,172.108c0.176,0.004,3.311,1.39,4.684,0.76
			c1.373-0.629,1.399-1.18,1.557-0.76c0.157,0.42-1.185,1.708-2.9,1.654C99.7,173.707,97.025,172.081,98.074,172.108z"/>
	</g>
</g>
</svg>
