<?xml version="1.0" encoding="utf-8"?>
<!-- Generator: Adobe Illustrator 27.5.0, SVG Export Plug-In . SVG Version: 6.00 Build 0)  -->
<svg version="1.1" xmlns="http://www.w3.org/2000/svg" xmlns:xlink="http://www.w3.org/1999/xlink" x="0px" y="0px"
	 viewBox="0 0 750 500" style="enable-background:new 0 0 750 500;" xml:space="preserve">
<g id="BACKGROUND">
	<rect x="125" style="fill:#FFFFFF;" width="500" height="500"/>
	<rect y="-0.125" style="fill:#FFFFFF;" width="750" height="500.25"/>
	<rect x="-0.248" y="-0.742" style="fill:#FFFFFF;" width="750.248" height="501.395"/>
</g>
<g id="OBJECTS">
	<circle style="fill:#F5DC5E;" cx="64.975" cy="293.101" r="14.558"/>
	
		<ellipse transform="matrix(0.2298 -0.9732 0.9732 0.2298 249.6219 779.8104)" style="fill:#F5DC5E;" cx="617.478" cy="232.2" rx="14.558" ry="14.558"/>
	<path style="fill:#A095F8;" d="M698.548,197.349v-35.224c0-3.532,2.89-6.422,6.422-6.422l0,0c3.532,0,6.422,2.89,6.422,6.422
		v35.224c0,3.532-2.89,6.422-6.422,6.422l0,0C701.438,203.771,698.548,200.881,698.548,197.349z"/>
	
		<ellipse transform="matrix(0.9239 -0.3827 0.3827 0.9239 -90.2142 52.5448)" style="fill:#D86544;" cx="86.973" cy="253.041" rx="9.395" ry="9.395"/>
	
		<ellipse transform="matrix(0.4927 -0.8702 0.8702 0.4927 239.9267 559.7469)" style="fill:#E79AC0;" cx="600.045" cy="74.094" rx="9.395" ry="9.395"/>
	
		<ellipse transform="matrix(0.9239 -0.3827 0.3827 0.9239 -58.9591 270.5529)" style="fill:#E79AC0;" cx="650.603" cy="283.481" rx="7.789" ry="7.788"/>
	<path style="opacity:0.39;fill:#7BD1CC;" d="M624.326,417.198H96.706c-4.054-25.366-8.466-50.219-3.499-75.414
		c4.967-25.195,20.966-49.769,45.049-57.08c35.012-10.629,73.706,17.406,108.038,4.665c29.744-11.039,41.539-46.403,54.791-75.799
		c14.928-33.112,37.469-64.395,69.662-80.046c41.994-20.416,96.111-21.724,139.363-4.672c21.135,8.333,40.732,21.904,52.987,41.762
		c18.302,29.654,7.913,58.144,14.497,90.122c6.697,32.533,39.616,40.165,50.55,70.53C637.396,356.96,639.311,393.24,624.326,417.198
		z"/>
	<path style="fill:#7BD1CC;" d="M624.491,420.063H64.539c-2.962,0-5.385-2.423-5.385-5.385l0,0c0-2.962,2.423-5.385,5.385-5.385
		h559.952c2.962,0,5.385,2.423,5.385,5.385l0,0C629.876,417.64,627.453,420.063,624.491,420.063z"/>
	<path style="opacity:0.39;fill:#7BD1CC;" d="M235.603,216.572h-196.9c2.974-15.828,16.701-32.044,31.416-38.591
		c14.714-6.547,32.611-5.39,46.36,2.997c6.341,3.868,11.765,9.114,18.169,12.878c8.445,4.964,18.484,7.166,28.231,6.192
		c10.043-1.003,19.456-5.221,29.28-7.533c9.824-2.312,21.087-2.396,28.97,3.906C227.597,201.593,228.898,211.711,235.603,216.572z"
		/>
	<path style="opacity:0.39;fill:#7BD1CC;" d="M400.595,110.609H232.613c2.537-13.504,14.249-27.338,26.802-32.923
		c12.553-5.586,27.822-4.599,39.551,2.557c5.41,3.3,10.037,7.775,15.5,10.987c7.204,4.235,15.769,6.113,24.085,5.283
		c8.568-0.856,16.598-4.454,24.98-6.426c8.381-1.972,17.99-2.045,24.716,3.332C393.764,97.83,394.874,106.462,400.595,110.609z"/>
	<path style="opacity:0.39;fill:#7BD1CC;" d="M703.997,129.865H580.376c1.867-9.937,10.486-20.118,19.724-24.229
		c9.238-4.11,20.474-3.384,29.106,1.882c3.981,2.429,7.387,5.722,11.407,8.085c5.302,3.117,11.605,4.499,17.724,3.888
		c6.305-0.63,12.215-3.278,18.383-4.729c6.168-1.452,13.239-1.505,18.189,2.452C698.97,120.461,699.787,126.813,703.997,129.865z"/>
	<path style="fill:#7BD1CC;" d="M284.798,155.52h-57.034c-2.021,0-3.675-1.654-3.675-3.675l0,0c0-2.021,1.654-3.674,3.675-3.674
		h57.034c2.021,0,3.674,1.654,3.674,3.674l0,0C288.473,153.867,286.819,155.52,284.798,155.52z"/>
	<path style="opacity:0.39;fill:#7BD1CC;" d="M283.104,140.599H226.07c-2.021,0-3.674-1.654-3.674-3.674l0,0
		c0-2.021,1.654-3.674,3.674-3.674h57.034c2.021,0,3.674,1.654,3.674,3.674l0,0C286.778,138.945,285.125,140.599,283.104,140.599z"
		/>
	<path style="opacity:0.39;fill:#7BD1CC;" d="M638.623,179.818H581.59c-2.021,0-3.674-1.654-3.674-3.674l0,0
		c0-2.021,1.654-3.674,3.674-3.674h57.034c2.021,0,3.674,1.654,3.674,3.674l0,0C642.298,178.165,640.644,179.818,638.623,179.818z"
		/>
	<path style="fill:#7BD1CC;" d="M113.771,378.969H56.737c-2.021,0-3.674-1.654-3.674-3.675l0,0c0-2.021,1.653-3.674,3.674-3.674
		h57.034c2.021,0,3.674,1.654,3.674,3.674l0,0C117.445,377.315,115.791,378.969,113.771,378.969z"/>
	<path style="fill:#7BD1CC;" d="M620.676,162.869h-57.034c-2.021,0-3.674-1.654-3.674-3.674l0,0c0-2.021,1.654-3.675,3.674-3.675
		h57.034c2.021,0,3.674,1.654,3.674,3.675l0,0C624.35,161.216,622.697,162.869,620.676,162.869z"/>
	
		<ellipse transform="matrix(0.3827 -0.9239 0.9239 0.3827 77.9683 800.0723)" style="fill:#F5DC5E;" cx="637.68" cy="341.692" rx="24.212" ry="24.212"/>
	<rect x="484.574" y="133.25" style="fill:#E79AC0;" width="25.265" height="25.265"/>
	<g>
		<path style="fill:#D86544;" d="M188.191,171.093h-46.938c-8.932,0-16.172-7.24-16.172-16.172V96.015
			c0-8.932,7.24-16.172,16.172-16.172h46.938c8.931,0,16.172,7.24,16.172,16.172v58.905
			C204.363,163.852,197.123,171.093,188.191,171.093z"/>
		<polygon style="fill:#D86544;" points="149.032,171.093 165.176,193.277 180.412,171.093 		"/>
		<circle style="fill:#FFFFFF;" cx="163.631" cy="123.437" r="19.897"/>
		<polygon style="fill:#FFFFFF;" points="148.319,136.308 164.437,153.995 178.558,136.594 		"/>
		<circle style="fill:#D86544;" cx="163.39" cy="124.639" r="6.847"/>
	</g>
	<path style="fill:#E8E7C4;" d="M527.98,422.128L527.98,422.128c-0.802,0-1.459-0.657-1.459-1.459v-2.835
		c0-0.802,0.656-1.459,1.459-1.459l0,0c0.802,0,1.459,0.657,1.459,1.459v2.835C529.439,421.472,528.782,422.128,527.98,422.128z"/>
	<path style="fill:#E8E7C4;" d="M533.922,422.128L533.922,422.128c-0.802,0-1.459-0.657-1.459-1.459v-2.835
		c0-0.802,0.656-1.459,1.459-1.459l0,0c0.803,0,1.459,0.657,1.459,1.459v2.835C535.381,421.472,534.725,422.128,533.922,422.128z"/>
	<path style="fill:#E8E7C4;" d="M611.308,420.656L611.308,420.656c-0.63,0.497-1.552,0.388-2.049-0.242l-1.755-2.226
		c-0.497-0.63-0.388-1.552,0.242-2.049l0,0c0.63-0.497,1.552-0.388,2.049,0.242l1.755,2.226
		C612.047,419.237,611.938,420.159,611.308,420.656z"/>
	<path style="fill:#E8E7C4;" d="M615.444,418.634L615.444,418.634c-0.63,0.497-1.552,0.388-2.049-0.242l-1.756-2.226
		c-0.497-0.63-0.388-1.552,0.242-2.049l0,0c0.63-0.497,1.552-0.388,2.049,0.242l1.756,2.226
		C616.183,417.215,616.074,418.137,615.444,418.634z"/>
	<g>
		<g>
			<path style="fill:#A69AA8;" d="M184.045,434.013c-0.576,3.958,1.388,8.201,4.656,10.058c2.215,1.259,4.796,1.445,7.205,2.174
				c4.699,1.422,8.792,5.059,11.007,9.781h-31.801v-22.32L184.045,434.013z"/>
			<path style="fill:#5D515D;" d="M195.906,446.245c-2.408-0.729-4.989-0.916-7.205-2.174c-1.894-1.076-3.35-2.953-4.127-5.112
				c-0.633,0.98-1.243,1.978-1.921,2.923c-0.656,0.916-1.39,1.802-2.305,2.42c-0.919,0.62-1.974,0.849-3.039,0.64
				c-0.785-0.154-1.518-0.523-2.197-0.993v12.077h31.801C204.699,451.304,200.606,447.667,195.906,446.245z"/>
			<path style="fill:#A69AA8;" d="M206.128,457.859h-30.824c-0.918,0-1.669-0.751-1.669-1.669v-0.141
				c0-0.918,0.751-1.669,1.669-1.669h30.824c0.918,0,1.669,0.751,1.669,1.669v0.141
				C207.797,457.108,207.046,457.859,206.128,457.859z"/>
			<path style="fill:#A69AA8;" d="M183.201,445.645L183.201,445.645c-0.332-0.361-0.332-0.951,0-1.312l4.831-5.249
				c0.332-0.361,0.876-0.361,1.208,0l0,0c0.332,0.361,0.332,0.951,0,1.312l-4.831,5.249
				C184.077,446.006,183.533,446.006,183.201,445.645z"/>
			<path style="fill:#A69AA8;" d="M186.333,448.043L186.333,448.043c-0.332-0.361-0.332-0.951,0-1.312l4.831-5.249
				c0.332-0.361,0.876-0.361,1.208,0l0,0c0.332,0.361,0.332,0.951,0,1.312l-4.831,5.249
				C187.209,448.404,186.665,448.404,186.333,448.043z"/>
		</g>
		<g>
			<path style="fill:#A69AA8;" d="M139.15,420.856c-3.262,1.869-5.214,6.119-4.625,10.075c0.399,2.681,1.807,5.039,2.712,7.57
				c1.766,4.94,1.536,10.679-0.618,15.434l-19.046-27.667l16.452-13.368L139.15,420.856z"/>
			<path style="fill:#5D515D;" d="M137.238,438.501c-0.905-2.532-2.313-4.889-2.712-7.57c-0.341-2.292,0.171-4.683,1.296-6.653
				c-1.102,0.037-2.202,0.103-3.305,0.08c-1.068-0.022-2.161-0.13-3.164-0.556c-1.007-0.428-1.808-1.209-2.292-2.261
				c-0.356-0.776-0.524-1.634-0.584-2.506l-8.902,7.233l19.046,27.667C138.774,449.181,139.004,443.441,137.238,438.501z"/>
			<path style="fill:#A69AA8;" d="M134.839,454.41l-18.542-26.935c-0.527-0.766-0.382-1.862,0.323-2.435v0
				c0.705-0.573,1.714-0.415,2.241,0.351l18.542,26.935c0.527,0.766,0.382,1.862-0.323,2.435l0,0
				C136.375,455.334,135.367,455.176,134.839,454.41z"/>
			<path style="fill:#A69AA8;" d="M130.07,427.089L130.07,427.089c0.067-0.505,0.502-0.859,0.967-0.786l6.762,1.06
				c0.465,0.073,0.79,0.546,0.723,1.051l0,0c-0.067,0.505-0.502,0.859-0.967,0.786l-6.762-1.06
				C130.328,428.066,130.003,427.594,130.07,427.089z"/>
			<path style="fill:#A69AA8;" d="M130.179,431.249L130.179,431.249c0.067-0.505,0.502-0.859,0.967-0.786l6.762,1.06
				c0.465,0.073,0.79,0.546,0.723,1.051l0,0c-0.067,0.505-0.502,0.859-0.967,0.786l-6.762-1.06
				C130.437,432.227,130.112,431.754,130.179,431.249z"/>
		</g>
		<g>
			<path style="fill:#F3725F;" d="M154.108,228.699c0.364,1.926,0.574,3.881,0.629,5.84c0.082,2.932-0.295,6.131-2.341,8.233
				c1.268,1.744,3.191,3.176,5.281,3.71c2.089,0.533,4.363,0.313,6.311-0.61c0.532-0.252,1.038-0.553,1.543-0.854
				c0.62-0.369,1.24-0.738,1.86-1.108c-2.688-4.63-4.985-9.752-4.265-15.057c-1.342-0.25-3.241-0.815-4.583-1.065
				c-0.582-0.108-1.17-0.217-1.761-0.192C155.845,227.635,155.034,228.857,154.108,228.699z"/>
			<path style="fill:#F3725F;" d="M164.497,238.072c0.785,2.013,1.808,3.965,2.895,5.837c-0.62,0.369-1.24,0.738-1.86,1.108
				c-0.505,0.301-1.012,0.602-1.543,0.854c-1.948,0.924-4.222,1.143-6.311,0.61c-2.089-0.533-4.013-1.965-5.281-3.71
				c1.233-1.268,1.86-2.934,2.145-4.7H164.497z"/>
			<path style="fill:#5D515D;" d="M167.389,278.297l-10.727-0.603c-8.511-0.478-15.866,6.094-16.344,14.605l-1.133,20.158
				c0.069,0.204,0.108,0.432,0.109,0.685c0.01,3.066-1.029,2.403-1.22,2.375c0,0-0.331,5.653,2.438,13.723
				c1.837,5.353,6.655,9.186,12.296,9.639c0.138,0.011,0.277,0.021,0.415,0.028l10.727,0.603
				c8.156,0.458,15.587-11.472,16.61-19.918c-0.035-0.352,0.212-3.388,0.353-5.682c0,0,1.098-18.966,1.081-19.271
				C182.473,286.13,175.9,278.775,167.389,278.297z"/>
			<path style="fill:#E79AC0;" d="M186.513,283.025c-0.146,2.784-0.347,5.563-0.588,8.34c-0.162,1.863-0.329,3.719-0.588,5.565
				c-0.564,2.965-1.259,5.906-1.922,8.849c-0.293,1.12-0.591,2.238-0.878,3.36c-0.359,1.405-0.66,2.838-1.015,4.254
				c-0.179,0.308-0.389,0.596-0.63,0.857c-0.124,0.136-0.256,0.264-0.398,0.383c-0.512,0.435-1.212,0.643-1.834,0.866
				c-0.739,0.266-1.49,0.498-2.25,0.694c-2.016,0.521-4.074,0.727-6.144,0.891c-2.18,0.172-4.367,0.255-6.553,0.275
				c-1.117,0.009-2.235,0.004-3.352-0.016c-3.199-0.056-6.394-0.221-9.559-0.416c-0.645-0.039-8.973-0.96-11.795-1.291
				c-0.317-0.037-0.564-0.068-0.725-0.088c-0.005,0-0.011-0.001-0.016-0.002l-0.057-0.007c-0.088-0.011-0.134-0.018-0.134-0.02
				c-0.206-2.931-0.633-6.295-1.191-9.888c-0.436-2.812-0.953-5.765-1.506-8.759c-0.144-0.784-0.291-1.569-0.44-2.356
				c-0.002-0.011-0.004-0.021-0.006-0.032c-1.039-5.501-2.162-11.057-3.1-16.072c-0.333-1.775-0.643-3.48-0.917-5.093
				c-0.047-0.267-0.091-0.533-0.134-0.794c-0.006-0.04-0.014-0.081-0.02-0.121c-0.975-5.775-3.185-13.127-1.965-18.947
				c0.865-4.129,5.067-6.545,8.796-8.215c0.035-0.016,0.07-0.031,0.105-0.047c0.415-0.186,0.825-0.361,1.222-0.529
				c2.499-1.056,5.261-1.589,8.069-1.833c0.558-0.048,1.117-0.085,1.677-0.112c0.037-0.002,0.074-0.003,0.111-0.005
				c1.247-0.058,2.495-0.069,3.724-0.051c0.001,0,0.001,0,0.002,0c0.449,0.006,0.895,0.017,1.337,0.03
				c4.48,0.13,8.934,0.626,13.401,0.948c0.712,0.051,1.423,0.098,2.135,0.139c0.556,0.031,1.094,0.055,1.616,0.075
				c0.131,0.004,0.262,0.01,0.391,0.014c0.055,0.002,0.109,0.004,0.163,0.005c0.157,0.006,0.312,0.012,0.466,0.017
				c0.269,0.01,0.534,0.019,0.794,0.029c1.343,0.052,2.576,0.121,3.729,0.309c1.338,0.597,2.71,1.129,3.976,1.872
				c0.867,0.507,1.639,1.093,2.247,1.876c0.692,0.893,1.144,1.996,1.5,3.057c0.78,2.318,1.138,4.769,1.438,7.174
				c0.327,2.62,0.654,5.231,0.827,7.865C186.891,271.716,186.809,277.383,186.513,283.025z"/>
		</g>
		<g>
			<path style="fill:#E79AC0;" d="M223.747,290.258c-4.039-1.958-8.539-2.835-12.515-4.907
				c-13.958-7.271-17.007-21.226-26.031-32.855c-2.416-3.114-7.097-7.013-11.26-7.259c-4.759-0.281-4.416,3.536-3.306,8.011
				c4.498,18.128,14.887,34.988,29.439,47.027c4.62,3.822,9.71,7.216,15.384,9.074c3.18,1.042,6.609,1.584,9.82,0.828
				c3.21-0.756,6.156-2.992,7.095-6.137C234.031,298.488,229.075,292.841,223.747,290.258z"/>
			<g>
				<path style="fill:#F3725F;" d="M239.108,312.209c0.749-0.828-3.094-3.848-3.094-3.848s5.258,3.619,5.935,3.094
					c1.068-0.829-4.974-4.849-4.974-4.849s6.689,4.209,7.312,2.865c0.623-1.344-6.47-4.759-6.47-4.759s6.87,2.799,7.202,1.559
					c0.331-1.24-8.67-4.51-8.67-4.51s4.567-1.613,4.299-2.565c-0.453-1.605-10.299,1.416-10.299,1.416l-2.705,4.954
					C227.643,305.567,238.359,313.038,239.108,312.209z"/>
			</g>
		</g>
		<g>
			<path style="fill:#2D1A14;" d="M158.929,215.115c2.555,0.548,3.959,3.188,3.594,5.556c-0.365,2.367-2.092,4.438-4.043,6.117
				c-0.979-2.885-1.672-5.426-2.651-8.311c-0.368-1.084-0.62-2.502,0.429-3.193C156.848,214.896,158.238,214.967,158.929,215.115z"
				/>
			<path style="fill:#F3725F;" d="M171.003,228.612c-0.004,0.092-0.009,0.183-0.016,0.274c-0.004,0.046-0.007,0.093-0.011,0.139
				c-0.003,0.029-0.005,0.058-0.008,0.086c-0.008,0.088-0.019,0.174-0.03,0.261c-0.004,0.026-0.007,0.052-0.011,0.078
				c-0.018,0.126-0.039,0.253-0.063,0.377c-0.025,0.133-0.054,0.264-0.085,0.395c-0.011,0.047-0.023,0.092-0.035,0.138
				c-0.007,0.028-0.015,0.056-0.022,0.083c-0.029,0.111-0.062,0.221-0.097,0.33c-0.082,0.264-0.179,0.523-0.287,0.776
				c-0.025,0.061-0.053,0.122-0.08,0.182c-0.248,0.543-0.551,1.055-0.903,1.53c-0.077,0.103-0.155,0.203-0.235,0.302
				c-0.044,0.054-0.088,0.105-0.132,0.158c-0.074,0.086-0.15,0.171-0.227,0.254c-0.189,0.205-0.388,0.399-0.596,0.584
				c-0.098,0.086-0.197,0.17-0.297,0.252c-0.413,0.334-0.857,0.629-1.328,0.88c-0.354,0.191-0.724,0.355-1.107,0.493
				c-0.084,0.031-0.168,0.059-0.253,0.087c-0.06,0.02-0.12,0.039-0.181,0.056c-0.033,0.01-0.066,0.021-0.1,0.03
				c-0.031,0.009-0.062,0.017-0.093,0.025c-0.099,0.028-0.197,0.053-0.297,0.077c-0.592,0.139-1.206,0.214-1.837,0.221
				c-0.139,0.001-0.276-0.001-0.413-0.007c-1.54-0.062-2.979-0.543-4.203-1.332c-2.305-1.487-3.849-4.067-3.876-7l-0.018-1.99
				l-0.053-5.853l-0.017-1.831l-0.023-2.526c-0.001-0.139,0.001-0.277,0.007-0.414c0.003-0.068,0.006-0.136,0.01-0.204
				c0.003-0.054,0.007-0.107,0.012-0.16c0.004-0.054,0.009-0.108,0.016-0.161c0.001-0.013,0.002-0.026,0.004-0.039
				c0.003-0.033,0.007-0.066,0.011-0.099c0.004-0.04,0.009-0.078,0.015-0.117c0.003-0.024,0.006-0.048,0.009-0.071
				c0.008-0.058,0.017-0.115,0.027-0.172c0.008-0.048,0.016-0.097,0.026-0.145c0.004-0.029,0.01-0.057,0.016-0.085
				c0.021-0.112,0.045-0.223,0.072-0.333c0.014-0.062,0.03-0.125,0.046-0.187c0.015-0.057,0.03-0.113,0.046-0.171
				c0.015-0.055,0.033-0.111,0.049-0.166c0.001-0.002,0.001-0.003,0.002-0.005c0.017-0.055,0.035-0.11,0.053-0.166
				c0.019-0.055,0.038-0.111,0.057-0.166c0.02-0.054,0.04-0.11,0.06-0.164c0.042-0.111,0.087-0.221,0.133-0.329
				c0.009-0.021,0.018-0.041,0.027-0.062c0.039-0.089,0.079-0.178,0.121-0.266c0.01-0.02,0.02-0.041,0.03-0.061
				c0.044-0.091,0.09-0.18,0.137-0.269c0.008-0.014,0.015-0.028,0.023-0.042c1.412-2.611,4.165-4.406,7.329-4.435
				c3.558-0.032,6.64,2.179,7.892,5.306c0.377,0.94,0.589,1.963,0.598,3.032l0.111,12.2
				C171.01,228.331,171.008,228.472,171.003,228.612z"/>
			<path style="fill:#F3725F;" d="M149.503,223.468c0.016,1.79,1.48,3.227,3.27,3.211c1.79-0.016,3.227-1.48,3.211-3.27
				c-0.016-1.79-1.48-3.227-3.27-3.211C150.924,220.214,149.487,221.678,149.503,223.468z"/>
			<path style="fill:#544E60;" d="M171.003,228.612c-0.004,0.092-0.009,0.183-0.016,0.274c-0.004,0.046-0.007,0.093-0.011,0.139
				c-0.003,0.029-0.005,0.058-0.008,0.086c-0.008,0.088-0.019,0.174-0.03,0.261c-0.004,0.026-0.007,0.052-0.011,0.078
				c-0.018,0.126-0.039,0.253-0.063,0.377c-0.025,0.133-0.054,0.264-0.085,0.395c-0.011,0.047-0.023,0.092-0.035,0.138
				c-0.007,0.028-0.015,0.056-0.022,0.083c-0.029,0.111-0.062,0.221-0.097,0.33c-0.082,0.264-0.179,0.523-0.287,0.776
				c-0.025,0.061-0.053,0.122-0.08,0.182c-0.248,0.543-0.551,1.055-0.903,1.53c-0.076,0.103-0.155,0.203-0.235,0.302
				c-0.044,0.054-0.088,0.105-0.132,0.158c-0.074,0.086-0.15,0.171-0.227,0.254c-0.189,0.205-0.388,0.399-0.596,0.584
				c-0.098,0.086-0.197,0.171-0.297,0.252c-0.413,0.334-0.857,0.629-1.328,0.88c-0.354,0.191-0.724,0.355-1.107,0.493
				c-0.083,0.031-0.167,0.059-0.253,0.087c-0.06,0.02-0.12,0.039-0.181,0.056c-0.033,0.01-0.066,0.021-0.1,0.03
				c-0.031,0.009-0.062,0.017-0.093,0.025c-0.099,0.028-0.197,0.053-0.297,0.077c-0.592,0.139-1.206,0.214-1.837,0.221
				c-0.139,0.001-0.276-0.001-0.413-0.007c-1.54-0.062-2.979-0.543-4.203-1.332c-2.305-1.487-3.849-4.067-3.876-7l-0.018-1.99
				l-0.053-5.853l-0.017-1.831l-0.023-2.526c-0.001-0.139,0.001-0.277,0.007-0.414c0.003-0.068,0.006-0.136,0.01-0.204
				c0.003-0.054,0.007-0.107,0.012-0.16c0.004-0.054,0.009-0.108,0.016-0.161c0.001-0.013,0.002-0.026,0.004-0.039
				c0.003-0.033,0.007-0.066,0.011-0.099c0.004-0.04,0.009-0.078,0.015-0.117c0.003-0.024,0.006-0.048,0.009-0.071
				c0.008-0.058,0.017-0.115,0.027-0.172c0.008-0.048,0.016-0.097,0.026-0.145c0.004-0.029,0.01-0.057,0.016-0.085
				c0.022-0.112,0.045-0.223,0.072-0.333c0.014-0.062,0.03-0.125,0.046-0.187c0.015-0.057,0.03-0.113,0.046-0.171
				c0.015-0.055,0.033-0.111,0.049-0.166c0.001-0.002,0.001-0.003,0.002-0.005c0.017-0.055,0.035-0.11,0.053-0.166
				c0.019-0.055,0.038-0.111,0.057-0.166c0.02-0.054,0.04-0.11,0.06-0.164c0.351-0.928,0.862-1.78,1.5-2.521l0.029,3.147l0.057,6.29
				c0.001,0.12,0.022,0.225,0.057,0.321c1.182,0.325,2.248,1.112,2.988,2.106c0.747,1.003,1.198,2.19,1.46,3.419
				c0.117-0.046,0.231-0.121,0.337-0.234c1.376-1.454,3.783-1.493,5.603-1.06c1.948,0.464,3.923,1.63,4.255,3.757
				C170.909,228.441,170.948,228.531,171.003,228.612z"/>
			<path style="fill:#FFFFFF;" d="M161.43,228.071c0.207,1.739,1.623,3.091,3.358,3.091c1.736,0,3.151-1.352,3.358-3.091H161.43z"/>
			<path style="fill:#544E60;" d="M170.301,212.958c-1.379,0.945-3.153,1.443-4.844,1.519c-2.886,0.131-5.735-0.65-8.621-0.779
				c-0.232-0.01-0.477-0.013-0.7,0.043c-0.118,0.029-0.23,0.075-0.331,0.145l-1.105,6.969l-0.21,1.323
				c-0.018-0.513-0.06-1.026-0.118-1.542c-0.074-0.655-0.173-1.313-0.28-1.968l-0.023-2.526c-0.001-0.139,0.001-0.277,0.007-0.414
				c0.003-0.068,0.006-0.136,0.01-0.204c0.003-0.054,0.007-0.107,0.012-0.16c0.004-0.054,0.009-0.108,0.016-0.161
				c0.001-0.013,0.002-0.026,0.004-0.039c0.003-0.033,0.007-0.066,0.011-0.099c0.004-0.04,0.009-0.078,0.015-0.117
				c0.003-0.024,0.006-0.048,0.009-0.071c0.008-0.058,0.017-0.115,0.027-0.172c0.008-0.048,0.016-0.097,0.026-0.145
				c0.004-0.029,0.01-0.057,0.016-0.085c0.021-0.112,0.045-0.223,0.072-0.333c0.014-0.062,0.03-0.125,0.046-0.187
				c0.015-0.057,0.03-0.113,0.046-0.171c0.015-0.055,0.033-0.111,0.049-0.166c0.001-0.002,0.001-0.003,0.002-0.005
				c0.017-0.055,0.035-0.11,0.053-0.166c0.019-0.055,0.038-0.111,0.057-0.166c0.02-0.054,0.04-0.11,0.06-0.164
				c0.042-0.111,0.087-0.221,0.133-0.329c0.009-0.021,0.018-0.041,0.027-0.062c0.039-0.089,0.079-0.178,0.121-0.266
				c0.01-0.02,0.02-0.041,0.03-0.061c0.044-0.091,0.09-0.18,0.137-0.269c0.008-0.014,0.015-0.028,0.023-0.042
				c1.412-2.611,4.165-4.406,7.329-4.435C165.966,207.62,169.048,209.831,170.301,212.958z"/>
		</g>
		<path style="fill:#5D515D;" d="M167.803,345.143l-1.995-8.904c-0.18-0.033-0.36-0.065-0.541-0.097
			c-6.896-1.244-17.785-6.287-24.755-6.899l21.969,52.952c3.209,14.579,9.407,51.1,9.413,51.139c0,2.071,10.211,4.935,14.771,2.416
			C180.556,390.797,172.499,359.784,167.803,345.143z"/>
		<path style="fill:#5D515D;" d="M180.561,319.594l-19.84,9.32l-12.736,40.626c-5.277,13.877-19.169,46.301-19.168,46.303
			c1.624,2.134,5.918,8.818,10.971,9.681C159.096,385.216,179.855,340.837,180.561,319.594z"/>
		<path style="fill:#E79AC0;" d="M130.193,250.837c-4.465,4.049-7.677,9.549-11.048,14.545c-4.257,6.309-8.262,13.053-9.492,20.564
			c-1.23,7.511,0.853,15.991,6.909,20.599c5.868,4.465,13.906,4.428,21.265,3.958c4.089-0.261,8.84-1.001,10.82-4.588
			c1.995-3.613-0.158-8.376-3.57-10.698c-3.412-2.322-7.908-1.975-11.782-3.396c-4.054-1.487-9.983-3.605-9.983-3.605
			c-1.851-0.463,5.318-12.218,6.126-13.35c3.699-5.18,8.175-10.384,9.189-16.884c0.414-2.658,0.05-4.667-1.839-6.652
			C134.889,249.334,132.329,248.9,130.193,250.837z"/>
	</g>
	<path style="fill:#544E60;" d="M156.999,310.568l-7.268-4.791c-0.708-0.467-0.906-1.428-0.439-2.137l12.448-18.884
		c0.467-0.708,1.428-0.906,2.137-0.439l7.268,4.791c0.708,0.467,0.906,1.428,0.439,2.137l-12.448,18.884
		C158.669,310.837,157.707,311.035,156.999,310.568z"/>
	<g>
		<g>
			<path style="fill:#F3725F;" d="M154.124,296.13c0.614,0.784-3.023,4.032-3.023,4.032s9.633-0.395,9.799,0.887
				c0.007,0.052-0.003,0.101-0.02,0.148c-0.279,0.171-0.555,0.346-0.825,0.529c-1.925,0.611-6.458,0.623-6.458,0.623
				s1.546,0.092,3.266,0.323c-1.075,0.456-2.062,1.083-2.98,1.82c-0.22-0.035-0.346-0.057-0.346-0.057s0.123,0.025,0.331,0.069
				c-1.334,1.073-2.525,2.375-3.639,3.703c-3.007-0.556-5.78-1.174-5.78-1.174l0.626-5.648
				C145.073,301.385,153.088,294.808,154.124,296.13z"/>
		</g>
		<path style="fill:#F3725F;" d="M155.487,305.406c0.441,0.557,0.321,1.414-0.123,1.969c-0.444,0.554-1.136,0.852-1.825,1.022
			c-1.542,0.38-3.215,0.206-4.646-0.484c-0.969-0.466-1.91-1.339-1.844-2.413c0.056-0.907,0.806-1.606,1.552-2.125
			c1.778-1.236,5.474-3.194,7.702-2.156C158.216,302.111,157.946,306.136,155.487,305.406z"/>
	</g>
	<path style="fill:#D86544;" d="M367.918,143.804L367.918,143.804c-4.743,0-8.624-3.881-8.624-8.624l0,0
		c0-4.743,3.881-8.624,8.624-8.624l0,0c4.743,0,8.624,3.881,8.624,8.624l0,0C376.542,139.923,372.661,143.804,367.918,143.804z"/>
	<path style="fill:#D86544;" d="M655.382,217.826L655.382,217.826c-3.557,0-6.468-2.91-6.468-6.468l0,0
		c0-3.557,2.911-6.468,6.468-6.468l0,0c3.557,0,6.468,2.911,6.468,6.468l0,0C661.85,214.916,658.94,217.826,655.382,217.826z"/>
	<path style="fill:#D86544;" d="M436.909,178.3"/>
	<path style="fill:#7BD1CC;" d="M458.469,287.536H327.313c-8.124,0-14.733-6.609-14.733-14.733c0-8.124,6.609-14.733,14.733-14.733
		h53.101c0.051-0.036,0.091-0.104,0.153-0.108c5.496-0.431,10.782-1.434,15.018-5.282c13.568-12.325,1.442-31.988-15.189-31.988
		h-47.693c-0.026,0-0.051,0.007-0.077,0.008h-52.746c-11.69,0-21.201-9.51-21.201-21.201c0-11.69,9.511-21.201,21.201-21.201
		h178.587v-5.749H279.881c-14.86,0-26.95,12.09-26.95,26.95c0,14.86,12.089,26.95,26.95,26.95c0,0,82.32-0.228,82.324-0.342h18.192
		c8.115,0,14.73,5.547,14.974,12.439c-0.018,0.128-0.039,0.257-0.039,0.39c0,6.894-5.759,12.587-13.158,13.384h-54.86
		c-11.294,0-20.482,9.188-20.482,20.482c0,11.294,9.188,20.482,20.482,20.482h131.156V287.536z"/>
	<g>
		<circle style="fill:#544E60;" cx="506.415" cy="172.415" r="75.779"/>
		
			<ellipse transform="matrix(0.7071 -0.7071 0.7071 0.7071 26.411 408.5886)" style="fill:#D3D2FC;" cx="506.416" cy="172.413" rx="64.203" ry="64.203"/>
		<path style="opacity:0.65;fill:#FFFFFF;" d="M565.55,173.269c-29.046-19.461-58.792-37.912-86.855-58.771
			c-15.424,7.397-27.441,20.766-33.037,37.119c3.881,3.525,7.794,7.015,11.743,10.465c26.328,23,53.95,44.402,81.763,65.561
			c17.705-10.52,29.919-29.309,31.318-51.044C568.839,175.487,567.198,174.373,565.55,173.269z"/>
		<g>
			<path style="fill:#D86544;" d="M514.946,173.633c0,4.487-3.638,8.125-8.125,8.125c-4.487,0-8.125-3.638-8.125-8.125
				c0-4.487,3.638-8.125,8.125-8.125C511.309,165.508,514.946,169.146,514.946,173.633z"/>
		</g>
		<g>
			<path style="fill:#D86544;" d="M509.378,172.946c-0.707,0-1.421-0.212-2.041-0.654c-1.583-1.129-1.952-3.328-0.823-4.911
				l20.068-28.145c1.129-1.584,3.327-1.952,4.911-0.823c1.583,1.129,1.952,3.328,0.823,4.911l-20.068,28.145
				C511.561,172.432,510.478,172.946,509.378,172.946z"/>
		</g>
		<path style="fill:#A095F8;" d="M510.072,118.79c0,2.468-2.001,4.469-4.469,4.469c-2.468,0-4.469-2.001-4.469-4.469
			c0-2.468,2.001-4.469,4.469-4.469C508.071,114.321,510.072,116.322,510.072,118.79z"/>
		<circle style="fill:#A095F8;" cx="545.821" cy="134.227" r="4.469"/>
		<path style="fill:#A095F8;" d="M475.54,134.633c0,2.468-2.001,4.469-4.469,4.469c-2.468,0-4.469-2.001-4.469-4.469
			s2.001-4.469,4.469-4.469C473.539,130.165,475.54,132.165,475.54,134.633z"/>
		<path style="fill:#A095F8;" d="M477.978,206.946c0,2.468-2.001,4.469-4.469,4.469c-2.468,0-4.469-2.001-4.469-4.469
			c0-2.468,2.001-4.469,4.469-4.469C475.977,202.477,477.978,204.478,477.978,206.946z"/>
		<path style="fill:#A095F8;" d="M548.665,205.321c0,2.468-2.001,4.469-4.469,4.469c-2.468,0-4.469-2.001-4.469-4.469
			c0-2.468,2.001-4.469,4.469-4.469C546.664,200.852,548.665,202.853,548.665,205.321z"/>
		<circle style="fill:#A095F8;" cx="456.446" cy="167.946" r="4.469"/>
		<path style="fill:#A095F8;" d="M510.478,224.008c0,2.468-2.001,4.469-4.469,4.469c-2.468,0-4.469-2.001-4.469-4.469
			c0-2.468,2.001-4.469,4.469-4.469C508.477,219.54,510.478,221.54,510.478,224.008z"/>
		<path style="fill:#A095F8;" d="M506.09,102.864L506.09,102.864c-4.245,0-7.719-3.473-7.719-7.719V82.762
			c0-4.245,3.473-7.719,7.719-7.719l0,0c4.245,0,7.719,3.473,7.719,7.719v12.384C513.809,99.391,510.335,102.864,506.09,102.864z"/>
		<path style="fill:#D86544;" d="M519.009,86.829h-25.187c-3.575,0-6.5-2.925-6.5-6.5v-4.062c0-3.575,2.925-6.5,6.5-6.5h25.187
			c3.575,0,6.5,2.925,6.5,6.5v4.062C525.509,83.904,522.584,86.829,519.009,86.829z"/>
		<path style="fill:#A095F8;" d="M457.814,123.42L457.814,123.42c-3.046,2.957-7.958,2.884-10.915-0.162l-8.626-8.886
			c-2.957-3.046-2.884-7.958,0.162-10.915v0c3.046-2.957,7.958-2.884,10.915,0.162l8.626,8.886
			C460.933,115.552,460.86,120.463,457.814,123.42z"/>
		<path style="fill:#D86544;" d="M455.915,102.916l-18.072,17.543c-2.565,2.49-6.702,2.429-9.192-0.137l-2.829-2.914
			c-2.49-2.565-2.429-6.702,0.136-9.192l18.072-17.543c2.565-2.49,6.702-2.429,9.192,0.137l2.829,2.915
			C458.542,96.29,458.48,100.426,455.915,102.916z"/>
	</g>
	<path style="fill:#7BD1CC;" d="M276.852,313.648c0,3.187-2.584,5.771-5.771,5.771c-3.187,0-5.771-2.584-5.771-5.771
		c0-3.187,2.584-5.771,5.771-5.771C274.268,307.877,276.852,310.461,276.852,313.648z"/>
	<path style="fill:#7BD1CC;" d="M297.771,313.648c0,3.187-2.584,5.771-5.771,5.771c-3.187,0-5.771-2.584-5.771-5.771
		c0-3.187,2.584-5.771,5.771-5.771C295.188,307.877,297.771,310.461,297.771,313.648z"/>
	<path style="fill:#7BD1CC;" d="M318.691,313.648c0,3.187-2.584,5.771-5.771,5.771c-3.187,0-5.771-2.584-5.771-5.771
		c0-3.187,2.584-5.771,5.771-5.771C316.107,307.877,318.691,310.461,318.691,313.648z"/>
	<path style="fill:#7BD1CC;" d="M339.61,313.648c0,3.187-2.584,5.771-5.771,5.771c-3.187,0-5.771-2.584-5.771-5.771
		c0-3.187,2.584-5.771,5.771-5.771C337.027,307.877,339.61,310.461,339.61,313.648z"/>
	<circle style="fill:#7BD1CC;" cx="339.712" cy="192.434" r="5.771"/>
	<circle style="fill:#7BD1CC;" cx="360.631" cy="192.434" r="5.771"/>
	<circle style="fill:#7BD1CC;" cx="381.551" cy="192.434" r="5.771"/>
	<path style="fill:#7BD1CC;" d="M408.241,192.434c0,3.187-2.584,5.771-5.771,5.771c-3.187,0-5.771-2.584-5.771-5.771
		c0-3.187,2.584-5.771,5.771-5.771C405.657,186.663,408.241,189.246,408.241,192.434z"/>
	<path style="fill:#A095F8;" d="M318.809,271.247c0,3.837-3.11,6.947-6.947,6.947c-3.837,0-6.947-3.11-6.947-6.947
		c0-3.837,3.11-6.947,6.947-6.947C315.699,264.3,318.809,267.41,318.809,271.247z"/>
	<path style="fill:#A095F8;" d="M379.895,255.197c0,3.837-3.11,6.947-6.947,6.947c-3.837,0-6.947-3.11-6.947-6.947
		c0-3.837,3.11-6.947,6.947-6.947C376.785,248.25,379.895,251.36,379.895,255.197z"/>
	<circle style="fill:#A095F8;" cx="297.96" cy="223.302" r="6.947"/>
	<path style="fill:#A095F8;" d="M356.419,175.665c0,3.837-3.11,6.947-6.947,6.947c-3.837,0-6.947-3.11-6.947-6.947
		c0-3.837,3.11-6.947,6.947-6.947C353.309,168.718,356.419,171.828,356.419,175.665z"/>
	<g>
		<path style="fill:#A095F8;" d="M37.28,98.899V70.356c0-2.862,2.342-5.204,5.204-5.204l0,0c2.862,0,5.204,2.342,5.204,5.204v28.544
			c0,2.862-2.342,5.204-5.204,5.204l0,0C39.621,104.103,37.28,101.762,37.28,98.899z"/>
		<path style="fill:#A095F8;" d="M48.113,121.317c0,3.109-2.52,5.63-5.63,5.63s-5.629-2.521-5.629-5.63
			c0-3.109,2.52-5.629,5.629-5.629S48.113,118.208,48.113,121.317z"/>
		<path style="fill:#A095F8;" d="M48.113,143.252c0,3.109-2.52,5.63-5.63,5.63s-5.629-2.52-5.629-5.63s2.52-5.63,5.629-5.63
			S48.113,140.143,48.113,143.252z"/>
		<circle style="fill:#A095F8;" cx="42.364" cy="164.645" r="5.629"/>
	</g>
	<circle style="fill:#A095F8;" cx="704.97" cy="221.044" r="5.63"/>
	<circle style="fill:#A095F8;" cx="704.97" cy="242.98" r="5.63"/>
	<path style="fill:#A095F8;" d="M710.599,264.372c0,3.109-2.52,5.63-5.63,5.63c-3.109,0-5.629-2.521-5.629-5.63
		c0-3.109,2.52-5.63,5.629-5.63C708.079,258.743,710.599,261.263,710.599,264.372z"/>
	<g>
		<g>
			<g>
				<g>
					<g>
						<g>
							<g>
								<path style="fill:#544E60;" d="M242.372,396.688c0,0,4.192,30.62,6.618,30.84c2.426,0.22,13.898,0,13.898,0l2.204-31.765
									L242.372,396.688z"/>
								<linearGradient id="SVGID_1_" gradientUnits="userSpaceOnUse" x1="239.2809" y1="351.6968" x2="717.0889" y2="351.6968">
									<stop  offset="0" style="stop-color:#FFD52B"/>
									<stop  offset="1" style="stop-color:#FFBB00"/>
								</linearGradient>
								<path style="fill:url(#SVGID_1_);" d="M717.089,381.47v27.527c0,4.634-9.488,11.847-15,11.847h-7.606
									c-4.688-2.381-12.853-3.266-25.456-3.266c-21.101,0-39.269,11.167-39.269,11.167s-10.002,2.654-27.248,4.846H368.956
									c-15.385-2.147-30.317-2.192-43.941-2.192c-19.007,0-35.776,0-48.054,2.192h-23.225c-11.416,0-12.747-6.282-12.747-8.913
									c0-2.624,1.331-5.292,3.811-5.292h11.083c5.292,0,0.658-11.106-2.979-14.743c-3.636-3.644-13.624-3.312-13.624-5.481v-11.56
									c0-3.909,4.771-6.819,7.787-10.154c1.232-1.368,2.17-2.805,2.366-4.408c0.023-0.174,0.038-0.348,0.061-0.514
									c0.015-0.167,0.03-0.325,0.053-0.492c0.015-0.189,0.038-0.37,0.061-0.559c0.008-0.091,0.015-0.182,0.03-0.272
									c0.023-0.227,0.053-0.454,0.083-0.688c0.015-0.098,0.03-0.204,0.045-0.302c0.015-0.129,0.038-0.25,0.06-0.378
									c0.023-0.121,0.038-0.249,0.068-0.378c0.045-0.25,0.098-0.514,0.166-0.779c0.03-0.129,0.061-0.257,0.098-0.393
									c0.038-0.128,0.076-0.264,0.113-0.401c0.076-0.272,0.166-0.552,0.272-0.839l0.159-0.431c0.015-0.038,0.03-0.083,0.045-0.121
									c0.083-0.212,0.174-0.423,0.28-0.642c0.287-0.643,0.643-1.323,1.081-2.042c0.197-0.333,0.423-0.68,0.665-1.036
									c0.234-0.348,0.499-0.711,0.779-1.081c0.144-0.189,0.287-0.371,0.438-0.567c0.302-0.378,0.628-0.771,0.975-1.172
									c0.007-0.007,0.023-0.022,0.023-0.03c0.339-0.391,0.709-0.795,1.094-1.207c0.001-0.001,0.001-0.001,0.002-0.002h0
									c2.209-2.36,5.198-5.072,9.284-8.264c1.814-1.414,3.841-2.926,6.116-4.536c22.061-15.665,89.787-21.487,95.321-21.487
									s29.871-22.417,43.102-35.428c2.041-2.011,3.833-5.572,5.98-7.19c11.817-8.846,24.647-12.006,31.081-12.006h196.555
									c8.286,0,25.97,3.311,25.97,5.126c0,1.822-7.78,1.656-4.801,4.801c0.197,0.204,0.537,0.597,1.013,1.149
									c2.752,3.191,7.628,12.77,15.174,22.235c5.806,7.281,14.115,14.107,18.606,20.292c4.181,5.776,7.009,10.161,7.009,11.477
									v33.084C706.497,372.82,717.089,378.778,717.089,381.47z"/>
								
									<linearGradient id="SVGID_00000005246545779242324160000016634744545598265523_" gradientUnits="userSpaceOnUse" x1="239.2809" y1="396.1518" x2="717.0889" y2="396.1518">
									<stop  offset="0" style="stop-color:#FFD52B"/>
									<stop  offset="1" style="stop-color:#FFBB00"/>
								</linearGradient>
								<path style="fill:url(#SVGID_00000005246545779242324160000016634744545598265523_);" d="M717.089,381.47v27.527
									c0,4.634-9.488,11.847-15,11.847h-7.606c-4.74,0-11.703-0.733-24.307-0.733c-1.255,0-2.503,0.038-3.742,0.121
									c-19.551,1.18-36.26,11.167-36.26,11.167s-9.776,2.192-27.663,2.192H368.956c-10.169-2.532-30.249-3.107-43.79-3.107
									c-19.143,0-38.233-1.202-48.205,3.107h-23.225c-11.416,0-12.747-6.282-12.747-8.913c0-2.624,1.331-5.292,3.811-5.292h11.083
									c5.292,0,0.658-11.106-2.979-14.743c-3.636-3.644-13.624-3.312-13.624-5.481v-11.56c0-3.909,4.771-6.819,7.787-10.154
									c1.232-1.368,2.17-2.805,2.366-4.408c0.023-0.174,0.038-0.348,0.061-0.514c0.015-0.167,0.03-0.325,0.053-0.492
									c0.015-0.189,0.038-0.37,0.061-0.559c0.008-0.091,0.015-0.182,0.03-0.272c0.023-0.227,0.053-0.454,0.083-0.688
									c0.015-0.098,0.03-0.204,0.045-0.302c0.015-0.129,0.038-0.25,0.06-0.378c0.023-0.121,0.038-0.249,0.068-0.378
									c0.045-0.25,0.098-0.514,0.166-0.779c0.03-0.129,0.061-0.257,0.098-0.393c0.038-0.128,0.076-0.264,0.113-0.401
									c0.076-0.272,0.166-0.552,0.272-0.839l0.159-0.431c0.015-0.038,0.03-0.083,0.045-0.121c0.091-0.212,0.181-0.423,0.28-0.642
									c0.287-0.643,0.643-1.323,1.081-2.042c0.204-0.34,0.423-0.68,0.665-1.036c0.242-0.348,0.499-0.711,0.779-1.081
									c0.144-0.189,0.287-0.371,0.438-0.567c0.302-0.378,0.628-0.771,0.975-1.172c0.007-0.007,0.023-0.022,0.023-0.03
									c0.348-0.393,0.711-0.794,1.096-1.209h450.409v9.254C706.497,372.82,717.089,378.778,717.089,381.47z"/>
								<path style="fill:#FFAB17;" d="M706.497,367.967v-33.084c0-1.316-2.828-5.701-7.009-11.477
									c-4.491-6.185-12.8-13.011-18.606-20.292c-7.545-9.466-12.422-19.045-15.174-22.235c-0.476-0.552-0.817-0.945-1.013-1.149
									c-2.979-3.145,4.801-2.979,4.801-4.801c0-1.815-17.684-5.126-25.97-5.126h-122.04v163.788h81.025
									c17.245-2.192,27.248-4.846,27.248-4.846s18.168-11.167,39.269-11.167c12.603,0,20.768,0.884,25.456,3.266h7.606
									c5.511,0,15-7.213,15-11.847V381.47C717.089,378.778,706.497,372.82,706.497,367.967z"/>
								<path style="fill:#FFAB17;" d="M706.497,367.967v-9.254h-185.01v74.878h81.025c17.888,0,27.663-2.192,27.663-2.192
									s16.708-9.987,36.26-11.167c1.24-0.083,2.487-0.121,3.742-0.121c12.603,0,19.566,0.733,24.307,0.733h7.606
									c5.511,0,15-7.213,15-11.847V381.47C717.089,378.778,706.497,372.82,706.497,367.967z"/>
								<g>
									<path style="fill:#A69AA8;" d="M368.956,433.594v-12.752c0-25.36-20.635-45.992-45.995-45.992
										c-25.36,0-45.995,20.632-45.995,45.992v12.752C297.94,433.594,331.119,433.594,368.956,433.594z"/>
								</g>
								<g>
									<path style="fill:#544E60;" d="M362.337,420.841c0,21.749-17.628,39.377-39.376,39.377
										c-21.75,0-39.377-17.628-39.377-39.377c0-21.75,17.627-39.375,39.377-39.375
										C344.709,381.466,362.337,399.091,362.337,420.841z"/>
									<path style="fill:#C2C2C2;" d="M350.533,420.841c0,15.228-12.342,27.574-27.572,27.574
										c-15.232,0-27.575-12.345-27.575-27.574c0-15.231,12.342-27.573,27.575-27.573
										C338.191,393.268,350.533,405.61,350.533,420.841z"/>
									<path style="fill:#8C8C8C;" d="M347.116,420.841c0,13.342-10.813,24.155-24.155,24.155
										c-13.342,0-24.155-10.813-24.155-24.155c0-13.343,10.813-24.154,24.155-24.154
										C336.303,396.688,347.116,407.498,347.116,420.841z"/>
									<path style="fill:#292929;" d="M344.643,420.841c0,11.976-9.707,21.682-21.682,21.682
										c-11.976,0-21.682-9.706-21.682-21.682c0-11.976,9.706-21.683,21.682-21.683
										C334.936,399.158,344.643,408.866,344.643,420.841z"/>
									<path style="fill:#FFFFFF;" d="M350.622,420.842c0,15.279-12.384,27.661-27.661,27.661
										c-15.279,0-27.662-12.383-27.662-27.661s12.383-27.663,27.662-27.663C338.238,393.178,350.622,405.563,350.622,420.842z"/>
									
										<path style="fill:none;stroke:#D3D2FC;stroke-width:4.5362;stroke-linecap:round;stroke-linejoin:round;stroke-miterlimit:10;" d="
										M344.049,420.841c0,11.648-9.441,21.088-21.089,21.088c-11.648,0-21.089-9.44-21.089-21.088
										c0-11.648,9.44-21.09,21.089-21.09C334.608,399.752,344.049,409.193,344.049,420.841z"/>
								</g>
								<g>
									<path style="fill:#A69AA8;" d="M666.434,420.232c-19.551,1.18-36.26,11.167-36.26,11.167s-9.776,2.192-27.663,2.192
										h-28.026v-11.582c0-25.358,20.632-45.99,45.997-45.99C645.243,376.018,665.504,395.698,666.434,420.232z"/>
								</g>
								<g>
									<path style="fill:#544E60;" d="M659.856,422.011c0,21.749-17.628,39.377-39.375,39.377
										c-21.75,0-39.377-17.628-39.377-39.377c0-21.75,17.627-39.375,39.377-39.375
										C642.228,382.635,659.856,400.26,659.856,422.011z"/>
									<path style="fill:#C2C2C2;" d="M648.052,422.011c0,15.228-12.343,27.573-27.572,27.573
										c-15.232,0-27.575-12.345-27.575-27.573c0-15.231,12.343-27.574,27.575-27.574
										C635.71,394.437,648.052,406.78,648.052,422.011z"/>
									<path style="fill:#8C8C8C;" d="M644.635,422.011c0,13.342-10.813,24.155-24.155,24.155s-24.155-10.813-24.155-24.155
										c0-13.343,10.813-24.154,24.155-24.154S644.635,408.668,644.635,422.011z"/>
									<path style="fill:#292929;" d="M642.162,422.011c0,11.976-9.707,21.682-21.682,21.682
										c-11.976,0-21.682-9.706-21.682-21.682c0-11.976,9.706-21.683,21.682-21.683
										C632.455,400.328,642.162,410.035,642.162,422.011z"/>
									<path style="fill:#FFFFFF;" d="M648.141,422.011c0,15.279-12.384,27.661-27.661,27.661
										c-15.279,0-27.662-12.383-27.662-27.661s12.383-27.663,27.662-27.663C635.757,394.348,648.141,406.732,648.141,422.011z"/>
									
										<path style="fill:none;stroke:#D3D2FC;stroke-width:4.5362;stroke-linecap:round;stroke-linejoin:round;stroke-miterlimit:10;" d="
										M641.568,422.011c0,11.648-9.441,21.088-21.088,21.088c-11.648,0-21.089-9.44-21.089-21.088
										c0-11.648,9.44-21.09,21.089-21.09C632.127,400.921,641.568,410.362,641.568,422.011z"/>
								</g>
								<g>
									<path style="fill:#544E60;" d="M648.491,287.839c-1.495-1.986-4.862-7.006-14.346-7.006c-9.484,0-173.715,0-173.715,0
										c-4.631,0-8.382-0.001-12.684,4.411c-4.303,4.412-31.658,31.875-33.475,33.476c-1.819,1.6-1.708,9.099,7.444,9.099
										c9.155,0,228.754,0,234.489,0c5.735,0,7.997-2.591,7.004-6.397C662.215,317.618,649.991,289.823,648.491,287.839z"/>
									<path style="fill:#544E60;" d="M665.714,280.88c-2.246,0.225-4.609,1.302-2.782,4.477
										c2.096,3.64,21.508,33.751,22.721,35.295c1.21,1.539,4.62,2.75,13.832,2.755
										C689.163,309.175,670.581,286.531,665.714,280.88z"/>
									<path style="fill:#544E60;" d="M383.661,325.834c1.325,0,3.643-1.104,6.73-3.97c3.089-2.867,32.978-32.097,35.624-34.523
										c2.648-2.426,4.082-5.516,0.552-5.516c-1.548,0-6.071,0-10.659,0c-2.157,1.614-4.283,3.396-6.327,5.405
										c-13.235,13.016-37.241,37.192-42.774,37.192l0,0c1.052,0.846,2.022,1.411,2.738,1.411
										C372.413,325.834,382.34,325.834,383.661,325.834z"/>
								</g>
								<path style="fill:#FFAB17;" d="M607.308,327.819c5.856,0,11.642,0,17.302,0l-5.263-46.986c-3.952,0-7.981,0-12.039,0
									V327.819z"/>
								<path style="fill:#FFFFFF;" d="M289.134,363.945c0,3.712-1.52,7.084-3.969,9.534c-2.45,2.45-5.822,3.969-9.534,3.969
									h-28.563c1.232-1.368,2.17-2.805,2.366-4.408c0.023-0.174,0.038-0.348,0.061-0.514c0.015-0.167,0.03-0.325,0.053-0.492
									c0.015-0.189,0.038-0.37,0.061-0.559c0.008-0.091,0.015-0.182,0.03-0.272c0.023-0.227,0.053-0.454,0.083-0.688
									c0.015-0.098,0.03-0.204,0.045-0.302c0.015-0.129,0.038-0.25,0.06-0.378c0.023-0.121,0.038-0.249,0.068-0.378
									c0.045-0.25,0.098-0.514,0.166-0.779c0.03-0.129,0.061-0.257,0.098-0.393c0.038-0.128,0.076-0.264,0.113-0.401
									c0.076-0.272,0.166-0.552,0.272-0.839l0.159-0.431c0.015-0.038,0.03-0.083,0.045-0.121c0.083-0.212,0.174-0.423,0.28-0.642
									c0.287-0.643,0.643-1.323,1.081-2.042c0.197-0.333,0.423-0.68,0.665-1.036c0.234-0.348,0.499-0.711,0.779-1.081
									c0.144-0.189,0.287-0.371,0.438-0.567c0.302-0.378,0.628-0.771,0.975-1.172c0.007-0.007,0.023-0.022,0.023-0.03
									c0.339-0.391,0.709-0.795,1.094-1.207c0.001-0.001,0.001-0.001,0.002-0.002h0c2.209-2.36,5.198-5.072,9.284-8.264h10.259
									c5.572,0,10.388,3.417,12.437,8.264C288.756,360.323,289.134,362.092,289.134,363.945z"/>
							</g>
							<path style="fill:#D86544;" d="M706.499,367.969c0-4.078,0-21.239,0-29.496h-9.115c-1.983,0-3.591,1.607-3.591,3.591v22.445
								c0,1.984,1.609,3.591,3.591,3.591h9.132C706.515,368.057,706.499,368.012,706.499,367.969z"/>
							<path style="fill:#D86544;" d="M706.499,367.969c0-1.566,0-5.072,0-9.256h-12.707v5.797c0,1.984,1.609,3.591,3.591,3.591
								h9.132C706.515,368.057,706.499,368.012,706.499,367.969z"/>
							<polygon style="fill:#A095F8;" points="491.365,327.819 476.442,327.819 504.117,280.88 519.04,280.88 							"/>
							<polygon style="fill:#A095F8;" points="520.599,327.819 510.867,327.819 538.542,280.88 548.274,280.88 							"/>
						</g>
						<path style="fill:#544E60;" d="M501.085,354.222h-20.502c-2.215,0-4.027-1.812-4.027-4.027l0,0
							c0-2.215,1.812-4.027,4.027-4.027h20.502c2.215,0,4.027,1.812,4.027,4.027l0,0C505.112,352.409,503.3,354.222,501.085,354.222
							z"/>
						<path style="fill:#544E60;" d="M592.612,354.954H572.11c-2.215,0-4.027-1.812-4.027-4.027l0,0
							c0-2.215,1.812-4.027,4.027-4.027h20.502c2.215,0,4.027,1.812,4.027,4.027l0,0
							C596.639,353.142,594.827,354.954,592.612,354.954z"/>
						<g>
							<path style="fill:#544E60;" d="M440.311,373.625c0,3.235-2.623,5.858-5.858,5.858c-3.235,0-5.858-2.623-5.858-5.858
								c0-3.235,2.623-5.858,5.858-5.858C437.688,367.768,440.311,370.39,440.311,373.625z"/>
							<path style="fill:#544E60;" d="M461.545,373.625c0,3.235-2.623,5.858-5.858,5.858c-3.235,0-5.858-2.623-5.858-5.858
								c0-3.235,2.623-5.858,5.858-5.858C458.923,367.768,461.545,370.39,461.545,373.625z"/>
							<path style="fill:#544E60;" d="M482.78,373.625c0,3.235-2.622,5.858-5.858,5.858c-3.235,0-5.858-2.623-5.858-5.858
								c0-3.235,2.623-5.858,5.858-5.858C480.157,367.768,482.78,370.39,482.78,373.625z"/>
							<path style="fill:#544E60;" d="M504.014,373.625c0,3.235-2.623,5.858-5.858,5.858s-5.858-2.623-5.858-5.858
								c0-3.235,2.623-5.858,5.858-5.858S504.014,370.39,504.014,373.625z"/>
							<path style="fill:#544E60;" d="M525.248,373.625c0,3.235-2.623,5.858-5.858,5.858c-3.235,0-5.858-2.623-5.858-5.858
								c0-3.235,2.623-5.858,5.858-5.858C522.625,367.768,525.248,370.39,525.248,373.625z"/>
							<path style="fill:#544E60;" d="M546.482,373.625c0,3.235-2.623,5.858-5.858,5.858c-3.235,0-5.858-2.623-5.858-5.858
								c0-3.235,2.623-5.858,5.858-5.858C543.86,367.768,546.482,370.39,546.482,373.625z"/>
							<path style="fill:#544E60;" d="M567.717,373.625c0,3.235-2.623,5.858-5.858,5.858c-3.235,0-5.858-2.623-5.858-5.858
								c0-3.235,2.623-5.858,5.858-5.858C565.094,367.768,567.717,370.39,567.717,373.625z"/>
						</g>
						<g>
							<path style="fill:#544E60;" d="M434.453,391.931c0,3.235-2.623,5.858-5.858,5.858c-3.235,0-5.858-2.623-5.858-5.858
								c0-3.235,2.623-5.858,5.858-5.858C431.831,386.073,434.453,388.696,434.453,391.931z"/>
							<path style="fill:#544E60;" d="M455.688,391.931c0,3.235-2.623,5.858-5.858,5.858s-5.858-2.623-5.858-5.858
								c0-3.235,2.623-5.858,5.858-5.858S455.688,388.696,455.688,391.931z"/>
							<path style="fill:#544E60;" d="M476.922,391.931c0,3.235-2.623,5.858-5.858,5.858c-3.235,0-5.858-2.623-5.858-5.858
								c0-3.235,2.622-5.858,5.858-5.858C474.299,386.073,476.922,388.696,476.922,391.931z"/>
							<path style="fill:#544E60;" d="M498.156,391.931c0,3.235-2.623,5.858-5.858,5.858c-3.235,0-5.858-2.623-5.858-5.858
								c0-3.235,2.623-5.858,5.858-5.858C495.534,386.073,498.156,388.696,498.156,391.931z"/>
							<path style="fill:#544E60;" d="M519.39,391.931c0,3.235-2.623,5.858-5.858,5.858c-3.235,0-5.858-2.623-5.858-5.858
								c0-3.235,2.623-5.858,5.858-5.858C516.768,386.073,519.39,388.696,519.39,391.931z"/>
							<path style="fill:#544E60;" d="M540.625,391.931c0,3.235-2.623,5.858-5.858,5.858c-3.235,0-5.858-2.623-5.858-5.858
								c0-3.235,2.623-5.858,5.858-5.858C538.002,386.073,540.625,388.696,540.625,391.931z"/>
							<path style="fill:#544E60;" d="M561.859,391.931c0,3.235-2.623,5.858-5.858,5.858s-5.858-2.623-5.858-5.858
								c0-3.235,2.623-5.858,5.858-5.858S561.859,388.696,561.859,391.931z"/>
						</g>
					</g>
					
						<line style="fill:none;stroke:#544E60;stroke-width:3.0794;stroke-linecap:round;stroke-linejoin:round;stroke-miterlimit:10;" x1="639.745" y1="269.193" x2="664.255" y2="244.684"/>
				</g>
				<path style="fill:#FFAB17;" d="M388.094,361.129h-64.923c-4.413,0-8.024-3.611-8.024-8.024l0,0c0-4.413,3.611-8.024,8.024-8.024
					h64.923c4.413,0,8.024,3.611,8.024,8.024l0,0C396.119,357.518,392.508,361.129,388.094,361.129z"/>
				<path style="fill:#544E60;" d="M258.708,421.571h-21.883c-6.018,0-10.942-4.924-10.942-10.942v0
					c0-6.018,4.924-10.942,10.942-10.942h21.883c6.018,0,10.942,4.924,10.942,10.942v0
					C269.65,416.647,264.726,421.571,258.708,421.571z"/>
				<path style="fill:#544E60;" d="M712.786,409.535h-21.883c-6.018,0-10.942-4.924-10.942-10.942v0
					c0-6.018,4.924-10.942,10.942-10.942h21.883c6.018,0,10.942,4.924,10.942,10.942v0
					C723.727,404.611,718.803,409.535,712.786,409.535z"/>
			</g>
			
				<linearGradient id="SVGID_00000027586414978328029230000016208161392588817574_" gradientUnits="userSpaceOnUse" x1="649.2474" y1="355.2934" x2="676.9676" y2="355.2934">
				<stop  offset="0" style="stop-color:#FFD52B"/>
				<stop  offset="1" style="stop-color:#FFBB00"/>
			</linearGradient>
			<path style="fill:url(#SVGID_00000027586414978328029230000016208161392588817574_);" d="M663.107,369.154L663.107,369.154
				c-7.623,0-13.86-6.237-13.86-13.86l0,0c0-7.623,6.237-13.86,13.86-13.86l0,0c7.623,0,13.86,6.237,13.86,13.86l0,0
				C676.968,362.917,670.731,369.154,663.107,369.154z"/>
		</g>
		<path style="fill:#FFFFFF;" d="M482.589,271.075h-28.448c-3.009,0-5.471-2.462-5.471-5.471l0,0c0-3.009,2.462-5.471,5.471-5.471
			h28.448c3.009,0,5.471,2.462,5.471,5.471l0,0C488.06,268.613,485.598,271.075,482.589,271.075z"/>
	</g>
	
		<ellipse transform="matrix(0.2298 -0.9732 0.9732 0.2298 438.4555 666.0129)" style="fill:#F5DC5E;" cx="640" cy="56" rx="8.421" ry="8.421"/>
	
		<ellipse transform="matrix(0.2298 -0.9732 0.9732 0.2298 -49.2112 179.8188)" style="fill:#F5DC5E;" cx="89" cy="121" rx="8.421" ry="8.421"/>
</g>
</svg>
