<?xml version="1.0" encoding="utf-8"?>
<!-- Generator: Adobe Illustrator 27.5.0, SVG Export Plug-In . SVG Version: 6.00 Build 0)  -->
<svg version="1.1" xmlns="http://www.w3.org/2000/svg" xmlns:xlink="http://www.w3.org/1999/xlink" x="0px" y="0px"
	 viewBox="0 0 750 500" style="enable-background:new 0 0 750 500;" xml:space="preserve">
<g id="BACKGROUND">
	<rect style="fill:#A1B9F7;" width="750" height="500"/>
</g>
<g id="OBJECTS">
	<g>
		<defs>
			<rect id="SVGID_1_" width="750" height="500"/>
		</defs>
		<clipPath id="SVGID_00000033358955470689727610000017308214993654536623_">
			<use xlink:href="#SVGID_1_"  style="overflow:visible;"/>
		</clipPath>
		<g style="clip-path:url(#SVGID_00000033358955470689727610000017308214993654536623_);">
			<g>
				<g>
					<g>
						<polygon style="fill:#C2D5FF;" points="103.566,138.087 42.884,-29.016 49.225,-31.318 107.269,128.52 170.816,95.119 
							217.593,-35.772 223.946,-33.502 176.283,99.866 						"/>
					</g>
				</g>
				<g>
					<g>
						<polygon style="fill:#C2D5FF;" points="102.363,345.613 97.679,340.758 261.712,182.489 171.276,99.984 175.823,95.001 
							271.57,182.351 						"/>
					</g>
				</g>
				<g>
					<g>
						<polygon style="fill:#C2D5FF;" points="27.442,251.488 -42.967,167.762 23.303,109.206 -31.546,34.197 -26.101,30.216 
							32.379,110.189 -33.567,168.459 28.24,241.955 52.64,221.216 57.009,226.356 						"/>
					</g>
				</g>
				<g>
					<g>
						<polygon style="fill:#C2D5FF;" points="28.798,353.068 24.186,348.144 190.385,192.498 157.767,157.2 45.073,199.193 
							11.833,161.961 16.866,157.469 47.036,191.263 159.651,149.3 199.887,192.842 						"/>
					</g>
				</g>
				<g>
					<g>
						<polygon style="fill:#C2D5FF;" points="293.682,297.672 257.4,257.76 262.391,253.222 293.565,287.513 328.778,246.93 
							264.302,184.85 268.98,179.99 338.07,246.513 						"/>
					</g>
				</g>
				<g>
					<g>
						<polygon style="fill:#C2D5FF;" points="267.123,334.765 211.719,282.913 216.329,277.988 266.159,324.623 290.896,290.609 
							296.352,294.576 						"/>
					</g>
				</g>
				<g>
					<g>
						<polygon style="fill:#C2D5FF;" points="400.091,361.93 397.312,355.784 499.539,278.807 451.911,181.01 379.403,214.417 
							218.559,74.762 222.981,69.668 380.536,206.467 455.085,172.121 508.644,282.094 						"/>
					</g>
				</g>
				<g>
					<g>
						<polygon style="fill:#C2D5FF;" points="450.177,177.155 427.878,51.532 317.571,79.876 304.541,33.111 311.039,31.301 
							322.294,71.697 433.248,43.188 456.819,175.976 						"/>
					</g>
				</g>
				<g>
					<g>
						
							<rect x="358.864" y="15.627" transform="matrix(0.9824 -0.1865 0.1865 0.9824 -1.0854 68.2709)" style="fill:#C2D5FF;" width="6.746" height="48.552"/>
					</g>
				</g>
				<g>
					<g>
						
							<rect x="422.468" y="-3.98" transform="matrix(0.9832 -0.1824 0.1824 0.9832 3.1482 78.0433)" style="fill:#C2D5FF;" width="6.746" height="51.775"/>
					</g>
				</g>
				<g>
					<g>
						<polygon style="fill:#C2D5FF;" points="316.515,129.706 242.865,47.718 290.771,-28.28 296.477,-24.683 251.291,47.002 
							319.302,122.714 410.054,115.382 410.597,122.106 						"/>
					</g>
				</g>
				<g>
					<g>
						<polygon style="fill:#C2D5FF;" points="514.769,130.988 470.65,129.479 456.886,-19.903 463.603,-20.522 476.821,122.941 
							515,124.247 						"/>
					</g>
				</g>
				<g>
					<g>
						<polygon style="fill:#8FAEF2;" points="437.983,205.002 371.875,237.506 399.532,305.072 480.481,275.054 						"/>
					</g>
				</g>
				<g>
					<g>
						<polygon style="fill:#8FAEF2;" points="93.95,8.954 111.489,94.677 157.36,79.744 170.177,-0.173 						"/>
					</g>
				</g>
				<g>
					<g>
						<polygon style="fill:#8FAEF2;" points="70.339,205.002 109.465,251.928 174.224,195.228 151.963,169.612 						"/>
					</g>
				</g>
			</g>
			<g>
				<polygon style="fill:#C2D5FF;" points="610.193,414.271 608.831,411.367 488.831,155.486 495.169,152.514 613.807,405.491 
					765.796,349.781 768.204,356.353 				"/>
			</g>
			<g>
				<polygon style="fill:#C2D5FF;" points="3.034,519.746 -3.034,516.254 78.897,373.9 142.561,419.589 188.807,316.566 
					195.193,319.434 145.439,430.271 81.103,384.1 				"/>
			</g>
			<g>
				<path style="fill:#C2D5FF;" d="M367.621,426.142c-24.477,0-44.39-19.913-44.39-44.39c0-24.477,19.913-44.39,44.39-44.39
					c24.477,0,44.39,19.913,44.39,44.39C412.011,406.228,392.098,426.142,367.621,426.142z M367.621,344.362
					c-20.617,0-37.39,16.772-37.39,37.39c0,20.617,16.773,37.39,37.39,37.39s37.39-16.772,37.39-37.39
					C405.011,361.135,388.237,344.362,367.621,344.362z"/>
			</g>
			<g>
				<polygon style="fill:#C2D5FF;" points="135.984,505.377 130.846,500.623 304.483,312.908 341.003,350.633 335.974,355.502 
					304.599,323.092 				"/>
			</g>
			<g>
				<polygon style="fill:#C2D5FF;" points="636.424,529.249 514.586,396.721 433.333,458.782 394.59,412.116 399.975,407.646 
					434.425,449.14 515.414,387.279 641.576,524.511 				"/>
			</g>
			<g>
				<polygon style="fill:#8FAEF2;" points="343,262.834 315,297.672 350,329 				"/>
			</g>
			<g>
				
					<rect x="246.043" y="456.75" transform="matrix(0.5831 -0.8124 0.8124 0.5831 -245.7991 441.4834)" style="fill:#C2D5FF;" width="122.485" height="7"/>
			</g>
			<g>
				
					<rect x="261.787" y="373.341" transform="matrix(0.6531 -0.7573 0.7573 0.6531 -211.4071 339.9011)" style="fill:#C2D5FF;" width="7" height="54.705"/>
			</g>
			<g>
				
					<rect x="226.333" y="413.545" transform="matrix(0.6377 -0.7703 0.7703 0.6377 -259.4861 338.2695)" style="fill:#C2D5FF;" width="7" height="62.839"/>
			</g>
			<g>
				<polygon style="fill:#8FAEF2;" points="97.679,370 170.177,329 138,400.694 				"/>
			</g>
			<g>
				<path style="fill:#C2D5FF;" d="M514.185,202.282l-2.201-6.645c4.428-1.467,59.533-24.523,90.631-37.591L564.607,48.736
					l195.061-80.253l2.664,6.474L573.393,52.69l37.992,109.263l-3.028,1.273C604.758,164.739,520.162,200.302,514.185,202.282z"/>
			</g>
			<g>
				
					<rect x="537.339" y="230.418" transform="matrix(0.9252 -0.3795 0.3795 0.9252 -42.8762 250.3033)" style="fill:#C2D5FF;" width="152.362" height="7"/>
			</g>
			<g>
				
					<rect x="567.35" y="296.945" transform="matrix(0.9426 -0.334 0.334 0.9426 -63.905 229.2118)" style="fill:#C2D5FF;" width="134.51" height="7"/>
			</g>
			<g>
				<polygon style="fill:#8FAEF2;" points="598,61.22 626.996,176.156 726,153.227 714.62,80.566 652.031,51.158 				"/>
			</g>
			<g>
				<polygon style="fill:#C2D5FF;" points="686.08,511.931 640.68,443.264 699.47,420.612 720.025,454.392 764.957,422.088 
					769.043,427.772 717.975,464.487 696.53,429.247 651.32,446.666 691.92,508.069 				"/>
			</g>
			<g>
				<polygon style="fill:#C2D5FF;" points="580.434,422.654 524.836,333.74 452.771,376.019 449.228,369.981 527.164,324.26 
					583.566,414.461 611.027,406.519 612.973,413.243 				"/>
			</g>
			<polyline style="fill:#C2D5FF;" points="310.519,319.143 293.682,297.672 288.286,305.072 310.318,329 			"/>
		</g>
	</g>
	<g>
		<path style="fill:#3648D8;" d="M449.803,84.966c-10.832,0-19.613,8.781-19.613,19.613c0,10.832,19.613,44.694,19.613,44.694
			s19.613-33.862,19.613-44.694C469.416,93.747,460.635,84.966,449.803,84.966z M449.803,118.264
			c-7.509,0-13.596-6.087-13.596-13.596c0-7.509,6.087-13.596,13.596-13.596c7.509,0,13.596,6.087,13.596,13.596
			C463.399,112.177,457.312,118.264,449.803,118.264z"/>
		<path style="fill:#3648D8;" d="M142.945,366.633c-9.78,0-17.708,7.928-17.708,17.708s17.708,40.353,17.708,40.353
			s17.708-30.573,17.708-40.353S152.725,366.633,142.945,366.633z M142.945,396.697c-6.78,0-12.276-5.496-12.276-12.276
			c0-6.78,5.496-12.276,12.276-12.276s12.275,5.496,12.275,12.276C155.22,391.201,149.724,396.697,142.945,396.697z"/>
		<path style="fill:#3648D8;" d="M319.422,23.643c-9.04,0-16.369,7.329-16.369,16.369s16.369,37.301,16.369,37.301
			s16.369-28.26,16.369-37.301S328.462,23.643,319.422,23.643z M319.422,51.433c-6.267,0-11.347-5.08-11.347-11.347
			c0-6.267,5.08-11.347,11.347-11.347c6.267,0,11.347,5.08,11.347,11.347C330.769,46.353,325.689,51.433,319.422,51.433z"/>
		<path style="fill:#3648D8;" d="M223.788,158.679c-11.431,0-20.698,9.267-20.698,20.699c0,11.431,20.698,47.167,20.698,47.167
			s20.699-35.735,20.699-47.167C244.486,167.946,235.219,158.679,223.788,158.679z M223.788,193.82
			c-7.924,0-14.348-6.424-14.348-14.348c0-7.924,6.424-14.348,14.348-14.348c7.924,0,14.348,6.424,14.348,14.348
			C238.136,187.396,231.712,193.82,223.788,193.82z"/>
		<path style="fill:#3648D8;" d="M95.641,54.021c-7.847,0-14.208,6.361-14.208,14.208c0,7.847,14.208,32.376,14.208,32.376
			s14.208-24.529,14.208-32.376C109.849,60.382,103.488,54.021,95.641,54.021z M95.641,78.141c-5.439,0-9.849-4.409-9.849-9.849
			c0-5.439,4.41-9.849,9.849-9.849c5.44,0,9.849,4.41,9.849,9.849C105.49,73.732,101.081,78.141,95.641,78.141z"/>
		<polyline style="fill:none;stroke:#3648D8;stroke-width:3;stroke-miterlimit:10;stroke-dasharray:3;" points="535.72,244.617 
			480,232.153 453.91,176.492 449.803,144.945 		"/>
		<polyline style="fill:none;stroke:#3648D8;stroke-width:3;stroke-miterlimit:10;stroke-dasharray:3;" points="319.422,68.333 
			319.422,77.312 430.189,47.429 444.949,129.895 		"/>
		<polygon style="fill:#C2D5FF;" points="145.439,430.271 181.443,456.232 184.607,447.528 149.078,422.163 		"/>
		<polyline style="fill:none;stroke:#3648D8;stroke-width:3;stroke-miterlimit:10;stroke-dasharray:3;" points="223.788,222.35 
			267.011,182.036 333.873,244.617 289.857,299.087 344.058,358.402 		"/>
		<polyline style="fill:none;stroke:#3648D8;stroke-width:3;stroke-miterlimit:10;stroke-dasharray:3;" points="305.165,315.84 
			180.726,450.415 141.509,422.163 		"/>
		<polyline style="fill:none;stroke:#3648D8;stroke-width:3;stroke-miterlimit:10;stroke-dasharray:3;" points="93.641,93.16 
			105.029,132.462 173.905,97.103 267.011,182.036 		"/>
	</g>
	<g>
		<path style="fill:#6A96E5;" d="M634.239,95.977h-117.92c-12.427,0-22.5,10.074-22.5,22.5v267.937c0,12.427,10.074,22.5,22.5,22.5
			h117.92c12.427,0,22.5-10.074,22.5-22.5V118.477C656.739,106.051,646.666,95.977,634.239,95.977z"/>
		<g>
			<path style="fill:#3648D8;" d="M624.631,401.085H506.71c-12.426,0-22.5-10.074-22.5-22.5V110.649c0-12.427,10.074-22.5,22.5-22.5
				h117.921c12.426,0,22.5,10.074,22.5,22.5v267.937C647.131,391.012,637.057,401.085,624.631,401.085z"/>
			<path style="fill:#FEFEFE;" d="M623.997,393.961H507.343c-9.396,0-17.013-7.617-17.013-17.013V112.286
				c0-9.396,7.617-17.013,17.013-17.013h116.654c9.396,0,17.013,7.617,17.013,17.013v264.662
				C641.01,386.344,633.393,393.961,623.997,393.961z"/>
			<g>
				<g>
					<rect x="503.029" y="189.052" style="fill:#CADAFF;" width="15.918" height="126.787"/>
					<rect x="521.383" y="173.445" style="fill:#CADAFF;" width="15.918" height="140.344"/>
					<rect x="601.891" y="184.95" style="fill:#CADAFF;" width="15.918" height="129.839"/>
					<rect x="621.922" y="173.445" style="fill:#CADAFF;" width="12.974" height="141.344"/>
					<rect x="552.626" y="174.445" style="fill:#CADAFF;" width="30.062" height="140.344"/>
				</g>
				<g>
					<rect x="492.217" y="211.759" style="fill:#A1B9F7;" width="18.718" height="104.08"/>
					<rect x="531.342" y="200.214" style="fill:#A1B9F7;" width="43.936" height="115.626"/>
					<rect x="514.267" y="222.35" style="fill:#A1B9F7;" width="13.36" height="93.49"/>
					<rect x="615.193" y="226.523" style="fill:#A1B9F7;" width="23.931" height="89.316"/>
					<polygon style="fill:#A1B9F7;" points="612.762,208.85 605.56,208.85 605.56,198.355 598.88,198.355 598.88,189.83 
						592.2,189.83 592.2,184.95 578.84,184.95 578.84,315.84 612.762,315.84 					"/>
				</g>
			</g>
			<path style="opacity:0.6;fill:#FEFEFE;" d="M499.175,233.635c-0.156-0.92,0.17-1.909,0.843-2.555
				c0.673-0.646,1.674-0.932,2.587-0.738c0.976,0.207,1.795,0.909,2.774,1.103c1.088,0.215,2.229-0.246,3.052-0.99
				c0.823-0.744,1.372-1.741,1.827-2.752c0.564-1.252,1.009-2.558,1.656-3.769c0.646-1.211,1.525-2.347,2.729-3.005
				c1.205-0.658,2.777-0.756,3.915,0.012c1.451,0.979,1.785,2.951,1.846,4.7c0.021,0.591,0.035,1.216,0.351,1.716
				c0.512,0.81,1.619,0.994,2.573,0.91c0.955-0.084,1.922-0.354,2.856-0.139c1.156,0.266,2.04,1.248,2.5,2.341
				c0.46,1.093,0.617,2.321,0.716,3.502L499.175,233.635z"/>
			<path style="opacity:0.6;fill:#FEFEFE;" d="M565.221,236.875c-0.115-0.674,0.124-1.397,0.617-1.87s1.226-0.682,1.894-0.54
				c0.715,0.152,1.314,0.665,2.031,0.807c0.797,0.158,1.632-0.18,2.234-0.725c0.602-0.545,1.004-1.274,1.338-2.015
				c0.413-0.916,0.739-1.873,1.212-2.759c0.473-0.887,1.117-1.718,1.998-2.2c0.882-0.482,2.033-0.553,2.866,0.009
				c1.062,0.717,1.306,2.161,1.352,3.441c0.015,0.433,0.026,0.89,0.257,1.256c0.374,0.593,1.185,0.728,1.884,0.666
				c0.699-0.062,1.407-0.259,2.091-0.102c0.846,0.195,1.494,0.914,1.831,1.714c0.337,0.8,0.452,1.699,0.524,2.564L565.221,236.875z"
				/>
			<path style="opacity:0.6;fill:#FEFEFE;" d="M588.727,211.745c-0.206-1.21,0.223-2.509,1.108-3.359
				c0.885-0.85,2.201-1.225,3.401-0.97c1.283,0.273,2.359,1.195,3.646,1.449c1.43,0.283,2.93-0.324,4.011-1.302
				c1.081-0.978,1.803-2.288,2.402-3.618c0.741-1.645,1.327-3.362,2.177-4.954c0.85-1.592,2.005-3.085,3.588-3.95
				c1.583-0.866,3.651-0.994,5.147,0.015c1.907,1.287,2.346,3.88,2.427,6.179c0.027,0.777,0.046,1.599,0.461,2.256
				c0.673,1.065,2.128,1.307,3.383,1.196c1.255-0.111,2.526-0.465,3.754-0.183c1.519,0.35,2.682,1.641,3.287,3.078
				c0.605,1.437,0.811,3.051,0.94,4.604L588.727,211.745z"/>
			<g>
				<g>
					
						<text transform="matrix(1 0 0 1 521.5074 374.8875)" style="fill:#321F6A; font-family:'Montserrat-Regular'; font-size:3.9137px;">Prev</text>
				</g>
				<g>
					
						<text transform="matrix(1 0 0 1 598.1627 374.8875)" style="fill:#321F6A; font-family:'Montserrat-Regular'; font-size:3.9137px;">Skip</text>
				</g>
				<g>
					<path style="fill:#FFD435;" d="M554.267,373.148c0,0.961-0.779,1.74-1.74,1.74c-0.961,0-1.74-0.779-1.74-1.74
						c0-0.961,0.779-1.74,1.74-1.74C553.488,371.408,554.267,372.187,554.267,373.148z"/>
					<path style="fill:#321F6A;" d="M568.41,373.148c0,0.961-0.779,1.74-1.74,1.74s-1.74-0.779-1.74-1.74
						c0-0.961,0.779-1.74,1.74-1.74S568.41,372.187,568.41,373.148z"/>
					<path style="fill:#321F6A;" d="M582.554,373.148c0,0.961-0.779,1.74-1.74,1.74c-0.961,0-1.74-0.779-1.74-1.74
						c0-0.961,0.779-1.74,1.74-1.74C581.775,371.408,582.554,372.187,582.554,373.148z"/>
				</g>
			</g>
			<g>
				<g>
					
						<text transform="matrix(1 0 0 1 507.7784 103.796)" style="fill:#321F6A; font-family:'Montserrat-Regular'; font-size:3.9137px;">8:30</text>
				</g>
				<g>
					<g>
						<rect x="598.735" y="103.025" style="fill:#321F6A;" width="1.181" height="1.933"/>
						<rect x="600.426" y="102.246" style="fill:#321F6A;" width="1.181" height="2.711"/>
						<rect x="602.117" y="101.495" style="fill:#321F6A;" width="1.181" height="3.462"/>
						<rect x="603.808" y="100.636" style="fill:#321F6A;" width="1.181" height="4.321"/>
					</g>
					<g>
						<path style="fill:#321F6A;" d="M607.56,102.833c0.68-0.662,1.605-1.073,2.629-1.073c1.023,0,1.949,0.411,2.628,1.073
							l0.795-0.795c-0.884-0.866-2.091-1.402-3.423-1.402c-1.332,0-2.54,0.536-3.424,1.402L607.56,102.833z"/>
						<path style="fill:#321F6A;" d="M608.621,103.894c0.408-0.391,0.959-0.634,1.568-0.634s1.159,0.244,1.568,0.634l0.795-0.795
							c-0.612-0.594-1.444-0.964-2.362-0.964c-0.919,0-1.75,0.37-2.362,0.964L608.621,103.894z"/>
						<path style="fill:#321F6A;" d="M609.684,104.957c0.136-0.119,0.309-0.198,0.504-0.198c0.195,0,0.368,0.079,0.504,0.198
							l0.798-0.798c-0.34-0.323-0.798-0.525-1.303-0.525c-0.505,0-0.962,0.201-1.303,0.525L609.684,104.957z"/>
					</g>
					<g>
						<path style="fill:#321F6A;" d="M622.562,104.434h-7.072c-0.122,0-0.222-0.099-0.222-0.222v-2.831
							c0-0.122,0.099-0.222,0.222-0.222h7.072c0.122,0,0.222,0.099,0.222,0.222v2.831
							C622.784,104.335,622.685,104.434,622.562,104.434z"/>
						<path style="fill:#321F6A;" d="M623.341,103.501h-0.16c-0.122,0-0.222-0.099-0.222-0.222v-0.966
							c0-0.122,0.099-0.222,0.222-0.222h0.16c0.122,0,0.222,0.099,0.222,0.222v0.966
							C623.563,103.402,623.463,103.501,623.341,103.501z"/>
					</g>
				</g>
			</g>
			<g>
				<path style="fill:#3648D8;" d="M586.535,105.797h-41.729c-5.018,0-9.085-4.068-9.085-9.086v-3.75h59.9v3.75
					C595.62,101.729,591.553,105.797,586.535,105.797z"/>
				<g>
					<rect x="548.336" y="96.763" style="fill:#211551;" width="24.793" height="2.014"/>
					<path style="fill:#211551;" d="M583.005,97.769c0,0.787-0.638,1.426-1.426,1.426c-0.787,0-1.426-0.638-1.426-1.426
						c0-0.788,0.638-1.426,1.426-1.426C582.367,96.344,583.005,96.982,583.005,97.769z"/>
				</g>
			</g>
			<path style="fill:#CADAFF;" d="M617.671,157.255h-98.956c-6.771,0-12.311-5.54-12.311-12.311l0,0
				c0-6.771,5.54-12.311,12.311-12.311h98.956c6.771,0,12.311,5.54,12.311,12.311l0,0
				C629.982,151.716,624.442,157.255,617.671,157.255z"/>
			<g>
				<path style="fill:#FEC02F;" d="M616.149,154.517h-98.956c-6.771,0-12.311-5.54-12.311-12.311l0,0
					c0-6.771,5.54-12.311,12.311-12.311h98.956c6.771,0,12.311,5.54,12.311,12.311l0,0
					C628.46,148.977,622.92,154.517,616.149,154.517z"/>
				
					<text transform="matrix(1 0 0 1 535.052 146.9446)" style="fill:#3648D8; font-family:'Montserrat-Black'; font-size:11.4187px;">Call a Taxi</text>
			</g>
		</g>
	</g>
	<g>
		<ellipse style="fill:#6A96E5;" cx="507.697" cy="419.099" rx="185.897" ry="12.003"/>
		<g>
			<polygon style="fill:#D6DFFF;" points="519.151,284.938 527.385,271.98 552.183,271.98 559.628,284.938 			"/>
			<path style="fill:#FDBF2E;" d="M641.78,331.732l-37.393-42.672c-2.905-3.316-7.1-5.217-11.508-5.217H476.614
				c-4.503,0-8.778,1.984-11.685,5.423l-36.624,43.324c-2.377,2.812-5.688,4.672-9.326,5.24l-76.133,11.882
				c-7.449,1.163-12.942,7.579-12.942,15.119v21.969c0,8.451,6.851,15.302,15.302,15.302h95.099h0.547h225.239
				c8.451,0,15.302-6.851,15.302-15.302v-34.548c0-8.451-6.851-15.302-15.302-15.302h-12.801
				C648.88,336.949,644.685,335.047,641.78,331.732z"/>
			<polyline style="fill:none;stroke:#F2AD22;stroke-miterlimit:10;" points="547.569,286.324 548.903,339.657 547.569,378.814 			
				"/>
			<path style="fill:none;stroke:#F2AD22;stroke-miterlimit:10;" d="M627.159,337.99c0,0,9.923,8,0,20.667
				c0,0-37.224-3.129-43.573,20.157"/>
			<line style="fill:none;stroke:#F2AD22;stroke-miterlimit:10;" x1="431.903" y1="337.99" x2="424.569" y2="358.402"/>
			<path style="fill:none;stroke:#F2AD22;stroke-miterlimit:10;" d="M336.569,361.221c0,0,4.333-12.376,23-8.97l62.333-9.279"/>
			<g>
				<polygon style="fill:#5369EA;" points="435.568,336.398 543.971,336.398 543.971,290.96 474.714,290.96 				"/>
				<g>
					<polygon style="fill:#6781EF;" points="461.289,336.398 478.524,336.398 512.045,290.96 494.81,290.96 					"/>
					<polygon style="fill:#6781EF;" points="527.385,290.96 518.767,290.96 485.246,336.398 493.864,336.398 					"/>
				</g>
			</g>
			<g>
				<polygon style="fill:#5369EA;" points="552.183,290.96 552.183,336.398 625.547,336.398 595.982,290.96 				"/>
				<g>
					<polygon style="fill:#6781EF;" points="576.863,336.398 602.232,302.009 595.043,290.96 593.148,290.96 559.628,336.398 					
						"/>
					<polygon style="fill:#6781EF;" points="609.421,313.058 605.383,306.851 583.585,336.398 592.203,336.398 					"/>
				</g>
			</g>
			<path style="fill:#FA851B;" d="M671.687,402.1h-332.08c-5.359,0-9.704-4.345-9.704-9.704v-13.582h351.488v13.582
				C681.391,397.756,677.046,402.1,671.687,402.1z"/>
			<g>
				<path style="fill:#253DCC;" d="M384.877,402.1c-0.506-2.292-0.773-4.673-0.773-7.118c0-18.142,14.707-32.849,32.849-32.849
					c18.142,0,32.849,14.707,32.849,32.849c0,2.444-0.267,4.826-0.773,7.118"/>
				<g>
					<circle style="fill:#4664E0;" cx="416.954" cy="396.699" r="27.995"/>
					
						<ellipse transform="matrix(0.2315 -0.9728 0.9728 0.2315 -65.5015 710.4777)" style="fill:#D6DFFF;" cx="416.954" cy="396.699" rx="17.885" ry="17.885"/>
					<g>
						<path style="fill:#4664E0;" d="M416.954,407.643c-6.035,0-10.945-4.91-10.945-10.945s4.91-10.945,10.945-10.945
							c6.035,0,10.944,4.91,10.944,10.945S422.988,407.643,416.954,407.643z M416.954,386.302c-5.733,0-10.397,4.664-10.397,10.397
							s4.664,10.397,10.397,10.397c5.733,0,10.397-4.664,10.397-10.397S422.687,386.302,416.954,386.302z"/>
					</g>
				</g>
			</g>
			<g>
				<path style="fill:#253DCC;" d="M582.339,402.1c-0.506-2.292-0.773-4.673-0.773-7.118c0-18.142,14.707-32.849,32.849-32.849
					c18.142,0,32.849,14.707,32.849,32.849c0,2.444-0.267,4.826-0.773,7.118"/>
				<g>
					<circle style="fill:#4664E0;" cx="614.415" cy="396.699" r="27.995"/>
					
						<ellipse transform="matrix(0.2315 -0.9728 0.9728 0.2315 86.2424 902.5734)" style="fill:#D6DFFF;" cx="614.415" cy="396.699" rx="17.885" ry="17.885"/>
					<g>
						<path style="fill:#4664E0;" d="M614.415,407.643c-6.035,0-10.944-4.91-10.944-10.945s4.91-10.945,10.944-10.945
							c6.034,0,10.944,4.91,10.944,10.945S620.449,407.643,614.415,407.643z M614.415,386.302c-5.733,0-10.397,4.664-10.397,10.397
							s4.664,10.397,10.397,10.397c5.733,0,10.397-4.664,10.397-10.397S620.148,386.302,614.415,386.302z"/>
					</g>
				</g>
			</g>
			<path style="fill:#D6DFFF;" d="M344.799,372.222h-14.897v-9.238h14.897c2.551,0,4.619,2.068,4.619,4.619l0,0
				C349.419,370.154,347.35,372.222,344.799,372.222z"/>
			<rect x="664.054" y="352.251" style="fill:#F95B1C;" width="17.337" height="8.97"/>
			<path style="fill:#383838;" d="M538.162,345.426h-9.55c-0.675,0-1.227-0.552-1.227-1.227l0,0c0-0.675,0.552-1.227,1.227-1.227
				h9.55c0.675,0,1.227,0.552,1.227,1.227l0,0C539.389,344.874,538.837,345.426,538.162,345.426z"/>
			<path style="fill:#383838;" d="M620.198,345.426h-9.55c-0.675,0-1.227-0.552-1.227-1.227l0,0c0-0.675,0.552-1.227,1.227-1.227
				h9.55c0.675,0,1.227,0.552,1.227,1.227l0,0C621.426,344.874,620.874,345.426,620.198,345.426z"/>
		</g>
	</g>
</g>
</svg>
