<?xml version="1.0" encoding="utf-8"?>
<!-- Generator: Adobe Illustrator 27.5.0, SVG Export Plug-In . SVG Version: 6.00 Build 0)  -->
<svg version="1.1" id="Capa_1" xmlns="http://www.w3.org/2000/svg" xmlns:xlink="http://www.w3.org/1999/xlink" x="0px" y="0px"
	 viewBox="0 0 2122 2122" style="enable-background:new 0 0 2122 2122;" xml:space="preserve">
<g>
	<path style="fill:#112941;" d="M1448.554,1246.694c-106.389,0-192.634,86.245-192.634,192.633c0,22.468,3.885,44.019,10.956,64.067
		c26.409,74.884,97.757,128.567,181.678,128.567c83.921,0,155.269-53.682,181.678-128.567c7.071-20.048,10.955-41.599,10.955-64.067
		C1641.187,1332.939,1554.942,1246.694,1448.554,1246.694z"/>
	
		<ellipse transform="matrix(0.7071 -0.7071 0.7071 0.7071 -593.487 1445.8514)" style="fill:#081823;" cx="1448.554" cy="1439.328" rx="129.113" ry="129.113"/>
	
		<ellipse transform="matrix(0.7071 -0.7071 0.7071 0.7071 -593.4869 1445.8514)" style="fill:#9AA2BD;" cx="1448.554" cy="1439.328" rx="111.852" ry="111.852"/>
	<path style="fill:#8186A6;" d="M1448.554,1350.146c-49.256,0.004-89.179,39.926-89.182,89.182
		c0.003,49.256,39.926,89.178,89.182,89.182c49.256-0.004,89.179-39.927,89.182-89.182
		C1537.733,1390.072,1497.81,1350.149,1448.554,1350.146z"/>
	<path style="fill:#112941;" d="M552.438,1246.694c-106.389,0-192.633,86.245-192.633,192.633c0,22.468,3.885,44.019,10.955,64.067
		c26.408,74.884,97.757,128.567,181.678,128.567c83.921,0,155.269-53.682,181.678-128.567c7.07-20.048,10.955-41.599,10.955-64.067
		C745.072,1332.939,658.827,1246.694,552.438,1246.694z"/>
	
		<ellipse transform="matrix(0.7071 -0.7071 0.7071 0.7071 -855.9531 812.2024)" style="fill:#081823;" cx="552.438" cy="1439.328" rx="129.113" ry="129.113"/>
	
		<ellipse transform="matrix(0.7071 -0.7071 0.7071 0.7071 -855.953 812.2023)" style="fill:#9AA2BD;" cx="552.438" cy="1439.328" rx="111.852" ry="111.852"/>
	<path style="fill:#8186A6;" d="M552.438,1350.146c-49.256,0.004-89.179,39.926-89.182,89.182
		c0.003,49.256,39.926,89.178,89.182,89.182c49.256-0.004,89.179-39.927,89.182-89.182
		C641.617,1390.072,601.695,1350.149,552.438,1350.146z"/>
	<path style="fill:#FAB94E;" d="M1842.748,1139.611c-33.373-84.715-163.805-113.34-163.805-113.34l-36.245-0.294
		c-14.999-0.045-22.396-15.288-27.075-27.239l-110.877-298.27c-5.618-25.118,16.221-26.762,16.221-26.762h32.651
		c-16.448-56.359-48.295-149.904-78.5-156.867c-204.419-47.124-997.264-21.018-1110.988-13.308
		c-115.553,7.834-144.239,112.044-149.353,168.296c-4.156,45.715-5.553,312.522,0.252,535.415h1057.876
		c43.052-27.846,101.078-41.301,170.028-46.662c90.772-7.058,166.129,10.776,218.812,46.662h198.108
		C1855.381,1180.947,1849.777,1157.456,1842.748,1139.611z"/>
	<path style="fill:#E6332A;" d="M217.189,1278.129c-0.126-3.568-0.25-7.157-0.371-10.765c-0.034-1.017-0.069-2.032-0.103-3.052
		c-0.124-3.744-0.246-7.512-0.366-11.296c-0.029-0.925-0.059-1.846-0.088-2.774c-0.128-4.064-0.251-8.153-0.374-12.259
		c-0.018-0.603-0.036-1.202-0.054-1.806c-0.129-4.362-0.254-8.747-0.377-13.151c-0.012-0.437-0.025-0.871-0.037-1.308
		c-0.055-2.003-0.11-4.009-0.165-6.02h-9.395c-5.162,1.068-7.275,5.957-7.98,14.846l-3.405,46.52c0,7.934,1.644,14.365,5.518,14.365
		h17.68c-0.122-3.258-0.242-6.536-0.36-9.831C217.271,1280.441,217.23,1279.288,217.189,1278.129z"/>
	<path style="fill:#F4973F;" d="M332.644,1478.667c0-0.001-0.055-1.554-0.048-4.417c0.029-11.456,1.058-43.885,10.636-81.75
		c6.704-26.505,17.598-55.675,35.271-82.181c3.787-5.68,7.885-11.237,12.319-16.62c16.261-19.737,37.049-37.124,63.62-49.577
		c26.571-12.453,58.925-19.972,98.318-19.972c39.716,0,72.3,7.518,99.031,19.972c26.732,12.453,47.609,29.84,63.912,49.577
		c4.447,5.383,8.553,10.94,12.344,16.62c17.694,26.505,28.542,55.676,35.179,82.181c9.481,37.865,10.368,70.294,10.344,81.75
		c-0.006,2.863-0.069,4.416-0.069,4.417v0l413.302,0c0,0-22.544-90.135,20.665-193.46c14.152-33.843,36.39-59.176,65.438-77.964
		H215.03l0,0c0.001,0.07,0.003,0.139,0.005,0.209c0.124,4.776,0.253,9.532,0.384,14.265c0.012,0.437,0.024,0.871,0.037,1.308
		c0.123,4.404,0.248,8.79,0.377,13.151c0.017,0.604,0.036,1.203,0.054,1.806c0.122,4.106,0.246,8.194,0.374,12.259
		c0.029,0.928,0.058,1.849,0.088,2.774c0.12,3.784,0.242,7.551,0.366,11.296c0.034,1.02,0.069,2.035,0.103,3.052
		c0.121,3.609,0.245,7.198,0.371,10.765c0.041,1.159,0.082,2.312,0.123,3.467c0.119,3.314,0.24,6.609,0.363,9.885
		c0.052,1.402,0.105,2.798,0.159,4.193c0.106,2.79,0.215,5.558,0.324,8.318h96.581c5.393,0,9.765,4.372,9.765,9.765v134.655
		c0,6.874-5.573,12.447-12.447,12.447h-76.66c0.036,0.063,0.073,0.127,0.11,0.189c1.969,3.318,4.156,6.235,6.624,8.627
		c0.149,0.144,0.315,0.257,0.465,0.398c1.291,1.206,2.663,2.259,4.088,3.213c5.258,3.523,11.404,5.38,18.521,5.38
		c3.396,0,7.146,0,11.064,0C300.87,1478.667,332.644,1478.667,332.644,1478.667L332.644,1478.667z"/>
	<path style="fill:#F4973F;" d="M1764.784,1475.58v-134.584c0-5.392,4.371-9.763,9.762-9.763h98.508
		c-0.443-7.098-0.932-14.276-1.469-21.49h-43.107c-22.544,0-40.156-34.165-43.209-55.004c-0.457-3.117,2.247-5.018,5.018-5.018
		h75.608c-0.845-7.109-1.748-14.138-2.72-21.033c-0.013-0.097-0.027-0.195-0.041-0.292c-1.017-7.193-2.105-14.245-3.272-21.105
		c-0.003-0.016-0.005-0.033-0.008-0.049h-0.001h-198.108c26.717,18.198,47.622,41.023,61.708,67.631
		c50.579,95.538,18.458,203.793,18.458,203.793h-26.073c0,0,0,0,0,0h49.377C1764.961,1477.675,1764.784,1476.652,1764.784,1475.58z"
		/>
	<path style="fill:#9AA2BD;" d="M1876.019,1331.234h-2.961h-0.004h-98.508c-5.392,0-9.762,4.371-9.762,9.763v134.584
		c0,1.072,0.178,2.095,0.433,3.088c1.38,5.37,6.21,9.355,12.011,9.355h98.791c12.233,0,22.149-9.916,22.149-22.149v-112.491
		C1898.168,1341.15,1888.251,1331.234,1876.019,1331.234z"/>
	<path style="fill:#BFC6DA;" d="M1876.754,1340.837h-100.622c-3.155,0-5.712,2.557-5.712,5.713v47.028
		c0,4.021,3.26,7.281,7.281,7.281h99.053c7.158,0,12.961-5.802,12.961-12.96v-34.101
		C1889.714,1346.639,1883.911,1340.837,1876.754,1340.837z"/>
	<path style="fill:#E6332A;" d="M1873.919,1261.488c-0.705-7.044-2.818-10.919-7.979-11.766h-0.039h-0.005h-75.608
		c-2.771,0-5.474,1.901-5.018,5.018c3.053,20.839,20.665,55.004,43.209,55.004h43.107h0.008h0.212c3.875,0,5.519-5.097,5.519-11.384
		L1873.919,1261.488z"/>
	<path style="fill:#9AA2BD;" d="M314.738,1303.993h-96.581h-0.001h-4.883c-12.236,0-22.155,9.919-22.155,22.154v112.558
		c0,12.236,9.919,22.155,22.155,22.155h22.123h76.66c6.874,0,12.447-5.572,12.447-12.447v-134.655
		C324.503,1308.365,320.132,1303.993,314.738,1303.993z"/>
	<path style="fill:#BFC6DA;" d="M311.585,1373.652c4.022,0,7.283-3.26,7.283-7.283v-47.054c0-3.156-2.558-5.714-5.714-5.714H212.537
		c-7.159,0-12.964,5.804-12.964,12.963v34.125c0,7.159,5.804,12.963,12.964,12.963H311.585z"/>
	<path style="fill:#081823;" d="M1659.283,1478.667c0,0,30.997-248.88-218.597-248.88c-224.764,0-203.159,248.88-203.159,248.88
		h-9.768l-454.257,0v0l0,0c0,0,0.063-1.553,0.069-4.417c0.024-11.457-0.863-43.885-10.344-81.75
		c-6.637-26.505-17.485-55.675-35.179-82.181c-3.791-5.68-7.897-11.237-12.344-16.62c-16.303-19.737-37.18-37.124-63.912-49.577
		c-26.731-12.453-59.316-19.972-99.031-19.972c-39.393,0-71.747,7.518-98.318,19.972c-26.571,12.453-47.359,29.84-63.62,49.577
		c-4.435,5.383-8.533,10.94-12.319,16.62c-17.672,26.505-28.566,55.676-35.271,82.181c-9.578,37.865-10.607,70.294-10.636,81.75
		c-0.007,2.864,0.048,4.417,0.048,4.417l0,0v0c0,0-31.774,0-56.375,0c1.669,13.925,13.503,24.727,27.878,24.727h66.614
		c-7.07-20.048-10.955-41.599-10.955-64.067c0-106.389,86.244-192.633,192.633-192.633c106.388,0,192.633,86.245,192.633,192.633
		c0,22.468-3.885,44.019-10.955,64.067h73.2v1.533c0,16.06,13.14,29.2,29.2,29.2h319.208c16.06,0,29.2-13.14,29.2-29.2v-1.533
		h39.451h42.5c-7.07-20.048-10.956-41.599-10.956-64.067c0-106.389,86.245-192.633,192.634-192.633s192.633,86.245,192.633,192.633
		c0,22.468-3.885,44.019-10.955,64.067h57.73c14.375,0,26.209-10.802,27.878-24.727c0,0,0,0,0,0H1659.283z"/>
	<path style="fill:#9AA2BD;" d="M608.014,1383.753c-14.24-14.231-33.855-23.017-55.575-23.02
		c-21.72,0.003-41.336,8.789-55.575,23.02c-14.231,14.24-23.017,33.855-23.02,55.575c0.003,21.72,8.789,41.336,23.02,55.575
		c14.24,14.231,33.855,23.017,55.575,23.02c21.72-0.002,41.336-8.789,55.575-23.02c14.232-14.24,23.018-33.855,23.02-55.575
		C631.031,1417.608,622.245,1397.992,608.014,1383.753z"/>
	<path style="fill:#575F76;" d="M552.438,1464.184c13.728,0,24.856-11.129,24.856-24.856s-11.128-24.856-24.856-24.856
		c-13.727,0-24.856,11.129-24.856,24.856S538.711,1464.184,552.438,1464.184z"/>
	<path style="fill:#D17D37;" d="M1442.933,1160.581c-68.949,5.361-126.976,18.816-170.028,46.662
		c-29.048,18.788-51.285,44.121-65.438,77.964c-43.209,103.325-20.665,193.46-20.665,193.46h50.723
		c0,0-21.604-248.88,203.159-248.88c249.595,0,218.597,248.88,218.597,248.88h56.556h26.073c0,0,32.121-108.254-18.458-203.793
		c-14.087-26.608-34.991-49.432-61.708-67.631C1609.063,1171.357,1533.705,1153.523,1442.933,1160.581z"/>
	<polygon style="fill:#41A0C6;" points="406.281,774.594 490.723,673.707 467.214,673.707 382.772,774.594 	"/>
	<path style="fill:#41A0C6;" d="M470.158,1025.953h67.656c14.998,0,27.156-12.159,27.156-27.157v-86.121L470.158,1025.953z"/>
	<polygon style="fill:#41A0C6;" points="437.598,1025.953 564.97,873.775 564.97,847.09 415.263,1025.953 	"/>
	<path style="fill:#41A0C6;" d="M537.268,774.594l27.703-33.098v-40.633c0-14.998-12.158-27.157-27.156-27.157h-12.821
		l-84.442,100.888H537.268z"/>
	<path style="fill:#41A0C6;" d="M296.241,1025.953h30.642l185.545-221.681h-96.716L269.084,979.456v19.34
		C269.084,1013.794,281.242,1025.953,296.241,1025.953z"/>
	<path style="fill:#41A0C6;" d="M374.189,673.707h-77.948c-14.999,0-27.157,12.159-27.157,27.157v73.731h20.663L374.189,673.707z"/>
	<polygon style="fill:#41A0C6;" points="357.931,804.273 269.084,910.424 269.084,938.512 381.441,804.273 	"/>
	<polygon style="fill:#41A0C6;" points="728.025,804.273 639.177,910.425 639.177,938.512 751.534,804.273 	"/>
	<path style="fill:#41A0C6;" d="M659.84,774.594l84.442-100.888h-77.948c-14.999,0-27.157,12.159-27.157,27.157v73.731H659.84z"/>
	<path style="fill:#41A0C6;" d="M840.251,1025.953h67.656c14.998,0,27.157-12.159,27.157-27.157v-86.122L840.251,1025.953z"/>
	<polygon style="fill:#41A0C6;" points="807.692,1025.953 935.065,873.774 935.065,847.089 785.357,1025.953 	"/>
	<path style="fill:#41A0C6;" d="M785.805,804.273L639.177,979.456v19.34c0,14.998,12.159,27.157,27.157,27.157h30.642
		l185.544-221.681H785.805z"/>
	<path style="fill:#41A0C6;" d="M907.361,774.594l27.703-33.098v-40.633c0-14.998-12.159-27.157-27.157-27.157h-12.82
		l-84.442,100.888H907.361z"/>
	<polygon style="fill:#41A0C6;" points="776.374,774.594 860.816,673.707 837.308,673.707 752.866,774.594 	"/>
	<path style="fill:#41A0C6;" d="M1035.57,774.594l84.442-100.888h-77.948c-14.999,0-27.157,12.159-27.157,27.157v73.731H1035.57z"/>
	<polygon style="fill:#41A0C6;" points="1152.104,774.594 1236.546,673.707 1213.037,673.707 1128.595,774.594 	"/>
	<path style="fill:#41A0C6;" d="M1161.534,804.273l-146.627,175.184v19.34c0,14.998,12.158,27.157,27.157,27.157h30.642
		l185.545-221.681H1161.534z"/>
	<path style="fill:#41A0C6;" d="M1283.091,774.594l27.703-33.098v-40.633c0-14.998-12.158-27.157-27.157-27.157h-12.82
		l-84.442,100.888H1283.091z"/>
	<polygon style="fill:#41A0C6;" points="1103.755,804.273 1014.907,910.424 1014.907,938.512 1127.264,804.273 	"/>
	<polygon style="fill:#41A0C6;" points="1183.422,1025.953 1310.794,873.775 1310.794,847.09 1161.087,1025.953 	"/>
	<path style="fill:#41A0C6;" d="M1283.637,1025.953c14.999,0,27.157-12.159,27.157-27.157v-86.121l-94.813,113.278H1283.637z"/>
	<path style="fill:#41A0C6;" d="M1425.391,983.297c0,14.999,12.158,27.157,27.157,27.157h47.989V882.168l-75.078-198.145
		c-0.022,0.447-0.068,0.889-0.068,1.342V983.297z"/>
	<path style="fill:#007FA6;" d="M1452.548,1010.454c-14.999,0-27.157-12.158-27.157-27.157V685.365c0-0.453,0.046-0.895,0.068-1.342
		c0,0,0,0,0,0l-3.908-10.316h0c-0.937,0-1.863,0.047-2.776,0.14c-0.913,0.093-1.813,0.231-2.696,0.412
		c-1.531,0.313-3.004,0.778-4.429,1.338c-1.866,0.732-3.644,1.642-5.282,2.748c-1.445,0.976-2.79,2.087-4.019,3.316
		c-1.228,1.229-2.34,2.574-3.316,4.019c-2.44,3.612-4.035,7.842-4.498,12.407c-0.093,0.913-0.14,1.839-0.14,2.777v297.932v0
		c0,0.937,0.047,1.863,0.14,2.776c0.371,3.652,1.465,7.089,3.137,10.168c0.836,1.539,1.817,2.989,2.924,4.33
		c1.66,2.012,3.605,3.781,5.772,5.245c2.167,1.464,4.557,2.623,7.108,3.417c1.701,0.529,3.473,0.896,5.299,1.081
		c0.913,0.093,1.839,0.14,2.777,0.14h78.986v-15.499H1452.548z"/>
	<path style="fill:#41A0C6;" d="M1504.746,700.469l110.877,298.27c4.678,11.951,12.076,27.194,27.075,27.239l36.245,0.294
		l-125.324-352.565h-32.651C1520.968,673.707,1499.128,675.351,1504.746,700.469z"/>
	<polygon style="fill:#E8922B;" points="1506.173,623.923 1479.923,573.199 278.229,573.199 257.812,623.923 	"/>
	<polygon style="fill:#081823;" points="253.115,1080.434 253.115,1119.886 1628.269,1119.886 1628.285,1080.434 	"/>
	<polygon style="fill:#081823;" points="1323.932,1155.58 1323.944,1138.672 253.115,1138.672 253.115,1155.58 	"/>
	<path style="fill:#9AA2BD;" d="M1504.129,1383.753c-14.24-14.231-33.855-23.017-55.575-23.02
		c-21.72,0.003-41.336,8.789-55.575,23.02c-14.231,14.24-23.017,33.855-23.02,55.575c0.003,21.72,8.789,41.336,23.02,55.575
		c14.24,14.231,33.855,23.017,55.575,23.02c21.72-0.002,41.336-8.789,55.575-23.02c14.231-14.24,23.017-33.855,23.02-55.575
		C1527.146,1417.608,1518.36,1397.992,1504.129,1383.753z"/>
	
		<ellipse transform="matrix(0.9821 -0.1884 0.1884 0.9821 -245.1823 298.6127)" style="fill:#575F76;" cx="1448.554" cy="1439.328" rx="24.856" ry="24.856"/>
	<polygon style="fill:#7BBBDA;" points="269.084,804.273 269.084,910.424 357.931,804.273 	"/>
	<polygon style="fill:#7BBBDA;" points="382.772,774.594 467.214,673.707 374.189,673.707 289.746,774.594 	"/>
	<polygon style="fill:#7BBBDA;" points="381.441,804.273 269.084,938.512 269.084,979.456 415.711,804.273 	"/>
	<polygon style="fill:#7BBBDA;" points="440.551,774.594 524.993,673.707 490.723,673.707 406.281,774.594 	"/>
	<polygon style="fill:#7BBBDA;" points="564.97,774.594 564.97,741.497 537.268,774.594 	"/>
	<polygon style="fill:#7BBBDA;" points="326.883,1025.953 415.263,1025.953 564.97,847.09 564.97,804.273 512.427,804.273 	"/>
	<polygon style="fill:#7BBBDA;" points="470.158,1025.953 564.97,912.675 564.97,873.775 437.598,1025.953 	"/>
	<polygon style="fill:#7BBBDA;" points="659.84,774.594 752.866,774.594 837.308,673.707 744.282,673.707 	"/>
	<polygon style="fill:#7BBBDA;" points="639.177,910.425 728.025,804.273 639.177,804.273 	"/>
	<polygon style="fill:#7BBBDA;" points="751.534,804.273 639.177,938.512 639.177,979.456 785.805,804.273 	"/>
	<polygon style="fill:#7BBBDA;" points="810.645,774.594 895.087,673.707 860.816,673.707 776.374,774.594 	"/>
	<polygon style="fill:#7BBBDA;" points="696.977,1025.953 785.357,1025.953 935.065,847.089 935.065,804.273 882.521,804.273 	"/>
	<polygon style="fill:#7BBBDA;" points="935.065,774.594 935.065,741.496 907.361,774.594 	"/>
	<polygon style="fill:#7BBBDA;" points="840.251,1025.953 935.065,912.674 935.065,873.774 807.692,1025.953 	"/>
	<polygon style="fill:#7BBBDA;" points="1035.57,774.594 1128.595,774.594 1213.037,673.707 1120.012,673.707 	"/>
	<polygon style="fill:#7BBBDA;" points="1014.907,804.273 1014.907,910.424 1103.755,804.273 	"/>
	<polygon style="fill:#7BBBDA;" points="1127.264,804.273 1014.907,938.512 1014.907,979.456 1161.534,804.273 	"/>
	<polygon style="fill:#7BBBDA;" points="1152.104,774.594 1186.375,774.594 1270.817,673.707 1236.546,673.707 	"/>
	<polygon style="fill:#7BBBDA;" points="1310.794,774.594 1310.794,741.497 1283.091,774.594 	"/>
	<polygon style="fill:#7BBBDA;" points="1072.706,1025.953 1161.087,1025.953 1310.794,847.09 1310.794,804.273 1258.25,804.273 	
		"/>
	<polygon style="fill:#7BBBDA;" points="1215.981,1025.953 1310.794,912.675 1310.794,873.775 1183.422,1025.953 	"/>
	<path style="fill:#CCCCCC;" d="M381.441,804.273h34.27h96.716h52.543h1.208c6.569,0,11.943-5.374,11.943-11.943v-5.792
		c0-6.569-5.375-11.943-11.943-11.943h-1.208h-27.703h-96.717h-34.27h-23.509h-93.025h-20.663h-1.861
		c-6.569,0-11.943,5.375-11.943,11.943v5.792c0,6.569,5.375,11.943,11.943,11.943h1.861h88.848H381.441z"/>
	<path style="fill:#CCCCCC;" d="M728.025,804.273h23.509h34.271h96.716h52.544h1.207c6.569,0,11.943-5.374,11.943-11.943v-5.792
		c0-6.569-5.374-11.943-11.943-11.943h-1.207h-27.703h-96.716h-34.271h-23.509H659.84h-20.663h-1.86
		c-6.569,0-11.943,5.375-11.943,11.943v5.792c0,6.569,5.374,11.943,11.943,11.943h1.86H728.025z"/>
	<path style="fill:#CCCCCC;" d="M1186.375,774.594h-34.271h-23.509h-93.026h-20.663h-1.861c-6.568,0-11.943,5.375-11.943,11.943
		v5.792c0,6.569,5.375,11.943,11.943,11.943h1.861h88.848h23.509h34.27h96.716h52.543h1.207c6.569,0,11.943-5.374,11.943-11.943
		v-5.792c0-6.569-5.375-11.943-11.943-11.943h-1.207h-27.703H1186.375z"/>
	<path style="fill:#F4973F;" d="M1500.537,882.168v128.286v15.499v15.968c0,16.015,13.104,29.12,29.119,29.12
		c16.016,0,29.119-13.104,29.119-29.12V874.722c0-16.016-13.103-29.119-29.119-29.119c-16.015,0-29.119,13.103-29.119,29.119
		V882.168z"/>
	<circle style="fill:#FFCE32;" cx="1827.246" cy="1288.436" r="12.505"/>
</g>
</svg>
