<?xml version="1.0" encoding="utf-8"?>
<!-- Generator: Adobe Illustrator 27.5.0, SVG Export Plug-In . SVG Version: 6.00 Build 0)  -->
<svg version="1.1" id="Capa_1" xmlns="http://www.w3.org/2000/svg" xmlns:xlink="http://www.w3.org/1999/xlink" x="0px" y="0px"
	 viewBox="0 0 425.196 380.12" style="enable-background:new 0 0 425.196 380.12;" xml:space="preserve">
<rect y="0.001" style="fill:#FFFFFF;" width="425.196" height="380.12"/>
<g>
	<g>
		<path d="M310.955,328.701c0,8.255-6.693,14.947-14.947,14.947H162.061c-8.256,0-14.949-6.692-14.949-14.947V85.283
			c0-8.257,6.693-14.947,14.949-14.947h133.947c8.254,0,14.947,6.69,14.947,14.947V328.701z"/>
		<path style="fill:#1A222C;" d="M307.522,329.329c0,7.907-6.412,14.319-14.322,14.319H164.867c-7.908,0-14.32-6.412-14.32-14.319
			V88.633c0-7.908,6.412-14.319,14.32-14.319h128.332c7.91,0,14.322,6.411,14.322,14.319V329.329z"/>
		<rect x="162.389" y="89.4" style="fill:#FFFFFF;" width="133.289" height="224.156"/>
		<g>
			<path style="fill:#FFFFFF;" d="M245.348,326.823c0,4.715-3.822,8.535-8.535,8.535h-15.559c-4.713,0-8.533-3.82-8.533-8.535l0,0
				c0-4.713,3.82-8.531,8.533-8.531h15.559C241.525,318.292,245.348,322.11,245.348,326.823L245.348,326.823z"/>
			<path style="fill:#A7A9AC;" d="M212.725,326.715c0,0.037-0.004,0.071-0.004,0.108c0,4.715,3.82,8.535,8.533,8.535h15.559
				c4.713,0,8.535-3.82,8.535-8.535c0-0.037-0.008-0.071-0.008-0.108H212.725z"/>
		</g>
		<g>
			<defs>
				<rect id="SVGID_1_" x="162.389" y="89.4" width="133.289" height="224.156"/>
			</defs>
			<clipPath id="SVGID_00000171681717684616913960000006628171953116637363_">
				<use xlink:href="#SVGID_1_"  style="overflow:visible;"/>
			</clipPath>
			<g style="clip-path:url(#SVGID_00000171681717684616913960000006628171953116637363_);">
				<rect x="48.225" y="42.145" style="fill:#FBF9D8;" width="386.426" height="287.033"/>
				<g>
					<path style="fill:#DBC190;stroke:#AA976E;stroke-width:1.2635;stroke-miterlimit:10;" d="M122.717,315.345
						c1.42-5.578,3.467-12.27,1.803-18.015c-2.592-8.938-11.506-11.834-19.246-15.299c-8.977-4.023-16.65-8.945-20.563-18.359
						c-2.99-7.193-3.648-14.667-3.357-22.21H60.518v74.64h62.008C122.588,315.85,122.652,315.597,122.717,315.345z"/>
					<path style="fill:#DBC190;stroke:#AA976E;stroke-width:1.2635;stroke-miterlimit:10;" d="M98.482,264.723
						c6.227,6.033,15.086,7.973,22.467,12.154c8.496,4.814,14.672,12.222,15.279,22.33c0.351,5.853-0.856,11.387-2.246,16.895
						h10.273v-74.64H92.463C91.938,250.066,92.711,259.117,98.482,264.723z"/>
					
						<rect x="152.703" y="241.462" style="fill:#DBC190;stroke:#AA976E;stroke-width:1.2635;stroke-miterlimit:10;" width="83.74" height="74.64"/>
					
						<rect x="245.66" y="241.462" style="fill:#DBC190;stroke:#AA976E;stroke-width:1.2635;stroke-miterlimit:10;" width="17.672" height="74.64"/>
					
						<rect x="276.393" y="241.462" style="fill:#DBC190;stroke:#AA976E;stroke-width:1.2635;stroke-miterlimit:10;" width="18.44" height="74.64"/>
					
						<rect x="307.891" y="241.462" style="fill:#DBC190;stroke:#AA976E;stroke-width:1.2635;stroke-miterlimit:10;" width="21.51" height="74.64"/>
					<path style="fill:#8ABC6F;stroke:#84AC61;stroke-width:1.1524;stroke-miterlimit:10;" d="M359.336,306.16
						c-2.352-7.549-12.295-15.25-20.717-13.138v23.079h21.463C360.434,312.672,360.315,309.312,359.336,306.16z"/>
					<path style="fill:#8ABC6F;stroke:#84AC61;stroke-width:1.1524;stroke-miterlimit:10;" d="M365.162,251.051
						c3.662-2.459,6.232-5.807,8.088-9.589h-34.631v14.716C348.002,257.313,358.285,255.673,365.162,251.051z"/>
					<path style="fill:#DBC190;stroke:#AA976E;stroke-width:1.2635;stroke-miterlimit:10;" d="M393.934,241.462h-8.551
						c-2.83,8.207-7.506,15.548-15.5,20.008c-8.785,4.899-20.318,7.037-31.264,6.077v14.155
						c10.881-1.079,23.176,5.014,28.457,14.111c3.814,6.571,4.537,13.39,3.922,20.288h22.935V241.462z"/>
					
						<rect x="403.733" y="241.462" style="fill:#DBC190;stroke:#AA976E;stroke-width:1.2635;stroke-miterlimit:10;" width="18.627" height="74.64"/>
					
						<rect x="60.518" y="120.85" style="fill:#DBC190;stroke:#AA976E;stroke-width:1.5284;stroke-miterlimit:10;" width="37.639" height="81.815"/>
					<path style="fill:#8ABC6F;stroke:#84AC61;stroke-width:1.1524;stroke-miterlimit:10;" d="M82.111,153.076
						c8.148-7.501,16.164-20.648,14.105-32.227H60.518v41.812C68.74,161.454,76.641,158.107,82.111,153.076z"/>
					
						<rect x="109.682" y="120.85" style="fill:#DBC190;stroke:#AA976E;stroke-width:1.5284;stroke-miterlimit:10;" width="34.574" height="80.857"/>
					
						<rect x="109.682" y="211.498" style="fill:#DBC190;stroke:#AA976E;stroke-width:1.5284;stroke-miterlimit:10;" width="34.574" height="18.559"/>
					
						<rect x="60.518" y="210.349" style="fill:#DBC190;stroke:#AA976E;stroke-width:1.5284;stroke-miterlimit:10;" width="37.639" height="19.708"/>
					
						<rect x="338.619" y="193.638" style="fill:#DBC190;stroke:#AA976E;stroke-width:1.5284;stroke-miterlimit:10;" width="13.25" height="36.419"/>
					
						<rect x="362.244" y="193.638" style="fill:#DBC190;stroke:#AA976E;stroke-width:1.5284;stroke-miterlimit:10;" width="11.523" height="36.419"/>
					
						<rect x="385.289" y="193.638" style="fill:#DBC190;stroke:#AA976E;stroke-width:1.5284;stroke-miterlimit:10;" width="9.795" height="36.419"/>
					
						<rect x="404.883" y="193.638" style="fill:#DBC190;stroke:#AA976E;stroke-width:1.5284;stroke-miterlimit:10;" width="17.477" height="36.419"/>
					
						<rect x="338.619" y="120.85" style="fill:#8ABC6F;stroke:#84AC61;stroke-width:1.1524;stroke-miterlimit:10;" width="83.74" height="62.415"/>
					
						<rect x="109.877" y="55.221" style="fill:#DBC190;stroke:#AA976E;stroke-width:1.0996;stroke-miterlimit:10;" width="34.379" height="22.028"/>
					
						<rect x="109.877" y="89.349" style="fill:#DBC190;stroke:#AA976E;stroke-width:1.0996;stroke-miterlimit:10;" width="34.379" height="22.401"/>
					
						<rect x="60.518" y="55.221" style="fill:#DBC190;stroke:#AA976E;stroke-width:1.0996;stroke-miterlimit:10;" width="37.834" height="56.529"/>
					
						<rect x="338.619" y="98.567" style="fill:#DBC190;stroke:#AA976E;stroke-width:1.0996;stroke-miterlimit:10;" width="13.25" height="13.183"/>
					<path style="fill:#DBC190;stroke:#AA976E;stroke-width:1.0996;stroke-miterlimit:10;" d="M379.717,107.447
						c-0.367-2.975-0.892-5.925-1.404-8.88H359.94v13.183h20.338C380.131,110.053,379.83,108.404,379.717,107.447z"/>
					<path style="fill:#DBC190;stroke:#AA976E;stroke-width:1.0996;stroke-miterlimit:10;" d="M391.775,111.75h30.584V98.567
						h-32.336C390.883,102.998,391.729,107.489,391.775,111.75z"/>
					
						<rect x="338.619" y="76.674" style="fill:#DBC190;stroke:#AA976E;stroke-width:1.0996;stroke-miterlimit:10;" width="13.25" height="14.404"/>
					<path style="fill:#DBC190;stroke:#AA976E;stroke-width:1.0996;stroke-miterlimit:10;" d="M377.611,76.674H359.94v14.404h17.27
						C376.719,86.257,376.803,81.424,377.611,76.674z"/>
					<path style="fill:#DBC190;stroke:#AA976E;stroke-width:1.0996;stroke-miterlimit:10;" d="M388.186,83.181
						c-0.158,2.48,0.074,5.14,0.48,7.897h33.693V76.674h-33.217C388.654,78.756,388.33,80.928,388.186,83.181z"/>
					
						<rect x="338.619" y="55.221" style="fill:#DBC190;stroke:#AA976E;stroke-width:1.0996;stroke-miterlimit:10;" width="13.25" height="13.959"/>
					<path style="fill:#DBC190;stroke:#AA976E;stroke-width:1.0996;stroke-miterlimit:10;" d="M379.77,68.549
						c1.897-5.056,4.465-9.498,7.572-13.328H359.94V69.18h19.617C379.637,68.969,379.691,68.756,379.77,68.549z"/>
					<path style="fill:#DBC190;stroke:#AA976E;stroke-width:1.0996;stroke-miterlimit:10;" d="M391.756,69.18h30.604V55.221h-17.809
						C398.992,58.453,394.598,63.257,391.756,69.18z"/>
					
						<rect x="152.703" y="188.839" style="fill:#DBC190;stroke:#AA976E;stroke-width:1.5284;stroke-miterlimit:10;" width="83.74" height="18.435"/>
					<path style="fill:#8ABC6F;stroke:#84AC61;stroke-width:1.1524;stroke-miterlimit:10;" d="M168.736,139.584
						c3.824-3.497,6.131-8.195,7.352-13.201c0.416-1.709,0.76-3.584,0.988-5.533h-24.373v22.455
						C158.471,143.343,165.064,142.943,168.736,139.584z"/>
					<path style="fill:#DBC190;stroke:#AA976E;stroke-width:1.5284;stroke-miterlimit:10;" d="M186.68,130.672
						c-2.057,6.673-5.641,14.714-11.9,18.508c-6.73,4.075-14.385,5.063-22.076,5.305v21.293h83.74v-24.085
						c-16.721-1.472-30.154-14.372-32.441-30.843h-15.414C188.291,124.24,187.637,127.567,186.68,130.672z"/>
					<path style="fill:#8ABC6F;stroke:#84AC61;stroke-width:1.1524;stroke-miterlimit:10;" d="M211.281,175.777h25.162v-24.085
						c-10.213-0.9-19.191-6.065-25.162-13.696V175.777z"/>
					
						<rect x="152.703" y="217.262" style="fill:#DBC190;stroke:#AA976E;stroke-width:1.5284;stroke-miterlimit:10;" width="83.74" height="12.795"/>
					<path style="fill:#DBC190;stroke:#AA976E;stroke-width:1.0996;stroke-miterlimit:10;" d="M171.324,74.623
						c4.307-5.554,4.373-13.568,0.768-19.402h-19.389v23.847C158.891,79.081,167.104,80.063,171.324,74.623z"/>
					<path style="fill:#DBC190;stroke:#AA976E;stroke-width:1.0996;stroke-miterlimit:10;" d="M214.199,77.13
						c-4.77,6.341-12.762,8.258-17.986,13.909c-5.188,5.606-6.672,13.288-6.885,20.711h14.564
						c1.916-16.895,15.531-30.237,32.551-31.735V55.221h-17.947C219.998,62.877,218.729,71.104,214.199,77.13z"/>
					<path style="fill:#DBC190;stroke:#AA976E;stroke-width:1.0996;stroke-miterlimit:10;" d="M194.547,78.046
						c5.104-3.257,12.439-6.384,12.936-13.374c0.207-2.867,0.135-6.298-0.654-9.451h-22.23c2.906,8.795,1.266,19.032-4.453,26.398
						c-6.77,8.729-17.287,8.789-27.441,8.798v21.334h25.285C178.381,98.312,182.727,85.595,194.547,78.046z"/>
					<path style="fill:#DBC190;stroke:#AA976E;stroke-width:1.5284;stroke-miterlimit:10;" d="M265.893,204.144
						c3.775-8.614,11.947-13.91,20.639-16.773c13.805-4.555,28.412-4.506,42.869-4.219v-35.686
						c-12.129,0.506-28.533-1.622-37.76,7.113c-8.852,8.389-8.869,21.574-19.369,28.84c-7.742,5.357-17.283,7.409-26.611,6.754
						v39.883h17.533C263.012,221.35,262.324,212.277,265.893,204.144z"/>
					<path style="fill:#8ABC6F;stroke:#84AC61;stroke-width:1.1524;stroke-miterlimit:10;" d="M329.4,152.705
						c-9.701-0.814-19.873,0.655-25.678,6.925c-5.516,5.966-2.268,14.486-3.242,21.768c-0.127,0.991-0.322,1.951-0.549,2.887
						c9.693-1.408,19.615-1.328,29.469-1.132V152.705z"/>
					<path style="fill:#8ABC6F;stroke:#84AC61;stroke-width:1.1524;stroke-miterlimit:10;" d="M277.275,191.607
						c0.645-1.078,1.74-1.928,3.371-2.288c12.002-2.659,7.709-14.574,8.566-23.58c0.508-5.34,2.846-10.28,6.463-14.085
						c-1.453,0.809-2.809,1.77-4.035,2.926c-8.852,8.389-8.869,21.574-19.369,28.84c-7.742,5.357-17.283,7.409-26.611,6.754v39.883
						h17.533c-0.182-8.707-0.869-17.779,2.699-25.913C268.27,198.723,272.385,194.617,277.275,191.607z"/>
					<path style="fill:#DBC190;stroke:#AA976E;stroke-width:1.5284;stroke-miterlimit:10;" d="M294.033,196.975
						c-7.043,1.896-16.021,5.175-18.285,12.977c-1.897,6.536-1.371,13.364-1.205,20.105H329.4v-35.622
						C317.504,194.098,305.438,193.905,294.033,196.975z"/>
					<path style="fill:#DBC190;stroke:#AA976E;stroke-width:1.5284;stroke-miterlimit:10;" d="M245.66,151.328v27.441
						c9.924,0.896,21.562-1.899,25.887-11.314c5.053-10.999,8.725-21.009,20.512-26.429c11.656-5.357,24.781-4.037,37.342-4.869
						V120.85H275.27C273.115,136.381,261.049,148.735,245.66,151.328z"/>
					
						<rect x="311.709" y="55.221" style="fill:#DBC190;stroke:#AA976E;stroke-width:1.0996;stroke-miterlimit:10;" width="17.691" height="56.529"/>
					
						<rect x="286.682" y="55.221" style="fill:#DBC190;stroke:#AA976E;stroke-width:1.0996;stroke-miterlimit:10;" width="18.289" height="56.529"/>
					<path style="fill:#DBC190;stroke:#AA976E;stroke-width:1.0996;stroke-miterlimit:10;" d="M278.983,55.221H245.66v25.156
						c15.68,2.646,27.916,15.424,29.725,31.373h3.598V55.221z"/>
					<path style="fill:#DBC190;stroke:#AA976E;stroke-width:1.2086;stroke-miterlimit:10;" d="M239.035,90.5
						c14.002,0,25.354,11.354,25.354,25.356c0,13.997-11.352,25.351-25.354,25.351c-14,0-25.35-11.354-25.35-25.351
						C213.686,101.854,225.035,90.5,239.035,90.5z"/>
					
						<rect x="67.793" y="61.013" style="fill:#8ABC6F;stroke:#84AC61;stroke-width:1.1524;stroke-miterlimit:10;" width="23.283" height="44.942"/>
					<path style="fill:#8ABC6F;stroke:#84AC61;stroke-width:1.1524;stroke-miterlimit:10;" d="M60.518,316.102h62.199
						c0,0,11.688-24.06-10.947-31.197c0,0-15.689-7.414-24.348-16.208H60.518V316.102z"/>
					<path style="fill:#52C6DA;stroke:#4EB8BF;stroke-width:1.1524;stroke-miterlimit:10;" d="M240.766,101.449
						c6.998,0,12.676,5.676,12.676,12.676v3.459c0,7-5.678,12.676-12.676,12.676h-3.457c-7.002,0-12.678-5.676-12.678-12.676v-3.459
						c0-7,5.676-12.676,12.678-12.676H240.766z"/>
					<path style="fill:#52C6DA;stroke:#4EB8BF;stroke-width:1.1524;stroke-miterlimit:10;" d="M179.594,302.407
						c6.115-2.354,6.48-24.864,15.992-14.301c3.947,4.387,2.727,7.912,9.936,8.669c7.607,0.795,7.033-2.52,7.488-8.645
						c0.164-2.183-0.021-5.602,1.139-7.501c1.707-2.782,4.516-2.621,6.943-4.709c4.908-4.228,6.088-11.821,4.449-17.778
						c-1.596-5.797-5.363-8.556-10.367-4.16c-4.609,4.049-3.555,11.722-11.828,9.98c-5.547-1.171-5.637-6.577-9.922-9.422
						c-3.232-2.143-11.762-4.52-15.574-3.871c-3.043,0.517-2.48,2.024-4.709,2.892c-2.715,1.053-5.953,0.156-8.561,1.151
						c-4.662,1.789-5.689,7.816-1.117,11.377c3.686,2.869,12.93,1.058,9.373,7.793c-0.824,1.558-3.578,1.523-4.621,2.84
						c-1.707,2.153-1.465,4.24-1.871,6.801c0,0-1.73,8.645,2.301,15.557C168.645,299.08,170.951,305.733,179.594,302.407z"/>
					<g>
						<g>
							<path style="fill:#52C6DA;stroke:#4EB8BF;stroke-width:1.1524;stroke-miterlimit:10;" d="M381.68,132.131
								c-6.678,4.096-8.137,12.246-9.641,19.236c-1.555,7.243-5.336,13.188-12.83,14.871c-6.607,1.485-14.045-0.472-20.59-2.083
								v5.914c7.9,1.854,16.268,3.431,24.168,1.206c9.797-2.754,13.848-12.691,15.482-21.812c1.07-5.96,3.549-12.249,9.949-13.902
								c2.893-0.747,6.049,0.063,8.898,1.624c-2.285,0.733-4.398,2.254-5.176,4.535c-0.563,1.64-0.619,3.305-0.572,5.024
								c0.074,2.946,0.25,3.896-3.201,3.679c-1.182-0.073-2.56,0.926-2.775,2.116c-2.639,14.621,15.76,18.174,24.156,8.604
								c4.771-5.439,4.094-12.139,0.977-17.896c-0.332-1.889-1.506-3.474-3.166-4.614c-2.238-2.659-4.918-4.888-7.602-6.357
								C394.049,129.143,387.301,128.686,381.68,132.131z"/>
						</g>
					</g>
				</g>
			</g>
		</g>
		<path style="opacity:0.6;fill:#FFFFFF;" d="M303.512,339.265c-2.605,2.702-6.26,4.384-10.313,4.384H164.867
			c-7.908,0-14.32-6.412-14.32-14.319V88.633c0-4.32,1.912-8.195,4.939-10.819L303.512,339.265z"/>
	</g>
	<g>
		<g>
			<g>
				
					<rect x="123.397" y="198.498" transform="matrix(0.6149 -0.7886 0.7886 0.6149 -114.095 184.2472)" style="fill:#A7A9AC;" width="16.422" height="20.901"/>
				<path style="fill:#FFFFFF;" d="M130.777,202.016c-0.482,1.499-0.73,3.058-0.432,4.624c0.361,1.899,1.404,3.646,2.902,4.881
					c1.531,1.264,3.395,2.089,5.254,2.248l4.006-5.136l-10.799-8.418C131.328,200.746,131,201.325,130.777,202.016z"/>
				<path style="fill:#D1D3D4;" d="M132.014,213.745c-2.314-2.064-4.188-4.865-4.41-8.046c-0.141-2.002,0.041-4.042,0.771-5.931
					c0.391-1.017,0.891-1.85,1.445-2.625l-1.404-1.097l-10.098,12.951l16.482,12.853l3.873-4.968
					C136.277,216.539,133.93,215.46,132.014,213.745z"/>
				<path style="fill:#D3D5D6;" d="M144.898,208.9c-0.811,1.04-5.16-0.994-9.711-4.543c-4.551-3.549-7.582-7.271-6.771-8.31
					c0.81-1.041,5.16,0.992,9.711,4.54C142.68,204.137,145.709,207.857,144.898,208.9z"/>
			</g>
			<path style="fill:#333D48;" d="M225.174,87.482c-31.578-24.622-77.139-18.985-101.764,12.595
				c-24.623,31.58-18.986,77.14,12.592,101.765c31.58,24.623,77.141,18.983,101.766-12.595
				C262.391,157.67,256.752,112.106,225.174,87.482z M146.904,187.861c-23.859-18.605-28.119-53.025-9.514-76.885
				c18.604-23.859,53.025-28.117,76.883-9.514c23.859,18.604,28.119,53.025,9.514,76.885
				C205.184,202.206,170.762,206.466,146.904,187.861z"/>
			<path style="fill:#6F7173;" d="M217.426,97.42c-26.092-20.345-63.734-15.688-84.078,10.403
				c-20.348,26.094-15.689,63.734,10.404,84.081c26.09,20.345,63.734,15.688,84.08-10.405
				C248.176,155.407,243.518,117.765,217.426,97.42z M146.904,187.861c-23.859-18.605-28.119-53.025-9.514-76.885
				c18.604-23.859,53.025-28.117,76.883-9.514c23.859,18.604,28.119,53.025,9.514,76.885
				C205.184,202.206,170.762,206.466,146.904,187.861z"/>
			<path style="fill:#EB464D;" d="M73.316,308.297c-1.307,1.675-3.723,1.973-5.396,0.669L48.648,293.94
				c-1.672-1.306-1.973-3.722-0.666-5.396l64.375-81.029c1.307-1.676,3.723-1.974,5.396-0.668l19.27,15.024
				c1.674,1.306,1.973,3.723,0.67,5.396L73.316,308.297z"/>
			<path style="fill:#BCBEC0;" d="M77.971,268.078c1.35-5.121,4.373-9.869,7.305-14.221c3.17-4.709,6.543-9.301,9.902-13.879
				c7.957-10.841,17.873-19.902,27.158-29.56l-4.582-3.572c-1.674-1.306-4.09-1.008-5.396,0.668l-64.375,81.029
				c-1.307,1.674-1.006,4.09,0.666,5.396l19.271,15.026c1.674,1.304,4.09,1.006,5.396-0.669l15.094-17.829
				C81.18,286.253,75.875,276.035,77.971,268.078z"/>
			<path style="fill:#FFFFFF;" d="M126.916,219.214l6.182,4.821c0,0,2.098,2.423-1.234,6.694l-43.008,55.155
				c0,0-2.299-1.445-2.238-5.577C86.617,280.308,131.238,232.425,126.916,219.214z"/>
			<path style="opacity:0.2;fill:#FFFFFF;" d="M223.787,178.348c-18.604,23.858-53.025,28.118-76.883,9.514
				c-23.859-18.605-28.119-53.025-9.514-76.885c18.604-23.859,53.025-28.117,76.883-9.514
				C238.133,120.066,242.393,154.488,223.787,178.348z"/>
			<path style="opacity:0.2;fill:#FFFFFF;" d="M188.172,183.902c-17.326-5.555-33.24-22.378-34.41-41.077
				c-1.123-17.897,7.752-34.443,20.055-46.859c2.01-2.025,4.23-4.098,6.615-6.071c-16.236,0.058-32.283,7.286-43.041,21.082
				c-18.605,23.859-14.346,58.279,9.514,76.885c23.857,18.604,58.279,14.345,76.883-9.514c0.184-0.234,0.346-0.473,0.525-0.71
				C213.584,184.5,200.816,187.951,188.172,183.902z"/>
		</g>
		<g>
			<g>
				<path style="fill:#EDB097;" d="M38.258,327.334l0.9,52.787h65.297l0.926-51.712l29.611-29.716c0,0,5.99-3.128,2.471-27.85
					c0,0-2.143-21.862,2.424-32.112c0,0,0.689-1.05-0.799-1.6c-4.762-1.761-21.9-2.59-22.805,36.105l-1.891-61.191l-0.729-5.841
					c0,0,0.096-14.184-9.588-15.845c0,0-12.189-2.432-14.201,13.829l-0.574,8.683c0,0-0.344-19.766-14.603-18.797
					c0,0-10.213,0.737-7.625,21.706c0,0-2.104-18.453-15.531-16.8c0,0-10.365,2.263-8.129,17.549c0,0-4.357-10.353-14.285-7.069
					c0,0-10.123,2.462-6.455,34.519l2.264,54.713C24.936,298.692,26.5,317.573,38.258,327.334z"/>
			</g>
			<path style="fill:#E6E7E8;" d="M108.186,201.967c3.145,2.91,5.004,6.407,6.211,10.189l-0.004-0.109l-0.729-5.841
				c0,0,0.096-14.184-9.588-15.845c0,0-9.367-1.866-13.033,8.626C95.773,195.577,104.098,198.186,108.186,201.967z"/>
			<g>
				<path style="fill:#E6E7E8;" d="M76.506,200.068c-2.568,1.829-3.631,6.277-4.459,9.104c-0.879,3.003-1.682,6.091-2.146,9.197
					c-1.059-1.101-1.984-2.365-2.943-3.588c-2.146-19.993,7.74-20.707,7.74-20.707c8.293-0.564,11.879,5.887,13.428,11.382
					C85.768,200.699,81.506,196.504,76.506,200.068z"/>
				<path style="fill:#E6E7E8;" d="M89.244,371.709c-0.08,0.432-0.207,3.605-0.363,8.412h15.574l0.926-51.712l29.611-29.716
					c0,0,5.99-3.128,2.471-27.85c0,0-2.143-21.862,2.424-32.112c0,0,0.689-1.05-0.799-1.6c-0.094-0.034-0.195-0.069-0.299-0.103
					c-0.717,1.902-1.527,3.775-2.31,5.65c-2.615,6.249-4.029,12.532-4.463,19.295c-0.682,10.678,0.473,21.366-4.955,31.038
					c-8.264,14.726-25.854,21.031-39.777,29.025C91.715,328.972,90.637,364.061,89.244,371.709z"/>
				<path style="fill:#E6E7E8;" d="M38.258,327.334l0.9,52.787h15.77c1.861-10.896,4.182-44.226,7.023-45.057
					c-9.287-3.06-17.203-8.638-22.656-16.941c-5.705-8.683-8.055-19.197-9.27-29.373c-0.736-6.146-0.895-12.324-1.133-18.503
					c-0.314-8.131-0.693-16.263-0.56-24.402c0.101-6.109,0.359-12.466,1.514-18.486c0.705-3.672,3.154-9.361,7.691-9.192
					c1.246,0.048,2.412,0.828,3.43,1.467c0.867,0.544,1.727,1.085,2.633,1.566c1.559,0.831,1.504-0.168,2.08-1.471
					c1.576-3.58,3.836-7.014,7.258-9.048c3.039-1.802,6.941-1.72,9.922,0.101c1.621,0.991,2.863,2.432,4.049,3.939
					c-0.691-3.896-3.898-17.15-15.367-15.739c0,0-10.365,2.263-8.129,17.549c0,0-4.357-10.353-14.285-7.069
					c0,0-10.123,2.462-6.455,34.519l2.264,54.713C24.936,298.692,26.5,317.573,38.258,327.334z"/>
			</g>
			
				<line style="fill:none;stroke:#BCBEC0;stroke-width:0.505;stroke-miterlimit:10;" x1="89.193" y1="211.244" x2="89.875" y2="232.268"/>
			
				<line style="fill:none;stroke:#BCBEC0;stroke-width:0.505;stroke-miterlimit:10;" x1="66.891" y1="214.156" x2="67.572" y2="235.182"/>
			
				<line style="fill:none;stroke:#BCBEC0;stroke-width:0.505;stroke-miterlimit:10;" x1="43.15" y1="216.037" x2="43.832" y2="237.062"/>
		</g>
	</g>
	<g>
		<path style="fill:#EB464D;" d="M396.635,261.603h-0.01c4.385-8.134,6.828-17.456,6.695-27.35
			c-0.418-30.995-25.883-55.783-56.877-55.364c-30.996,0.418-55.783,25.883-55.363,56.878c0.131,9.892,2.828,19.148,7.428,27.158
			H298.5l0.078,0.116c1.193,2.063,2.506,4.049,3.943,5.935l46.072,69.341l44.184-70.558c1.385-1.926,2.646-3.945,3.783-6.04
			L396.635,261.603z"/>
		<path style="fill:#FFFFFF;" d="M393.258,233.172c0.344,25.438-20,46.337-45.436,46.681c-25.438,0.342-46.338-20.001-46.68-45.439
			c-0.344-25.435,20-46.338,45.436-46.68C372.014,187.391,392.916,207.734,393.258,233.172z"/>
		<path style="fill:#EB464D;" d="M384.108,233.293c0.279,20.384-16.023,37.131-36.406,37.409
			c-20.383,0.273-37.133-16.026-37.408-36.413c-0.277-20.383,16.029-37.129,36.41-37.404
			C367.088,196.609,383.834,212.91,384.108,233.293z"/>
		<g>
			
				<rect x="328.438" y="228.017" style="fill:none;stroke:#FFFFFF;stroke-width:1.8798;stroke-miterlimit:10;" width="37.523" height="26.018"/>
			<g>
				
					<rect x="347.025" y="238.232" style="fill:none;stroke:#FFFFFF;stroke-width:1.8798;stroke-miterlimit:10;" width="15.67" height="15.802"/>
				
					<line style="fill:none;stroke:#FFFFFF;stroke-width:1.8798;stroke-miterlimit:10;" x1="354.861" y1="238.232" x2="354.861" y2="254.034"/>
				<path style="fill:#FFFFFF;" d="M357.52,245.762c0,0.394-0.32,0.715-0.713,0.715c-0.395,0-0.713-0.321-0.713-0.715
					c0-0.392,0.318-0.713,0.713-0.713C357.199,245.049,357.52,245.37,357.52,245.762z"/>
				<path style="fill:#FFFFFF;" d="M353.877,245.762c0,0.394-0.318,0.715-0.711,0.715c-0.395,0-0.713-0.321-0.713-0.715
					c0-0.392,0.318-0.713,0.713-0.713C353.559,245.049,353.877,245.37,353.877,245.762z"/>
			</g>
			<g>
				
					<rect x="330.742" y="237.544" style="fill:none;stroke:#FFFFFF;stroke-width:1.8798;stroke-miterlimit:10;" width="13.729" height="11.384"/>
				
					<line style="fill:none;stroke:#FFFFFF;stroke-width:1.8798;stroke-miterlimit:10;" x1="344.471" y1="243.235" x2="330.742" y2="243.235"/>
				
					<line style="fill:none;stroke:#FFFFFF;stroke-width:1.8798;stroke-miterlimit:10;" x1="337.608" y1="237.544" x2="337.608" y2="248.928"/>
			</g>
			<polygon style="fill:none;stroke:#FFFFFF;stroke-width:1.8798;stroke-miterlimit:10;" points="324.15,228.017 370.25,228.017 
				347.283,207.958 			"/>
		</g>
		<path style="fill:#A7A9AC;" d="M345.768,178.915c-30.678,0.776-55.104,26.083-54.688,56.852
			c0.131,9.892,2.828,19.148,7.428,27.158H298.5l0.078,0.116c1.193,2.063,2.506,4.049,3.943,5.935l45.383,68.306L345.768,178.915z"
			/>
	</g>
</g>
</svg>
