<?xml version="1.0" encoding="utf-8"?>
<!-- Generator: Adobe Illustrator 27.5.0, SVG Export Plug-In . SVG Version: 6.00 Build 0)  -->
<svg version="1.1" id="Layer_1" xmlns="http://www.w3.org/2000/svg" xmlns:xlink="http://www.w3.org/1999/xlink" x="0px" y="0px"
	 viewBox="0 0 538.639 615.837" style="enable-background:new 0 0 538.639 615.837;" xml:space="preserve">
<g>
	<g>
		
			<radialGradient id="SVGID_1_" cx="1801.3724" cy="-4341.0801" r="563.8021" gradientTransform="matrix(0.4825 -0.8759 0.8759 0.4825 2989.999 4263.4941)" gradientUnits="userSpaceOnUse">
			<stop  offset="0" style="stop-color:#E3F3FC"/>
			<stop  offset="0.4724" style="stop-color:#00BBF1"/>
			<stop  offset="0.9794" style="stop-color:#00466C"/>
		</radialGradient>
		<path style="fill:url(#SVGID_1_);" d="M395.341,116.586c126.353,69.604,172.355,228.454,102.756,354.8
			C428.493,597.74,269.649,643.737,143.295,574.133C16.951,504.535-29.061,345.69,40.542,219.336
			C110.142,92.99,268.997,46.987,395.341,116.586z"/>
		
			<radialGradient id="SVGID_00000120539881664174350340000017816136813774577288_" cx="1854.6844" cy="-4232.8135" r="652.4834" gradientTransform="matrix(0.4825 -0.8759 0.8759 0.4825 2989.999 4263.4941)" gradientUnits="userSpaceOnUse">
			<stop  offset="0" style="stop-color:#E3F3FC"/>
			<stop  offset="0.4724" style="stop-color:#00BBF1"/>
			<stop  offset="0.9794" style="stop-color:#00466C"/>
		</radialGradient>
		<path style="fill:url(#SVGID_00000120539881664174350340000017816136813774577288_);" d="M40.542,219.336
			C-29.061,345.69,16.951,504.535,143.295,574.133c126.354,69.604,285.198,23.608,354.803-102.747
			c69.599-126.346,23.597-285.196-102.756-354.8C268.997,46.987,110.142,92.99,40.542,219.336z M426.789,454.382
			c-57.598,104.56-189.059,142.632-293.617,85.035C28.609,481.816-9.459,350.358,48.139,245.798
			c57.598-104.56,189.055-142.635,293.62-85.034C446.317,218.361,484.388,349.822,426.789,454.382z"/>
		<g>
			
				<radialGradient id="SVGID_00000079478223337631389770000017602940253112347827_" cx="1978.3494" cy="-4458.3779" r="84.2582" gradientTransform="matrix(0.4825 -0.8759 0.8759 0.4825 2989.999 4263.4941)" gradientUnits="userSpaceOnUse">
				<stop  offset="0" style="stop-color:#E3F3FC"/>
				<stop  offset="0.4724" style="stop-color:#00BBF1"/>
				<stop  offset="0.9794" style="stop-color:#00466C"/>
			</radialGradient>
			<path style="fill:url(#SVGID_00000079478223337631389770000017602940253112347827_);" d="M58.544,478.038
				c-2.866-7.391,1.143-14.309,1.372-21.689c0.316-9.831-10.614-12.763-10.524-21.166c0.064-5.889,6.549-9.809,6.404-16.001
				c-0.105-4.302-3.953-7.711-5.879-9.547c-1.93-1.839-1.27-8.04-0.797-10.747c0.474-2.704,4.402-7.366,2.988-10.292
				c-1.42-2.931,8.19-6.116,9.65-12.613c2.147-9.554-11.363-4.051-15.869-3.085c-13.512,2.889-10.945-11.814-11.205-20.344
				c-0.276-8.921-1.712-15.81-8.733-21.992c-3.849-3.413-0.411-11.44-0.243-15.654c0.232-5.907-3.265-11.52-0.839-17.347
				c2.866-6.918,18.793-26.345,5.204-31.399c-0.883-0.33-7.629-3.074-8.481-3.692c-25.994,77.376-9.273,169.526,35.259,234.902
				C57.534,492.238,59.643,480.851,58.544,478.038z"/>
			
				<radialGradient id="SVGID_00000181076574506670963050000002026289804886965164_" cx="1986.3226" cy="-4160.3604" r="504.9172" gradientTransform="matrix(0.4825 -0.8759 0.8759 0.4825 2989.999 4263.4941)" gradientUnits="userSpaceOnUse">
				<stop  offset="0" style="stop-color:#E3F3FC"/>
				<stop  offset="0.4724" style="stop-color:#00BBF1"/>
				<stop  offset="0.9794" style="stop-color:#00466C"/>
			</radialGradient>
			<path style="fill:url(#SVGID_00000181076574506670963050000002026289804886965164_);" d="M62.717,185.497
				c3.129-1.342,12.182-0.439,14.621,0.979c4.592,2.653,2.939,6.653,2.256,11.144c-1.303,8.589-1.078,18.617,4.464,26.029
				c0.48,0.012,0.963,0.019,1.431-0.038c4.185-0.541,6.608-4.178,8.329-7.702c2.653-5.439,4.549-11.146,7.812-16.289
				c3.624-5.723,7.873-10.953,11.828-16.445c7.036-9.747,11.584-21.471,19.773-30.373c7.15-7.777,16.434-9.422,26.596-10.537
				c12.495-1.368,23.723-2.201,34.32-9.574c9.037-6.281,16.622-10.355,27.903-8.928c14.287,1.82,27.144-1.773,41.25-3.04
				c5.769-0.52,11.754-0.77,17.339,1.003c5.791,1.84,9.978,7.754,13.568,12.239c0.445,0.542,0.49,1.156,0.021,1.715
				c-2.285,2.766-4.78,5.193-7.567,7.406c2.815,1.968,5.598,4.432,6.18,7.941c0.03,0.142,0.018,0.28,0.042,0.415
				c2.946-0.177,5.406-0.26,6.377,0.339c2.48,1.527,6.326,1.529,8.453,2.921c2.121,1.391,9.878,7.3,14.648,4.803
				c4.774-2.494,9.858,0.197,11.479-1.439c1.617-1.63,6.205-1.966-0.85-10.86c-7.062-8.893-7.971-3.14-7.062-8.893
				c0.907-5.75,5.602-5.833,9.096-2.114c3.49,3.723,4.04,5.545,7.886,5.553c3.854-0.001,12.475,5.206,14.503,9.607
				c2.026,4.399,7.82,11.206,13.37,11.016c5.537-0.175,6.716,4.315,7.952,7.003c1.244,2.685,5.326,10.277,8.561,10.862
				c3.229,0.588,8.392,0.874,10.987-1.209c2.595-2.09,6.941-6.162,5.76-10.652c-1.18-4.493-6.082-9.343-2.675-14.165
				c3.405-4.823-0.157-13.847-3.532-21.175c-3.242-7.035-11.928-9.379-11.953-17.202C275.309,60.887,136.808,90.058,62.717,185.497z
				"/>
			
				<radialGradient id="SVGID_00000023282823769188404530000004696675738620474287_" cx="1978.96" cy="-4162.4629" r="514.0882" gradientTransform="matrix(0.4825 -0.8759 0.8759 0.4825 2989.999 4263.4941)" gradientUnits="userSpaceOnUse">
				<stop  offset="0" style="stop-color:#E3F3FC"/>
				<stop  offset="0.4724" style="stop-color:#00BBF1"/>
				<stop  offset="0.9794" style="stop-color:#00466C"/>
			</radialGradient>
			<path style="fill:url(#SVGID_00000023282823769188404530000004696675738620474287_);" d="M436.612,165.651
				c6.534,6.462,8.89,15.452,9.041,18.343c0.143,2.893,6.389,6.263,11.451,10.714c11.482,10.11,34.362,13.639,34.563,13.536
				c-14.547-23.626-34.126-42.091-56.262-60.333C434.074,151.488,431.446,160.54,436.612,165.651z"/>
			
				<radialGradient id="SVGID_00000067953176964234525870000000706160843918651320_" cx="1990.5498" cy="-4160.9971" r="504.4951" gradientTransform="matrix(0.4825 -0.8759 0.8759 0.4825 2989.999 4263.4941)" gradientUnits="userSpaceOnUse">
				<stop  offset="0" style="stop-color:#E3F3FC"/>
				<stop  offset="0.4724" style="stop-color:#00BBF1"/>
				<stop  offset="0.9794" style="stop-color:#00466C"/>
			</radialGradient>
			<path style="fill:url(#SVGID_00000067953176964234525870000000706160843918651320_);" d="M366.629,264.11
				c-7.683,0.55-10.41,6.115-14.854,2.21c-4.443-3.908-9.92-5.018-12.647-3.766c-2.732,1.263-12.141-2.673-7.703,5.534
				c4.447,8.207,5.656,12.276,6.095,15.377c0.435,3.109,2.452,3.173,6.204,7.728c3.74,4.553,2.145,12.572,1.936,14.974
				c-0.213,2.417-1.736-0.194-8.114-2.544c-6.374-2.353-6.032-4.494-12.335-5.229c-6.283-0.745-1.38-2.999-11.404-0.364
				c-10.033,2.633-10.599,7.849-15.522,2.184c-4.931-5.662-5.176-10.512-5.196-14.14c-0.014-3.626-4.035-20.955,1.485-25.479
				c5.526-4.532,9.217-10.859,8.799-14.633c-0.402-3.782,3.183-11.06-2.291-12.169c-5.473-1.123-9.046,1.186-11.579,4.996
				c-2.546,3.824-8.298,7.13-11.359,6.227c-3.056-0.909-2.721-3.043-10.441-1.139c-7.721,1.9-12.143,1.624-14.834,1.535
				c-2.685-0.089-10.299-1.536-22.331-7.57c-12.03-6.022-11.378-9.633-16.039-6.826c-4.653,2.811-8.534-2.021-11.51-5.608
				c-2.977-3.59-2.864-11.239-9.745-10.393c-6.885,0.861-4.993-3.657-11.092-1.833l-5.583,2.241c0,0-4.642,2.126-6.52,2.342
				c-1.897,0.208-5.207,3.065-6.214,5.174c-1.014,2.12-8.203,12.373-11.807,16.02c-3.614,3.649-0.559,13.151-2.592,18.055
				c-2.036,4.906-3.717,7.005,3.64,7.913c7.367,0.906,7.778,4.688,12.516,3.49c4.745-1.186,13.264,1.5,15.314,4.523
				c2.057,3.02-0.879,23.216,4.025,29.552c4.902,6.341,5.472,9.717,4.422,13.174c-1.056,3.463,0.656,12.923,3.918,15.716
				c3.28,2.793,9.003,4.454,9.757,6.089c0.754,1.64,2.948,4.264,2.781,9.633c-0.177,5.373-3.204,20.32-3.186,23.952
				c0.023,3.625-3.239,13.065,0.237,22.047c3.469,8.976-3.281,10.108,6.064,20.346c9.345,10.245,3.951,15.046,11.316,15.957
				c7.361,0.906,27.469,6.521,30.615,13.336c3.134,6.81,10.06,21.16,14.216,25.858c4.143,4.695,15.248,10.833,17.5,15.739
				c2.269,4.915,5.009,11.584,8.693,13.855c3.691,2.267,13.951,5.147,18.565,3.682c4.614-1.463,17.934-1.979,22.986-0.339
				c5.055,1.643,18.981-1.135,28.553-6.204c9.567-5.069,14.754-3.159,17.627-9.115c2.876-5.95-0.619-5.66-7.211-5.608
				c-6.584,0.064-6.351-3.019-16.063-1.851c-9.719,1.163-3.99,2.832-12.498,0.138c-8.52-2.698-12.985-5.931-16.648-13.162
				c-3.671-7.24-6.034-13.098-8.715-17.485c-2.68-4.388-2.672-17.288,3.258-30.266c5.915-12.979,9.266,0.031,18.358-15.399
				c9.098-15.432,24.993-8.202,29.054-25.948c4.062-17.736-3.194-22-3.482-29.804c-0.277-7.805,41.331-10.769,43.712-26.416
				c2.386-15.644,8.814-6.702,3.671-22.189c-5.15-15.48-3.805-24.038-15.936-26.715C384.346,268.843,374.306,263.549,366.629,264.11
				z"/>
			
				<radialGradient id="SVGID_00000139272951381723997930000018315410796676470153_" cx="1990.1643" cy="-4158.9067" r="504.4471" gradientTransform="matrix(0.4825 -0.8759 0.8759 0.4825 2989.999 4263.4941)" gradientUnits="userSpaceOnUse">
				<stop  offset="0" style="stop-color:#E3F3FC"/>
				<stop  offset="0.4724" style="stop-color:#00BBF1"/>
				<stop  offset="0.9794" style="stop-color:#00466C"/>
			</radialGradient>
			<path style="fill:url(#SVGID_00000139272951381723997930000018315410796676470153_);" d="M243.502,167.356
				c-7.551-2.182-14.932-7.399-23.049-7.053c-7.084,0.305-13.704,4.499-16.652,11.006c-2.88,6.35-1.624,16.351,1.462,22.366
				c1.64,3.206,3.658,6.187,7.461,6.544c2.371,0.218,10.536-4.932,12.439-2.724c7.683,8.858,23.525,1.446,30.568,10.888
				c1.948,2.601,1.062,5.66,2.532,8.358c3.874,7.11,14.182,11.955,22.042,12.149c3.026,0.068,10.659-0.773,11.098-5.051
				c0.346-3.417-4.427-4.041-6-6.152c-7.218-9.626-11.713-23.838-13.362-35.6c-0.747-5.375-1.989-9.438-4.408-11.99
				c-4.126-4.369-10.132-3.026-15.557-2.667C249.273,167.604,246.266,168.161,243.502,167.356z"/>
		</g>
		<g>
			<path style="fill:#B7D333;" d="M53.14,479.031c-2.92-7.503,1.154-14.523,1.39-22.014c0.324-9.975-10.777-12.957-10.684-21.477
				c0.067-5.986,6.643-9.962,6.498-16.245c-0.106-4.368-4.014-7.826-5.968-9.689c-1.953-1.866-1.285-8.165-0.808-10.904
				c0.48-2.744,4.462-7.489,3.028-10.453c-1.438-2.969,8.322-6.203,9.802-12.805c2.178-9.694-11.539-4.108-16.108-3.137
				c-13.717,2.935-11.11-11.981-11.372-20.644c-0.283-9.048-1.735-16.042-8.867-22.314c-3.912-3.465-0.413-11.617-0.244-15.895
				c0.232-5.999-3.321-11.693-0.861-17.611c2.92-7.018,19.086-26.735,5.289-31.868c-0.89-0.333-1.774-0.876-2.643-1.503
				C-4.789,341.011,8.331,426.25,53.532,492.603C54.232,487.397,54.256,481.892,53.14,479.031z"/>
			<path style="fill:#B7D333;" d="M63.18,184.926c3.179-1.374,6.549-3.276,9.026-1.84c4.671,2.702,2.99,6.756,2.292,11.318
				c-1.325,8.719-1.088,18.889,4.535,26.419c0.491,0.012,0.977,0.019,1.455-0.042c4.244-0.544,6.706-4.241,8.45-7.821
				c2.693-5.513,4.615-11.305,7.926-16.53c3.684-5.814,7.993-11.118,12.012-16.691c7.132-9.891,11.757-21.794,20.064-30.828
				c7.258-7.893,16.681-9.565,27-10.697c12.684-1.389,24.076-2.236,34.836-9.717c9.178-6.381,16.876-10.514,28.328-9.058
				c14.497,1.844,27.544-1.811,41.861-3.092c5.859-0.528,11.936-0.78,17.602,1.018c5.87,1.873,10.131,7.862,13.773,12.426
				c0.444,0.55,0.49,1.16,0.016,1.74c-2.313,2.806-4.854,5.274-7.68,7.521c2.857,1.982,5.687,4.49,6.27,8.057
				c0.031,0.138,0.018,0.279,0.044,0.422c2.998-0.185,5.489-0.259,6.477,0.343c2.512,1.545,6.428,1.55,8.574,2.967
				c2.155,1.408,10.028,7.4,14.876,4.874c4.843-2.539,10.008,0.192,11.646-1.462c1.641-1.663,6.298-1.997-0.862-11.028
				c-7.169-9.019-8.089-3.183-7.169-9.019c0.921-5.841,5.691-5.924,9.234-2.153c3.547,3.783,4.098,5.631,8.007,5.636
				c3.912,0.005,12.655,5.289,14.712,9.75c2.06,4.47,7.943,11.38,13.573,11.189c5.622-0.182,6.819,4.378,8.08,7.1
				c1.25,2.735,5.404,10.431,8.682,11.03c3.282,0.594,8.523,0.885,11.153-1.231c2.639-2.115,7.048-6.246,5.849-10.806
				c-1.199-4.56-6.172-9.479-2.712-14.384c3.448-4.893-0.165-14.051-3.594-21.496c-3.288-7.138-12.106-9.516-12.131-17.455
				C273.153,55.617,138.388,88.051,63.18,184.926z"/>
			<path style="fill:#B7D333;" d="M436.88,161.954c6.629,6.564,9.026,15.68,9.175,18.613c0.152,2.941,6.132,6.795,11.622,10.889
				c5.493,4.084,33.664,16.954,33.664,16.954s0.12-0.056,0.324-0.166c-14.764-23.983-33.541-45.783-56.006-64.298
				C434.303,147.579,431.636,156.764,436.88,161.954z"/>
			<path style="fill:#B7D333;" d="M362.812,265.12c-7.792,0.57-10.558,6.207-15.073,2.248c-4.509-3.964-10.07-5.092-12.835-3.818
				c-2.775,1.279-12.325-2.713-7.815,5.608c4.511,8.336,5.738,12.461,6.18,15.614c0.441,3.154,2.484,3.216,6.3,7.846
				c3.803,4.618,2.175,12.75,1.969,15.194c-0.225,2.452-1.773-0.191-8.244-2.585c-6.468-2.385-6.12-4.555-12.518-5.307
				c-6.382-0.748-1.393-3.049-11.58-0.366c-10.181,2.667-10.753,7.966-15.747,2.213c-5.001-5.747-5.255-10.666-5.278-14.347
				c-0.017-3.678-4.09-21.273,1.514-25.868c5.603-4.597,9.354-11.022,8.933-14.854c-0.423-3.837,3.224-11.214-2.336-12.348
				c-5.551-1.135-9.178,1.199-11.754,5.079c-2.574,3.872-8.413,7.229-11.523,6.317c-3.106-0.922-2.77-3.093-10.603-1.16
				c-7.831,1.927-12.327,1.647-15.05,1.559c-2.729-0.089-10.455-1.565-22.669-7.681c-12.211-6.122-11.549-9.781-16.285-6.931
				c-4.725,2.849-8.659-2.048-11.673-5.697c-3.028-3.639-2.918-11.407-9.896-10.545c-6.988,0.872-5.07-3.706-11.255-1.859
				l-5.669,2.269c0,0-4.705,2.169-6.627,2.386c-1.913,0.211-5.28,3.102-6.305,5.256c-1.023,2.143-8.318,12.551-11.979,16.255
				c-3.666,3.699-0.562,13.349-2.634,18.327c-2.067,4.98-3.768,7.111,3.702,8.027c7.469,0.918,7.89,4.761,12.699,3.544
				c4.82-1.211,13.461,1.521,15.545,4.591c2.09,3.06-0.892,23.563,4.082,29.998c4.982,6.435,5.554,9.865,4.489,13.378
				c-1.075,3.509,0.667,13.114,3.981,15.946c3.325,2.834,9.135,4.515,9.898,6.176c0.768,1.669,2.997,4.331,2.823,9.78
				c-0.172,5.454-3.25,20.621-3.23,24.314c0.021,3.68-3.294,13.261,0.242,22.376c3.52,9.113-3.337,10.259,6.151,20.654
				c9.487,10.397,4.019,15.269,11.483,16.193c7.476,0.918,27.882,6.616,31.08,13.54c3.184,6.913,10.214,21.468,14.433,26.24
				c4.21,4.773,15.474,10.995,17.764,15.981c2.301,4.982,5.08,11.757,8.823,14.056c3.751,2.302,14.154,5.231,18.836,3.737
				c4.69-1.479,18.21-2,23.335-0.336c5.126,1.663,19.267-1.158,28.981-6.303c9.713-5.144,14.973-3.207,17.893-9.247
				c2.922-6.046-0.633-5.748-7.313-5.685c-6.686,0.058-6.456-3.075-16.314-1.895c-9.855,1.192-4.047,2.876-12.686,0.144
				c-8.644-2.734-13.178-6.014-16.9-13.358c-3.717-7.348-6.116-13.292-8.839-17.744c-2.721-4.453-2.711-17.544,3.305-30.721
				c6.007-13.174,9.411,0.024,18.638-15.638c9.232-15.658,25.368-8.318,29.491-26.325c4.115-18.006-3.248-22.335-3.533-30.265
				c-0.288-7.912,41.949-10.922,44.37-26.802c2.407-15.878,8.941-6.805,3.719-22.53c-5.228-15.712-3.855-24.397-16.182-27.112
				C380.805,269.925,370.608,264.555,362.812,265.12z"/>
			<path style="fill:#B7D333;" d="M236.115,165.527c-7.662-2.223-15.163-7.518-23.394-7.159
				c-7.191,0.303-13.905,4.561-16.905,11.172c-2.922,6.44-1.643,16.591,1.483,22.7c1.666,3.254,3.714,6.278,7.572,6.633
				c2.407,0.223,10.695-4.992,12.629-2.763c7.803,8.995,23.873,1.478,31.038,11.054c1.97,2.638,1.062,5.749,2.556,8.485
				c3.925,7.215,14.406,12.137,22.376,12.326c3.072,0.073,10.819-0.784,11.265-5.121c0.347-3.467-4.496-4.106-6.09-6.238
				c-7.329-9.779-11.882-24.203-13.559-36.142c-0.764-5.452-2.025-9.577-4.475-12.165c-4.201-4.438-10.283-3.078-15.796-2.719
				C241.973,165.779,238.921,166.337,236.115,165.527z"/>
		</g>
		<g>
			<path style="fill:#B7D333;" d="M52.134,475.915c-1.988-8.114-6.045-14.184-10.993-20.846c-5.208-7.01-10.919-14.29-13.586-22.74
				c-2.888-9.166-4.194-18.746-5.181-28.275c-1.194-11.555-1.762-23.425-4.51-34.74c-1.143-4.707-3.763-8.461-5.544-12.886
				c-1.603-3.977-3.033-8.012-4.227-12.133c-0.163,52.757,15.68,104.626,45.44,148.308c0.304-2.232,0.466-4.509,0.478-6.624
				C53.609,482.134,52.738,478.393,52.134,475.915z"/>
			<path style="fill:#B7D333;" d="M398.789,169.09c-3.462,2.921-8.22,2.28-11.808-0.142c-4.593-3.116-7.319-6.633-8.372-12.115
				c-1.693-8.809-12.803-8.223-19.005-12.979c-7.817-6.007-11.218-16.767-21.54-19.508c-8.632-2.295-17.509-0.818-26.307-1.031
				c1.402,7.423,3.279,14.705,7.175,21.268c0.435,0.733-0.064,1.942-1.023,1.857c-7.51-0.657-21.41,0.117-21.016-10.448
				c0.124-3.296,1.385-6.483,1.44-9.786c0.064-4.273-2.251-7.527-5.212-10.463c-4.549-4.492-9.742-8.186-14.622-12.277
				c-2.671,5.773-4.542,7.527-11.806,8.732c-9.862,1.633-20.067-0.726-29.987-0.65c-5.408,0.038-10.715-0.512-16.02-1.559
				c-4.165-0.826-8.956-2.668-13.251-2.495c-2.93,0.108-4.63,3.147-6.603,4.973c-3.169,2.932-6.564,5.522-10.438,7.463
				c-4.916,2.471-10.023,4.429-15.122,6.491c-4.748,1.922-9.31,4.286-14.332,5.419c-10.17,2.312-23.445,1.182-32.009,7.798
				c-9.324,7.222-11.613,19.163-17.641,28.719c-6.09,9.673-12.622,19.179-21.609,26.4c-0.674,0.536-1.41,0.445-1.944-0.229
				c-3.17-4.061-8.041-17.25-14.871-14.729c-3.16,1.181-5.811,3.273-8.908,4.161c-0.253,0.322-0.522,0.631-0.78,0.964
				c3.179-1.374,6.549-3.276,9.026-1.84c4.671,2.702,2.99,6.756,2.292,11.318c-1.325,8.719-1.088,18.889,4.535,26.419
				c0.491,0.012,0.977,0.019,1.455-0.042c4.244-0.544,6.706-4.241,8.45-7.821c2.693-5.513,4.615-11.305,7.926-16.53
				c3.684-5.814,7.993-11.118,12.012-16.691c7.132-9.891,11.757-21.794,20.064-30.828c7.258-7.893,16.681-9.565,27-10.697
				c12.684-1.389,24.076-2.236,34.836-9.717c9.178-6.381,16.876-10.514,28.328-9.058c14.497,1.844,27.544-1.811,41.861-3.092
				c5.859-0.528,11.936-0.78,17.602,1.018c5.87,1.873,10.131,7.862,13.773,12.426c0.444,0.55,0.49,1.16,0.016,1.74
				c-2.313,2.806-4.854,5.274-7.68,7.521c2.857,1.982,5.687,4.49,6.27,8.057c0.031,0.138,0.018,0.279,0.044,0.422
				c2.998-0.185,5.489-0.259,6.477,0.343c2.512,1.545,6.428,1.55,8.574,2.967c2.155,1.408,10.028,7.4,14.876,4.874
				c4.843-2.539,10.008,0.192,11.646-1.462c1.641-1.663,6.298-1.997-0.862-11.028c-7.169-9.019-8.089-3.183-7.169-9.019
				c0.921-5.841,5.691-5.924,9.234-2.153c3.547,3.783,4.098,5.631,8.007,5.636c3.912,0.005,12.655,5.289,14.712,9.75
				c2.06,4.47,7.943,11.38,13.573,11.189c5.622-0.182,6.819,4.378,8.08,7.1c1.25,2.735,5.404,10.431,8.682,11.03
				c3.282,0.594,8.523,0.885,11.153-1.231c2.639-2.115,7.048-6.246,5.849-10.806c-0.43-1.631-1.336-3.31-2.177-5.02
				C401.83,163.266,401.503,166.803,398.789,169.09z"/>
			<path style="fill:#B7D333;" d="M479.59,197.157c-6.325-6.121-18.941-2.809-22.554-12.369c-1.446-3.847-1.439-7.732-1.53-11.795
				c-0.132-6.43-1.928-10.104-5.787-15.132c-0.921-1.2-1.748-2.459-2.516-3.74c-3.746-3.475-7.571-6.888-11.543-10.175
				c-1.357,3.633-4.024,12.817,1.22,18.008c6.629,6.564,9.026,15.68,9.175,18.613c0.152,2.941,6.132,6.795,11.622,10.889
				c4.157,3.089,21.305,11.213,29.391,14.98C484.295,203.223,481.826,199.324,479.59,197.157z"/>
			<path style="fill:#B7D333;" d="M358.748,498.535c-4.862,1.646-13.366,4.92-18.428,2.13c-1.83-1.008-3.306-2.553-5.115-3.549
				c-3.112-1.715-7.107-0.424-10.318,0.31c-4.583,1.052-9.062,1.642-13.709,2.401c-7.487,1.213-14.06,0.771-19.985-4.449
				c-6.864-6.063-9.774-14.661-15.233-21.775c-5.876-7.656-15.762-11.344-20.705-19.646c-4.364-7.349-4.71-18.379-11.1-24.321
				c-7.119-6.625-16.501-4.633-24.965-7.604c-11.728-4.127-16.909-14.875-16.452-26.697c0.176-4.53,0.395-9.002-0.684-13.454
				c-0.674-2.808-1.614-5.734-1.698-8.655c-0.208-7.181,2.777-14.695,4.878-21.485c1.748-5.631,3.207-10.77,7.168-15.261
				c0.796-0.903,4.907-4.585,3.251-6c-2.703-2.308-6.713-3.224-10.108-3.98c-8.532-1.893-14.039-1.623-15.203-11.595
				c-1.613-13.902-10.643-26.272-10.182-40.405c0.074-2.189,0.952-4.331,1.818-6.309c0.46-1.057,1.097-2.165,1.258-3.314
				c0.544-3.575-5.803-4.836-7.594-4.306c-2.524,0.741-8.846,3.094-10.541-0.523c-1.629-3.481-1.515-8.902-7.323-7.433
				c-2.497,0.629-4.929,1.482-7.452,2.045c-2.215,0.506-5.483,0.235-6.334-2.373c-1.27-3.904,1.551-8.231,3.555-11.385
				c2.082-3.269,3.457-6.546,4.402-9.986c-2.401,3.319-5.132,6.832-6.957,8.681c-3.666,3.699-0.562,13.349-2.634,18.327
				c-2.067,4.98-3.768,7.111,3.702,8.027c7.469,0.918,7.89,4.761,12.699,3.544c4.82-1.211,13.461,1.521,15.545,4.591
				c2.09,3.06-0.892,23.563,4.082,29.998c4.982,6.435,5.554,9.865,4.489,13.378c-1.075,3.509,0.667,13.114,3.981,15.946
				c3.325,2.834,9.135,4.515,9.898,6.176c0.768,1.669,2.997,4.331,2.823,9.78c-0.172,5.454-3.25,20.621-3.23,24.314
				c0.021,3.68-3.294,13.261,0.242,22.376c3.52,9.113-3.337,10.259,6.151,20.654c9.487,10.397,4.019,15.269,11.483,16.193
				c7.476,0.918,27.882,6.616,31.08,13.54c3.184,6.913,10.214,21.468,14.433,26.24c4.21,4.773,15.474,10.995,17.764,15.981
				c2.301,4.982,5.08,11.757,8.823,14.056c3.751,2.302,14.154,5.231,18.836,3.737c4.69-1.479,18.21-2,23.335-0.336
				c5.126,1.663,19.267-1.158,28.981-6.303c5.508-2.916,9.581-3.555,12.611-4.664C366.309,495.868,362.528,497.251,358.748,498.535z
				"/>
			<path style="fill:#B7D333;" d="M403.392,313.822c-3.575,6.185-2.014,13.686-9.645,17.161c-7.276,3.315-15.844,5.155-23.857,5.155
				c-2.928,0.008-6.124-0.759-8.75,0.899c-3.877,2.441-7.859,5.574-11.043,8.896c-9.006,9.404,0.405,14.133,5.056,22.209
				c2.842,4.94,4.511,11.835,1.051,16.886c-2.182,3.189-4.742,6.094-6.755,9.383c6.664-2.76,12.942-4.775,15.301-15.063
				c4.115-18.006-3.248-22.335-3.533-30.265c-0.288-7.912,41.949-10.922,44.37-26.802c1.714-11.268,5.479-10.003,5.665-13.917
				C408.241,309.446,405.282,310.541,403.392,313.822z"/>
			<path style="fill:#B7D333;" d="M278.858,223.066c-5.11,1.183-10.839-1.411-15.499-3.183c-4.401-1.677-6.691-3.741-8.195-8.232
				c-1.684-5.039-3.313-15.047-9.817-15.518c-7.48-0.541-13.71-2.796-20.495-5.859c-4.68-2.122-9.78-4.549-15.074-3.952
				c-2.008,0.225-4.68,1.466-6.74,1.29c-3.769-0.32-6.734-3.236-8.767-7.046c0.3,4.259,1.414,8.508,3.028,11.673
				c1.666,3.254,3.714,6.278,7.572,6.633c2.407,0.223,10.695-4.992,12.629-2.763c7.803,8.995,23.873,1.478,31.038,11.054
				c1.97,2.638,1.062,5.749,2.556,8.485c3.925,7.215,14.406,12.137,22.376,12.326c3.072,0.073,10.819-0.784,11.265-5.121
				c0.084-0.855-0.152-1.525-0.568-2.102C282.527,221.756,280.793,222.616,278.858,223.066z"/>
		</g>
		<path style="opacity:0.7;fill:#C3E8FA;" d="M293.771,587.131c-65.933,4.011-114.49-8.884-148.425-24.862
			c-0.111-0.04-0.222-0.081-0.336-0.123c-11.15-4.498-21.877-9.744-32.096-15.774c30.909,24.809,84.773,54.856,163.202,53.169
			c132.518-2.85,208.084-102.621,228.818-162.364C504.933,437.177,446.85,577.817,293.771,587.131z"/>
	</g>
	<g>
		<g>
			<g>
				<path style="fill:#B31E23;" d="M241.306,35.182c0-14.167-11.484-25.653-25.651-25.653c-14.167,0-25.652,11.486-25.652,25.653
					c0,3.932,0.888,7.658,2.469,10.988h-0.001l0.061,0.131c0,0,0.001,0.001,0.001,0.003l23.138,49.158l23.2-49.292l-0.03-0.007
					C240.419,42.834,241.306,39.112,241.306,35.182z"/>
				<path style="fill:#FFFFFF;" d="M215.67,95.753c-0.113,0-0.217-0.064-0.265-0.167L192.27,46.432
					c-0.001-0.003-0.002-0.006-0.004-0.008l-0.06-0.131c-0.005-0.009-0.008-0.016-0.011-0.026
					c-1.648-3.482-2.484-7.212-2.484-11.086c0-14.307,11.639-25.945,25.944-25.945c14.305,0,25.943,11.638,25.943,25.945
					c0,3.84-0.82,7.539-2.441,10.996c0.002,0.041-0.004,0.08-0.02,0.117l-23.202,49.291
					C215.885,95.689,215.783,95.753,215.67,95.753z M192.799,46.184l22.871,48.594l22.885-48.622
					c-0.002-0.04,0.005-0.08,0.022-0.118c1.617-3.408,2.438-7.061,2.438-10.856c0-13.984-11.376-25.362-25.36-25.362
					c-13.984,0-25.361,11.378-25.361,25.362c0,3.798,0.823,7.453,2.443,10.863c0.005,0.009,0.008,0.019,0.011,0.029l0.046,0.097
					C192.795,46.176,192.797,46.18,192.799,46.184z"/>
			</g>
			<path style="fill:#EE1927;" d="M239.286,35.579c0-13.747-10.58-24.89-23.631-24.89c-13.051,0-23.631,11.144-23.631,24.89
				c0,3.816,0.816,7.431,2.275,10.663l-0.002,0.003l0.055,0.124c0.002,0.001,0.002,0.002,0.002,0.005l21.316,37.45l21.373-37.579
				l-0.03-0.008C238.467,43.005,239.286,39.395,239.286,35.579z"/>
			<path style="fill:#FFFFFF;" d="M232.647,32.634c0,9.383-7.608,16.992-16.992,16.992c-9.385,0-16.994-7.608-16.994-16.992
				c0-9.386,7.609-16.996,16.994-16.996C225.038,15.638,232.647,23.249,232.647,32.634z"/>
		</g>
	</g>
	<g>
		<g>
			<g>
				<path style="fill:#B31E23;" d="M236.894,253.213c0-14.166-11.484-25.652-25.651-25.652c-14.167,0-25.652,11.486-25.652,25.652
					c0,3.933,0.888,7.659,2.469,10.989h-0.001l0.061,0.131c0,0,0.001,0.001,0.001,0.003l23.138,49.157l23.199-49.291l-0.03-0.008
					C236.007,260.866,236.894,257.144,236.894,253.213z"/>
				<path style="fill:#FFFFFF;" d="M211.259,313.785c-0.113,0-0.217-0.064-0.265-0.167l-23.136-49.154
					c-0.001-0.003-0.002-0.006-0.005-0.009l-0.06-0.13c-0.004-0.008-0.008-0.017-0.011-0.026c-1.648-3.482-2.484-7.211-2.484-11.087
					c0-14.306,11.638-25.944,25.944-25.944c14.305,0,25.943,11.638,25.943,25.944c0,3.841-0.82,7.54-2.441,10.997
					c0.003,0.041-0.003,0.079-0.02,0.117l-23.202,49.291C211.473,313.721,211.371,313.785,211.259,313.785z M188.387,264.216
					l22.871,48.593l22.884-48.621c-0.002-0.04,0.004-0.081,0.021-0.117c1.617-3.408,2.438-7.061,2.438-10.857
					c0-13.983-11.376-25.361-25.36-25.361c-13.983,0-25.361,11.378-25.361,25.361c0,3.798,0.823,7.454,2.442,10.864
					c0.004,0.009,0.008,0.019,0.011,0.029l0.046,0.098C188.383,264.208,188.385,264.212,188.387,264.216z"/>
			</g>
			<path style="fill:#EE1927;" d="M234.873,253.61c0-13.746-10.58-24.89-23.631-24.89c-13.05,0-23.631,11.145-23.631,24.89
				c0,3.817,0.816,7.432,2.275,10.664l-0.002,0.002l0.055,0.125c0.002,0.001,0.002,0.002,0.002,0.005l21.316,37.45l21.373-37.58
				l-0.03-0.008C234.055,261.037,234.873,257.426,234.873,253.61z"/>
			<path style="fill:#FFFFFF;" d="M228.235,250.666c0,9.384-7.609,16.992-16.993,16.992c-9.385,0-16.993-7.608-16.993-16.992
				c0-9.385,7.609-16.996,16.993-16.996C220.626,233.67,228.235,241.281,228.235,250.666z"/>
		</g>
	</g>
	<g>
		<g>
			<g>
				<path style="fill:#B31E23;" d="M356.76,431.861c0-14.166-11.484-25.652-25.651-25.652s-25.653,11.486-25.653,25.652
					c0,3.933,0.888,7.658,2.469,10.988h-0.001l0.061,0.131c0,0,0.001,0.002,0.001,0.004l23.138,49.158l23.2-49.292l-0.031-0.007
					C355.874,439.513,356.76,435.791,356.76,431.861z"/>
				<path style="fill:#FFFFFF;" d="M331.125,492.433c-0.113,0-0.217-0.065-0.265-0.167l-23.136-49.155
					c-0.001-0.002-0.002-0.006-0.004-0.008l-0.06-0.13c-0.005-0.008-0.008-0.017-0.011-0.026c-1.648-3.482-2.484-7.211-2.484-11.087
					c0-14.305,11.638-25.944,25.944-25.944c14.304,0,25.943,11.638,25.943,25.944c0,3.84-0.821,7.54-2.442,10.997
					c0.003,0.041-0.003,0.08-0.02,0.116l-23.202,49.292C331.34,492.369,331.237,492.433,331.125,492.433z M308.254,442.863
					l22.871,48.594l22.885-48.621c-0.002-0.041,0.005-0.081,0.021-0.118c1.617-3.408,2.438-7.061,2.438-10.856
					c0-13.983-11.376-25.361-25.359-25.361c-13.984,0-25.361,11.378-25.361,25.361c0,3.798,0.823,7.453,2.443,10.863
					c0.004,0.01,0.008,0.02,0.011,0.03l0.046,0.098C308.249,442.855,308.251,442.86,308.254,442.863z"/>
			</g>
			<path style="fill:#EE1927;" d="M354.74,432.259c0-13.747-10.58-24.891-23.63-24.891c-13.051,0-23.632,11.145-23.632,24.891
				c0,3.816,0.817,7.431,2.275,10.662l-0.002,0.003l0.055,0.125c0.003,0.001,0.003,0.002,0.003,0.005l21.315,37.45l21.373-37.58
				l-0.03-0.009C353.922,439.685,354.74,436.074,354.74,432.259z"/>
			<path style="fill:#FFFFFF;" d="M348.102,429.314c0,9.384-7.608,16.991-16.992,16.991c-9.385,0-16.994-7.607-16.994-16.991
				c0-9.387,7.609-16.996,16.994-16.996C340.493,412.318,348.102,419.927,348.102,429.314z"/>
		</g>
	</g>
	<g>
		<g>
			<g>
				<path style="fill:#B31E23;" d="M498.526,127.584c0-14.166-11.484-25.652-25.652-25.652s-25.652,11.486-25.652,25.652
					c0,3.933,0.888,7.658,2.47,10.988h-0.001l0.061,0.131c0,0,0.001,0.002,0.001,0.004l23.138,49.158l23.199-49.292l-0.03-0.006
					C497.639,135.236,498.526,131.514,498.526,127.584z"/>
				<path style="fill:#FFFFFF;" d="M472.891,188.156c-0.113,0-0.217-0.064-0.265-0.167l-23.136-49.156
					c-0.001-0.002-0.002-0.006-0.005-0.007l-0.06-0.13c-0.004-0.009-0.008-0.016-0.011-0.026c-1.648-3.482-2.484-7.212-2.484-11.087
					c0-14.305,11.638-25.944,25.944-25.944c14.305,0,25.943,11.638,25.943,25.944c0,3.84-0.82,7.54-2.441,10.997
					c0.002,0.041-0.003,0.08-0.02,0.117l-23.202,49.292C473.105,188.092,473.003,188.156,472.891,188.156z M450.019,138.587
					l22.871,48.593l22.884-48.621c-0.002-0.041,0.004-0.08,0.021-0.118c1.617-3.408,2.438-7.061,2.438-10.856
					c0-13.983-11.376-25.361-25.36-25.361c-13.983,0-25.361,11.378-25.361,25.361c0,3.798,0.823,7.453,2.443,10.863
					c0.004,0.01,0.008,0.02,0.011,0.03l0.046,0.098C450.014,138.578,450.017,138.583,450.019,138.587z"/>
			</g>
			<path style="fill:#EE1927;" d="M496.505,127.982c0-13.747-10.58-24.891-23.631-24.891c-13.05,0-23.631,11.145-23.631,24.891
				c0,3.816,0.816,7.431,2.275,10.662l-0.002,0.003l0.055,0.125c0.003,0.001,0.003,0.002,0.003,0.005l21.315,37.45l21.373-37.58
				l-0.03-0.008C495.687,135.408,496.505,131.798,496.505,127.982z"/>
			<path style="fill:#FFFFFF;" d="M489.867,125.037c0,9.384-7.609,16.991-16.993,16.991c-9.385,0-16.993-7.608-16.993-16.991
				c0-9.387,7.609-16.996,16.993-16.996C482.258,108.041,489.867,115.65,489.867,125.037z"/>
		</g>
	</g>
	<g>
		<polygon style="fill:#F4F5D2;" points="48.525,118.272 80.525,163.04 163.432,123.882 128.053,69.937 		"/>
		<polygon style="fill:#E54555;" points="123.319,13.585 182.044,47.669 171.738,55.897 128.051,27.132 		"/>
		<g>
			<polygon style="fill:#821F2A;" points="124.682,17.487 128.051,27.132 171.738,55.897 180.545,48.862 126.753,18.397 			"/>
			<polygon style="fill:#480000;" points="123.319,13.585 124.682,17.487 126.753,18.397 180.545,48.862 182.044,47.669 			"/>
		</g>
		<polygon style="fill:#F3D7A2;" points="124.261,19.903 173.119,48.783 196.777,95.087 163.432,123.882 132.776,77.238 		"/>
		<g>
			<g>
				<path style="fill:#821F2A;" d="M102.566,44.124l-58.254,85.882l3.456,4.844l89.585-45.093l-3.456-4.842
					C133.898,84.916,114.479,59.416,102.566,44.124z"/>
				<path style="fill:#480000;" d="M123.3,13.553l-20.733,30.571c11.913,15.292,31.332,40.791,31.332,40.791l3.456,4.842
					l-10.601-71.361L123.3,13.553z"/>
			</g>
			<polygon style="fill:#E54555;" points="50.158,61.429 44.334,130.037 133.921,84.947 123.319,13.585 			"/>
			<path style="fill:#E54555;" d="M100.872,38.353c7.931-5.138,15.881-10.26,23.848-15.351l-1.401-9.418L50.158,61.429
				l-0.994,11.773C66.768,62.191,83.449,49.643,100.872,38.353z"/>
			<path style="fill:#E54555;" d="M71.086,73.137c9.216-6.174,18.526-12.163,27.889-18.113c9.307-5.914,18.583-11.874,27.85-17.855
				l-1.839-12.378c-8.23,5.258-16.436,10.55-24.63,15.864C83.053,51.875,66.51,64.372,48.988,75.261l-0.999,11.757
				C56.024,83.005,63.618,78.141,71.086,73.137z"/>
			<path style="fill:#E54555;" d="M67.753,86.126c9.599-6.091,19.597-11.589,29.493-17.182c10.574-5.972,21.16-11.937,31.604-18.141
				l-1.768-11.906c-9.04,5.831-18.086,11.647-27.169,17.415C89.339,63.027,78.921,69.946,68.44,76.805
				c-6.672,4.368-13.457,8.547-20.606,12.038l-0.863,10.191C54.14,95.17,60.855,90.502,67.753,86.126z"/>
			<path style="fill:#E54555;" d="M52.682,112.294c5.622-3.028,11.245-6.058,16.902-9.025c10.894-5.711,21.93-11.156,32.902-16.715
				c9.816-4.972,19.641-9.922,29.465-14.882l-2.844-19.139c-11.12,6.583-22.399,12.909-33.65,19.282
				c-9.839,5.573-19.757,11.059-29.231,17.242c-6.363,4.154-12.693,8.391-19.421,11.894l-1.263,14.891
				C47.935,114.668,50.361,113.547,52.682,112.294z"/>
			<path style="fill:#E54555;" d="M102.972,87.89c-11.444,5.8-22.965,11.467-34.312,17.46c-5.646,2.98-11.341,5.913-16.909,9.046
				c-2.072,1.167-4.225,2.171-6.36,3.207l-1.057,12.433l89.586-45.09l-1.752-11.804C122.434,78.053,112.698,82.959,102.972,87.89z"
				/>
		</g>
		<g>
			<polygon style="fill:#9E8172;" points="157.015,60.031 146.513,41.455 145.155,42.622 154.989,60.015 148.238,66.597 
				148.996,67.847 			"/>
			
				<linearGradient id="SVGID_00000017477780896663060900000011013260756927251617_" gradientUnits="userSpaceOnUse" x1="-60.8951" y1="-2559.9524" x2="-27.0094" y2="-2510.8694" gradientTransform="matrix(0.9173 -0.3981 0.3981 0.9173 1194.3643 2361.6011)">
				<stop  offset="0.0014" style="stop-color:#A1D7C6"/>
				<stop  offset="0.5172" style="stop-color:#FFFFFF"/>
				<stop  offset="1" style="stop-color:#58C8E9"/>
			</linearGradient>
			<polygon style="fill:url(#SVGID_00000017477780896663060900000011013260756927251617_);" points="145.155,42.622 137.616,49.094 
				148.238,66.597 154.989,60.015 			"/>
			<polygon style="fill:#A69570;" points="145.155,42.622 137.616,49.094 148.238,66.597 154.989,60.015 			"/>
			<path style="fill:#77CCE0;" d="M146.21,54.535c-1.669-2.844-3.335-5.691-4.964-8.56l-3.631,3.119l5.055,8.33
				C143.867,56.477,145.047,55.512,146.21,54.535z"/>
			<path style="fill:#77CCE0;" d="M143.117,58.155l5.121,8.442l3.201-3.12c-1.58-2.741-3.185-5.468-4.786-8.195
				C145.486,56.253,144.306,57.212,143.117,58.155z"/>
			<path style="fill:#77CCE0;" d="M150.054,51.286l-4.899-8.664l-3.242,2.779c1.631,2.872,3.298,5.725,4.974,8.57
				C147.944,53.082,149.003,52.185,150.054,51.286z"/>
			<path style="fill:#77CCE0;" d="M147.322,54.72c1.591,2.706,3.186,5.415,4.758,8.132l2.909-2.837l-4.502-7.973
				C149.432,52.937,148.375,53.828,147.322,54.72z"/>
		</g>
		<g>
			<polygon style="fill:#F1F9FD;" points="123.448,14.425 123.319,13.585 50.158,61.429 44.334,130.037 44.449,129.981 
				53.693,62.66 			"/>
		</g>
		<polygon style="fill:#6F5A4E;" points="189.506,101.234 169.252,118.35 145.362,77.28 166.435,59.658 		"/>
		<polygon style="fill:#9E8068;" points="188.215,102.326 170.409,117.372 147.51,77.657 166.211,61.673 		"/>
		<g>
			<polygon style="fill:#9E8068;" points="188.215,102.326 166.211,61.673 165.22,62.519 187.219,103.162 170.405,117.365 
				170.409,117.372 			"/>
			<polygon style="fill:#BA977A;" points="165.22,62.519 147.51,77.657 170.405,117.365 187.219,103.162 			"/>
		</g>
		<path style="fill:#9E8172;" d="M88.823,121.459l-21.304,10.826l13.67,18.163l22.047-10.944
			C98.484,133.281,93.701,127.547,88.823,121.459z"/>
		<path style="fill:#9E8172;" d="M123.921,129.409l24.459-12.042l-13.917-19.358l-24.906,12.75
			C114.406,116.996,119.01,123.228,123.921,129.409z"/>
		<g>
			<path style="fill:#A69570;" d="M69.038,131.514l-1.519,0.771l13.67,18.163l22.047-10.944c-0.435-0.566-0.868-1.114-1.302-1.675
				l-20.485,10.173L69.038,131.514z"/>
			<path style="fill:#77CCE0;" d="M69.038,131.514l12.41,16.488l20.485-10.173c-4.325-5.581-8.677-10.84-13.11-16.371
				L69.038,131.514z"/>
			<path style="fill:#A69570;" d="M124.179,126.962c-4.472-5.632-8.703-11.307-13.082-16.991l-1.539,0.788
				c4.849,6.237,9.453,12.469,14.364,18.65l24.459-12.042l-1.23-1.714L124.179,126.962z"/>
			<path style="fill:#77CCE0;" d="M147.15,115.653l-12.687-17.645l-23.367,11.962c4.379,5.685,8.611,11.359,13.082,16.991
				L147.15,115.653z"/>
		</g>
		<polygon style="fill:#CE3D4C;" points="131.177,82.672 44.334,130.037 133.921,84.947 123.319,13.585 		"/>
	</g>
</g>
</svg>
