<?xml version="1.0" encoding="utf-8"?>
<!-- Generator: Adobe Illustrator 27.5.0, SVG Export Plug-In . SVG Version: 6.00 Build 0)  -->
<svg version="1.1" xmlns="http://www.w3.org/2000/svg" xmlns:xlink="http://www.w3.org/1999/xlink" x="0px" y="0px"
	 viewBox="0 0 750 500" style="enable-background:new 0 0 750 500;" xml:space="preserve">
<g id="BACKGROUND">
</g>
<g id="OBJECTS">
	<g>
		<g>
			<polygon style="fill:#EDEDED;" points="676.968,400.491 676.968,305.209 656.825,305.209 656.825,200.556 591.6,226.411 
				591.6,263.764 568.226,263.764 568.226,300.524 556.177,300.524 556.177,278.408 529.253,278.408 529.253,212.367 
				467.659,212.367 467.659,252.906 446.864,252.906 446.864,283.385 414.016,283.385 414.016,212.367 337.347,212.367 
				337.347,176.85 223.132,176.85 223.132,400.491 			"/>
			<rect x="49.356" y="390.328" style="opacity:0.54;fill:#88A03D;" width="651.289" height="36.443"/>
			<path style="fill:#FFFFFF;" d="M646.255,239.549h-7.529v-7.529h7.529V239.549z M486.178,225.459h-7.529v7.529h7.529V225.459z
				 M486.178,245.306h-7.529v7.529h7.529V245.306z M505.159,245.306h-7.529v7.529h7.529V245.306z M301.217,245.306h-7.529v7.529
				h7.529V245.306z M301.217,218.656h-7.529v7.529h7.529V218.656z M301.217,192.007h-7.529v7.529h7.529V192.007z M324.929,218.656
				H317.4v7.529h7.529V218.656z M324.929,192.007H317.4v7.529h7.529V192.007z M646.255,271.115h-7.529v7.529h7.529V271.115z
				 M646.255,291.358h-7.529v7.529h7.529V291.358z M626.738,271.115h-7.529v7.529h7.529V271.115z M626.738,291.358h-7.529v7.529
				h7.529V291.358z M646.255,339.043h-7.529v7.529h7.529V339.043z M666.017,339.043h-7.529v7.529h7.529V339.043z M626.738,339.043
				h-7.529v7.529h7.529V339.043z M626.738,232.02h-7.529v7.529h7.529V232.02z M607.221,232.02h-7.529v7.529h7.529V232.02z"/>
		</g>
		<g>
			<g>
				<path style="fill:#492F6B;" d="M270.758,410.376H104.353c-2.694,0-5.209-0.77-7.335-2.103c-3.904-2.446-6.5-6.786-6.5-11.732
					V87.064c0-4.119,1.8-7.818,4.657-10.352c2.442-2.167,5.657-3.483,9.178-3.483h166.405c3.82,0,7.279,1.549,9.783,4.052
					c2.504,2.504,4.052,5.962,4.052,9.783v309.477c0,4.292-1.955,8.128-5.022,10.666
					C277.177,409.186,274.107,410.376,270.758,410.376z"/>
				<g>
					<path style="fill:#663D91;" d="M132.179,391.225h-10.635v-1.794h10.635V391.225z M132.179,393.263h-10.635v1.794h10.635
						V393.263z M132.179,397.094h-10.635v1.794h10.635V397.094z"/>
					<polygon style="fill:#663D91;" points="253.568,397.452 250.275,394.16 253.568,390.867 253.568,387.828 247.236,394.16 
						253.568,400.491 					"/>
				</g>
				<circle style="fill:#663D91;" cx="187.556" cy="92.824" r="2.898"/>
			</g>
			<g>
				<path style="fill:#C6C6C6;" d="M224.888,91.795l-4.723,5.489c-1.067,1.241-2.379,2.218-3.833,2.885
					c-1.454,0.667-3.05,1.024-4.687,1.024h-25.712h-25.712c-1.247,0-2.471-0.207-3.626-0.601c-1.876-0.64-3.572-1.772-4.893-3.308
					l-4.723-5.489c-2.135-2.482-5.246-3.909-8.519-3.909h-29.467c-2.654,0-5.093,0.92-7.015,2.458
					c-2.574,2.059-4.223,5.227-4.223,8.78v268.808c0,3.86,1.946,7.265,4.91,9.288c1.802,1.23,3.981,1.95,6.328,1.95h157.125
					c3.103,0,5.913-1.258,7.947-3.292c2.034-2.034,3.292-4.843,3.292-7.947V99.124c0-2.753-0.99-5.276-2.634-7.23
					c-2.062-2.451-5.151-4.008-8.604-4.008h-32.711c-1.637,0-3.233,0.357-4.687,1.024C227.267,89.577,225.956,90.554,224.888,91.795
					z"/>
				<path style="fill:#FFFFFF;" d="M263.651,225.079l13.706-11.335v-4.553l-17.214,14.236v23.632h-12.424v-42.493l-24.586-24.586
					l33.369-28.326l20.856,20.91v-4.968l-18.172-18.22l18.172-15.426v-4.602l-56.713,48.143L192.1,148.948v-47.755h-5.847v47.54
					l-32.713,25.557v-24.132h-3.508v11.124h-31.386V87.886h-3.508v76.905h34.894v12.24L127.4,194.713v22.705l-29.645-28.314v8.085
					l9.163,8.665l0.063,2.1v28.389h-9.226v3.508h12.734v-30.501l32.576,31.113v21.913l-45.31,34.802v4.424l48.818-37.497v-20.291
					l8.671,8.282l0.847,0.81H208.5v18.201L97.755,345.204v4.223L208.5,275.342v48.177h5.847v-70.613h46.934l16.075,7.076v-6.388
					l-13.706-6.033V225.079z M241.871,247.059h-59.885v-13.23h-3.508v13.23h-20.043l-25.188-24.057v-25.437l55.692-43.511
					l52.933,52.933V247.059z"/>
				<polygon style="fill:#EFC30A;" points="247.718,204.566 223.132,179.98 241.972,163.987 239.47,161.509 220.643,177.491 
					216.143,181.258 241.871,206.987 241.871,247.059 181.986,247.059 158.435,247.059 158.025,246.667 156.092,252.906 
					208.5,252.906 214.347,252.906 247.718,252.906 247.718,247.059 				"/>
				<rect x="210.732" y="229.223" style="opacity:0.54;fill:#88A03D;" width="26.27" height="12.579"/>
				<rect x="210.732" y="212.367" style="opacity:0.3;fill:#FFFFFF;" width="26.27" height="12.579"/>
				
					<rect x="210.732" y="263.96" transform="matrix(-1.836970e-16 1 -1 -1.836970e-16 494.1163 46.3828)" style="opacity:0.3;fill:#FFFFFF;" width="26.27" height="12.579"/>
				
					<rect x="235.582" y="257.115" transform="matrix(-3.482266e-14 1 -1 -3.482266e-14 518.9666 21.5325)" style="opacity:0.3;fill:#FFFFFF;" width="26.27" height="26.27"/>
				
					<rect x="203.007" y="151.37" transform="matrix(0.7071 0.7071 -0.7071 0.7071 174.789 -106.6583)" style="opacity:0.3;fill:#FFFFFF;" width="26.27" height="12.579"/>
				<rect x="174.424" y="257.671" style="opacity:0.54;fill:#88A03D;" width="26.27" height="12.579"/>
				
					<rect x="116.472" y="138.235" transform="matrix(6.123234e-17 -1 1 6.123234e-17 -14.9175 274.132)" style="opacity:0.54;fill:#88A03D;" width="26.27" height="12.579"/>
			</g>
			<g>
				<path style="fill:#18B4EA;" d="M97.755,309.533v58.399c0,3.86,1.946,7.265,4.91,9.288c1.802,1.23,3.981,1.95,6.328,1.95h157.125
					c3.103,0,5.913-1.258,7.947-3.292c2.034-2.034,3.292-4.843,3.292-7.947v-58.399H97.755z"/>
				<rect x="97.755" y="293.685" style="fill:#0783A5;" width="179.601" height="20.181"/>
			</g>
			<g>
				<path style="fill:#492F6B;" d="M217.2,363.323h-48.02c-1.848,0-3.572-0.528-5.031-1.442c-2.676-1.677-4.455-4.652-4.455-8.043v0
					c0-2.619,1.062-4.991,2.778-6.707s4.088-2.778,6.707-2.778h48.02c3.929,0,7.3,2.389,8.74,5.793
					c0.48,1.135,0.745,2.382,0.745,3.692v0c0,2.383-0.878,4.56-2.329,6.226C222.617,362.061,220.056,363.323,217.2,363.323z"/>
				<g>
					<g>
						<path style="fill:#FFFFFF;" d="M172.567,350.691h1.563c0.69,0,1.208,0.104,1.556,0.31c0.347,0.206,0.521,0.558,0.521,1.054
							c0,0.214-0.041,0.406-0.123,0.576c-0.082,0.17-0.201,0.311-0.357,0.421s-0.349,0.188-0.578,0.23v0.038
							c0.242,0.037,0.456,0.106,0.642,0.207c0.187,0.101,0.333,0.242,0.438,0.423c0.105,0.182,0.158,0.412,0.158,0.691
							c0,0.34-0.079,0.627-0.236,0.861s-0.379,0.411-0.667,0.53c-0.287,0.12-0.627,0.18-1.02,0.18h-1.9V350.691z M173.209,353.059
							h1.058c0.48,0,0.813-0.079,0.999-0.238c0.185-0.158,0.278-0.391,0.278-0.694c0-0.315-0.11-0.542-0.331-0.681
							c-0.22-0.138-0.571-0.207-1.052-0.207h-0.952V353.059z M173.209,353.599v2.065h1.148c0.491,0,0.838-0.096,1.042-0.289
							c0.204-0.192,0.306-0.452,0.306-0.779c0-0.209-0.046-0.388-0.138-0.536s-0.24-0.263-0.446-0.342
							c-0.205-0.08-0.479-0.119-0.821-0.119H173.209z"/>
						<path style="fill:#FFFFFF;" d="M182.353,353.444c0,0.426-0.054,0.813-0.163,1.161c-0.108,0.35-0.269,0.648-0.481,0.899
							c-0.213,0.25-0.477,0.443-0.792,0.58c-0.314,0.136-0.68,0.203-1.095,0.203c-0.428,0-0.801-0.067-1.12-0.203
							c-0.318-0.137-0.583-0.33-0.793-0.582c-0.21-0.252-0.368-0.553-0.472-0.902c-0.104-0.351-0.157-0.738-0.157-1.164
							c0-0.563,0.093-1.059,0.279-1.483c0.187-0.426,0.469-0.757,0.848-0.994c0.379-0.236,0.854-0.354,1.426-0.354
							c0.546,0,1.006,0.117,1.38,0.352c0.374,0.233,0.657,0.563,0.85,0.987C182.256,352.367,182.353,352.867,182.353,353.444z
							 M177.956,353.444c0,0.469,0.067,0.874,0.2,1.217c0.134,0.342,0.338,0.606,0.614,0.793c0.276,0.186,0.626,0.279,1.052,0.279
							c0.428,0,0.779-0.094,1.052-0.279c0.273-0.187,0.476-0.451,0.606-0.793c0.131-0.343,0.196-0.748,0.196-1.217
							c0-0.712-0.149-1.27-0.447-1.671c-0.299-0.401-0.764-0.603-1.396-0.603c-0.428,0-0.781,0.092-1.058,0.275
							c-0.277,0.185-0.483,0.445-0.618,0.784S177.956,352.973,177.956,353.444z"/>
						<path style="fill:#FFFFFF;" d="M188.369,353.444c0,0.426-0.054,0.813-0.163,1.161c-0.108,0.35-0.269,0.648-0.481,0.899
							c-0.213,0.25-0.477,0.443-0.792,0.58c-0.314,0.136-0.68,0.203-1.095,0.203c-0.428,0-0.801-0.067-1.12-0.203
							c-0.318-0.137-0.583-0.33-0.793-0.582c-0.21-0.252-0.368-0.553-0.472-0.902c-0.104-0.351-0.157-0.738-0.157-1.164
							c0-0.563,0.093-1.059,0.279-1.483c0.187-0.426,0.469-0.757,0.848-0.994c0.379-0.236,0.854-0.354,1.426-0.354
							c0.546,0,1.006,0.117,1.38,0.352c0.374,0.233,0.657,0.563,0.85,0.987C188.272,352.367,188.369,352.867,188.369,353.444z
							 M183.972,353.444c0,0.469,0.067,0.874,0.2,1.217c0.134,0.342,0.338,0.606,0.614,0.793c0.276,0.186,0.626,0.279,1.052,0.279
							c0.428,0,0.779-0.094,1.052-0.279c0.273-0.187,0.476-0.451,0.606-0.793c0.131-0.343,0.196-0.748,0.196-1.217
							c0-0.712-0.149-1.27-0.447-1.671c-0.299-0.401-0.764-0.603-1.396-0.603c-0.428,0-0.781,0.092-1.058,0.275
							c-0.277,0.185-0.483,0.445-0.618,0.784S183.972,352.973,183.972,353.444z"/>
						<path style="fill:#FFFFFF;" d="M193.577,356.212h-0.759l-1.991-2.686l-0.589,0.529v2.156h-0.642v-5.521h0.642v2.753
							c0.144-0.163,0.291-0.326,0.442-0.489c0.151-0.162,0.301-0.326,0.449-0.492l1.613-1.771h0.751l-2.198,2.395L193.577,356.212z"
							/>
						<path style="fill:#FFFFFF;" d="M200.658,356.212h-0.74l-3.01-4.638h-0.03c0.008,0.123,0.017,0.264,0.026,0.421
							c0.01,0.157,0.019,0.325,0.025,0.502c0.006,0.178,0.009,0.358,0.009,0.542v3.173h-0.597v-5.521h0.736l2.999,4.623h0.026
							c-0.005-0.089-0.011-0.214-0.019-0.376c-0.007-0.163-0.015-0.338-0.021-0.525c-0.006-0.188-0.01-0.361-0.01-0.522v-3.199
							h0.604V356.212z"/>
						<path style="fill:#FFFFFF;" d="M206.954,353.444c0,0.426-0.054,0.813-0.163,1.161c-0.108,0.35-0.269,0.648-0.481,0.899
							c-0.213,0.25-0.477,0.443-0.792,0.58c-0.314,0.136-0.68,0.203-1.095,0.203c-0.428,0-0.801-0.067-1.12-0.203
							c-0.318-0.137-0.583-0.33-0.793-0.582c-0.21-0.252-0.368-0.553-0.472-0.902c-0.104-0.351-0.157-0.738-0.157-1.164
							c0-0.563,0.093-1.059,0.279-1.483c0.187-0.426,0.469-0.757,0.848-0.994c0.379-0.236,0.854-0.354,1.426-0.354
							c0.546,0,1.006,0.117,1.38,0.352c0.374,0.233,0.657,0.563,0.85,0.987C206.858,352.367,206.954,352.867,206.954,353.444z
							 M202.558,353.444c0,0.469,0.067,0.874,0.2,1.217c0.134,0.342,0.338,0.606,0.614,0.793c0.276,0.186,0.626,0.279,1.052,0.279
							c0.428,0,0.779-0.094,1.052-0.279c0.273-0.187,0.476-0.451,0.606-0.793c0.131-0.343,0.196-0.748,0.196-1.217
							c0-0.712-0.149-1.27-0.447-1.671c-0.299-0.401-0.764-0.603-1.396-0.603c-0.428,0-0.781,0.092-1.058,0.275
							c-0.277,0.185-0.483,0.445-0.618,0.784S202.558,352.973,202.558,353.444z"/>
						<path style="fill:#FFFFFF;" d="M214.454,350.691l-1.477,5.521h-0.646l-1.095-3.716c-0.033-0.106-0.063-0.213-0.092-0.319
							c-0.029-0.107-0.056-0.209-0.081-0.307c-0.025-0.097-0.046-0.182-0.063-0.257c-0.017-0.074-0.028-0.13-0.036-0.168
							c-0.005,0.038-0.014,0.094-0.028,0.167c-0.014,0.072-0.031,0.157-0.053,0.253s-0.046,0.197-0.076,0.306
							c-0.029,0.108-0.06,0.218-0.092,0.328l-1.065,3.713h-0.646l-1.465-5.521h0.668l0.888,3.463c0.03,0.116,0.059,0.23,0.085,0.342
							c0.026,0.112,0.05,0.222,0.072,0.327c0.021,0.105,0.041,0.209,0.059,0.31c0.018,0.101,0.034,0.199,0.049,0.295
							c0.013-0.099,0.029-0.201,0.049-0.309c0.02-0.106,0.042-0.216,0.066-0.326c0.024-0.111,0.05-0.223,0.08-0.336
							c0.029-0.113,0.06-0.227,0.092-0.34l0.993-3.426h0.661l1.035,3.452c0.035,0.118,0.068,0.235,0.098,0.351
							c0.03,0.116,0.057,0.229,0.082,0.338c0.023,0.11,0.045,0.215,0.064,0.313c0.019,0.1,0.036,0.193,0.051,0.282
							c0.018-0.124,0.039-0.254,0.064-0.39c0.025-0.136,0.055-0.278,0.089-0.427c0.034-0.148,0.071-0.302,0.111-0.461l0.888-3.459
							H214.454z"/>
					</g>
				</g>
			</g>
			<g>
				<g>
					<g>
						<circle style="fill:#0783A5;" cx="244.388" cy="309.345" r="20.926"/>
						<path style="fill:#FFFFFF;" d="M261.943,309.345c0,9.695-7.86,17.555-17.555,17.555s-17.555-7.86-17.555-17.555
							s7.86-17.555,17.555-17.555S261.943,299.649,261.943,309.345z"/>
						<path style="fill:#FFFFFF;" d="M261.943,309.345c0,9.695-7.86,17.555-17.555,17.555s-17.555-7.86-17.555-17.555
							s7.86-17.555,17.555-17.555S261.943,299.649,261.943,309.345z"/>
						<path style="fill:#C6C6C6;" d="M257.058,320.257c-0.224-0.633-0.545-1.219-0.945-1.74c-0.663-0.864-1.546-1.552-2.571-1.983
							l-4.932-2.073l-1.306-1.306v-2.148c1.278-1.08,2.299-2.785,2.856-4.701c0.244,0.119,0.554,0.143,0.911-0.146
							c0.848-0.687,1.05-3.191,0.202-3.474c-0.28-0.093-0.489,0.042-0.65,0.254c-0.056-4.365-2.821-6.853-6.235-6.853
							c-3.414,0-6.178,2.488-6.235,6.853c-0.161-0.212-0.37-0.348-0.65-0.254c-0.848,0.283-0.646,2.787,0.202,3.474
							c0.357,0.289,0.667,0.265,0.911,0.146c0.557,1.916,1.578,3.621,2.856,4.701v2.148l-1.307,1.306l-4.932,2.073
							c-1.025,0.431-1.907,1.119-2.571,1.983c-0.4,0.522-0.721,1.108-0.946,1.74l-0.311,0.877c3.211,3.533,7.829,5.765,12.98,5.765
							c5.151,0,9.769-2.232,12.98-5.765L257.058,320.257z"/>
					</g>
					<g>
						<polygon style="fill:#EFC30A;" points="141.408,318.05 143.215,321.712 147.255,322.299 144.331,325.149 145.022,329.173 
							141.408,327.273 137.793,329.173 138.484,325.149 135.56,322.299 139.6,321.712 						"/>
						<polygon style="fill:#EFC30A;" points="120.353,318.05 122.16,321.712 126.2,322.299 123.276,325.149 123.967,329.173 
							120.353,327.273 116.738,329.173 117.429,325.149 114.505,322.299 118.545,321.712 						"/>
						<polygon style="fill:#EFC30A;" points="162.462,318.05 164.27,321.712 168.31,322.299 165.386,325.149 166.077,329.173 
							162.462,327.273 158.848,329.173 159.539,325.149 156.615,322.299 160.655,321.712 						"/>
						<polygon style="fill:#EFC30A;" points="183.517,318.05 185.325,321.712 189.365,322.299 186.441,325.149 187.132,329.173 
							183.517,327.273 179.903,329.173 180.593,325.149 177.67,322.299 181.71,321.712 						"/>
						<polygon style="fill:#EFC30A;" points="204.572,318.05 206.38,321.712 210.42,322.299 207.496,325.149 208.187,329.173 
							204.572,327.273 200.958,329.173 201.648,325.149 198.724,322.299 202.765,321.712 						"/>
					</g>
				</g>
				
					<text transform="matrix(1 0 0 1 114.5047 305.8194)" style="fill:#FFFFFF; font-family:'OpenSans-Semibold'; font-size:8.5332px;">Your driver</text>
			</g>
		</g>
		<g>
			<g>
				<path style="fill:#5B327F;" d="M403.037,251.579L403.037,251.579c0-0.828-0.401-1.562-1.019-2.019
					c-0.417-0.308-0.932-0.49-1.49-0.49H357.87c-0.859,0-1.616,0.431-2.069,1.089c-0.278,0.404-0.44,0.893-0.44,1.42v0
					c0,0.819-0.392,1.546-0.999,2.004c-0.42,0.317-0.943,0.505-1.51,0.505h-0.026c-0.693,0-1.32,0.281-1.774,0.735
					s-0.735,1.081-0.735,1.774v19.352c0,1.386,1.123,2.509,2.509,2.509h52.746c1.386,0,2.509-1.123,2.509-2.509v-19.352
					c0-0.587-0.202-1.128-0.54-1.555c-0.459-0.581-1.171-0.954-1.969-0.954h-0.026c-0.512,0-0.989-0.154-1.386-0.417
					C403.483,253.222,403.037,252.453,403.037,251.579z"/>
				<path style="fill:#EFC30A;" d="M363.533,257.083h-3.256v-3.256h3.256V257.083z M366.79,257.083h-3.256v3.256h3.256V257.083z
					 M370.046,253.826h-3.256v3.256h3.256V253.826z M373.303,257.083h-3.256v3.256h3.256V257.083z M376.559,253.826h-3.256v3.256
					h3.256V253.826z M379.815,257.083h-3.256v3.256h3.256V257.083z M383.072,253.826h-3.256v3.256h3.256V253.826z M386.328,257.083
					h-3.256v3.256h3.256V257.083z M389.584,253.826h-3.256v3.256h3.256V253.826z M392.841,257.083h-3.256v3.256h3.256V257.083z
					 M396.097,253.826h-3.256v3.256h3.256V253.826z M399.354,257.083h-3.256v3.256h3.256V257.083z"/>
				<path style="fill:#EFC30A;" d="M575.58,328.905l-9.579-3.455l-61.035-22.013l-9.858-7.434
					c-11.948-9.01-25.032-16.219-38.835-21.486c-17.893-6.828-36.993-10.395-56.391-10.395h-70.122h-4.449h-48
					c-5.573,0-8.572,6.545-4.933,10.766l9.15,10.614c-0.85,1.089-1.676,2.202-2.449,3.363v0
					c-4.466,6.698-8.039,13.899-10.664,21.419c-3.502,10.03-5.318,20.629-5.318,31.366v45.126h346.141v-9.957
					c0-16.552-8.001-31.733-20.92-41.157C584.477,332.865,580.205,330.574,575.58,328.905z"/>
				<path style="fill:#EDB20C;" d="M588.315,335.664c-0.808-0.589-1.645-1.143-2.491-1.686H263.411
					c-0.206,2.546-0.316,5.105-0.316,7.673v45.126h346.141v-9.957C609.235,360.269,601.234,345.088,588.315,335.664z"/>
				<path style="fill:#E88E2D;" d="M609.781,394.808H260.14c-0.549,0-1.057-0.177-1.47-0.478c-0.624-0.455-1.03-1.191-1.03-2.023
					V372.67c0-1.036,0.63-1.924,1.527-2.304c0.299-0.127,0.628-0.196,0.973-0.196h349.642c0.69,0,1.315,0.28,1.768,0.732
					s0.732,1.077,0.732,1.768v19.638c0,0.69-0.28,1.315-0.732,1.768C611.097,394.528,610.472,394.808,609.781,394.808z"/>
				<path style="fill:#5B327F;" d="M341.059,271.066h50.565v34.143h-50.565V271.066z M402.041,305.209h93.75l-4.849-3.657
					c-11.356-8.563-23.851-15.476-37.136-20.546c-16.609-6.338-34.015-9.64-51.764-9.891V305.209z M330.641,271.066H324.6
					c-23.488,0-34.127,14.246-34.127,14.246l-3.495,4.475c-0.859,1.101-1.541,2.035-2.144,2.94
					c-2.643,3.964-4.929,8.149-6.893,12.482h52.7V271.066z"/>
				<rect x="259.896" y="339.515" style="fill:#D84C5A;" width="8.758" height="24.189"/>
				<path style="fill:#FFF4C5;" d="M569.39,354.238h34.548c-3.624-7.318-8.963-13.715-15.624-18.574
					c-0.808-0.589-1.645-1.143-2.491-1.686h-32.73L569.39,354.238z"/>
				<path style="fill:#E88E2D;" d="M576.748,333.978h-23.655l8.148,10.13h22.117C581.561,340.479,579.341,337.079,576.748,333.978z"
					/>
				<rect x="402.041" y="309.78" style="fill:#E88E2D;" width="23.949" height="4.023"/>
				<rect x="341.059" y="309.78" style="fill:#E88E2D;" width="23.949" height="4.023"/>
				<path style="fill:#663D91;" d="M369.982,305.209h-4.133l22.722-34.143h3.053v1.624L369.982,305.209z M330.641,304.11v-19.909
					l-13.98,21.007h13.249L330.641,304.11z M341.059,271.066v17.39l11.573-17.39H341.059z M310.832,305.209l19.808-29.765v-4.378
					h-1.22l-22.722,34.143H310.832z M446.864,278.563c-1.139-0.372-2.285-0.712-3.431-1.056l-18.436,27.702h4.133L446.864,278.563z
					 M462.026,284.446c-2.706-1.22-5.442-2.38-8.221-3.44c-0.734-0.28-1.477-0.521-2.214-0.79l-16.632,24.993h13.249
					L462.026,284.446z M402.041,271.115v14.587l9.404-14.131C408.321,271.334,405.189,271.159,402.041,271.115z M391.623,301.356
					v-19.909l-15.813,23.762h13.249L391.623,301.356z"/>
			</g>
			<g>
				<g>
					<circle style="fill:#492F6B;" cx="317.4" cy="388.863" r="31.716"/>
					<circle style="fill:#EDB20C;" cx="317.4" cy="388.863" r="23.067"/>
					<circle style="fill:#663D91;" cx="317.4" cy="388.863" r="19.947"/>
				</g>
				<g>
					<circle style="fill:#492F6B;" cx="533.11" cy="388.863" r="31.716"/>
					<circle style="fill:#EDB20C;" cx="533.11" cy="388.863" r="23.067"/>
					<circle style="fill:#663D91;" cx="533.11" cy="388.863" r="19.947"/>
				</g>
			</g>
		</g>
		<g>
			<path style="fill:#EA7349;" d="M159.695,249.297l-6.703-6.703c-2.02-2.02-2.938-4.725-2.753-7.367
				c0.154-2.2,1.071-4.357,2.753-6.039l0,0c1.754-1.754,4.024-2.677,6.321-2.769c2.552-0.102,5.137,0.821,7.086,2.769l0,0
				c1.851,1.851,2.777,4.277,2.777,6.703s-0.926,4.852-2.777,6.703L159.695,249.297z"/>
			<circle style="fill:#FFFFFF;" cx="159.695" cy="235.891" r="5.386"/>
		</g>
		<g>
			<path style="fill:#18B4EA;" d="M237.002,165.497l-6.703-6.703c-2.02-2.02-2.938-4.725-2.753-7.367
				c0.154-2.2,1.071-4.357,2.753-6.039l0,0c1.754-1.754,4.024-2.677,6.321-2.769c2.552-0.102,5.137,0.821,7.086,2.769l0,0
				c1.851,1.851,2.777,4.277,2.777,6.703c0,2.426-0.926,4.852-2.777,6.703L237.002,165.497z"/>
			<circle style="fill:#FFFFFF;" cx="237.002" cy="152.091" r="5.386"/>
		</g>
		<g>
			<g>
				<g>
					<path style="fill:#D84C5A;" d="M414.016,247.755l-48.365-48.365c-14.575-14.575-21.197-34.09-19.866-53.155
						c1.108-15.875,7.73-31.438,19.866-43.574l0,0c12.654-12.654,29.031-19.313,45.605-19.978
						c18.412-0.739,37.067,5.92,51.124,19.978l0,0c13.355,13.355,20.033,30.86,20.033,48.364c0,17.505-6.678,35.009-20.033,48.365
						L414.016,247.755z"/>
					<circle style="fill:#FFFFFF;" cx="414.016" cy="151.026" r="55.61"/>
					<circle style="fill:#5B327F;" cx="414.016" cy="151.026" r="50.091"/>
				</g>
				<path style="fill:#663D91;" d="M363.939,150.497c0.025-2.444,0.218-4.849,0.581-7.197l41.771-41.771
					c2.349-0.364,4.753-0.556,7.197-0.581L363.939,150.497z M391.967,196.006c6.474,3.179,13.733,4.997,21.409,5.094l50.715-50.715
					c-0.097-7.676-1.914-14.935-5.094-21.409L391.967,196.006z M456.677,124.775c-0.835-1.354-1.731-2.665-2.687-3.929L383.836,191
					c1.264,0.956,2.576,1.852,3.929,2.687L456.677,124.775z M370.915,176.544l68.619-68.619c-5.935-3.521-12.657-5.85-19.842-6.661
					l-55.438,55.438C365.065,163.887,367.394,170.609,370.915,176.544z"/>
			</g>
			<g>
				<g>
					<path style="fill:#FFFFFF;" d="M395.418,146.399h-2.208v-16.945h-5.941v-1.937h14.065v1.937h-5.916V146.399z"/>
					<path style="fill:#FFFFFF;" d="M416.031,146.399l-2.325-5.993h-7.568l-2.312,5.993h-2.222l7.388-18.96h1.976l7.337,18.96
						H416.031z M413.047,138.456l-2.209-5.954c-0.052-0.155-0.136-0.409-0.252-0.762s-0.234-0.719-0.354-1.098
						c-0.121-0.379-0.22-0.685-0.298-0.917c-0.086,0.353-0.179,0.704-0.277,1.053c-0.099,0.349-0.196,0.671-0.29,0.968
						c-0.096,0.297-0.177,0.549-0.246,0.756l-2.247,5.954H413.047z"/>
					<path style="fill:#FFFFFF;" d="M433.518,146.399h-2.492l-5.102-8.317l-5.18,8.317h-2.338l6.29-9.842l-5.851-9.041h2.441
						l4.714,7.53l4.74-7.53h2.324l-5.838,9.002L433.518,146.399z"/>
					<path style="fill:#FFFFFF;" d="M436.192,146.399v-18.882h2.195v18.882H436.192z"/>
					<path style="fill:#FFFFFF;" d="M404.169,174.399l-2.325-5.993h-7.568l-2.312,5.993h-2.222l7.388-18.96h1.976l7.337,18.96
						H404.169z M401.185,166.456l-2.209-5.954c-0.052-0.155-0.136-0.409-0.252-0.762s-0.234-0.719-0.354-1.098
						c-0.121-0.379-0.22-0.685-0.298-0.917c-0.086,0.353-0.179,0.704-0.277,1.053c-0.099,0.349-0.196,0.671-0.29,0.968
						c-0.096,0.297-0.177,0.549-0.246,0.756l-2.247,5.954H401.185z"/>
					<path style="fill:#FFFFFF;" d="M413.984,155.517c2.437,0,4.217,0.476,5.341,1.427c1.124,0.951,1.686,2.314,1.686,4.087
						c0,0.801-0.132,1.561-0.394,2.28c-0.264,0.719-0.688,1.352-1.272,1.898c-0.586,0.547-1.354,0.978-2.306,1.292
						c-0.951,0.314-2.116,0.472-3.493,0.472h-2.3v7.426h-2.195v-18.882H413.984z M413.778,157.389h-2.532v7.698h2.054
						c1.206,0,2.211-0.129,3.016-0.388c0.806-0.258,1.41-0.678,1.815-1.259c0.404-0.581,0.606-1.354,0.606-2.318
						c0-1.257-0.4-2.193-1.201-2.809C416.735,157.698,415.482,157.389,413.778,157.389z"/>
					<path style="fill:#FFFFFF;" d="M429.896,155.517c2.437,0,4.217,0.476,5.341,1.427c1.124,0.951,1.686,2.314,1.686,4.087
						c0,0.801-0.132,1.561-0.394,2.28c-0.264,0.719-0.688,1.352-1.272,1.898c-0.586,0.547-1.354,0.978-2.306,1.292
						c-0.951,0.314-2.116,0.472-3.493,0.472h-2.3v7.426h-2.195v-18.882H429.896z M429.69,157.389h-2.532v7.698h2.054
						c1.206,0,2.211-0.129,3.016-0.388c0.806-0.258,1.41-0.678,1.815-1.259c0.404-0.581,0.606-1.354,0.606-2.318
						c0-1.257-0.4-2.193-1.201-2.809C432.647,157.698,431.394,157.389,429.69,157.389z"/>
				</g>
			</g>
		</g>
	</g>
</g>
</svg>
