<?xml version="1.0" encoding="utf-8"?>
<!-- Generator: Adobe Illustrator 27.5.0, SVG Export Plug-In . SVG Version: 6.00 Build 0)  -->
<svg version="1.1" xmlns="http://www.w3.org/2000/svg" xmlns:xlink="http://www.w3.org/1999/xlink" x="0px" y="0px"
	 viewBox="0 0 750 500" style="enable-background:new 0 0 750 500;" xml:space="preserve">
<g id="BACKGROUND">
	<rect style="fill:#FFFFFF;" width="750" height="500"/>
</g>
<g id="OBJECTS">
	<rect style="fill:#B3E5E5;" width="750" height="500"/>
	<path style="fill:#F8FFFF;" d="M503.444,122.327c0.173-11.72,7.645-23.025,18.36-27.776c10.716-4.752,24.254-4.101,33.057,3.64
		c1.862-6.962,7.1-12.937,13.759-15.694c6.658-2.757,15.882-2.411,22.121,1.196c2.178-13.156,5.206-27.725,16.106-35.407
		c5.712-4.026,12.887-5.514,19.875-5.583c23.6-0.233,46.409,16.289,53.544,38.786c11.55-3.74,27.032-1.31,36.783,5.922
		c9.751,7.233,15.469,31.466,15.469,31.466l-113.819,0.625l114.432,6.249c0,0-88.951,6.676-122.142,5.893
		c-3.732,7.472-12.737,12.468-20.974,11.09c-8.237-1.378-15.164-8.544-16.26-16.824
		C550.003,125.462,527.194,122.776,503.444,122.327z"/>
	<path style="fill:#F8FFFF;" d="M199.929,82.079c-0.143-9.711-6.334-19.078-15.213-23.015c-8.879-3.937-20.096-3.397-27.39,3.016
		c-1.543-5.769-5.883-10.719-11.4-13.004c-5.517-2.285-13.159-1.997-18.329,0.991c-1.804-10.9-4.313-22.972-13.345-29.337
		c-4.733-3.335-10.678-4.568-16.468-4.626C78.231,15.912,59.333,29.602,53.42,48.242c-9.57-3.099-22.398-1.086-30.477,4.907
		S10.127,79.221,10.127,79.221l94.307,0.518L9.619,84.916c0,0,73.702,5.532,101.203,4.883c3.092,6.191,10.553,10.33,17.379,9.189
		c6.825-1.142,12.564-7.079,13.473-13.939C161.351,84.676,180.251,82.451,199.929,82.079z"/>
	<path style="fill:#5BB5C1;" d="M637.551,368.063c29.815-3.477,58.575-15.568,81.917-34.441c5.49-4.439,11.917-12.118,6.004-18.925
		c-4.452-5.125-12.363-3.813-18.157-2.412c-19.764,4.777-38.97,14.127-55.447,26.041c7.506-6.584,14.313-21.628,3.736-30.772
		c-5.052-4.367-31.556-7.292-45.353,23.311c-2.361-21.965-9.969-43.349-22.012-61.869c-4.037-6.208-10.378-13.556-18.405-13.804
		c-12.916-0.399-18.65,15.056-20.662,25.442c-2.978,15.372,12.523,46.076,13.545,47.124c-10.357-7.548-21.343-13.838-33.431-18.204
		c-5.274-1.905-12.534-3.66-17.513,0.165c-5.872,4.512-3.849,12.975-1.354,18.771c6.909,16.054,18.647,29.992,33.29,39.533
		C570.811,368.421,610.45,367.666,637.551,368.063z"/>
	<path style="fill:#5BB5C1;" d="M520.207,368.099c16.397-1.912,32.214-8.562,45.051-18.941c3.019-2.441,6.554-6.664,3.302-10.408
		c-2.449-2.819-6.799-2.097-9.986-1.327c-10.869,2.627-21.432,7.769-30.493,14.321c4.128-3.621,7.872-11.895,2.055-16.923
		c-2.778-2.402-17.354-4.01-24.942,12.82c-1.298-12.08-5.482-23.84-12.105-34.025c-2.22-3.414-5.707-7.455-10.122-7.592
		c-7.103-0.22-10.257,8.28-11.363,13.992c-1.638,8.454,6.887,25.34,7.449,25.916c-5.696-4.151-11.738-7.61-18.386-10.011
		c-2.901-1.048-6.893-2.013-9.631,0.091c-3.229,2.481-2.117,7.136-0.745,10.323c3.8,8.829,10.255,16.495,18.308,21.742
		C483.502,368.296,505.302,367.881,520.207,368.099z"/>
	<g>
		<path style="fill:#5BB5C1;" d="M174.878,92.201c-8.608-3.696-18.453-4.557-27.553-2.296c-4.464,1.109-8.701,2.948-12.557,5.386
			c0.748-10.162-0.067-20.418-2.66-29.961c-2.055-7.564-7.193-14.015-15.749-13.007c-8.487,1-15.367,7.544-20.013,14.273
			c-3.238,4.689-5.592,9.977-6.934,15.503c-6.059-5.36-13.735-8.575-21.922-8.247c-7.915,0.317-15.532,4.101-19.253,11.326
			c-3.768,7.318-3.125,16.302,0.036,23.707c2.932,6.869,7.891,12.43,13.438,17.342c-18.116-3.847-37.294,2.83-48.948,17.791
			c-4.719,6.058-11.629,16.975-5.885,24.4c2.841,3.673,7.54,3.714,11.655,2.519c5.59-1.624,10.986-4.512,16.258-6.939
			c3.428-1.578,6.858-3.181,10.275-4.821c-2.507,2.863-4.638,6.059-6.307,9.47c-2.191,4.478-6.095,13.544,0.598,16.25
			c2.913,1.178,6.348,0.142,9.095-0.989c3.723-1.533,7.334-3.397,10.812-5.421c0.782-0.455,1.563-0.929,2.342-1.408
			c-3.616,7.493-4.106,14.457,4.413,16.389c7.437,1.686,14.276-4.518,18.77-9.597c2.925-3.306,5.541-6.891,8.703-9.984
			c1.707-1.67,3.433-2.962,5.264-4.041c1.555,2.609,3.463,5.075,5.246,7.387c3.307,4.288,6.98,8.291,11.019,11.9
			c5.734,5.124,14.316,10.369,21.812,5.34c5.139-3.448,4.98-9.423,3.351-14.917c9.895,3.919,21.493,3.194,30.968-2.686
			c6.425-3.987,12.25-10.472,12.913-18.31c0.712-8.408-4.644-16.15-10.277-21.854c-2.666-2.699-5.621-5.084-8.788-7.128
			c1.159-0.6,2.304-1.216,3.428-1.851c4.302-2.427,8.437-5.188,12.288-8.284c3.144-2.527,6.371-5.634,7.427-9.672
			C190.39,101.182,181.638,95.103,174.878,92.201z"/>
		<path style="fill:#FFB000;" d="M123.807,157.232c-0.286,0.033-0.573,0.067-0.854,0.1c-0.924,0.11-1.848,0.201-2.773,0.279
			c0.803,12.064-0.207,25.163-6.274,35.668c-4.05,7.014-12.493,14.097-20.724,16.151l-0.11-2.181c0,0-1.377-53.728-0.489-80.581
			c-2.656,0.135-5.304,0.082-7.95-0.121c0.631,15.229,0.962,30.474,1.137,45.713c0.329,28.672,0.016,83.792-0.877,112.451
			c-0.451,14.458-1.042,28.912-1.805,43.357c-0.378,7.16-0.802,14.316-1.266,21.47c-0.282,4.342-0.505,8.705-0.827,13.056
			c2.612,0.53,5.235,1.002,7.868,1.4c4.429,0.668,8.89,1.134,13.362,1.397c1.408,0.083,2.846,0.085,4.288,0.084
			c-2.486-13.93-4.229-28.047-5.966-42.061c-3.111-25.106-6.762-102.024-6.762-102.024l-0.064-1.257
			c2.841-1.568,7.002-3.918,9.536-5.611c10.111-6.755,17.952-15.752,20.639-27.859C126.033,177.049,125.254,167.007,123.807,157.232
			z"/>
	</g>
	<g>
		<rect y="356.154" style="fill:#D1CDC9;" width="750" height="143.846"/>
		<rect x="1.197" y="425.266" style="fill:#E8E8E8;" width="748.803" height="74.734"/>
		<rect y="447.197" style="fill:#E86464;" width="750" height="52.803"/>
		<rect y="356.154" style="fill:#E8E8E8;" width="750" height="12.157"/>
	</g>
	<g>
		<g>
			<path style="fill:#ABB4BA;" d="M377.676,294.172c0,0-16.232,4.828-19.127-5.462L283.707,54.304
				c-1.456-4.606-2.17-9.809,5.96-13.546c7.188-3.304,13.101-4.256,13.101-4.256c4.234-0.983,107.575-17.624,108.868-13.535
				l69.676,217.576C482.605,244.632,381.66,292.398,377.676,294.172z"/>
			<path style="fill:#707B84;" d="M491.544,243.856L380.314,293.38c-4.946,2.202-10.168,0.267-11.624-4.339L291.608,48.045
				c-1.456-4.606,1.658-9.337,6.914-10.558l118.213-27.443c4.234-0.983,8.69,1.541,9.983,5.63l69.676,217.576
				C497.687,237.34,495.528,242.083,491.544,243.856z"/>
			<path style="opacity:0.2;fill:#96A8B2;" d="M435.511,43.134c-32.224,45.182-63.943,89.78-103.363,131.661l36.541,114.247
				c0.949,3.002,3.502,4.859,6.531,5.186c14.916-66.703,42.628-130.243,80.951-186.577L435.511,43.134z"/>
			<path style="opacity:0.3;fill:#1C1D1E;" d="M481.131,235.078l-96.756,41.813c-4.892,2.114-10.061,0.135-11.507-4.438
				L304.469,58.917c-1.446-4.573,1.6-9.308,6.763-10.567l102.105-24.894c4.275-1.042,8.771,1.455,10.073,5.571l62.676,195.438
				C487.387,228.581,485.182,233.327,481.131,235.078z"/>
			<path style="fill:#FFFFFF;" d="M479.552,235.76l-93.294,40.317c-4.876,2.107-10.03,0.128-11.473-4.437L306.484,58.411
				c-1.443-4.565,1.591-9.291,6.736-10.545l98.452-24.004c4.288-1.045,8.796,1.455,10.1,5.577l62.755,195.687
				C485.83,229.249,483.616,234.004,479.552,235.76z"/>
			<path style="fill:#C9C9C9;" d="M472.347,223.201l-87.667,36.103c-3.621,1.565-7.449,0.095-8.522-3.296L325.427,97.631
				c-1.072-3.391,1.181-6.901,5.003-7.832l90.12-25.79c3.185-0.776,6.533,1.081,7.502,4.143l47.989,147.152
				C477.009,218.365,475.365,221.897,472.347,223.201z"/>
			<path style="opacity:0.5;fill:#3A3F42;" d="M368.394,27.722c0.932,2.947-0.891,5.963-4.088,6.739
				c-3.215,0.781-6.598-0.996-7.539-3.974c-0.941-2.978,0.923-6.003,4.147-6.754C364.121,22.988,367.462,24.775,368.394,27.722z"/>
			<path style="fill:#1C1D1E;" d="M366.981,28.058c0.704,2.227-0.675,4.504-3.091,5.088c-2.426,0.586-4.975-0.756-5.685-3
				c-0.71-2.244,0.693-4.527,3.125-5.096C363.751,24.483,366.276,25.831,366.981,28.058z"/>
			<g>
				<path style="fill:#1C1D1E;" d="M338.359,72.69l-16.119,4.113c-0.766,0.196-1.563-0.197-1.777-0.877v0
					c-0.215-0.68,0.233-1.389,1-1.582l16.131-4.077c0.743-0.188,1.517,0.202,1.728,0.87l0,0
					C339.532,71.805,339.102,72.501,338.359,72.69z"/>
				<path style="fill:#1C1D1E;" d="M339.894,77.547l-16.096,4.185c-0.765,0.199-1.561-0.191-1.776-0.871l0,0
					c-0.215-0.68,0.232-1.391,0.998-1.589l16.108-4.149c0.742-0.191,1.515,0.196,1.726,0.864l0,0
					C341.065,76.656,340.636,77.354,339.894,77.547z"/>
				<path style="fill:#1C1D1E;" d="M341.43,82.404l-16.073,4.258c-0.764,0.202-1.559-0.185-1.774-0.865l0,0
					c-0.215-0.68,0.231-1.394,0.996-1.595l16.085-4.222c0.741-0.195,1.513,0.19,1.724,0.858l0,0
					C342.599,81.507,342.171,82.207,341.43,82.404z"/>
			</g>
		</g>
		<g>
			<g>
				<polygon style="fill:#707B84;" points="413.491,33.919 413.198,32.957 409.886,33.73 410.183,34.712 408.937,35.01 
					412.096,45.472 417.764,43.738 414.673,33.636 				"/>
				<polygon style="fill:#FFD800;" points="417.764,43.738 412.096,45.472 410.511,40.223 416.213,38.67 				"/>
			</g>
			<g>
				<polygon style="fill:#15314C;" points="406.378,47.221 408.128,46.686 404.621,34.96 402.85,35.374 				"/>
				<polygon style="fill:#15314C;" points="403.603,48.07 405.408,47.518 402.474,37.64 400.65,38.088 				"/>
				<polygon style="fill:#15314C;" points="400.738,48.947 402.602,48.376 400,39.56 398.12,40.035 				"/>
				<polygon style="fill:#15314C;" points="397.78,49.852 399.705,49.263 397.411,41.433 395.471,41.937 				"/>
				<polygon style="fill:#15314C;" points="394.723,50.787 396.712,50.179 394.884,43.892 392.883,44.431 				"/>
			</g>
		</g>
		<g>
			<path style="fill:#15314C;" d="M420.125,232.995c1.109,3.025-0.295,6.375-3.191,7.503c-2.958,1.153-6.337-0.443-7.49-3.586
				c-1.153-3.143,0.394-6.545,3.396-7.578C415.779,228.322,419.016,229.97,420.125,232.995z"/>
			<path style="fill:#FFFFFF;" d="M436.19,227.104c1.044,2.847-0.149,5.949-2.71,6.947c-2.612,1.018-5.647-0.534-6.729-3.486
				c-1.082-2.952,0.229-6.097,2.88-7.01C432.23,222.661,435.146,224.257,436.19,227.104z"/>
			<path style="fill:#FFFFFF;" d="M450.468,221.867c0.986,2.689-0.033,5.576-2.313,6.465c-2.324,0.906-5.067-0.602-6.088-3.384
				c-1.02-2.782,0.098-5.706,2.456-6.518C446.838,217.634,449.482,219.179,450.468,221.867z"/>
		</g>
		<g>
			<path style="fill:#15314C;" d="M362.101,69.162c0.698,2.281,0.563,4.6-0.223,6.548c-0.888,2.199-2.604,3.932-4.885,4.63
				c-2.281,0.698-4.675,0.223-6.639-1.103c-1.745-1.174-3.154-3.021-3.852-5.301c-1.485-4.855,0.804-9.861,5.111-11.179
				C355.919,61.439,360.615,64.308,362.101,69.162z"/>
			<path style="fill:#FFD800;" d="M361.877,75.711c-0.888,2.199-2.604,3.932-4.885,4.63c-2.281,0.698-4.675,0.223-6.639-1.103
				c-0.19-2.461,0.825-4.769,2.635-6.042c-1.125-0.351-2.1-1.309-2.503-2.625c-0.613-2.002,0.331-4.065,2.107-4.609
				c1.776-0.544,3.713,0.639,4.326,2.641c0.403,1.316,0.128,2.657-0.608,3.577C358.525,72.22,360.655,73.566,361.877,75.711z"/>
		</g>
		<g>
			<g>
				<path style="fill:#FFD800;" d="M424.71,76.508l22.709,70.247c1.314,4.064-0.878,8.512-4.904,9.938l-72.689,25.734
					c-4.413,1.562-9.127-0.635-10.516-4.911l-24.013-73.925c-1.393-4.287,1.131-8.853,5.622-10.192l73.992-22.057
					C419.009,70.12,423.393,72.435,424.71,76.508z"/>
				<path style="fill:#FFD800;" d="M455.125,168.48l3.467,10.523c1.377,4.253-0.948,8.927-5.182,10.432l-72.133,27.241
					c-4.197,1.493-8.7-0.73-10.065-4.96l-3.828-11.505c-1.362-4.223,0.919-8.873,5.104-10.389l72.494-26.259
					C449.204,162.034,453.75,164.234,455.125,168.48z"/>
				<path style="fill:#FFFFFF;" d="M373.593,115.103l-9.298-28.672l-3.822,1.139l5.483,16.905l-27.603,8.521l1.219,3.752
					l27.583-8.579l17.215,53.076l-27.288,9.408l1.217,3.746l27.268-9.466l3.468,10.693l3.755-1.329l-7.439-22.942l21.745-7.377
					c8.677-2.943,13.412-12.283,10.641-20.846l-5.288-16.339l19.995-6.368l-1.152-3.564L373.593,115.103z M414.112,124.325
					c2.132,6.587-1.522,13.77-8.196,16.018l-21.761,7.331l-9.367-28.886l34.024-10.836L414.112,124.325z"/>
			</g>
			<g>
				<path style="fill:#F41C2C;" d="M382.619,94.223c-1.57-4.586-6.663-7.091-11.397-5.586c-4.76,1.513-7.351,6.502-5.763,11.133
					c2.242,6.54,14.781,15.188,14.781,15.188S384.725,100.375,382.619,94.223z"/>
				<path style="fill:#FFFFFF;" d="M378.853,94.994c0.903,2.637-0.558,5.489-3.27,6.374c-2.721,0.887-5.669-0.541-6.578-3.193
					c-0.909-2.652,0.571-5.511,3.297-6.384C375.021,90.921,377.95,92.356,378.853,94.994z"/>
			</g>
			<path style="fill:#FFFFFF;" d="M395.507,160.507c1.63,5.027-1.195,10.563-6.337,12.376c-5.173,1.823-10.725-0.809-12.374-5.891
				c-1.649-5.082,1.246-10.645,6.438-12.413C388.395,152.82,393.878,155.479,395.507,160.507z"/>
			<path style="fill:#FFD800;" d="M390.617,162.202c0.773,2.385-0.572,5.008-3.011,5.86c-2.446,0.854-5.064-0.394-5.842-2.792
				c-0.778-2.397,0.583-5.026,3.033-5.868C387.241,158.562,389.844,159.816,390.617,162.202z"/>
		</g>
		<path style="fill:#707B84;" d="M295.928,86.791l13.643,42.873c0.392,1.232,1.744,1.875,2.947,1.402l1.694-0.666
			c1.097-0.432,1.67-1.642,1.308-2.764l-13.791-42.788c-0.391-1.214-1.719-1.855-2.913-1.406l-1.546,0.581
			C296.158,84.441,295.568,85.658,295.928,86.791z"/>
	</g>
	<path style="fill:#F41C2C;" d="M599.526,172.116c-1.791,1.8-4.68,5.401-5.226,7.88c-2.332,10.589,5.957,20.078,5.487,30.911
		c3.244-0.123,7.023-0.543,8.721-3.31c1.149-1.872,0.928-4.308,0.133-6.356c-0.795-2.048-2.099-3.854-3.102-5.809
		c-2.627-5.116-3.094-11.299-1.266-16.753c0.649-1.935,3.552-6.393,2.086-8.342C604.729,168.172,600.843,170.792,599.526,172.116z"
		/>
	<ellipse style="opacity:0.5;fill:#727A7C;" cx="593.554" cy="424.094" rx="67.773" ry="10.916"/>
	<path style="fill:#F4D6A6;" d="M563.308,217.191c5.966,9.246,14.28,13.305,18.197,24.149c0.109-0.144,0.224-0.283,0.332-0.428
		c4.58-6.157,8.349-12.863,11.879-19.662c1.034-1.992,2.514-7.362,5.107-7.539c2.536-0.173,7.051,3.757,8.975,5.205
		c0.729,0.548,1.486,1.184,1.699,2.071c0.27,1.125-0.419,2.235-1.076,3.188c-2.262,3.28-4.525,6.56-6.787,9.841
		c-4.211,6.105-8.486,12.283-14.109,17.12c-0.872,0.75-5.412,4.839-7.951,3.847c-1.888-0.738-3.99-2.731-5.201-4.356
		c-7.479-10.032-12.802-24.566-15.301-27.502L563.308,217.191z"/>
	<path style="fill:#091B2B;" d="M617.592,402.67c-2.185,5.506-2.76,11.919-4.182,17.722c-0.497,2.031-2.373,3.472-2.926,5.453
		c-0.232,0.831-0.207,1.652-0.095,2.519c0.287,2.211,4.231,4.115,9.53,2.09c2.038-0.779,3.426-2.462,3.924-4.326
		c0.498-1.864,0.771-3.836,0.747-5.749c-0.038-3.091,0.172-6.171,0.84-9.174c0.185,3.42,0.245,7.06-0.46,10.888
		c-0.106,0.574,2.848,0.595,2.843,0.018c-0.008-0.916-0.094-1.88-0.065-2.38c0.246-4.26,0.623-16.246,0.586-17.51
		C628.797,395.786,619.347,398.247,617.592,402.67z"/>
	<path style="fill:#E5C493;" d="M618.393,201.889c0.484,4.28,2.713,8.617,6.608,10.456c-4.29,2.26-9.024,4.115-13.857,3.722
		c-4.833-0.393-10.312-1.051-11.284-5.801c2.658,0.859,6.761-1.802,8.142-4.23c1.372-2.413-0.222-5.549,0.621-8.194
		c1.397-4.383,7.844-5.211,10.597-8.601c0.72,1.476-0.236,3.675-0.489,5.225C618.332,196.919,618.113,199.41,618.393,201.889z"/>
	<path style="fill:#B79369;" d="M607.438,206.854c0.217-0.272,0.41-0.547,0.564-0.818c1.372-2.413-0.222-5.549,0.621-8.194
		c1.397-4.383,7.844-5.211,10.597-8.601c0.72,1.476-0.236,3.675-0.489,5.225c-0.123,0.752-0.219,1.509-0.298,2.267
		C615.639,201.755,612.368,206.82,607.438,206.854z"/>
	<path style="fill:#E5C493;" d="M607.438,206.854c4.93-0.035,8.201-5.099,10.996-10.12c-0.18,1.713-0.235,3.437-0.041,5.155
		c0.484,4.28,2.713,8.617,6.608,10.456c-4.29,2.26-9.024,4.115-13.857,3.722c-4.833-0.393-10.312-1.051-11.284-5.801
		C602.221,211.029,605.717,209.015,607.438,206.854z"/>
	<path style="fill:#091B2B;" d="M596.207,214.132c-1.636,2.56-9.933,20.289-11.272,22.357c-0.946,1.46,7.79,6.749,9.189,7.783
		c1.399,1.035,7.56-9.09,9.386-13.005c0.862-4.134-0.995-10.47-1.346-14.679c-0.183-2.191-0.384-5.115-2.11-6.646
		C598.411,210.852,597.204,212.572,596.207,214.132z"/>
	<path style="fill:#F4D6A6;" d="M602.462,203.87c4.54,1.314,14.189-4.376,15.193-5.764c2.904-3.991,1.849-4.61,3.173-9.359
		c1.324-4.749,0.63-10.292-2.831-13.799c-6.182-6.237-12.925-2.401-16.856,1.023C593.469,182.655,599.686,203.066,602.462,203.87z"
		/>
	<path style="fill:#F4D6A6;" d="M638.06,301.565c-1.322,9.991-0.606,22.718-2.511,32.615c-1.625,8.441-0.633,14.24,0.076,22.807
		c0.541,6.535-4.933,36.089-10.071,47.527c-1.366,3.041-8.553,1.204-8.296-0.548c5.028-34.325,2.756-78.201-1.8-112.592
		C614.613,284.99,639.542,290.363,638.06,301.565z"/>
	<path style="fill:#091B2B;" d="M555.11,420.455c8.067-9.284,8.505-19.936,11.491-25.874c1.809-3.596,1.476-2.599,4.338-4.186
		c2.511-1.392,4.815,0.408,5.175,1.218c2.74,6.164,1.804,11.632,1.788,18.645c-0.004,1.68,0.178,6.741,0.26,9.978
		c0.016,0.632-3.62,0.628-3.598-0.007c0.088-2.608,0.01-12.14-0.367-14.862c0.359,2.594-1.806,11.723-2.359,13.152
		c-2.326,6.008-11.685,7.693-14.445,7.264C555.334,425.462,552.092,423.928,555.11,420.455z"/>
	<path style="fill:#F4D6A6;" d="M599.764,266.292c-2.558,18.27-6.018,27.91-10.768,45.737c-3.254,12.213-6.508,24.426-9.762,36.638
		l-11.938,44.569c-0.457,1.714,8.011,1.846,8.801-0.524c2.936-8.805,10.607-20.884,14.208-29.438
		c4.686-11.134,9.452-32.872,9.452-32.872s7.383-13.997,10.907-20.658c3.513-6.642,6.162-15.991,8.393-23.166
		C619.843,284.047,599.764,266.292,599.764,266.292z"/>
	<path style="fill:#E5C493;" d="M636.233,329.608c1.049-9.041,0.701-19.531,1.827-28.043c1.482-11.202-23.448-16.575-22.602-10.191
		c1.545,11.661,2.815,24.42,3.639,37.519C624.75,330.234,630.484,330.276,636.233,329.608z"/>
	<path style="fill:#E5C493;" d="M599.764,266.292c-2.558,18.27-6.018,27.91-10.768,45.737c-0.755,2.835-1.511,5.67-2.266,8.505
		c5.276,1.151,10.551,2.889,15.826,4.56c2.466-4.673,5.986-11.341,8.107-15.352c3.513-6.642,6.162-15.991,8.393-23.166
		C619.843,284.047,599.764,266.292,599.764,266.292z"/>
	<g>
		<path style="fill:#F4D6A6;" d="M548.627,213.557c-0.82-1.662-1.301-3.08-0.748-4.848c0.232-0.742,0.97-1.615,1.552-2.13
			c0.582-0.515,1.363-1.206,2.114-1.002c1.501,1.26-1.823,3.648-1.505,6.521c0.478-0.65,1.49-3.323,2.134-3.81
			c0.644-0.486,1.647-0.614,2.18-0.067c0.47,0.483,0.273,1.284-0.147,1.812c-1.388,1.743-1.348,2.902-1.942,4.4
			c0.303-0.629,0.626-1.282,1.183-1.704c0.557-0.421,1.422-0.525,1.921-0.037c0.606,0.591,0.189,1.443-0.485,1.956
			c-2.291,1.743-0.534,3.715-2.694,2.797C550.735,216.826,549.309,214.939,548.627,213.557z"/>
		<path style="fill:#F4D6A6;" d="M554.416,218.934c-1.124-0.713-5.109-3.26-5.32-4.575c-0.132-0.828,2.913,0.089,3.508-0.502
			c0.595-0.59,1.38-0.953,2.177-1.214c1.596-0.523,3.492-0.635,4.822,0.389c1.421,1.095,1.734,3.095,1.751,4.889
			c0.016,1.695,0.223,5.244-1.145,6.356C558.296,222.418,556.734,220.405,554.416,218.934z"/>
	</g>
	<g>
		<g>
			<path style="fill:#ABB4BA;" d="M545.669,224.993c0,0-1.979,0.304-2.152-0.948l-4.991-28.658
				c-0.096-0.563-0.096-1.184,0.916-1.491c0.895-0.271,1.603-0.287,1.603-0.287c0.512-0.047,12.883-0.332,12.968,0.168l4.656,26.604
				C558.756,220.881,546.164,224.85,545.669,224.993z"/>
			<path style="fill:#707B84;" d="M559.815,220.934l-13.825,4.009c-0.615,0.178-1.195-0.133-1.292-0.695l-5.147-29.466
				c-0.096-0.563,0.344-1.067,0.98-1.125l14.287-1.31c0.512-0.047,0.993,0.32,1.078,0.82l4.656,26.604
				C560.639,220.27,560.31,220.791,559.815,220.934z"/>
			<path style="opacity:0.2;fill:#96A8B2;" d="M556.485,196.524c-4.502,4.773-8.935,9.485-14.226,13.755l2.44,13.969
				c0.063,0.367,0.332,0.626,0.681,0.713c2.821-7.572,7.09-14.567,12.485-20.548L556.485,196.524z"/>
			<path style="opacity:0.3;fill:#1C1D1E;" d="M558.737,219.738l-12.005,3.339c-0.607,0.169-1.181-0.146-1.276-0.705l-4.572-26.11
				c-0.096-0.559,0.337-1.064,0.962-1.129l12.359-1.271c0.518-0.053,1.004,0.312,1.09,0.815l4.193,23.899
				C559.574,219.078,559.24,219.599,558.737,219.738z"/>
			<path style="fill:#FFFFFF;" d="M558.541,219.793l-11.576,3.219c-0.605,0.168-1.177-0.146-1.272-0.704l-4.566-26.073
				c-0.095-0.558,0.336-1.063,0.959-1.127l11.917-1.226c0.519-0.053,1.007,0.312,1.093,0.816l4.198,23.929
				C559.381,219.131,559.045,219.653,558.541,219.793z"/>
			<path style="fill:#C9C9C9;" d="M557.899,218.206l-10.849,2.816c-0.449,0.125-0.874-0.109-0.945-0.523l-3.391-19.366
				c-0.071-0.414,0.25-0.789,0.712-0.837l10.97-1.569c0.386-0.04,0.748,0.232,0.812,0.606l3.251,18.007
				C558.523,217.715,558.274,218.102,557.899,218.206z"/>
			<path style="opacity:0.5;fill:#3A3F42;" d="M548.872,193.638c0.062,0.36-0.2,0.684-0.587,0.724
				c-0.389,0.04-0.757-0.223-0.819-0.587c-0.062-0.364,0.205-0.688,0.594-0.724C548.448,193.014,548.811,193.278,548.872,193.638z"
				/>
			<path style="fill:#1C1D1E;" d="M548.702,193.654c0.047,0.272-0.152,0.517-0.444,0.546c-0.294,0.03-0.57-0.169-0.617-0.443
				c-0.047-0.274,0.154-0.519,0.448-0.547C548.381,193.184,548.655,193.382,548.702,193.654z"/>
			<g>
				<path style="fill:#1C1D1E;" d="M544.631,198.421l-1.954,0.222c-0.093,0.01-0.18-0.048-0.194-0.131l0,0
					c-0.014-0.083,0.05-0.159,0.143-0.169l1.955-0.218c0.09-0.01,0.174,0.048,0.188,0.13l0,0
					C544.782,198.336,544.721,198.41,544.631,198.421z"/>
				<path style="fill:#1C1D1E;" d="M544.732,199.014l-1.953,0.231c-0.093,0.011-0.18-0.048-0.194-0.131l0,0
					c-0.014-0.083,0.05-0.159,0.142-0.17l1.953-0.227c0.09-0.01,0.174,0.047,0.188,0.129l0,0
					C544.884,198.929,544.822,199.003,544.732,199.014z"/>
				<path style="fill:#1C1D1E;" d="M544.834,199.608l-1.951,0.24c-0.093,0.011-0.18-0.047-0.194-0.13l0,0
					c-0.014-0.083,0.049-0.16,0.142-0.171l1.952-0.235c0.09-0.011,0.174,0.046,0.188,0.128l0,0
					C544.985,199.521,544.924,199.597,544.834,199.608z"/>
			</g>
		</g>
		<g>
			<g>
				<polygon style="fill:#707B84;" points="554.055,195.09 554.036,194.972 553.635,195.01 553.654,195.129 553.503,195.144 
					553.705,196.42 554.397,196.309 554.197,195.076 				"/>
				<polygon style="fill:#FFD800;" points="554.397,196.309 553.705,196.42 553.604,195.78 554.297,195.69 				"/>
			</g>
			<g>
				<polygon style="fill:#15314C;" points="553.007,196.533 553.221,196.499 552.999,195.069 552.785,195.089 				"/>
				<polygon style="fill:#15314C;" points="552.669,196.588 552.889,196.552 552.704,195.348 552.483,195.371 				"/>
				<polygon style="fill:#15314C;" points="552.319,196.644 552.546,196.608 552.384,195.533 552.156,195.559 				"/>
				<polygon style="fill:#15314C;" points="551.958,196.703 552.193,196.665 552.05,195.711 551.815,195.739 				"/>
				<polygon style="fill:#15314C;" points="551.585,196.763 551.828,196.724 551.715,195.958 551.472,195.989 				"/>
			</g>
		</g>
		<g>
			<path style="fill:#15314C;" d="M551.625,218.512c0.081,0.372-0.137,0.742-0.495,0.827c-0.365,0.087-0.735-0.154-0.82-0.541
				c-0.084-0.387,0.152-0.76,0.52-0.833C551.192,217.895,551.544,218.14,551.625,218.512z"/>
			<path style="fill:#FFFFFF;" d="M553.602,218.081c0.076,0.35-0.113,0.694-0.429,0.77c-0.322,0.077-0.653-0.153-0.732-0.517
				c-0.079-0.363,0.125-0.71,0.45-0.775C553.21,217.497,553.525,217.73,553.602,218.081z"/>
			<path style="fill:#FFFFFF;" d="M555.358,217.697c0.072,0.331-0.094,0.652-0.375,0.72c-0.287,0.069-0.584-0.152-0.659-0.494
				c-0.075-0.342,0.103-0.667,0.393-0.724C555.001,217.143,555.286,217.367,555.358,217.697z"/>
		</g>
		<g>
			<path style="fill:#15314C;" d="M547.468,198.39c0.045,0.278-0.008,0.548-0.132,0.763c-0.139,0.243-0.368,0.419-0.647,0.464
				c-0.278,0.045-0.551-0.049-0.76-0.236c-0.185-0.166-0.321-0.405-0.366-0.683c-0.096-0.592,0.253-1.142,0.779-1.227
				C546.869,197.386,547.372,197.797,547.468,198.39z"/>
			<path style="fill:#FFD800;" d="M547.336,199.153c-0.139,0.243-0.368,0.419-0.647,0.464c-0.278,0.045-0.551-0.049-0.76-0.236
				c0.017-0.291,0.173-0.545,0.406-0.665c-0.126-0.059-0.225-0.187-0.251-0.348c-0.04-0.244,0.104-0.471,0.321-0.506
				c0.217-0.035,0.425,0.135,0.464,0.379c0.026,0.161-0.028,0.313-0.129,0.409C547,198.69,547.228,198.882,547.336,199.153z"/>
		</g>
		<g>
			<g>
				<path style="fill:#FFD800;" d="M554.682,200.258l1.528,8.593c0.088,0.497-0.24,0.983-0.734,1.085l-8.928,1.843
					c-0.542,0.112-1.059-0.221-1.153-0.745l-1.622-9.045c-0.094-0.525,0.275-1.019,0.823-1.103l9.021-1.392
					C554.118,199.418,554.594,199.76,554.682,200.258z"/>
				<path style="fill:#FFD800;" d="M556.763,211.52l0.237,1.288c0.093,0.52-0.255,1.03-0.775,1.138l-8.887,2.029
					c-0.516,0.107-1.007-0.226-1.099-0.743l-0.263-1.409c-0.091-0.517,0.25-1.024,0.765-1.135l8.913-1.908
					C556.174,210.669,556.671,211,556.763,211.52z"/>
				<path style="fill:#FFFFFF;" d="M548.074,203.955l-0.627-3.508l-0.466,0.072l0.37,2.068l-3.37,0.553l0.082,0.459l3.369-0.561
					l1.161,6.493l-3.347,0.662l0.082,0.458l3.346-0.669l0.234,1.308l0.461-0.095l-0.502-2.807l2.665-0.514
					c1.064-0.205,1.769-1.222,1.582-2.27l-0.356-1.999l2.444-0.424l-0.078-0.436L548.074,203.955z M552.671,205.688
					c0.144,0.806-0.4,1.588-1.218,1.744l-2.667,0.508l-0.632-3.534l4.159-0.721L552.671,205.688z"/>
			</g>
			<g>
				<path style="fill:#F41C2C;" d="M549.468,201.655c-0.11-0.562-0.666-0.938-1.245-0.838c-0.582,0.101-0.966,0.643-0.854,1.211
					c0.157,0.802,1.487,2.017,1.487,2.017S549.615,202.41,549.468,201.655z"/>
				<path style="fill:#FFFFFF;" d="M549.014,201.685c0.063,0.323-0.154,0.634-0.486,0.694c-0.333,0.06-0.655-0.155-0.719-0.48
					c-0.064-0.325,0.156-0.636,0.489-0.695C548.631,201.146,548.951,201.361,549.014,201.685z"/>
			</g>
			<path style="fill:#FFFFFF;" d="M549.91,209.626c0.11,0.615-0.31,1.218-0.941,1.347c-0.635,0.13-1.243-0.268-1.354-0.889
				c-0.111-0.622,0.317-1.227,0.954-1.35C549.2,208.611,549.8,209.011,549.91,209.626z"/>
			<path style="fill:#FFD800;" d="M549.31,209.746c0.052,0.292-0.148,0.577-0.447,0.638c-0.3,0.061-0.587-0.128-0.639-0.421
				c-0.052-0.293,0.149-0.579,0.45-0.638C548.973,209.265,549.258,209.454,549.31,209.746z"/>
		</g>
		<path style="fill:#707B84;" d="M539.434,199.389l0.907,5.241c0.026,0.151,0.174,0.248,0.323,0.212l0.209-0.051
			c0.135-0.033,0.222-0.165,0.198-0.303l-0.926-5.233c-0.026-0.148-0.171-0.245-0.319-0.212l-0.19,0.043
			C539.499,199.117,539.41,199.25,539.434,199.389z"/>
	</g>
	<path style="fill:#F4D6A6;" d="M564.593,216.338c-0.024-1.682-1.221-4.064-2.279-5.371c-1.197-1.48-3.152-2.069-4.986-2.581
		c-0.322-0.09-0.692-0.173-0.969,0.014c-0.358,0.241-0.337,0.784-0.164,1.18c0.791,1.818,2.448,2.167,2.757,4.126
		c0.193,1.226,0.369,2.006,0.795,3.625c0.3,1.139,1.47,3.526,2.915,3.099C563.871,220.072,564.618,218.071,564.593,216.338z"/>
	<path style="fill:#F41C2C;" d="M608.454,180.804c2.097,1.204,4.373,2.178,6.125,3.845c1.752,1.667,1.78,6.51,0.448,7.919
		c1.52-0.076,2.906-2.771,2.827-5.193c0,2.621,0.51,7.815,0.286,10.277c-0.305,3.34-0.229,7.829,1.608,10.635
		c1.463,2.236,5.682,12.141,5.682,12.141s13.689,3.848,14.292-11.292c0.499-12.528-8.542-10.369-11.617-25.451
		c-0.896-4.392-2.406-8.874-5.711-11.902c-2.647-2.425-6.209-3.756-9.794-3.939c-2.481-0.127-5.099,0.323-7.051,1.861
		C600.575,173.629,604.333,178.439,608.454,180.804z"/>
	<path style="fill:#F4D6A6;" d="M617.554,189.458c0.089-0.433,0.21-0.855,0.314-1.235c0.335-1.226,0.881-2.712,2.172-3.21
		c0.075-0.029,0.151-0.054,0.228-0.075c2.204-0.599,2.452,3.67,2.232,4.895c-0.208,1.157-0.979,2.904-2.314,3.117
		c-0.712,0.114-1.585-0.15-2.101-0.647C617.311,191.557,617.344,190.476,617.554,189.458z"/>
	<path style="fill:#F41C2C;" d="M628.228,211.838c0.229-0.107,0.5-0.007,0.607,0.222c4.186,9.02,7.172,40.011,7.821,47.231h-0.919
		c-0.664-7.263-3.678-38.115-7.731-46.846C627.9,212.216,627.999,211.944,628.228,211.838z"/>
	<path style="fill:#091B2B;" d="M602.227,250.7c0.027-6.395-2.506-15.898-4.052-22.103c-1.546-6.205-1.949-13.306,1.814-18.476
		c0.004,0.007,0.009,0.013,0.013,0.02c0.018-0.068,0.034-0.131,0.052-0.199c1.514,0.152,3.068-0.13,4.432-0.805
		c-0.118,1.567-0.488,3.362-0.33,4.974c3.534,1.902,8.127,1.902,12.947,0.93c0.19-0.208,0.373-0.421,0.547-0.641
		c0.849-1.077,2.662-4.177,3.958-4.703c0,0,6.815,0.483,6.622,2.141c0.704,4.014-2.276,11.313-2.984,15.39
		c-0.586,3.377-2.12,17.158,5.663,28.696c2.066,3.064,4.499,6.768,6.011,9.862c2.607,4.191,4.173,9.147,4.885,13.869
		c1.312,8.696-1.485,34.553-2.684,43.266c-17.136,4.681-38.555-3.521-55.125-9.921C587.14,301.77,602.205,255.922,602.227,250.7z"/>
	<g>
		<path style="fill:#F41C2C;" d="M618.292,276.953h21.02c1.565,0,2.833-1.268,2.833-2.833v-12.624c0-1.565-1.269-2.833-2.833-2.833
			h-21.02c-1.565,0-2.833,1.268-2.833,2.833v12.624C615.458,275.685,616.727,276.953,618.292,276.953z"/>
		<polygon style="fill:#F43D53;" points="629.292,270.535 640.692,261.403 617.891,261.403 		"/>
	</g>
	<path style="fill:#BDEDF4;" d="M620.24,193.279c0,0.517-0.419,0.937-0.937,0.937c-0.517,0-0.937-0.419-0.937-0.937
		c0-0.517,0.419-0.937,0.937-0.937C619.82,192.342,620.24,192.761,620.24,193.279z"/>
	<g>
		<path style="fill:#F41C2C;" d="M630.376,108.405c-0.205-12.668-10.642-22.772-23.31-22.566
			c-12.668,0.205-22.772,10.642-22.566,23.31c0.29,17.894,23.74,49.067,23.74,49.067S630.652,125.401,630.376,108.405z"/>
		<path style="fill:#FFFFFF;" d="M620.583,107.454c0.118,7.27-5.68,13.259-12.95,13.377c-7.27,0.118-13.259-5.68-13.377-12.95
			c-0.118-7.27,5.68-13.259,12.95-13.377C614.477,94.387,620.465,100.185,620.583,107.454z"/>
	</g>
	<g>
		<path style="fill:#F41C2C;" d="M230.152,178.721c-0.205-12.668-10.642-22.772-23.31-22.566
			c-12.668,0.205-22.772,10.641-22.566,23.31c0.29,17.894,23.74,49.067,23.74,49.067S230.428,195.717,230.152,178.721z"/>
		<path style="fill:#FFFFFF;" d="M220.359,177.77c0.118,7.27-5.68,13.259-12.95,13.377c-7.27,0.118-13.259-5.68-13.376-12.95
			c-0.118-7.27,5.68-13.259,12.95-13.377C214.253,164.702,220.242,170.5,220.359,177.77z"/>
	</g>
	<path style="fill:#091B2B;" d="M607.002,187.837c0,0.775-0.283,1.404-0.632,1.404s-0.632-0.628-0.632-1.404
		c0-0.775,0.283-1.404,0.632-1.404S607.002,187.062,607.002,187.837z"/>
	<path style="fill:#091B2B;" d="M601.141,187.837c0,0.775-0.283,1.404-0.632,1.404c-0.349,0-0.632-0.628-0.632-1.404
		c0-0.775,0.283-1.404,0.632-1.404C600.858,186.434,601.141,187.062,601.141,187.837z"/>
	<path style="fill:#C1162A;" d="M604.262,184.714c0,0,1.419-0.889,2.674-0.978c1.255-0.089,3.035,1.54,3.035,1.54
		s-0.148-0.889-0.593-1.333c-0.445-0.444-1.965-1.392-2.669-1.363c-0.704,0.03-2.113,0.474-2.446,0.829
		C603.929,183.766,604.262,184.714,604.262,184.714z"/>
	<path style="fill:#C1162A;" d="M601.877,185.276c0,0-1.134-0.889-2.137-0.978c-1.003-0.089-2.425,1.54-2.425,1.54
		s0.118-0.889,0.474-1.333c0.355-0.444,1.57-1.392,2.133-1.363c0.563,0.03,1.689,0.474,1.955,0.829S601.877,185.276,601.877,185.276
		z"/>
	<path style="fill:#D8AF75;" d="M602.813,195.014c-0.306,0.005-0.598-0.081-0.869-0.18c-0.272-0.103-0.514-0.271-0.718-0.472
		c-0.14-0.136-0.256-0.301-0.355-0.468l1.268-0.647l0.117-0.06l0.034-0.135c0.318-1.279,0.713-2.581,0.761-3.964
		c0.016-0.684-0.047-1.374-0.212-2.039c-0.175-0.656-0.47-1.311-0.962-1.774c0.368,0.559,0.542,1.202,0.627,1.842
		c0.094,0.641,0.076,1.293,0.01,1.936c-0.119,1.243-0.496,2.466-0.783,3.729l-1.347,0.771l-0.232,0.133l0.119,0.207
		c0.186,0.324,0.404,0.569,0.672,0.787c0.265,0.213,0.57,0.38,0.896,0.466c0.326,0.084,0.664,0.103,0.985,0.049
		c0.323-0.039,0.626-0.149,0.913-0.279C603.425,194.975,603.118,195.025,602.813,195.014z"/>
	<path style="fill:#FFFFFF;" d="M601.141,196.818c0.06,0.029,7.132-0.7,7.132-0.7s-1.062,2.246-3.824,2.61
		C601.686,199.093,601.141,196.818,601.141,196.818z"/>
	<g>
		<ellipse style="opacity:0.5;fill:#9BA2A3;" cx="243.051" cy="397.241" rx="179.732" ry="8.899"/>
		<g>
			<path style="fill:#FFFFFF;" d="M265.205,226.548V241.4l-26.918-0.176l9.315-15.495c0.479-0.6,1.44-0.977,2.489-0.977h12.317
				C263.952,224.751,265.205,225.556,265.205,226.548z"/>
			<path style="fill:#FFFFFF;" d="M265.205,225.138V241.4l-26.918-0.193l9.315-16.966c0.479-0.657,1.44-1.07,2.489-1.07h12.317
				C263.952,223.17,265.205,224.051,265.205,225.138z"/>
			<path style="fill:#FFB000;" d="M262.222,224.242V241.4l-23.935-0.204l8.283-17.902c0.426-0.693,1.28-1.129,2.213-1.129h10.952
				C261.108,222.166,262.222,223.095,262.222,224.242z"/>
			<path style="fill:#FFD800;" d="M407.701,371.259H75.723c0,0-7.82-9.675-6.228-23.489c-0.038-2.318,0.044-5.339,0.251-8.77
				c0.393-6.261,1.211-13.868,2.525-20.996c1.445-7.799,3.485-15.03,6.201-19.284c1.129-1.772,2.378-3.032,3.752-3.599
				c6.817-19.071,23.641-42.064,34.216-50.206c-1.451-2.416,6.926-4.254,10.591-4.679c36.207-4.205,149.849-3.529,158.379,0.862
				c1.941,0.616,6.168,1.974,4.794,3.817c12.129,11.54,36.305,48.395,36.681,48.974l0.005,0.005c0,0,43.591,3.747,58.027,7.521
				c4.848,1.271,9.511,3.168,12.827,6.926c2.214,2.509,4.068,5.764,5.677,9.664c0.229,0.545,0.453,1.107,0.665,1.68
				c1.903,5.001,3.463,10.951,4.903,17.637c0.12,0.556,0.24,1.113,0.354,1.68c0.573,2.732,1.129,5.579,1.685,8.53
				C412.609,355.956,411.584,367.338,407.701,371.259z"/>
			<path style="opacity:0.2;fill:#FF6700;" d="M326.889,293.894l-7.867,3.437c-5.448,2.38-11.328,3.609-17.273,3.609H92.01
				c-3.985,0-7.948-0.572-11.77-1.698l-1.769-0.521c1.129-1.772,2.378-3.032,3.752-3.599c6.817-19.071,23.641-42.064,34.216-50.206
				c-1.451-2.416,6.926-4.254,10.591-4.679c36.207-4.205,149.849-3.529,158.379,0.862c1.941,0.616,6.168,1.974,4.794,3.817
				c12.129,11.54,36.305,48.395,36.681,48.974L326.889,293.894z"/>
			<path style="fill:#C98F1B;" d="M222.203,307.711h8.378c4.291,0,7.77-3.479,7.77-7.77l0,0c0-0.774-0.627-1.401-1.401-1.401
				h-21.117c-0.774,0-1.401,0.627-1.401,1.401v0C214.433,304.232,217.912,307.711,222.203,307.711z"/>
			<path style="fill:#C98F1B;" d="M140.395,307.711h8.378c4.291,0,7.77-3.479,7.77-7.77l0,0c0-0.774-0.627-1.401-1.401-1.401
				h-21.117c-0.774,0-1.401,0.627-1.401,1.401v0C132.625,304.232,136.104,307.711,140.395,307.711z"/>
			<path style="fill:#FFB000;" d="M220.187,305.331h12.411c3.178,0,5.754-2.576,5.754-5.754l0,0c0-0.573-0.464-1.037-1.037-1.037
				h-21.844c-0.573,0-1.037,0.464-1.037,1.037l0,0C214.433,302.755,217.009,305.331,220.187,305.331z"/>
			<path style="fill:#FFB000;" d="M138.379,305.331h12.411c3.178,0,5.754-2.576,5.754-5.754l0,0c0-0.573-0.464-1.037-1.037-1.037
				h-21.844c-0.573,0-1.037,0.464-1.037,1.037l0,0C132.625,302.755,135.201,305.331,138.379,305.331z"/>
			<path style="fill:#FFB000;" d="M416.001,355.585v9.042c0,7.417-6.01,13.432-13.427,13.432H80.031
				c-7.417,0-13.432-6.015-13.432-13.432v-10.929c0-1.576,1.276-2.847,2.847-2.847h341.828
				C413.885,350.851,416.001,352.967,416.001,355.585z"/>
			<g>
				
					<rect x="363.364" y="356.154" transform="matrix(-1 -1.224647e-16 1.224647e-16 -1 742.3776 719.4791)" style="fill:#15314C;" width="15.649" height="7.17"/>
				
					<rect x="363.364" y="356.154" transform="matrix(-1 -1.224647e-16 1.224647e-16 -1 742.3776 719.4791)" style="fill:#15314C;" width="15.649" height="7.17"/>
				
					<rect x="363.364" y="362.812" transform="matrix(-1 -1.224647e-16 1.224647e-16 -1 742.3776 732.7947)" style="fill:#FAFAFA;" width="15.649" height="7.17"/>
				
					<rect x="348.257" y="362.812" transform="matrix(-1 -1.224647e-16 1.224647e-16 -1 712.1635 732.7947)" style="fill:#15314C;" width="15.649" height="7.17"/>
				
					<rect x="348.257" y="362.812" transform="matrix(-1 -1.224647e-16 1.224647e-16 -1 712.1635 732.7947)" style="fill:#15314C;" width="15.649" height="7.17"/>
				
					<rect x="348.257" y="356.154" transform="matrix(-1 -1.224647e-16 1.224647e-16 -1 712.1635 719.4791)" style="fill:#FAFAFA;" width="15.649" height="7.17"/>
				
					<rect x="333.15" y="356.154" transform="matrix(-1 -1.224647e-16 1.224647e-16 -1 681.9497 719.4791)" style="fill:#15314C;" width="15.649" height="7.17"/>
				
					<rect x="333.15" y="356.154" transform="matrix(-1 -1.224647e-16 1.224647e-16 -1 681.9497 719.4791)" style="fill:#15314C;" width="15.649" height="7.17"/>
				
					<rect x="333.15" y="362.812" transform="matrix(-1 -1.224647e-16 1.224647e-16 -1 681.9497 732.7947)" style="fill:#FAFAFA;" width="15.649" height="7.17"/>
				
					<rect x="318.043" y="362.812" transform="matrix(-1 -1.224647e-16 1.224647e-16 -1 651.7358 732.7947)" style="fill:#15314C;" width="15.649" height="7.17"/>
				
					<rect x="318.043" y="362.812" transform="matrix(-1 -1.224647e-16 1.224647e-16 -1 651.7358 732.7947)" style="fill:#15314C;" width="15.649" height="7.17"/>
				
					<rect x="318.043" y="356.154" transform="matrix(-1 -1.224647e-16 1.224647e-16 -1 651.7358 719.4791)" style="fill:#FAFAFA;" width="15.649" height="7.17"/>
				
					<rect x="302.936" y="356.154" transform="matrix(-1 -1.224647e-16 1.224647e-16 -1 621.5219 719.4791)" style="fill:#15314C;" width="15.649" height="7.17"/>
				
					<rect x="302.936" y="356.154" transform="matrix(-1 -1.224647e-16 1.224647e-16 -1 621.5219 719.4791)" style="fill:#15314C;" width="15.649" height="7.17"/>
				
					<rect x="302.936" y="362.812" transform="matrix(-1 -1.224647e-16 1.224647e-16 -1 621.5219 732.7947)" style="fill:#FAFAFA;" width="15.649" height="7.17"/>
				
					<rect x="287.829" y="362.812" transform="matrix(-1 -1.224647e-16 1.224647e-16 -1 591.308 732.7947)" style="fill:#15314C;" width="15.649" height="7.17"/>
				
					<rect x="287.829" y="362.812" transform="matrix(-1 -1.224647e-16 1.224647e-16 -1 591.308 732.7947)" style="fill:#15314C;" width="15.649" height="7.17"/>
				
					<rect x="287.829" y="356.154" transform="matrix(-1 -1.224647e-16 1.224647e-16 -1 591.308 719.4791)" style="fill:#FAFAFA;" width="15.649" height="7.17"/>
				
					<rect x="272.722" y="356.154" transform="matrix(-1 -1.224647e-16 1.224647e-16 -1 561.094 719.4791)" style="fill:#15314C;" width="15.649" height="7.17"/>
				
					<rect x="272.722" y="356.154" transform="matrix(-1 -1.224647e-16 1.224647e-16 -1 561.094 719.4791)" style="fill:#15314C;" width="15.649" height="7.17"/>
				
					<rect x="272.722" y="362.812" transform="matrix(-1 -1.224647e-16 1.224647e-16 -1 561.094 732.7947)" style="fill:#FAFAFA;" width="15.649" height="7.17"/>
				
					<rect x="257.616" y="362.812" transform="matrix(-1 -1.224647e-16 1.224647e-16 -1 530.8803 732.7947)" style="fill:#15314C;" width="15.649" height="7.17"/>
				
					<rect x="257.616" y="362.812" transform="matrix(-1 -1.224647e-16 1.224647e-16 -1 530.8803 732.7947)" style="fill:#15314C;" width="15.649" height="7.17"/>
				
					<rect x="257.616" y="356.154" transform="matrix(-1 -1.224647e-16 1.224647e-16 -1 530.8803 719.4791)" style="fill:#FAFAFA;" width="15.649" height="7.17"/>
				
					<rect x="242.508" y="356.154" transform="matrix(-1 -1.224647e-16 1.224647e-16 -1 500.6662 719.4791)" style="fill:#15314C;" width="15.649" height="7.17"/>
				
					<rect x="242.508" y="356.154" transform="matrix(-1 -1.224647e-16 1.224647e-16 -1 500.6662 719.4791)" style="fill:#15314C;" width="15.649" height="7.17"/>
				
					<rect x="242.508" y="362.812" transform="matrix(-1 -1.224647e-16 1.224647e-16 -1 500.6662 732.7947)" style="fill:#FAFAFA;" width="15.649" height="7.17"/>
				
					<rect x="227.401" y="362.812" transform="matrix(-1 -1.224647e-16 1.224647e-16 -1 470.4524 732.7947)" style="fill:#15314C;" width="15.649" height="7.17"/>
				
					<rect x="227.401" y="362.812" transform="matrix(-1 -1.224647e-16 1.224647e-16 -1 470.4524 732.7947)" style="fill:#15314C;" width="15.649" height="7.17"/>
				
					<rect x="227.401" y="356.154" transform="matrix(-1 -1.224647e-16 1.224647e-16 -1 470.4524 719.4791)" style="fill:#FAFAFA;" width="15.649" height="7.17"/>
				
					<rect x="212.295" y="356.154" transform="matrix(-1 -1.224647e-16 1.224647e-16 -1 440.2386 719.4791)" style="fill:#15314C;" width="15.649" height="7.17"/>
				
					<rect x="212.295" y="356.154" transform="matrix(-1 -1.224647e-16 1.224647e-16 -1 440.2386 719.4791)" style="fill:#15314C;" width="15.649" height="7.17"/>
				
					<rect x="212.295" y="362.812" transform="matrix(-1 -1.224647e-16 1.224647e-16 -1 440.2386 732.7947)" style="fill:#FAFAFA;" width="15.649" height="7.17"/>
				
					<rect x="197.188" y="362.812" transform="matrix(-1 -1.224647e-16 1.224647e-16 -1 410.0246 732.7947)" style="fill:#15314C;" width="15.649" height="7.17"/>
				
					<rect x="197.188" y="362.812" transform="matrix(-1 -1.224647e-16 1.224647e-16 -1 410.0246 732.7947)" style="fill:#15314C;" width="15.649" height="7.17"/>
				
					<rect x="197.188" y="356.154" transform="matrix(-1 -1.224647e-16 1.224647e-16 -1 410.0246 719.4791)" style="fill:#FAFAFA;" width="15.649" height="7.17"/>
				
					<rect x="182.081" y="356.154" transform="matrix(-1 -1.224647e-16 1.224647e-16 -1 379.8108 719.4791)" style="fill:#15314C;" width="15.649" height="7.17"/>
				
					<rect x="182.081" y="356.154" transform="matrix(-1 -1.224647e-16 1.224647e-16 -1 379.8108 719.4791)" style="fill:#15314C;" width="15.649" height="7.17"/>
				
					<rect x="182.081" y="362.812" transform="matrix(-1 -1.224647e-16 1.224647e-16 -1 379.8108 732.7947)" style="fill:#FAFAFA;" width="15.649" height="7.17"/>
				
					<rect x="166.974" y="362.812" transform="matrix(-1 -1.224647e-16 1.224647e-16 -1 349.5968 732.7947)" style="fill:#15314C;" width="15.649" height="7.17"/>
				
					<rect x="166.974" y="362.812" transform="matrix(-1 -1.224647e-16 1.224647e-16 -1 349.5968 732.7947)" style="fill:#15314C;" width="15.649" height="7.17"/>
				
					<rect x="166.974" y="356.154" transform="matrix(-1 -1.224647e-16 1.224647e-16 -1 349.5968 719.4791)" style="fill:#FAFAFA;" width="15.649" height="7.17"/>
				
					<rect x="151.867" y="356.154" transform="matrix(-1 -1.224647e-16 1.224647e-16 -1 319.383 719.4791)" style="fill:#15314C;" width="15.649" height="7.17"/>
				
					<rect x="151.867" y="356.154" transform="matrix(-1 -1.224647e-16 1.224647e-16 -1 319.383 719.4791)" style="fill:#15314C;" width="15.649" height="7.17"/>
				
					<rect x="151.867" y="362.812" transform="matrix(-1 -1.224647e-16 1.224647e-16 -1 319.383 732.7947)" style="fill:#FAFAFA;" width="15.649" height="7.17"/>
				
					<rect x="136.76" y="362.812" transform="matrix(-1 -1.224647e-16 1.224647e-16 -1 289.1691 732.7947)" style="fill:#15314C;" width="15.649" height="7.17"/>
				
					<rect x="136.76" y="362.812" transform="matrix(-1 -1.224647e-16 1.224647e-16 -1 289.1691 732.7947)" style="fill:#15314C;" width="15.649" height="7.17"/>
				
					<rect x="136.76" y="356.154" transform="matrix(-1 -1.224647e-16 1.224647e-16 -1 289.1691 719.4791)" style="fill:#FAFAFA;" width="15.649" height="7.17"/>
			</g>
			<path style="fill:#091B2B;" d="M159.763,369.121c0.022,3.087-0.349,6.081-1.08,8.938H90.556c-0.687-2.689-1.058-5.503-1.08-8.398
				c-0.055-6.899,1.887-13.356,5.285-18.81c6.146-9.887,17.081-16.508,29.586-16.601c12.701-0.098,23.881,6.55,30.131,16.601
				C157.783,356.158,159.708,362.413,159.763,369.121z"/>
			<path style="fill:#091B2B;" d="M387.833,369.121c0.022,3.087-0.349,6.081-1.08,8.938h-68.127
				c-0.687-2.689-1.058-5.503-1.08-8.398c-0.055-6.899,1.887-13.356,5.285-18.81c6.146-9.887,17.081-16.508,29.586-16.601
				c12.702-0.098,23.881,6.55,30.131,16.601C385.853,356.158,387.779,362.413,387.833,369.121z"/>
			<path style="fill:#091B2B;" d="M69.446,350.85c-1.572,0-2.846,1.274-2.846,2.846v10.932c0,7.417,6.013,13.43,13.43,13.43h6.123
				c0.992,0,1.797-0.804,1.797-1.797v-23.615c0-0.992-0.804-1.797-1.797-1.797H69.446z"/>
			<path style="fill:#091B2B;" d="M411.271,350.85h-13.995c-1.417,0-2.567,1.149-2.567,2.567v22.076
				c0,1.417,1.149,2.567,2.567,2.567h5.297c7.417,0,13.43-6.013,13.43-13.43v-9.046C416.003,352.969,413.885,350.85,411.271,350.85z
				"/>
			<g>
				
					<ellipse transform="matrix(0.8143 -0.5804 0.5804 0.8143 -191.2576 140.913)" style="fill:#213544;" cx="124.618" cy="369.392" rx="30.954" ry="30.954"/>
				
					<ellipse transform="matrix(0.7071 -0.7071 0.7071 0.7071 -224.6997 196.3107)" style="fill:#FFFFFF;" cx="124.618" cy="369.392" rx="17.903" ry="17.903"/>
				<path style="fill:#15314C;" d="M115.182,369.465c0.04,5.211,4.297,9.403,9.508,9.363c5.211-0.04,9.403-4.297,9.363-9.509
					c-0.04-5.211-4.297-9.403-9.509-9.363C119.334,359.996,115.142,364.254,115.182,369.465z"/>
			</g>
			<g>
				<path style="fill:#213544;" d="M321.736,369.631c0.132,17.095,14.097,30.846,31.193,30.714
					c17.095-0.132,30.846-14.097,30.714-31.192c-0.132-17.095-14.097-30.846-31.192-30.714
					C335.356,338.571,321.604,352.536,321.736,369.631z"/>
				
					<ellipse transform="matrix(0.5345 -0.8452 0.8452 0.5345 -148.0246 470.0179)" style="fill:#FFFFFF;" cx="352.69" cy="369.392" rx="17.903" ry="17.903"/>
				<path style="fill:#15314C;" d="M343.254,369.465c0.04,5.211,4.298,9.403,9.509,9.363c5.211-0.04,9.403-4.297,9.363-9.509
					c-0.04-5.211-4.297-9.403-9.508-9.363C347.406,359.996,343.214,364.254,343.254,369.465z"/>
			</g>
			<path style="fill:#5BB5C1;" d="M152.831,244.977c7.998-0.109,23.216-0.369,45.326-0.455c2.474-0.01,4.487,1.702,4.487,3.815
				v42.97c0,2.107-1.999,3.815-4.465,3.815h-64.003c-3.01,0-4.982-2.435-4.266-4.948c3.742-13.137,9.74-31.294,17.649-42.585
				C148.671,245.997,150.66,245.006,152.831,244.977z"/>
			<path style="fill:#5BB5C1;" d="M286.477,295.122h-65.548c-4.386,0-7.942-3.098-7.942-6.919v-36.784
				c0-3.828,3.569-6.928,7.964-6.919c23.708,0.044,48.933,0.418,51.508,1.562c4.197,1.865,13.608,25.187,20.925,38.724
				C296.002,289.63,292.567,295.122,286.477,295.122z"/>
			<path style="fill:#5BB5C1;" d="M326.892,293.895h-9.251c-3.87,0-7.458-2.029-9.453-5.345l-21.26-40.798
				c-0.49-0.815-0.074-1.873,0.84-2.135l2.438-0.701C302.432,256.548,326.892,293.895,326.892,293.895z"/>
			<path style="fill:#5BB5C1;" d="M134.379,249.48c-7.044,11.779-12.694,29.953-17.073,43.532c-0.404,1.254-1.563,2.109-2.88,2.109
				H82.223c6.817-19.071,23.643-42.064,34.218-50.206h15.338C134.122,244.916,135.582,247.469,134.379,249.48z"/>
			<path style="fill:#76C8CE;" d="M137.15,268.243c-1.941,4.991-3.653,10.074-5.132,14.839c23.49-2.838,47.019-4.749,70.625-5.066
				v-17.273C180.86,263.509,159.02,265.959,137.15,268.243z"/>
			<path style="fill:#76C8CE;" d="M293.383,284.785c-5.732-10.605-12.749-27.213-17.538-34.807
				c-20.878,3.555-41.839,6.652-62.859,9.425v18.58c19.099,0.132,38.252,1.364,57.478,4.072c1.784,0.595,0.033,6.491-0.63,13.067
				h16.643C292.567,295.122,296.002,289.63,293.383,284.785z"/>
			<path style="fill:#76C8CE;" d="M292.338,247.075c-1.756,0.321-3.514,0.63-5.271,0.944l21.121,40.53
				c0.098,0.163,0.217,0.309,0.323,0.466c3.932-1.664,7.894-3.261,11.882-4.799C312.942,273.3,300.681,255.921,292.338,247.075z"/>
			<path style="fill:#76C8CE;" d="M93.492,272.63c-3.528,5.642-6.726,11.558-9.201,17.285c11.905-1.917,23.813-3.713,35.729-5.303
				c1.605-4.913,3.349-10.089,5.237-15.142C114.673,270.549,104.084,271.597,93.492,272.63z"/>
			<path style="fill:none;stroke:#FFFFFF;stroke-miterlimit:10;" d="M129.761,297.972v28.349c0,0,38.826,2.748,36.441,44.939h41.012
				V244.916"/>
			<polyline style="fill:none;stroke:#FFFFFF;stroke-miterlimit:10;" points="207.214,371.26 297.14,371.26 297.14,297.535 			"/>
			<path style="fill:#FFFFFF;" d="M89.078,322.155l-1.288,13.419c-0.187,1.943-1.819,3.427-3.771,3.427H69.745
				c0.393-6.261,1.211-13.868,2.525-20.996h13.036C87.542,318.004,89.292,319.93,89.078,322.155z"/>
			<path style="fill:#FF6700;" d="M85.988,323.169l-1.082,11.274c-0.157,1.633-1.528,2.879-3.169,2.879H69.745
				c0.33-5.26,1.017-11.652,2.121-17.64h10.953C84.698,319.682,86.167,321.3,85.988,323.169z"/>
			<path style="fill:#FFFFFF;" d="M409.343,339h-12.941c-1.952,0-3.589-1.483-3.774-3.425l-1.287-13.421
				c-0.213-2.225,1.538-4.15,3.768-4.15h8.311c0.229,0.545,0.453,1.107,0.665,1.68c1.903,5.001,3.463,10.951,4.903,17.637
				C409.108,337.877,409.228,338.433,409.343,339z"/>
			<path style="fill:#FF6700;" d="M404.085,319.684c1.903,5.001,3.463,10.951,4.903,17.637h-10.307c-1.641,0-3.01-1.243-3.168-2.88
				l-1.08-11.273c-0.18-1.871,1.287-3.485,3.169-3.485H404.085z"/>
		</g>
	</g>
	<g>
		<defs>
			<rect id="SVGID_1_" y="285.506" width="750" height="214.494"/>
		</defs>
		<clipPath id="SVGID_00000179605313316739625680000014077482868761973895_">
			<use xlink:href="#SVGID_1_"  style="overflow:visible;"/>
		</clipPath>
		<g style="clip-path:url(#SVGID_00000179605313316739625680000014077482868761973895_);">
			<path style="fill:#FFB000;" d="M110.105,493.889c-8.916,1.691-19.011,1.797-29.65,1.861c-10.615,0.009-21.834-0.21-32.24,0.014
				c-10.388,0.192-20.005,0.672-26.986,1.239c-0.882,0.061-1.721,0.118-2.515,0.173c-0.788,0.071-1.529,0.137-2.223,0.2
				c-1.402,0.121-2.606,0.224-3.59,0.309c-0.995,0.079-1.766,0.141-2.289,0.182c-0.517,0.049-0.788,0.075-0.788,0.075
				s0.09-0.261,0.261-0.76c0.188-0.487,0.465-1.207,0.822-2.135c0.366-0.929,0.826-2.068,1.384-3.397
				c0.284-0.665,0.589-1.377,0.912-2.132c0.348-0.74,0.716-1.522,1.103-2.344c3.098-6.646,8.149-15.692,15.521-25.2
				c7.335-9.506,17.114-19.299,28.605-27.291c11.438-8.038,24.651-14.006,37.569-16.429c12.916-2.419,23.943-2.359,32.831-0.849
				c2.221,0.337,4.319,0.841,6.286,1.39c1.967,0.562,3.801,1.12,5.515,1.842c1.714,0.709,3.301,1.467,4.767,2.271
				c0.733,0.402,1.436,0.814,2.11,1.238c0.674,0.443,1.318,0.899,1.934,1.363c2.462,1.862,4.464,3.848,6.058,6.004
				c1.594,2.183,2.783,4.477,3.628,6.856c1.691,4.76,2.011,9.864,1.477,15.148c-0.535,5.284-1.878,10.25-4.067,14.687
				c-1.094,2.218-2.4,4.304-3.923,6.228c-1.526,1.951-3.276,3.8-5.256,5.44c-0.495,0.412-1.005,0.811-1.53,1.2
				c-0.526,0.409-1.068,0.807-1.624,1.193c-1.113,0.772-2.288,1.497-3.527,2.171c-1.239,0.66-2.548,1.383-3.923,1.992
				c-1.376,0.621-2.822,1.177-4.344,1.779C126.322,490.454,119.039,492.212,110.105,493.889z"/>
			<path style="fill:none;stroke:#FDFFFF;stroke-width:2;stroke-linecap:round;stroke-linejoin:round;stroke-miterlimit:10;" d="
				M152.488,452.884c-17.82-1.071-35.771,0.315-53.249,3.925c-17.483,3.602-34.506,9.395-50.584,17.143
				c-16.077,7.748-31.216,17.454-44.912,28.901c-13.689,11.446-25.954,24.632-36.153,39.287"/>
			<path style="fill:none;stroke:#FFFFFF;stroke-width:2;stroke-linecap:round;stroke-linejoin:round;stroke-miterlimit:10;" d="
				M34.339,481.497c9.689,2.211,19.011,5.15,27.811,8.588"/>
			<path style="fill:none;stroke:#FFFFFF;stroke-width:2;stroke-linecap:round;stroke-linejoin:round;stroke-miterlimit:10;" d="
				M45.161,475.653c1.935-11.006,4.684-22.235,8.379-33.339"/>
			<path style="fill:none;stroke:#FFFFFF;stroke-width:2;stroke-linecap:round;stroke-linejoin:round;stroke-miterlimit:10;" d="
				M65.787,466.561c10.905,6.441,20.988,13.754,30.073,21.641"/>
			<path style="fill:none;stroke:#FFFFFF;stroke-width:2;stroke-linecap:round;stroke-linejoin:round;stroke-miterlimit:10;" d="
				M81.104,461.383c4.423-12.267,10.03-24.52,16.897-36.416"/>
			<path style="fill:none;stroke:#FFFFFF;stroke-width:2;stroke-linecap:round;stroke-linejoin:round;stroke-miterlimit:10;" d="
				M103.682,455.95c1.905,1.759,3.784,3.636,5.608,5.475c1.827,1.862,3.601,3.672,5.341,5.594c3.478,3.829,6.765,7.63,9.875,11.634"
				/>
			<path style="fill:none;stroke:#FFFFFF;stroke-width:2;stroke-linecap:round;stroke-linejoin:round;stroke-miterlimit:10;" d="
				M112.901,454.464c5.341-9.083,11.493-17.939,18.468-26.55"/>
		</g>
		<g style="clip-path:url(#SVGID_00000179605313316739625680000014077482868761973895_);">
			<path style="fill:#FFB000;" d="M31.908,378.835c-0.045,2.578-0.169,5.208-0.361,7.867c-0.111,1.329-0.175,2.668-0.372,4.007
				c-0.182,1.339-0.38,2.683-0.593,4.029c-0.429,2.691-0.903,5.393-1.451,8.079c-0.64,2.679-1.328,5.346-2.053,7.983
				c-0.37,1.308-0.742,2.619-1.113,3.93c-0.396,1.299-0.861,2.58-1.298,3.854c-0.89,2.546-1.803,5.043-2.728,7.478
				c-0.441,1.221-0.974,2.411-1.488,3.587c-0.519,1.166-1.035,2.324-1.546,3.472c-1.039,2.275-2.034,4.482-3.087,6.583
				c-2.209,4.18-4.295,8.011-6.281,11.373c-2.088,3.337-3.978,6.23-5.569,8.604c-0.398,0.59-0.777,1.151-1.135,1.682
				c-0.383,0.517-0.744,1.005-1.082,1.461c-0.677,0.897-1.26,1.669-1.736,2.3c-0.956,1.233-1.484,1.913-1.484,1.913
				s-0.033-0.857-0.093-2.41c-0.023-0.779-0.051-1.731-0.083-2.839c-0.013-0.554-0.027-1.146-0.042-1.775
				c-0.036-0.636-0.075-1.308-0.115-2.014c-0.156-2.825-0.319-6.192-0.453-9.937c-0.236-3.772-0.541-7.945-0.745-12.337
				c-0.172-2.215-0.348-4.488-0.527-6.801c-0.078-1.158-0.157-2.326-0.236-3.501c-0.075-1.176-0.125-2.357-0.257-3.559
				c-0.224-2.397-0.423-4.818-0.591-7.25c-0.092-1.217-0.142-2.432-0.245-3.655c-0.111-1.227-0.221-2.453-0.332-3.677
				c-0.202-2.451-0.365-4.898-0.481-7.329c-0.207-2.438-0.393-4.863-0.506-7.26c-0.059-1.199-0.103-2.391-0.132-3.575
				c-0.014-1.184-0.13-2.363-0.164-3.531c-0.099-2.337-0.132-4.638-0.087-6.894c0.096-18.029,0.551-29.814,3.151-37.613
				c2.325-7.742,6.625-11.445,11.853-12.37c5.229-0.926,10.414,1.114,15.096,8.672c0.292,0.472,0.584,0.965,0.87,1.481
				c0.266,0.518,0.528,1.058,0.788,1.621c0.519,1.126,1.025,2.342,1.517,3.653c0.492,1.311,0.97,2.717,1.432,4.221
				c0.464,1.504,0.926,3.106,1.257,4.819c0.706,3.421,1.379,7.252,1.858,11.521c0.181,2.136,0.334,4.381,0.455,6.736
				c0.052,1.179,0.104,2.385,0.158,3.617c0.02,0.617,0.041,1.241,0.061,1.871C31.926,377.552,31.917,378.19,31.908,378.835z"/>
			<path style="fill:none;stroke:#FDFFFF;stroke-linecap:round;stroke-linejoin:round;stroke-miterlimit:10;" d="M9.523,335.714
				c9.215,61.439-2.137,125.81-32.056,180.297"/>
			<path style="fill:none;stroke:#FFFFFF;stroke-linecap:round;stroke-linejoin:round;stroke-miterlimit:10;" d="M5.355,442.266
				l3.559-4.11c1.161-1.389,2.262-2.805,3.4-4.228l3.396-4.313c1.131-1.452,2.294-2.913,3.339-4.407"/>
			<path style="fill:none;stroke:#FFFFFF;stroke-linecap:round;stroke-linejoin:round;stroke-miterlimit:10;" d="M7.544,431.792
				l-2.525-4.866L3.75,424.53l-1.359-2.385c-1.819-3.164-3.647-6.261-5.482-9.292"/>
			<path style="fill:none;stroke:#FFFFFF;stroke-linecap:round;stroke-linejoin:round;stroke-miterlimit:10;" d="M10.597,412.413
				c2.817-3.12,5.644-6.327,8.477-9.622c2.77-3.3,5.408-6.7,8.124-10.183"/>
			<path style="fill:none;stroke:#FFFFFF;stroke-linecap:round;stroke-linejoin:round;stroke-miterlimit:10;" d="M11.918,398.405
				c-2.429-3.552-4.802-7.01-7.291-10.381c-2.564-3.374-5.13-6.655-7.693-9.844"/>
			<path style="fill:none;stroke:#FFFFFF;stroke-linecap:round;stroke-linejoin:round;stroke-miterlimit:10;" d="M12.684,378.207
				c1.108-1.352,2.089-2.719,3.124-4.102l3.07-4.192c2.04-2.824,4.13-5.71,6.003-8.649"/>
			<path style="fill:none;stroke:#FFFFFF;stroke-linecap:round;stroke-linejoin:round;stroke-miterlimit:10;" d="M12.543,370.082
				l-3.2-4.131c-1.044-1.363-2.229-2.703-3.335-4.032c-2.249-2.656-4.494-5.249-6.731-7.781"/>
		</g>
		<g style="clip-path:url(#SVGID_00000179605313316739625680000014077482868761973895_);">
			<path style="fill:#FFB000;" d="M88.208,404.101c-1.997,1.813-4.084,3.604-6.248,5.372c-1.07,0.897-2.209,1.734-3.274,2.664
				c-1.077,0.917-2.17,1.828-3.279,2.733c-2.214,1.813-4.499,3.592-6.807,5.365c-2.233,1.847-4.509,3.668-6.811,5.46l-3.471,2.665
				c-1.148,0.894-2.248,1.826-3.379,2.724c-2.249,1.808-4.507,3.582-6.756,5.315c-1.143,0.851-2.205,1.757-3.281,2.638
				c-1.078,0.877-2.148,1.747-3.208,2.609c-2.134,1.706-4.228,3.379-6.264,5.005c-3.936,3.35-7.743,6.432-11.145,9.248
				c-3.304,2.884-6.295,5.435-8.814,7.556c-0.631,0.529-1.231,1.032-1.798,1.508c-0.545,0.489-1.059,0.95-1.539,1.381
				c-0.964,0.856-1.792,1.592-2.469,2.192c-1.36,1.188-2.108,1.841-2.108,1.841s0.251-0.964,0.707-2.717
				c0.24-0.884,0.535-1.966,0.877-3.225c0.178-0.633,0.368-1.311,0.57-2.031c0.231-0.707,0.476-1.456,0.733-2.242
				c1.04-3.154,2.335-6.953,3.879-11.253c1.641-4.231,3.626-8.897,5.821-13.929c1.145-2.48,2.424-4.988,3.728-7.587
				c0.666-1.299,1.338-2.61,2.016-3.932c0.689-1.323,1.374-2.673,2.154-3.968c1.522-2.62,3.104-5.279,4.74-7.954
				c0.825-1.332,1.635-2.693,2.509-4.01l2.705-3.911c1.828-2.606,3.704-5.206,5.62-7.777c1.991-2.498,4.043-4.947,6.114-7.354
				c1.037-1.202,2.081-2.392,3.131-3.565c1.038-1.186,2.175-2.26,3.266-3.367c2.205-2.191,4.429-4.306,6.658-6.324
				c0.559-0.503,1.112-1,1.658-1.492c0.568-0.467,1.13-0.929,1.686-1.386c1.12-0.903,2.215-1.786,3.286-2.649
				c2.152-1.712,4.227-3.316,6.227-4.815c4.082-2.897,7.916-5.307,11.41-7.39c1.733-1.061,3.464-1.93,5.11-2.725
				c1.645-0.797,3.213-1.508,4.708-2.138c1.495-0.63,2.916-1.178,4.267-1.648c0.675-0.235,1.333-0.451,1.973-0.648
				c0.653-0.178,1.291-0.334,1.91-0.475c9.917-2.247,15.323-0.003,18.101,4.523c2.778,4.526,2.42,10.48-3.021,18.116
				C114.824,380.412,104.367,389.828,88.208,404.101z"/>
			<path style="fill:none;stroke:#FDFFFF;stroke-linecap:round;stroke-linejoin:round;stroke-miterlimit:10;" d="M116.091,358.91
				c-61.479,39.9-110.053,99.409-136.58,167.771"/>
			<path style="fill:none;stroke:#FFFFFF;stroke-linecap:round;stroke-linejoin:round;stroke-miterlimit:10;" d="M24.523,445.257
				l5.343-2.979c1.799-0.963,3.647-1.87,5.456-2.792l5.422-2.717c1.802-0.893,3.568-1.798,5.432-2.606"/>
			<path style="fill:none;stroke:#FFFFFF;stroke-linecap:round;stroke-linejoin:round;stroke-miterlimit:10;" d="M32.207,435.241
				l0.596-6.162l0.321-3.109l0.413-3.065c0.565-4.095,1.173-8.238,1.826-12.429"/>
			<path style="fill:none;stroke:#FFFFFF;stroke-linecap:round;stroke-linejoin:round;stroke-miterlimit:10;" d="M47.155,417.572
				c4.614-1.286,9.171-2.508,13.668-3.672c4.548-1.113,9.149-2.056,13.624-3.002"/>
			<path style="fill:none;stroke:#FFFFFF;stroke-linecap:round;stroke-linejoin:round;stroke-miterlimit:10;" d="M58.615,405.563
				c0.987-4.626,1.988-9.366,3.142-14.072c1.214-4.644,2.493-9.347,3.84-14.106"/>
			<path style="fill:none;stroke:#FFFFFF;stroke-linecap:round;stroke-linejoin:round;stroke-miterlimit:10;" d="M75.984,389.224
				c1.861-0.302,3.805-0.486,5.698-0.707l5.67-0.607c3.762-0.381,7.442-0.773,11.224-0.942"/>
			<path style="fill:none;stroke:#FFFFFF;stroke-linecap:round;stroke-linejoin:round;stroke-miterlimit:10;" d="M83.305,383.035
				l1.913-5.637c0.633-1.908,1.379-3.699,2.082-5.568c1.431-3.706,2.91-7.448,4.437-11.224"/>
		</g>
		<g style="clip-path:url(#SVGID_00000179605313316739625680000014077482868761973895_);">
			<path style="fill:#FFB000;" d="M660.079,429.451c11.8,2.214,23.87,7.665,34.319,15.008c10.497,7.301,19.43,16.246,26.13,24.93
				c6.735,8.686,11.349,16.949,14.179,23.02c0.354,0.751,0.69,1.466,1.008,2.141c0.295,0.69,0.573,1.34,0.833,1.948
				c0.51,1.214,0.93,2.255,1.264,3.103c0.326,0.848,0.579,1.505,0.751,1.95c0.156,0.455,0.238,0.694,0.238,0.694
				s-0.247-0.024-0.72-0.069c-0.477-0.038-1.182-0.094-2.091-0.167c-0.899-0.077-1.999-0.172-3.28-0.282
				c-0.633-0.057-1.311-0.118-2.03-0.182c-0.725-0.05-1.491-0.103-2.297-0.158c-6.378-0.518-15.162-0.956-24.652-1.131
				c-9.506-0.205-19.754-0.004-29.451-0.013c-9.719-0.059-18.941-0.156-27.085-1.7c-8.161-1.531-14.814-3.137-20.378-5.19
				c-1.391-0.55-2.711-1.058-3.968-1.625c-1.257-0.556-2.452-1.217-3.584-1.82c-1.132-0.615-2.205-1.277-3.222-1.983
				c-0.508-0.353-1.003-0.716-1.484-1.09c-0.479-0.356-0.945-0.72-1.397-1.096c-1.808-1.498-3.407-3.187-4.801-4.969
				c-1.391-1.758-2.584-3.663-3.583-5.69c-2-4.053-3.227-8.59-3.715-13.417c-0.489-4.827-0.196-9.49,1.349-13.838
				c0.772-2.174,1.858-4.269,3.314-6.263c1.457-1.97,3.285-3.783,5.534-5.485c0.562-0.424,1.151-0.84,1.766-1.245
				c0.615-0.387,1.257-0.764,1.927-1.131c1.34-0.734,2.79-1.427,4.355-2.074c1.566-0.66,3.241-1.17,5.038-1.683
				c1.797-0.502,3.713-0.962,5.742-1.27C638.208,427.296,648.281,427.241,660.079,429.451z"/>
			<path style="fill:none;stroke:#FDFFFF;stroke-width:2;stroke-linecap:round;stroke-linejoin:round;stroke-miterlimit:10;" d="
				M608.479,461.085c16.278-0.978,32.677,0.288,48.643,3.586c15.97,3.29,31.521,8.583,46.208,15.66
				c14.686,7.078,28.516,15.944,41.027,26.401c12.505,10.456,23.709,22.501,33.025,35.888"/>
			<path style="fill:none;stroke:#FFFFFF;stroke-width:2;stroke-linecap:round;stroke-linejoin:round;stroke-miterlimit:10;" d="
				M716.407,487.223c-2.668-8.707-6.073-17.368-10.153-26.023"/>
			<path style="fill:none;stroke:#FFFFFF;stroke-width:2;stroke-linecap:round;stroke-linejoin:round;stroke-miterlimit:10;" d="
				M706.521,481.884c-9.177,4.653-17.755,9.778-25.766,15.508"/>
			<path style="fill:none;stroke:#FFFFFF;stroke-width:2;stroke-linecap:round;stroke-linejoin:round;stroke-miterlimit:10;" d="
				M687.68,473.579c-3.501-11.078-8.086-22.06-13.739-32.924"/>
			<path style="fill:none;stroke:#FFFFFF;stroke-width:2;stroke-linecap:round;stroke-linejoin:round;stroke-miterlimit:10;" d="
				M673.687,468.849c-9.519,7.177-18.155,14.956-25.814,23.339"/>
			<path style="fill:none;stroke:#FFFFFF;stroke-width:2;stroke-linecap:round;stroke-linejoin:round;stroke-miterlimit:10;" d="
				M653.063,463.886c-1.044-2.189-2.148-4.285-3.287-6.429c-1.143-2.123-2.319-4.306-3.554-6.396
				c-2.467-4.195-5.1-8.455-7.932-12.548"/>
			<path style="fill:none;stroke:#FFFFFF;stroke-width:2;stroke-linecap:round;stroke-linejoin:round;stroke-miterlimit:10;" d="
				M644.641,462.529c-6.942,6.67-13.218,13.745-18.763,21.037"/>
		</g>
		<g style="clip-path:url(#SVGID_00000179605313316739625680000014077482868761973895_);">
			<path style="fill:#FFB000;" d="M745.57,382.171c0.04,2.06,0.011,4.162-0.08,6.297c-0.031,1.067-0.137,2.145-0.15,3.226
				c-0.027,1.082-0.067,2.171-0.121,3.266c-0.104,2.19-0.273,4.404-0.463,6.632c-0.105,2.221-0.254,4.456-0.439,6.695
				c-0.101,1.118-0.202,2.238-0.303,3.359c-0.094,1.117-0.14,2.227-0.224,3.339c-0.154,2.221-0.336,4.433-0.54,6.622
				c-0.121,1.098-0.167,2.177-0.235,3.251c-0.072,1.074-0.144,2.14-0.215,3.198c-0.164,2.113-0.325,4.189-0.482,6.212
				c-0.186,4.012-0.465,7.824-0.681,11.27c-0.123,3.421-0.271,6.497-0.414,9.078c-0.037,0.645-0.072,1.259-0.106,1.84
				c-0.014,0.574-0.027,1.116-0.039,1.621c-0.03,1.011-0.055,1.882-0.076,2.593c-0.055,1.419-0.085,2.202-0.085,2.202
				s-0.482-0.622-1.355-1.748c-0.435-0.576-0.967-1.281-1.586-2.101c-0.308-0.417-0.638-0.862-0.988-1.335
				c-0.327-0.485-0.674-0.998-1.037-1.537c-1.453-2.169-3.18-4.812-5.087-7.86c-1.814-3.071-3.72-6.571-5.738-10.389
				c-0.962-1.919-1.87-3.935-2.82-6.013c-0.467-1.049-0.938-2.107-1.412-3.172c-0.469-1.074-0.956-2.161-1.359-3.276
				c-0.844-2.224-1.679-4.506-2.492-6.831c-0.399-1.164-0.824-2.334-1.186-3.521c-0.339-1.198-0.679-2.395-1.017-3.59
				c-0.662-2.409-1.291-4.845-1.876-7.292c-0.501-2.454-0.934-4.922-1.326-7.38c-0.194-1.229-0.375-2.457-0.542-3.68
				c-0.18-1.223-0.239-2.446-0.34-3.66c-0.175-2.429-0.288-4.831-0.33-7.187c-0.008-0.589-0.017-1.171-0.025-1.747
				c0.019-0.576,0.037-1.146,0.056-1.709c0.049-1.126,0.097-2.227,0.144-3.304c0.111-2.152,0.25-4.202,0.415-6.154
				c0.437-3.899,1.052-7.398,1.697-10.524c0.303-1.564,0.724-3.028,1.149-4.402c0.422-1.374,0.859-2.658,1.308-3.856
				c0.449-1.198,0.912-2.309,1.386-3.337c0.237-0.514,0.477-1.008,0.719-1.481c0.261-0.471,0.528-0.922,0.795-1.353
				c4.277-6.904,9.013-8.767,13.79-7.922c4.776,0.845,8.704,4.228,10.828,11.3C745.067,354.936,745.482,365.702,745.57,382.171z"/>
			<path style="fill:none;stroke:#FDFFFF;stroke-linecap:round;stroke-linejoin:round;stroke-miterlimit:10;" d="M730.877,342.909
				c-8.418,56.124,1.952,114.926,29.282,164.699"/>
			<path style="fill:none;stroke:#FFFFFF;stroke-linecap:round;stroke-linejoin:round;stroke-miterlimit:10;" d="M734.685,440.244
				l1.292-4.713c0.459-1.564,0.978-3.128,1.467-4.672l1.497-4.601c0.504-1.522,0.983-3.026,1.572-4.537"/>
			<path style="fill:none;stroke:#FFFFFF;stroke-linecap:round;stroke-linejoin:round;stroke-miterlimit:10;" d="M732.686,430.676
				l-3.777-3.384l-1.894-1.726l-1.82-1.762c-2.424-2.366-4.856-4.792-7.295-7.281"/>
			<path style="fill:none;stroke:#FFFFFF;stroke-linecap:round;stroke-linejoin:round;stroke-miterlimit:10;" d="M729.896,412.974
				c1.932-3.394,3.873-6.708,5.82-9.942c2.005-3.238,4.141-6.406,6.208-9.488"/>
			<path style="fill:none;stroke:#FFFFFF;stroke-linecap:round;stroke-linejoin:round;stroke-miterlimit:10;" d="M728.69,400.177
				c-2.564-2.901-5.192-5.883-7.717-8.953c-2.456-3.073-4.914-6.231-7.369-9.473"/>
			<path style="fill:none;stroke:#FFFFFF;stroke-linecap:round;stroke-linejoin:round;stroke-miterlimit:10;" d="M727.99,381.727
				c0.918-1.239,1.951-2.464,2.935-3.675l2.981-3.592c1.991-2.367,3.932-4.682,6.062-6.932"/>
			<path style="fill:none;stroke:#FFFFFF;stroke-linecap:round;stroke-linejoin:round;stroke-miterlimit:10;" d="M728.119,374.305
				l-2.738-4.01c-0.932-1.351-1.734-2.711-2.606-4.089c-1.71-2.753-3.417-5.563-5.117-8.429"/>
		</g>
		<g style="clip-path:url(#SVGID_00000179605313316739625680000014077482868761973895_);">
			<path style="fill:#FFB000;" d="M690.422,390.149c2.037,1.843,4.068,3.776,6.082,5.777c0.996,1.012,2.035,1.993,2.983,3.076
				c0.96,1.072,1.913,2.158,2.861,3.257c1.891,2.199,3.766,4.436,5.585,6.718c1.75,2.349,3.464,4.724,5.134,7.105l2.471,3.573
				c0.799,1.203,1.539,2.446,2.292,3.663c1.495,2.444,2.94,4.873,4.33,7.266c0.712,1.182,1.339,2.416,1.968,3.624
				c0.619,1.207,1.233,2.405,1.841,3.591c1.191,2.374,2.36,4.666,3.406,6.931c2.005,4.597,3.818,8.859,5.318,12.724
				c1.411,3.928,2.593,7.399,3.543,10.28c0.235,0.719,0.458,1.402,0.669,2.048c0.184,0.657,0.358,1.276,0.52,1.855
				c0.313,1.15,0.582,2.139,0.801,2.946c0.417,1.602,0.646,2.482,0.646,2.482s-0.683-0.597-1.926-1.682
				c-0.618-0.549-1.375-1.221-2.255-2.003c-0.438-0.393-0.908-0.814-1.406-1.261c-0.518-0.435-1.066-0.894-1.643-1.378
				c-2.301-1.937-5.034-4.268-8.052-6.902c-3.108-2.572-6.586-5.388-10.181-8.448c-1.86-1.486-3.772-3.014-5.722-4.572
				c-0.968-0.787-1.945-1.582-2.93-2.383c-0.983-0.804-1.953-1.632-2.997-2.41c-2.055-1.583-4.117-3.203-6.171-4.855
				c-1.033-0.82-2.038-1.672-3.087-2.489l-3.171-2.434c-2.103-1.637-4.182-3.3-6.222-4.988c-2.108-1.62-4.195-3.245-6.218-4.901
				c-1.013-0.827-2.012-1.659-2.995-2.497c-0.973-0.849-2.013-1.614-2.991-2.434c-1.977-1.615-3.884-3.252-5.708-4.907
				c-14.76-13.038-24.313-21.64-29.133-28.865c-4.97-6.975-5.296-12.415-2.759-16.549c2.537-4.134,7.476-6.184,16.535-4.132
				c0.566,0.129,1.148,0.272,1.745,0.434c0.585,0.18,1.186,0.377,1.802,0.592c1.234,0.43,2.532,0.93,3.898,1.506
				c1.365,0.575,2.798,1.225,4.301,1.953c1.504,0.726,3.085,1.52,4.668,2.489c3.191,1.903,6.694,4.104,10.422,6.751
				c1.826,1.37,3.722,2.835,5.688,4.398c0.978,0.789,1.979,1.595,3.002,2.42c0.508,0.418,1.021,0.839,1.54,1.266
				C689.406,389.235,689.911,389.69,690.422,390.149z"/>
			<path style="fill:none;stroke:#FDFFFF;stroke-linecap:round;stroke-linejoin:round;stroke-miterlimit:10;" d="M641.727,375.241
				c56.16,36.448,100.532,90.809,124.764,153.257"/>
			<path style="fill:none;stroke:#FFFFFF;stroke-linecap:round;stroke-linejoin:round;stroke-miterlimit:10;" d="M725.374,454.118
				l-1.191-5.54c-0.428-1.838-0.917-3.645-1.384-5.484l-1.445-5.529c-0.492-1.85-0.968-3.73-1.549-5.538"/>
			<path style="fill:none;stroke:#FFFFFF;stroke-linecap:round;stroke-linejoin:round;stroke-miterlimit:10;" d="M718.355,444.969
				l-5.321-1.715l-2.639-0.832l-2.694-0.757c-3.586-0.995-7.134-1.946-10.641-2.853"/>
			<path style="fill:none;stroke:#FFFFFF;stroke-linecap:round;stroke-linejoin:round;stroke-miterlimit:10;" d="M704.7,428.828
				c-0.854-4.223-1.761-8.504-2.722-12.839c-1.008-4.289-2.174-8.534-3.341-12.885"/>
			<path style="fill:none;stroke:#FFFFFF;stroke-linecap:round;stroke-linejoin:round;stroke-miterlimit:10;" d="M694.231,417.858
				c-4.3-0.842-8.498-1.674-12.718-2.366c-4.273-0.635-8.486-1.215-12.636-1.745"/>
			<path style="fill:none;stroke:#FFFFFF;stroke-linecap:round;stroke-linejoin:round;stroke-miterlimit:10;" d="M678.365,402.932
				c-0.427-1.726-0.95-3.362-1.447-5.049l-1.543-5.059c-1.053-3.384-2.112-6.845-3.352-10.166"/>
			<path style="fill:none;stroke:#FFFFFF;stroke-linecap:round;stroke-linejoin:round;stroke-miterlimit:10;" d="M671.677,397.279
				l-5.303-0.738c-1.743-0.255-3.567-0.387-5.33-0.574c-3.55-0.344-7.056-0.654-10.518-0.934"/>
		</g>
	</g>
	
		<line style="fill:none;stroke:#FFFFFF;stroke-width:2;stroke-linecap:round;stroke-linejoin:round;stroke-miterlimit:10;" x1="543.625" y1="190.252" x2="476.319" y2="147.674"/>
	<g>
		<path style="fill:#F4D6A6;" d="M656.054,306.234c-0.196-2.027-3.247-9.424-3.247-9.424s-3.682-32.044-7.477-41.675
			c-3.49-8.855-14.071-38.53-14.071-38.53s-6.169-6.322-9.815-4.631c-3.733,1.731-2.175,4.785-1.375,7.706
			c1.532,5.592,3.149,7.865,5.181,13.296c0.959,2.563,10.804,25.115,10.804,25.115s-0.86,14.456,12.378,39.77
			c-1.755,3.178-2.473,4.066-2.719,7.688c-0.068,1-0.346,4.849,0.995,5.155c0.219,0.05,0.455-0.055,0.598-0.227
			c1.111-1.337,0.193-2.617,1.089-4.707c-0.102,0.988,0.957,4.074,1.725,6.85c0.967,3.492-0.5,6.47,0.452,6.901
			c0.978,0.443,1.965-0.3,2.831-1.675c0.193,0.131,0.51,0.173,0.991-0.281c0.886-0.837,1.694-5.358,1.684-9.102
			c0-0.001,0-0.002,0-0.003C656.124,307.669,656.12,306.916,656.054,306.234z"/>
		<path style="fill:#091B2B;" d="M631.077,248.593c-5.217-8.446-12.515-25.103-13.144-28.663c-1.099-6.224,2.941-8.499,4.697-9.031
			c2.578-0.781,7.169,0.435,8.447,2.807c4.347,8.067,9.064,22.217,10.125,30.208C639.119,246.189,634.797,248.967,631.077,248.593z"
			/>
	</g>
	<path style="fill:#F41C2C;" d="M620.753,258.948h-0.927c-1.069-8.618-3.89-36.571,3.217-45.264c1.34-1.639,4.299-2.981,6.191-3.086
		c0.248-0.036,0.467,0.178,0.481,0.43c0.014,0.252-0.178,0.467-0.43,0.481c-1.649,0.092-4.348,1.3-5.535,2.752
		C616.935,222.599,619.735,250.576,620.753,258.948z"/>
	<path style="fill:#D8AF75;" d="M620.732,185.839c0,0-1.519,0.48-1.759,2.852v1.359c0,0,0.818,0.426,1.022,0.853
		c0.204,0.426,0,1.226,0,1.226h0.244c0,0,1.272-2.372,1.216-2.772c-0.057-0.4-1.46-0.116-1.46-0.116v-0.312
		c0,0,1.15-0.051,1.463-0.291C621.772,188.398,621.505,186.239,620.732,185.839z"/>
</g>
</svg>
